<svg width="200" height="60" viewBox="0 0 200 60" fill="none" xmlns="http://www.w3.org/2000/svg">
<path fill-rule="evenodd" clip-rule="evenodd" d="M123.961 46.9243C112.418 55.4485 95.6323 60.0002 81.1991 60.0002C60.9622 60.0002 42.7415 52.5169 28.9591 40.0659C27.8764 39.0867 28.8456 37.7532 30.1453 38.5135C45.0204 47.1711 63.4122 52.3756 82.4091 52.3756C95.2223 52.3756 109.317 49.7246 122.278 44.2235C124.236 43.3916 125.872 45.5052 123.957 46.9263M128.77 41.4252C127.297 39.5345 119.018 40.5336 115.272 40.9755C114.138 41.1148 113.964 40.1256 114.985 39.4151C121.593 34.7619 132.44 36.1053 133.708 37.6637C134.975 39.222 133.379 50.1027 127.168 55.2933C126.212 56.0894 125.305 55.6655 125.729 54.6086C127.122 51.1257 130.251 43.3219 128.77 41.4252Z" fill="#F8EF00" fill-opacity="0.55"/>
<path fill-rule="evenodd" clip-rule="evenodd" d="M115.533 6.5698V2.04797C115.529 1.89656 115.556 1.74591 115.612 1.6052C115.668 1.4645 115.752 1.3367 115.859 1.2296C115.966 1.12251 116.094 1.03836 116.235 0.982303C116.375 0.926248 116.526 0.89946 116.677 0.903572H136.922C137.571 0.903572 138.092 1.37128 138.092 2.04797V5.91899C138.084 6.56781 137.535 7.41765 136.568 8.76106L126.079 23.7397C129.98 23.6441 134.092 24.2253 137.627 26.2175C138.423 26.6673 138.622 27.3261 138.701 27.9769V32.8032C138.701 33.46 137.973 34.2322 137.209 33.8342C130.979 30.5702 122.706 30.2119 115.819 33.868C115.117 34.2501 114.381 33.4859 114.381 32.8291V28.2456C114.381 27.5092 114.388 26.2553 115.125 25.1348L127.279 7.70424H116.721C116.072 7.70424 115.551 7.24649 115.551 6.5698M41.6769 34.7875H35.519C34.9299 34.7437 34.4642 34.3019 34.4184 33.7386V2.12558C34.4184 1.49269 34.9478 0.991144 35.6046 0.991144H41.3485C41.9455 1.01702 42.4232 1.47676 42.467 2.04597V6.17772H42.5804C44.0791 2.1833 46.8953 0.320432 50.6887 0.320432C54.5438 0.320432 56.952 2.1833 58.6855 6.17772C60.1782 2.1833 63.5616 0.320432 67.1938 0.320432C69.7752 0.320432 72.5993 1.38521 74.3229 3.77749C76.2733 6.43646 75.8753 10.3015 75.8753 13.6889L75.8613 33.6431C75.8613 34.276 75.3319 34.7875 74.6751 34.7875H68.5054C67.9083 34.7437 67.3968 34.2501 67.3968 33.6431V16.8653C67.3968 15.5319 67.5162 12.2042 67.2237 10.9404C66.7659 8.81878 65.3867 8.21972 63.6014 8.21972C62.1087 8.21972 60.5524 9.21484 59.9195 10.811C59.2866 12.4072 59.3483 15.0741 59.3483 16.8673V33.6252C59.3483 34.2581 58.8189 34.7696 58.1621 34.7696H51.9923C51.3694 34.7258 50.8837 34.2322 50.8837 33.6252L50.8758 16.8673C50.8758 13.3406 51.4569 8.15006 47.0804 8.15006C42.6541 8.15006 42.8272 13.2093 42.8272 16.8673V33.6252C42.8272 34.2581 42.2978 34.7696 41.641 34.7696M155.523 0.346302C164.662 0.346302 169.61 8.19583 169.61 18.1749C169.61 27.8177 164.143 35.4662 155.523 35.4662C146.567 35.4662 141.661 27.6166 141.661 17.8366C141.661 7.99482 146.609 0.322421 155.523 0.322421M155.575 6.77679C151.037 6.77679 150.748 12.9625 150.748 16.8176C150.748 20.6727 150.689 28.9282 155.521 28.9282C160.294 28.9282 160.52 22.2748 160.52 18.2207C160.52 15.5538 160.407 12.3634 159.605 9.8338C158.912 7.63259 157.535 6.7748 155.577 6.7748M181.464 34.7875H175.33C174.733 34.7437 174.221 34.2501 174.221 33.6431L174.213 2.02209C174.265 1.44094 174.777 0.991144 175.399 0.991144H181.111C181.649 1.01702 182.091 1.38123 182.212 1.87481V6.71111H182.326C184.049 2.38829 186.465 0.326403 190.72 0.326403C193.507 0.326403 196.178 1.32153 197.911 4.05214C199.503 6.57975 199.503 10.8349 199.503 13.8939V33.7964C199.434 34.3536 198.922 34.7915 198.317 34.7915H192.151C191.588 34.7477 191.12 34.3337 191.061 33.7964V16.6265C191.061 13.1695 191.459 8.10826 187.206 8.10826C185.707 8.10826 184.33 9.11333 183.623 10.6359C182.757 12.5664 182.644 14.491 182.644 16.6225V33.6471C182.636 34.28 182.099 34.7915 181.44 34.7915M99.392 19.6656C99.392 22.0659 99.4517 24.0442 98.2376 26.1976C97.2585 27.9291 95.7001 28.9959 93.9745 28.9959C91.6101 28.9959 90.2229 27.1947 90.2229 24.5338C90.2229 19.2835 94.9279 18.3302 99.388 18.3302V19.6636M105.598 34.678C105.19 35.0423 104.602 35.0681 104.145 34.8253C102.101 33.1276 101.729 32.3375 100.61 30.7194C97.2306 34.1665 94.8323 35.1975 90.4558 35.1975C85.2672 35.1975 81.237 32.0012 81.237 25.5985C81.237 20.599 83.9397 17.1957 87.8048 15.5319C91.1484 14.0591 95.8175 13.8004 99.388 13.3924V12.5963C99.388 11.1314 99.5015 9.39993 98.6317 8.13413C97.8874 6.99969 96.4484 6.53199 95.1747 6.53199C92.8262 6.53199 90.7364 7.73608 90.2269 10.2338C90.1234 10.7911 89.7154 11.3344 89.1522 11.3603L83.1814 10.7195C82.6799 10.606 82.1167 10.202 82.2659 9.4258C83.6352 2.18131 90.1871 0 96.0384 0C99.0357 0 102.953 0.7961 105.317 3.06498C108.314 5.86327 108.028 9.59696 108.028 13.661V23.26C108.028 26.1459 109.222 27.4097 110.35 28.972C110.74 29.5293 110.828 30.194 110.324 30.61L105.615 34.7178L105.608 34.6979M18.6418 19.6855C18.6418 22.0858 18.7015 24.0641 17.4874 26.2175C16.5082 27.949 14.9598 29.0158 13.2243 29.0158C10.8599 29.0158 9.48265 27.2146 9.48265 24.5537C9.48265 19.3034 14.1876 18.3501 18.6378 18.3501V19.6835M24.8473 34.6979C24.4394 35.0622 23.8522 35.088 23.3945 34.8452C21.3505 33.1475 21.0062 32.3574 19.8598 30.7393C16.4804 34.1864 14.0881 35.2174 9.70556 35.2174C4.52694 35.2194 0.490723 32.0231 0.490723 25.6224C0.490723 20.6229 3.20144 17.2196 7.05853 15.5558C10.4021 14.083 15.0713 13.8242 18.6418 13.4162V12.6201C18.6418 11.1553 18.7552 9.42381 17.8974 8.15802C17.1411 7.02358 15.7081 6.55587 14.4404 6.55587C12.0919 6.55587 9.99613 7.75997 9.46474 10.2577C9.36125 10.815 8.95325 11.3583 8.39996 11.3842L2.42126 10.7433C1.91972 10.6299 1.36643 10.2259 1.50575 9.44969C2.883 2.20519 9.42693 0.023885 15.2782 0.023885C18.2756 0.023885 22.1924 0.819981 24.5568 3.08886C27.5541 5.88715 27.2675 9.62085 27.2675 13.6849V23.2839C27.2675 26.1697 28.4616 27.4335 29.5901 28.9959C29.9882 29.5532 30.0757 30.2179 29.5702 30.6339L24.8732 34.7178L24.8533 34.6979" fill="#FFFDBF" fill-opacity="0.55"/>
</svg>
