<svg width="80" height="77" viewBox="0 0 80 77" fill="none" xmlns="http://www.w3.org/2000/svg">
<path d="M25.875 20.9028C25.875 20.2468 26.4375 19.7101 27.125 19.7101H49.5469C50.2344 19.7101 50.7969 20.2468 50.7969 20.9028C50.7969 21.5588 50.2344 22.0956 49.5469 22.0956H27.125C26.4375 22.0956 25.875 21.5737 25.875 20.9028ZM72.75 60.9792H7.15625V33.3521H68.8125C69.5 33.3521 70.0625 32.8154 70.0625 32.1594V28.4022C70.0625 27.7462 69.5 27.2095 68.8125 27.2095H7.15625V22.0956H21.625C22.3125 22.0956 22.875 21.5588 22.875 20.9028V14.5067C22.875 13.8507 22.3125 13.314 21.625 13.314C20.9375 13.314 20.375 13.8507 20.375 14.5067V19.7101H5.90625C5.21875 19.7101 4.65625 20.2468 4.65625 20.9028V28.4022C4.65625 29.0582 5.21875 29.595 5.90625 29.595H67.5625V30.9666H5.90625C5.21875 30.9666 4.65625 31.5034 4.65625 32.1594V62.1719C4.65625 62.8279 5.21875 63.3647 5.90625 63.3647H72.7344C73.4219 63.3647 73.9844 62.8279 73.9844 62.1719C73.9844 61.5159 73.4375 60.9792 72.75 60.9792ZM72.75 19.7101H56.2969V14.5067C56.2969 13.8507 55.7344 13.314 55.0469 13.314C54.3594 13.314 53.7969 13.8507 53.7969 14.5067V20.9028C53.7969 21.5588 54.3594 22.0956 55.0469 22.0956H71.4844V56.9536C71.4844 57.6097 72.0469 58.1464 72.7344 58.1464C73.4219 58.1464 73.9844 57.6097 73.9844 56.9536V20.9028C74 20.2468 73.4375 19.7101 72.75 19.7101ZM33.4375 49.7226C32.75 49.7226 32.1875 50.2593 32.1875 50.9154V54.6725C32.1875 55.3285 32.75 55.8653 33.4375 55.8653H45.2344C45.9219 55.8653 46.4844 55.3285 46.4844 54.6725V50.9154C46.4844 50.2593 45.9219 49.7226 45.2344 49.7226H41.2969C40.6094 49.7226 40.0469 50.2593 40.0469 50.9154C40.0469 51.5714 40.6094 52.1081 41.2969 52.1081H43.9844V53.4798H34.6875V52.1081H37.375C38.0625 52.1081 38.625 51.5714 38.625 50.9154V39.6588C38.625 39.137 38.2656 38.6748 37.75 38.5257C37.2344 38.3617 36.6719 38.5555 36.3437 38.973L32.4062 44.2658C32 44.8025 32.1406 45.548 32.7031 45.9356C33.2656 46.3233 34.0469 46.1891 34.4531 45.6524L36.1094 43.4159V49.7226H33.4375Z" fill="white"/>
<path d="M77.5313 56.9537C77.5313 57.6097 76.9688 58.1464 76.2813 58.1464H67.3125C66.625 58.1464 66.0625 57.6097 66.0625 56.9537C66.0625 56.2977 66.625 55.761 67.3125 55.761H76.2813C76.9844 55.761 77.5313 56.2828 77.5313 56.9537ZM23.625 68.5681H7.48438C6.79688 68.5681 6.23438 69.1048 6.23438 69.7608C6.23438 70.4168 6.79688 70.9536 7.48438 70.9536H23.625C24.3125 70.9536 24.875 70.4168 24.875 69.7608C24.875 69.1048 24.3125 68.5681 23.625 68.5681ZM30.5625 69.7608C30.5625 70.5063 29.9219 71.1027 29.1563 71.1027C28.3906 71.1027 27.75 70.4914 27.75 69.7608C27.75 69.0303 28.3906 68.419 29.1563 68.419C29.9219 68.419 30.5625 69.0154 30.5625 69.7608ZM35.25 69.7608C35.25 70.5063 34.6094 71.1027 33.8438 71.1027C33.0781 71.1027 32.4375 70.4914 32.4375 69.7608C32.4375 69.0303 33.0781 68.419 33.8438 68.419C34.6094 68.419 35.25 69.0154 35.25 69.7608ZM39.9375 69.7608C39.9375 70.5063 39.2969 71.1027 38.5313 71.1027C37.7656 71.1027 37.125 70.4914 37.125 69.7608C37.125 69.0303 37.7656 68.419 38.5313 68.419C39.2969 68.419 39.9375 69.0154 39.9375 69.7608ZM63.2031 9.07978C66.375 9.07978 68.9531 6.61974 68.9531 3.59314C68.9531 2.93713 68.3906 2.40039 67.7031 2.40039C67.0156 2.40039 66.4531 2.93713 66.4531 3.59314C66.4531 5.2928 65 6.69428 63.2031 6.69428C62.5156 6.69428 61.9531 7.23102 61.9531 7.88703C61.9531 8.54304 62.5156 9.07978 63.2031 9.07978ZM75.5156 9.07978C76.2031 9.07978 76.7656 8.54304 76.7656 7.88703C76.7656 7.23102 76.2031 6.69428 75.5156 6.69428C73.7344 6.69428 72.2656 5.30771 72.2656 3.59314C72.2656 2.93713 71.7031 2.40039 71.0156 2.40039C70.3281 2.40039 69.7656 2.93713 69.7656 3.59314C69.7656 6.63465 72.3438 9.07978 75.5156 9.07978ZM71.0156 16.5345C71.7031 16.5345 72.2656 15.9977 72.2656 15.3417C72.2656 13.642 73.7188 12.2406 75.5156 12.2406C76.2031 12.2406 76.7656 11.7038 76.7656 11.0478C76.7656 10.3918 76.2031 9.85507 75.5156 9.85507C72.3438 9.85507 69.7656 12.3151 69.7656 15.3417C69.7656 16.0126 70.3281 16.5345 71.0156 16.5345ZM67.7031 16.5345C68.3906 16.5345 68.9531 15.9977 68.9531 15.3417C68.9531 12.3151 66.375 9.85507 63.2031 9.85507C62.5156 9.85507 61.9531 10.3918 61.9531 11.0478C61.9531 11.7038 62.5156 12.2406 63.2031 12.2406C64.9844 12.2406 66.4531 13.6271 66.4531 15.3417C66.4531 16.0126 67.0156 16.5345 67.7031 16.5345ZM9.40625 9.54197V11.8976C9.40625 12.5537 9.96875 13.0904 10.6562 13.0904C11.3438 13.0904 11.9062 12.5537 11.9062 11.8976V9.54197H14.375C15.0625 9.54197 15.625 9.00523 15.625 8.34922C15.625 7.69321 15.0625 7.15647 14.375 7.15647H11.9062V4.8008C11.9062 4.14478 11.3438 3.60805 10.6562 3.60805C9.96875 3.60805 9.40625 4.14478 9.40625 4.8008V7.15647H6.9375C6.25 7.15647 5.6875 7.69321 5.6875 8.34922C5.6875 9.00523 6.25 9.54197 6.9375 9.54197H9.40625ZM76.875 69.9099C76.875 72.0867 75.0313 73.846 72.75 73.846C70.4688 73.846 68.625 72.0867 68.625 69.9099C68.625 67.7332 70.4688 65.9739 72.75 65.9739C75.0313 65.9739 76.875 67.7481 76.875 69.9099ZM74.375 69.9099C74.375 69.0601 73.6406 68.3594 72.75 68.3594C71.8594 68.3594 71.125 69.0601 71.125 69.9099C71.125 70.7598 71.8594 71.4605 72.75 71.4605C73.6406 71.4605 74.375 70.7598 74.375 69.9099Z" fill="white"/>
<path d="M33.9219 6.42602V3.17578H43.0156V6.42602H33.9219ZM56.2344 6.42602V3.17578H47.1406V6.42602H56.2344Z" fill="#FFFDBF"/>
<path d="M20.7188 6.42602V3.17578H29.8125V6.42602H20.7188Z" fill="#FFEA00"/>
</svg>
