<svg width="249" height="49" viewBox="0 0 249 49" fill="none" xmlns="http://www.w3.org/2000/svg">
<path opacity="0.6" d="M19.899 7.75861C16.9642 7.75861 16.1316 9.06002 16.1316 11.9265V16.6634H23.9351L23.1684 24.3302H16.1316V47.5749H6.79462V24.3302H0.463379V16.6634H6.76288V12.0608C6.76288 4.32563 9.8638 0.257812 18.5659 0.257812C20.4338 0.257812 22.6679 0.392107 24.001 0.592323V7.79524M24.5382 33.0714C24.5382 41.7075 28.6402 48.1755 37.1763 48.1755C41.8447 48.1755 44.7796 45.8413 46.0786 42.8771V47.5456H55.0493V16.6585H46.0786V21.3953C44.7113 18.4287 41.8789 15.9944 37.1763 15.9944C28.6304 15.9944 24.5382 22.4965 24.5382 31.0985M33.9093 30.9642C33.9093 26.3617 35.6087 23.2974 39.9451 23.2974C43.7785 23.2974 45.7148 26.098 45.7148 30.5003V33.6012C45.7148 38.0035 43.781 40.8041 39.9451 40.8041C35.6112 40.8041 33.9093 37.7691 33.9093 33.1373V30.9642ZM74.524 15.9919C63.5805 15.9968 58.575 21.8959 58.575 31.3671V32.8003C58.575 42.2691 63.5756 48.1731 74.5484 48.1731C78.2109 48.1731 81.6171 47.4064 83.5191 46.105L81.451 39.4685C79.5002 40.391 77.3728 40.8799 75.215 40.9018C70.1461 40.9018 67.9462 37.9669 67.9462 32.9981V31.1986C67.9462 26.1981 70.1437 23.2949 75.215 23.2949C77.6567 23.2949 80.0178 23.9957 81.451 24.7282L83.5191 18.0917C81.6195 16.7586 78.1841 15.9919 74.5484 15.9919M84.718 33.2643C84.718 42.3351 89.1203 48.2366 100.923 48.2366C105.392 48.2366 110.46 47.2697 112.927 45.9658L111.227 39.5296C108.492 40.6967 104.791 41.3974 101.29 41.3974C96.0888 41.3974 94.2209 39.5296 94.0207 35.2933H113.693V30.3611C113.693 21.8153 109.494 15.9553 99.888 15.9553C89.6819 15.9553 84.7155 21.7249 84.7155 30.493V33.2838M94.0525 29.2502C94.0525 25.0822 95.6884 22.4477 99.9125 22.4477C104.014 22.4477 105.348 25.1164 105.348 28.4835V29.2502H94.0525ZM148.372 31.118C148.372 22.4819 144.204 16.0139 135.668 16.0139C131.334 16.0139 128.333 18.2114 126.966 20.9461V0.306647L117.629 1.13681V47.5285H126.468V42.86C127.769 45.8266 131.002 48.1951 135.673 48.1951C144.219 48.1951 148.377 41.6929 148.377 33.0909M139.04 33.2252C139.04 37.5592 137.341 40.8285 132.873 40.8285C129.039 40.8285 126.971 38.0939 126.971 33.6916V30.4563C126.971 26.054 129.039 23.3194 132.873 23.3194C137.341 23.3194 139.04 26.5546 139.04 30.9227V33.2252ZM151.512 32.8589C151.512 41.7613 156.581 48.1633 166.885 48.1633C177.189 48.1633 182.258 41.7271 182.258 32.8589V31.2914C182.258 22.3891 177.189 15.987 166.885 15.987C156.581 15.987 151.512 22.4233 151.512 31.2914V32.8589ZM172.921 33.4938C172.921 37.5958 171.221 40.8285 166.885 40.8285C162.549 40.8285 160.849 37.5933 160.849 33.4938V30.6273C160.849 26.5253 162.549 23.2925 166.885 23.2925C171.221 23.2925 172.921 26.5277 172.921 30.6273V33.4938ZM185.359 32.8589C185.359 41.7613 190.427 48.1633 200.731 48.1633C211.035 48.1633 216.104 41.7271 216.104 32.8589V31.2914C216.104 22.3891 211.035 15.987 200.731 15.987C190.427 15.987 185.359 22.4233 185.359 31.2914V32.8589ZM206.796 33.4938C206.796 37.5958 205.097 40.8285 200.761 40.8285C196.424 40.8285 194.722 37.6544 194.722 33.5035V30.637C194.722 26.535 196.422 23.3023 200.758 23.3023C205.095 23.3023 206.794 26.5375 206.794 30.637L206.796 33.4938ZM228.972 0.28223L219.635 1.1124V47.4455H228.972V32.3413L238.575 47.4455H248.512L238.443 31.8188L248.112 16.5828H238.174L228.969 31.3207" fill="#FFFDBF"/>
</svg>
