<svg width="299" height="98" viewBox="0 0 299 98" fill="none" xmlns="http://www.w3.org/2000/svg">
<path d="M73.4327 34.5801H38.5854V44.9202H63.3014C62.0767 59.3935 50.0165 65.6059 38.6271 65.6059C35.019 65.6218 31.4439 64.9187 28.1104 63.5377C24.777 62.1567 21.7521 60.1255 19.2123 57.5627C16.6726 54.9998 14.6688 51.9567 13.318 48.6109C11.9672 45.2652 11.2964 41.6838 11.3449 38.076C11.3449 22.4225 23.4635 10.3707 38.6605 10.3707C50.3839 10.3707 57.2921 17.844 57.2921 17.844L64.5288 10.3456C64.5288 10.3456 55.2325 0 38.282 0C16.6972 0 0 18.2169 0 37.8923C0 57.1724 15.7064 75.9739 38.8275 75.9739C59.1653 75.9739 74.0534 62.0405 74.0534 41.4383C74.0534 37.0907 73.4216 34.5801 73.4216 34.5801H73.4327Z" fill="#FFFDBF" fill-opacity="0.55"/>
<path d="M101.981 27.0907C87.6799 27.0907 77.4316 38.2713 77.4316 51.3057C77.4316 64.5376 87.3681 75.9243 102.148 75.9243C115.524 75.9243 126.482 65.7011 126.482 51.5896C126.482 35.4462 113.735 27.0879 101.981 27.0879V27.0907ZM102.12 36.682C109.151 36.682 115.814 42.3684 115.814 51.5283C115.814 60.4907 109.178 66.3412 102.086 66.3412C94.2931 66.3412 88.1697 60.101 88.1697 51.456C88.1697 42.9946 94.2374 36.682 102.142 36.682H102.12Z" fill="#F8EF00" fill-opacity="0.55"/>
<path d="M155.368 27.0907C141.068 27.0907 130.819 38.2713 130.819 51.3057C130.819 64.5376 140.756 75.9243 155.535 75.9243C168.912 75.9243 179.87 65.7011 179.87 51.5896C179.87 35.4462 167.122 27.0879 155.368 27.0879V27.0907ZM155.507 36.682C162.538 36.682 169.202 42.3684 169.202 51.5283C169.202 60.4907 162.566 66.3412 155.474 66.3412C147.681 66.3412 141.557 60.101 141.557 51.456C141.557 42.9946 147.625 36.682 155.53 36.682H155.507Z" fill="#FFFDBF" fill-opacity="0.55"/>
<path d="M207.731 27.1191C194.605 27.1191 184.29 38.6143 184.29 51.5178C184.29 66.2138 196.25 75.9611 207.503 75.9611C214.461 75.9611 218.163 73.1972 220.863 70.027V74.8422C220.863 83.2673 215.747 88.3135 208.026 88.3135C200.567 88.3135 196.826 82.7663 195.501 79.6212L186.116 83.5178C189.445 90.5597 196.147 97.8993 208.104 97.8993C221.186 97.8993 231.1 89.6801 231.1 72.4402V28.586H220.902V32.722C217.757 29.3263 213.448 27.1191 207.737 27.1191H207.731ZM208.678 36.6938C215.113 36.6938 221.72 42.1881 221.72 51.5707C221.72 61.1092 215.124 66.3641 208.536 66.3641C201.538 66.3641 195.028 60.6861 195.028 51.6598C195.028 42.2855 201.792 36.6938 208.678 36.6938Z" fill="#F8EF00" fill-opacity="0.55"/>
<path d="M276.679 27.0605C264.299 27.0605 253.903 36.9136 253.903 51.4426C253.903 66.8233 265.49 75.9442 277.84 75.9442C288.172 75.9442 294.54 70.2941 298.297 65.2284L289.856 59.6116C287.665 63.0073 284.002 66.3334 277.893 66.3334C271.029 66.3334 267.873 62.5759 265.916 58.9297L298.657 45.347L296.987 41.3669C293.825 33.5736 286.443 27.0605 276.679 27.0605ZM277.105 36.4515C281.567 36.4515 284.776 38.8229 286.14 41.6675L264.274 50.8052C263.328 43.7299 270.036 36.4515 277.077 36.4515H277.105Z" fill="#F8EF00" fill-opacity="0.55"/>
<path d="M238.27 74.497H249.025V2.52832H238.27V74.497Z" fill="#FFFDBF" fill-opacity="0.55"/>
</svg>
