<svg width="116" height="111" viewBox="0 0 116 111" fill="none" xmlns="http://www.w3.org/2000/svg">
<path d="M101.708 5.93872H105.419V9.48034H101.708V5.93872Z" fill="#F8EF00"/>
<path d="M85.6616 20.5157H89.3732V24.0573H85.6616V20.5157ZM94.8049 14.2314V24.8131H104.537V14.2314H94.8049Z" fill="#F8EF00"/>
<path d="M108.723 5.93872H112.435V30.6437H108.723V5.93872ZM99.6706 68.349V77.9805H109.018V68.349H99.6706ZM108.995 92.1038V82.4723H99.6479V92.1038H108.995Z" fill="#F8EF00"/>
<path d="M34.9661 101.411C34.9661 102.362 34.1513 103.139 33.1555 103.139H10.2748C9.27895 103.139 8.46421 102.362 8.46421 101.411C8.46421 100.461 9.27895 99.6838 10.2748 99.6838H33.1555C34.1513 99.6838 34.9661 100.461 34.9661 101.411ZM16.6117 77.5055V78.3477H15.729C14.7332 78.3477 13.9185 79.1251 13.9185 80.0753C13.9185 81.0255 14.7332 81.8029 15.729 81.8029H16.6117V82.6452C16.6117 83.5953 17.4264 84.3728 18.4222 84.3728C19.418 84.3728 20.2328 83.5953 20.2328 82.6452V81.8029H21.1154C22.1112 81.8029 22.926 81.0255 22.926 80.0753C22.926 79.1251 22.1112 78.3477 21.1154 78.3477H20.2328V77.5055C20.2328 76.5553 19.418 75.7779 18.4222 75.7779C17.4264 75.7779 16.6117 76.5553 16.6117 77.5055ZM84.6203 9.35082C84.6203 8.40063 83.8056 7.6232 82.8098 7.6232H73.0781C72.0823 7.6232 71.2675 8.40063 71.2675 9.35082C71.2675 10.301 72.0823 11.0784 73.0781 11.0784H82.8098C83.8056 11.0784 84.6203 10.3226 84.6203 9.35082ZM8.82632 30.5358C8.82632 31.486 9.64106 32.2634 10.6369 32.2634C11.6327 32.2634 12.4474 31.486 12.4474 30.5358V27.1237H16.0232C17.019 27.1237 17.8338 26.3463 17.8338 25.3961C17.8338 24.4459 17.019 23.6685 16.0232 23.6685H12.4474V20.2564C12.4474 19.3062 11.6327 18.5288 10.6369 18.5288C9.64106 18.5288 8.82632 19.3062 8.82632 20.2564V23.6685H5.25049C4.25469 23.6685 3.43994 24.4459 3.43994 25.3961C3.43994 26.3463 4.25469 27.1237 5.25049 27.1237H8.82632V30.5358ZM8.39631 9.35082C8.39631 8.16308 9.39211 7.21289 10.6369 7.21289C11.8816 7.21289 12.8774 8.16308 12.8774 9.35082C12.8774 10.5386 11.8816 11.4888 10.6369 11.4888C9.39211 11.4888 8.39631 10.5386 8.39631 9.35082ZM20.9117 9.35082C20.9117 8.16308 21.9075 7.21289 23.1523 7.21289C24.397 7.21289 25.3928 8.16308 25.3928 9.35082C25.3928 10.5386 24.397 11.4888 23.1523 11.4888C21.9302 11.4888 20.9117 10.5386 20.9117 9.35082ZM37.9309 9.35082C37.9309 10.5386 36.9351 11.4888 35.6903 11.4888C34.4456 11.4888 33.4498 10.5386 33.4498 9.35082C33.4498 8.16308 34.4456 7.21289 35.6903 7.21289C36.9351 7.21289 37.9309 8.18468 37.9309 9.35082ZM109.199 96.8548H99.4668C98.471 96.8548 97.6563 97.6323 97.6563 98.5825C97.6563 99.5326 98.471 100.31 99.4668 100.31H109.199C110.194 100.31 111.009 99.5326 111.009 98.5825C111.009 97.6323 110.194 96.8548 109.199 96.8548ZM102.975 103.333H81.9271C80.9313 103.333 80.1166 104.111 80.1166 105.061C80.1166 106.011 80.9313 106.789 81.9271 106.789H102.975C103.971 106.789 104.785 106.011 104.785 105.061C104.785 104.111 103.971 103.333 102.975 103.333Z" fill="white"/>
<path d="M58.8881 97.1788C58.2318 97.1788 57.6208 96.8549 57.2813 96.2718L54.4976 91.2617C54.0223 90.4195 54.3618 89.3829 55.2444 88.9294C56.1271 88.4759 57.2134 88.7999 57.6887 89.6421L59.635 93.1189L61.0608 92.3847L59.1145 88.9079C58.8203 88.368 58.8429 87.6985 59.1824 87.1802C59.5218 86.6619 59.7029 86.0573 59.7029 85.4526C59.7029 83.7034 58.2092 82.2349 56.3986 82.1917C55.7423 82.1701 55.1765 81.8246 54.8597 81.2847L44.2906 62.3673L41.2579 63.9005C40.3753 64.354 39.289 64.0301 38.8137 63.1879C38.3384 62.3457 38.6779 61.3091 39.5606 60.8556L44.1775 58.5017C45.0601 58.0482 46.1464 58.3722 46.6217 59.2144L57.5981 78.8661C60.8797 79.4491 63.324 82.1917 63.324 85.4742C63.324 86.3812 63.1429 87.2666 62.7582 88.1088L65.1119 92.3199C65.3382 92.7302 65.3835 93.2053 65.2477 93.6372C65.1119 94.0691 64.7951 94.4362 64.3651 94.6522L59.7255 96.9629C59.4539 97.0925 59.1597 97.1788 58.8881 97.1788ZM76.0431 84.9991C75.5904 84.9991 75.1378 84.8479 74.7983 84.524C74.0741 83.8762 74.0515 82.7748 74.7304 82.0838L103.699 52.8869L103.292 52.3687C92.3154 38.159 74.7304 29.6936 56.2402 29.6936C37.7726 29.6936 20.1877 38.1806 9.18863 52.3687L8.78126 52.8869L37.7953 82.0838C38.4742 82.7748 38.4516 83.8762 37.7274 84.524C37.0032 85.1719 35.8489 85.1503 35.17 84.4592L5.13754 54.2043C4.52648 53.5996 4.48121 52.671 5.00175 51.9799L6.31439 50.2955C17.9698 35.222 36.6637 26.2168 56.2855 26.2168C75.9073 26.2168 94.5786 35.222 106.234 50.2955L107.547 51.9799C108.067 52.6494 107.999 53.578 107.411 54.2043L77.3557 84.4592C76.9936 84.8263 76.5183 84.9991 76.0431 84.9991ZM31.7752 48.6327C31.1189 48.6327 30.5078 48.3088 30.1683 47.7257L26.5246 41.1823C26.0494 40.3401 26.3888 39.3035 27.2715 38.85C28.1541 38.3965 29.2404 38.7205 29.7157 39.5627L33.3594 46.106C33.8347 46.9483 33.4952 47.9848 32.6126 48.4383C32.3636 48.5679 32.0694 48.6327 31.7752 48.6327ZM76.111 46.2788C75.8168 46.2788 75.5225 46.214 75.251 46.0844C74.3683 45.6309 74.0288 44.5944 74.5041 43.7522L78.1478 37.2088C78.6231 36.3666 79.7094 36.0426 80.5921 36.4961C81.4747 36.9496 81.8142 37.9862 81.3389 38.8284L77.6952 45.3718C77.3784 45.9549 76.7673 46.2788 76.111 46.2788ZM53.6376 42.1757C52.6418 42.1757 51.827 41.3983 51.827 40.4481V33.0193C51.827 32.0691 52.6418 31.2917 53.6376 31.2917C54.6334 31.2917 55.4481 32.0691 55.4481 33.0193V40.4481C55.4481 41.3983 54.6334 42.1757 53.6376 42.1757Z" fill="white"/>
</svg>
