<svg width="20" height="17" viewBox="0 0 20 17" fill="none" xmlns="http://www.w3.org/2000/svg">
<path fill-rule="evenodd" clip-rule="evenodd" d="M0.750181 6.27755H16.7188C16.9186 6.27755 17.1018 6.36081 17.2517 6.51067L19.7827 9.10828C20.2489 9.59117 19.9159 10.4071 19.2498 10.4071H3.28118C3.08137 10.4071 2.8982 10.3238 2.74834 10.174L0.217339 7.57636C-0.248899 7.09347 0.0841278 6.27755 0.750181 6.27755ZM0.217339 2.83073L2.74834 0.233119C2.88155 0.0832569 3.08137 0 3.28118 0H19.2332C19.8992 0 20.2322 0.815916 19.766 1.2988L17.2517 3.89641C17.1184 4.04628 16.9186 4.12953 16.7188 4.12953H0.750181C0.0841278 4.12953 -0.248899 3.31362 0.217339 2.83073ZM19.766 13.8373L17.235 16.4349C17.0851 16.5847 16.902 16.668 16.7022 16.668H0.750181C0.0841278 16.668 -0.248899 15.8521 0.217339 15.3692L2.74834 12.7716C2.88155 12.6217 3.08137 12.5385 3.28118 12.5385H19.2332C19.8992 12.5385 20.2322 13.3544 19.766 13.8373Z" fill="#F8EF00"/>
</svg>
