<svg width="21" height="19" viewBox="0 0 21 19" fill="none" xmlns="http://www.w3.org/2000/svg">
<path d="M20.9905 0.81479C21.0105 0.694554 20.9988 0.571184 20.9564 0.456886C20.9141 0.342588 20.8426 0.241324 20.7492 0.163114C20.6557 0.0849037 20.5434 0.0324585 20.4234 0.0109674C20.3034 -0.0105236 20.1799 -0.000315637 20.0651 0.0405812L0.464891 7.04066C0.335694 7.08673 0.22288 7.16974 0.140461 7.27939C0.0580419 7.38903 0.00965098 7.52047 0.00129913 7.65738C-0.00705272 7.79429 0.0250025 7.93064 0.093483 8.04949C0.161964 8.16833 0.263851 8.26444 0.38649 8.32588L5.98655 11.1259C6.09692 11.1811 6.21992 11.2062 6.3431 11.1986C6.46628 11.191 6.58525 11.1509 6.68796 11.0825L11.336 7.98287L8.55418 11.4633C8.49365 11.5391 8.44951 11.6266 8.42457 11.7203C8.39963 11.814 8.39443 11.9119 8.4093 12.0077C8.42418 12.1035 8.4588 12.1952 8.51097 12.2769C8.56314 12.3587 8.63173 12.4287 8.71239 12.4825L17.1125 18.0826C17.2098 18.1473 17.3217 18.1866 17.438 18.1969C17.5544 18.2073 17.6714 18.1883 17.7786 18.1419C17.8858 18.0954 17.9796 18.0228 18.0515 17.9308C18.1235 17.8388 18.1712 17.7302 18.1905 17.615L20.9905 0.81479Z" fill="#FFFDBF"/>
</svg>
