<svg width="199" height="61" viewBox="0 0 199 61" fill="none" xmlns="http://www.w3.org/2000/svg">
<path d="M177.896 36.0239V47.2855H181.508V39.7819H194.652V47.2855H198.261V36.0434L177.896 36.0239ZM181.106 32.381H194.993C196.922 31.9976 198.356 30.2954 198.76 28.6488H177.339C177.739 30.296 179.189 31.9976 181.106 32.381ZM166.959 47.2927C168.78 46.5208 169.76 45.1855 170.136 43.6231H153.936L153.946 28.658L150.315 28.6683V47.2927H166.958M123.314 32.3307H136.139C138.072 31.7689 139.695 30.2955 140.096 28.6632H119.723V39.6693H136.398V43.5317L123.318 43.5419C121.268 44.1134 119.53 45.4949 118.663 47.3076L119.723 47.2881H139.98V36.01H123.318V32.3302M91.6537 32.3661H105.53C107.462 31.9807 108.897 30.2806 109.3 28.6323H87.8834C88.2833 30.2806 89.7398 31.9812 91.6527 32.3661M91.6532 39.7269H105.53C107.461 39.3466 108.896 37.6439 109.299 35.9946H87.8834C88.2833 37.6392 89.7403 39.3455 91.6532 39.7269ZM91.6532 47.2907H105.53C107.461 46.9068 108.896 45.2051 109.299 43.5579H87.8834C88.2833 45.2056 89.7403 46.9068 91.6532 47.2907ZM55.5376 28.6775C55.9549 30.3052 57.3642 31.9689 59.2976 32.3857H65.1361L65.4342 32.5039V47.2542H69.0832V32.5039L69.4147 32.3857H75.2634C77.2185 31.882 78.5974 30.3052 79.0075 28.6775V28.6416H55.5376V28.6775Z" fill="#A9AA80"/>
<path d="M30.6339 61L39.2051 12.7987C47.3737 12.7987 49.9518 13.6937 50.3225 17.3483C50.3225 17.3483 55.8026 15.2888 58.5661 11.1549C47.7819 6.15598 36.9415 5.91259 36.9415 5.91259L30.617 13.6151H30.632L24.3075 5.91259C24.3075 5.91259 13.4484 6.13726 2.68294 11.1549C5.44452 15.3057 10.9265 17.3483 10.9265 17.3483C11.3009 13.6918 13.8734 12.795 21.9728 12.7894L30.6301 61M30.6282 3.70894C39.3473 3.64154 49.3265 5.05696 59.5434 9.51294C60.9101 7.05466 61.2602 5.96875 61.2602 5.96875C50.0922 1.55023 39.6357 0.0374451 30.6301 0C21.6433 0.0374451 11.1661 1.55023 0 5.96875C0 5.96875 0.49802 7.30742 1.71499 9.51294C11.93 5.06071 21.911 3.64528 30.6301 3.70894" fill="#A9AA80"/>
</svg>
