<svg width="253" height="75" viewBox="0 0 253 75" fill="none" xmlns="http://www.w3.org/2000/svg">
<path d="M195.545 0.1517H251.704V14.8261H250.693L250.248 5.78479H213.461V35.131H244.721L245.611 28.3121H246.946C246.501 34.5368 246.501 40.6149 246.946 46.8396H245.611L244.721 39.7249H213.435V70.1102H251.499L251.651 60.0324H252.839V75H195.426V72.9268H202.867V2.96572H195.426L195.545 0.1517ZM116.07 0H121.051L144.943 57.3599L168.507 0H173.369L186.668 72.3301H193.399V74.555H166.869V72.3301H173.776L165.418 26.0872L144.382 74.555H139.563L118.634 26.0872L109.886 72.3301H116.318L116.166 74.555H96.7637V72.3301H102.723L116.07 0ZM68.0775 0.1517H93.5983V2.22492H86.2662V72.3352H93.5983V74.5601H68.0775V72.3352H75.4146V2.22492H68.0193L68.0775 0.1517ZM0.0151688 0.1517H64.9171V14.9727H63.9057V5.48645H38.3141V72.3352H45.7727V74.5601H20.3024V72.3352H27.1491V5.48645H1.18831V14.9727H0L0.0151688 0.1517Z" fill="#FFFDBF" fill-opacity="0.55"/>
</svg>
