<svg width="20" height="20" viewBox="0 0 20 20" fill="none" xmlns="http://www.w3.org/2000/svg">
<path fill-rule="evenodd" clip-rule="evenodd" d="M7.4985 18.663C7.4985 18.9797 7.24847 19.1464 6.94843 19.063C4.93102 18.4177 3.17084 17.1481 1.92193 15.4373C0.673023 13.7266 0 11.6633 0 9.54519C0 7.42709 0.673023 5.36377 1.92193 3.65304C3.17084 1.94231 4.93102 0.672668 6.94843 0.0273621C7.24847 -0.0726501 7.4985 0.110706 7.4985 0.427411V1.19417C7.4985 1.41086 7.33181 1.64423 7.13178 1.7109C3.94806 2.87771 1.66445 5.94475 1.66445 9.52852C1.66445 13.1123 3.94806 16.1793 7.13178 17.3461C7.33181 17.4128 7.4985 17.6628 7.4985 17.8629V18.6463V18.663Z" fill="#F8EF00"/>
<path fill-rule="evenodd" clip-rule="evenodd" d="M10.8322 15.7965C10.8322 16.0298 10.6489 16.2132 10.4155 16.2132H9.58209C9.34872 16.2132 9.16537 16.0298 9.16537 15.7965V14.4797C7.34848 14.2296 6.46504 13.2128 6.21501 11.8293C6.165 11.596 6.36503 11.3793 6.59839 11.3793H7.5485C7.74853 11.3793 7.91522 11.5126 7.94855 11.7127C8.13191 12.5461 8.59863 13.1628 10.0655 13.1628C11.1489 13.1628 11.899 12.5628 11.899 11.6626C11.899 10.7625 11.449 10.4292 9.86545 10.1625C7.53184 9.84576 6.4317 9.14567 6.4317 7.31212C6.4317 5.89528 7.4985 4.81181 9.1487 4.56178V3.27829C9.1487 3.04493 9.33205 2.86157 9.56542 2.86157H10.3989C10.6322 2.86157 10.8156 3.04493 10.8156 3.27829V4.61179C12.1657 4.84515 13.0158 5.61191 13.2825 6.87873C13.3325 7.11209 13.1492 7.34545 12.8992 7.34545H12.0157C11.8324 7.34545 11.6657 7.2121 11.6157 7.04542C11.3823 6.24532 10.7989 5.89528 9.81545 5.89528C8.71531 5.89528 8.14858 6.42867 8.14858 7.17877C8.14858 7.96219 8.46528 8.36224 10.1655 8.61227C12.4491 8.92898 13.6326 9.57906 13.6326 11.5293C13.6326 13.0128 12.5324 14.213 10.8156 14.4797V15.7965H10.8322Z" fill="#F8EF00"/>
<path fill-rule="evenodd" clip-rule="evenodd" d="M13.0491 19.0631C12.7491 19.1631 12.499 18.9798 12.499 18.6631V17.8963C12.499 17.663 12.6324 17.4463 12.8657 17.3796C16.0495 16.2128 18.3331 13.1457 18.3331 9.56197C18.3331 5.9782 16.0495 2.91116 12.8657 1.74435C12.7626 1.70085 12.6736 1.62944 12.6089 1.53816C12.5441 1.44688 12.506 1.33933 12.499 1.22762V0.460858C12.499 0.144153 12.7491 -0.0392028 13.0491 0.0608094C17.0829 1.3443 19.9999 5.1281 19.9999 9.57864C19.9999 14.0292 17.0829 17.7963 13.0491 19.0965V19.0631Z" fill="#F8EF00"/>
</svg>
