<svg width="116" height="114" viewBox="0 0 116 114" fill="none" xmlns="http://www.w3.org/2000/svg">
<path d="M104.74 9.79076C104.74 10.7632 103.925 11.5589 102.93 11.5589H102.047V12.4208C102.047 13.3933 101.232 14.1889 100.236 14.1889C99.2406 14.1889 98.4258 13.3933 98.4258 12.4208V11.5589H97.5432C96.5474 11.5589 95.7326 10.7632 95.7326 9.79076C95.7326 8.8183 96.5474 8.02264 97.5432 8.02264H98.4258V7.16069C98.4258 6.18823 99.2406 5.39258 100.236 5.39258C101.232 5.39258 102.047 6.18823 102.047 7.16069V8.02264H102.93C103.925 8.02264 104.74 8.79619 104.74 9.79076ZM36.6183 6.91757H8.21533C7.21953 6.91757 6.40479 7.71323 6.40479 8.68569C6.40479 9.65815 7.21953 10.4538 8.21533 10.4538H36.6183C37.6141 10.4538 38.4288 9.65815 38.4288 8.68569C38.4288 7.71323 37.6141 6.91757 36.6183 6.91757Z" fill="#F8EF00"/>
<path d="M99.5801 107.126C99.5801 108.098 98.7654 108.894 97.7696 108.894H29.7383C23.7861 108.894 18.9429 103.612 18.9429 97.0916V31.8925C18.9429 25.3947 23.7861 20.0903 29.7383 20.0903H97.7696C98.7654 20.0903 99.5801 20.886 99.5801 21.8584C99.5801 22.8309 98.7654 23.6266 97.7696 23.6266H29.7383C25.7777 23.6266 22.564 27.3396 22.564 31.8925V97.0916C22.564 101.645 25.7777 105.358 29.7383 105.358H36.3015V37.5283C36.3015 36.5559 37.1162 35.7602 38.112 35.7602C39.1078 35.7602 39.9226 36.5559 39.9226 37.5283V105.358H97.7696C98.788 105.358 99.5801 106.131 99.5801 107.126ZM97.7696 30.3012H31.0056C30.0098 30.3012 29.1951 31.0968 29.1951 32.0693C29.1951 33.0418 30.0098 33.8374 31.0056 33.8374H95.959V100.783C95.959 101.755 96.7738 102.551 97.7696 102.551C98.7654 102.551 99.5801 101.755 99.5801 100.783V32.0693C99.5801 31.0968 98.788 30.3012 97.7696 30.3012ZM80.8636 81.0239V71.8297C79.7546 70.7467 79.0983 69.266 79.0983 67.6968C79.0983 64.4699 81.7689 61.862 85.0731 61.862C88.3774 61.862 91.0479 64.4699 91.0479 67.6968C91.0479 69.266 90.4142 70.7467 89.2826 71.8297V81.0239C89.2826 82.7478 87.8568 84.1623 86.0689 84.1623H84.0547C82.2894 84.1402 80.8636 82.7478 80.8636 81.0239ZM82.7194 67.6968C82.7194 68.4261 83.0815 69.1334 83.6926 69.5533C84.1678 69.8627 84.4847 70.4152 84.4847 71.012V80.604H85.6615V71.5645C85.4352 70.8131 85.7294 70.0174 86.3857 69.5975C87.0421 69.1776 87.4268 68.4482 87.4268 67.6968C87.4268 66.437 86.3631 65.3982 85.0731 65.3982C83.7831 65.3982 82.7194 66.4149 82.7194 67.6968Z" fill="white"/>
</svg>
