<svg width="675" height="226" viewBox="0 0 675 226" fill="none" xmlns="http://www.w3.org/2000/svg">
<g clip-path="url(#clip0_485_2083)">
<path d="M156.607 85.0489H171.089L183.819 126.458L197.681 84.917H209.29L223.142 126.458L235.88 85.0489H249.982L229.012 146.673H217.279L203.293 106.625L189.442 146.673H177.585L156.607 85.0489Z" fill="#231F20"/>
<path d="M271.458 85.0498H283.94L310.406 146.672H296.172L290.684 132.952H264.59L258.852 146.672H245.117L271.458 85.0498ZM285.692 121.1L277.579 101.26L269.334 121.1H285.692Z" fill="#231F20"/>
<path d="M325.138 97.8954H306.411V85.4238H357.466V97.8954H338.741V146.674H325.138V97.8954Z" fill="#231F20"/>
<path d="M367.707 85.4238H414.144V97.3994H381.186V109.871H410.277V121.849H381.186V134.698H414.64V146.674H367.707V85.4238Z" fill="#231F20"/>
<path d="M429.247 85.4238H457.332C465.197 85.4238 471.318 87.6691 475.31 91.6609C476.183 92.6582 476.93 93.6529 477.676 94.7768C478.307 95.7741 478.932 96.8954 479.428 98.146C479.803 99.394 480.175 100.637 480.426 101.882C480.55 103.138 480.676 104.383 480.55 105.628V105.879C480.676 106.876 480.55 107.998 480.426 109.003C480.302 110 480.175 110.995 479.803 111.992C479.555 112.989 479.18 113.987 478.806 114.865C478.31 115.863 477.803 116.736 477.18 117.607C476.558 118.48 475.932 119.227 475.186 119.971C474.439 120.728 473.685 121.474 472.811 122.1C472.065 122.722 471.194 123.221 470.197 123.717C469.315 124.092 468.318 124.588 467.324 124.838L482.304 146.674H466.577L453.34 127.089H442.726V146.674H429.249V85.4238H429.247ZM456.461 115.24C463.081 115.24 466.827 111.744 466.827 106.626V106.375C466.827 100.637 462.83 97.6474 456.216 97.6474H442.729V115.237L456.461 115.24Z" fill="#231F20"/>
<path d="M495.533 85.4238H509.147V134.447H537.976V146.674H495.533V85.4238Z" fill="#231F20"/>
<path d="M539.976 116.359V116.232C539.976 98.7686 553.83 84.5425 572.802 84.5425C591.904 84.5425 605.513 98.6446 605.513 115.981V116.232C605.513 133.571 591.653 147.792 572.678 147.792C553.703 147.792 539.976 133.698 539.976 116.359ZM591.281 116.359V116.232C591.281 115.612 591.281 114.987 591.281 114.356C591.155 113.733 591.155 113.111 591.031 112.488C590.907 111.865 590.78 111.24 590.656 110.617C590.405 109.997 590.281 109.496 590.033 108.874C589.783 108.246 589.529 107.744 589.279 107.122C589.028 106.626 588.659 106 588.408 105.504C588.033 105.006 587.661 104.507 587.284 104.011C586.91 103.515 586.537 103.014 586.039 102.634C585.656 102.135 585.158 101.76 584.662 101.388C584.166 100.89 583.664 100.515 583.168 100.265C582.67 99.8899 582.171 99.5179 581.54 99.2672C581.044 98.8926 580.543 98.6472 579.923 98.3966C579.3 98.1459 578.799 98.0219 578.177 97.7739C577.549 97.6499 576.923 97.3992 576.301 97.2752C575.805 97.1512 575.179 97.1512 574.557 97.0272C573.929 97.0272 573.303 96.8953 572.681 96.8953C561.695 96.8953 554.204 105.507 554.204 115.984V116.235C554.204 116.857 554.204 117.483 554.204 118.105C554.204 118.725 554.328 119.226 554.455 119.846C554.579 120.469 554.703 121.102 554.827 121.725C554.962 122.348 555.212 122.973 555.458 123.466C555.708 124.089 555.956 124.714 556.207 125.213C556.455 125.709 556.827 126.334 557.077 126.838C557.452 127.334 557.824 127.835 558.199 128.331C558.573 128.83 558.956 129.329 559.455 129.703C559.829 130.202 560.325 130.577 560.824 131.075C561.323 131.45 561.821 131.822 562.32 132.197C562.826 132.579 563.322 132.827 563.821 133.202C564.444 133.453 564.942 133.698 565.565 133.949C566.188 134.199 566.694 134.447 567.317 134.569C567.937 134.819 568.562 134.948 569.185 135.067C569.684 135.194 570.306 135.318 570.937 135.318C571.559 135.442 572.185 135.442 572.805 135.442C583.794 135.442 591.281 126.838 591.281 116.359Z" fill="#231F20"/>
<path d="M609.262 116.359V116.232C609.262 98.769 623.117 84.543 642.089 84.543C661.064 84.543 674.678 98.645 674.678 115.982V116.232C674.678 133.572 660.943 147.793 641.841 147.793C622.866 147.795 609.262 133.698 609.262 116.359ZM660.568 116.359V116.232C660.568 115.612 660.568 114.987 660.568 114.357C660.442 113.734 660.442 113.111 660.318 112.489C660.194 111.866 660.067 111.241 659.943 110.618C659.692 109.998 659.568 109.497 659.323 108.874C659.07 108.246 658.816 107.745 658.566 107.122C658.315 106.626 657.943 106.001 657.695 105.505C657.32 105.006 656.946 104.507 656.571 104.011C656.196 103.515 655.7 103.014 655.326 102.634C654.943 102.136 654.444 101.761 653.948 101.389C653.452 100.89 652.951 100.516 652.455 100.141C651.957 99.8904 651.458 99.5183 650.827 99.2677C650.331 98.8931 649.706 98.6477 649.207 98.397C648.587 98.1464 648.089 97.8984 647.466 97.7744C646.835 97.6504 646.21 97.3997 645.588 97.2757C644.967 97.1517 644.342 97.1517 643.846 97.0277C643.216 97.0277 642.59 96.8958 641.968 96.8958C630.981 96.8958 623.491 105.507 623.491 115.984V116.235C623.491 116.858 623.491 117.483 623.491 118.106C623.491 118.726 623.615 119.227 623.742 119.847C623.866 120.47 623.99 121.103 624.116 121.725C624.24 122.348 624.499 122.973 624.744 123.467C624.871 124.089 625.122 124.588 625.491 125.213C625.742 125.709 625.99 126.335 626.364 126.839C626.739 127.335 627.111 127.836 627.486 128.332C627.86 128.831 628.24 129.329 628.742 129.704C629.116 130.203 629.612 130.577 630.113 131.076C630.488 131.451 630.984 131.823 631.485 132.197C632.113 132.58 632.615 132.828 633.111 133.202C633.733 133.453 634.232 133.698 634.855 133.949C635.351 134.2 635.984 134.448 636.606 134.569C637.229 134.82 637.728 134.949 638.35 135.068C638.97 135.194 639.596 135.318 640.226 135.318C640.849 135.442 641.474 135.442 642.094 135.442C652.951 135.442 660.568 126.839 660.568 116.359Z" fill="#231F20"/>
<path d="M190.94 54.4816V38.3955H197.185V54.3576C197.185 58.9748 199.552 61.3493 203.295 61.3493C207.166 61.3493 209.414 58.9748 209.414 54.4816V38.3955H215.651V54.2336C215.651 62.8453 210.91 67.0798 203.293 67.0798C195.681 67.0798 190.94 62.8426 190.94 54.4816Z" fill="#231F20"/>
<path d="M232.263 38.3955H238.125L251.364 55.7349V38.3955H257.475V66.5812H252.235L238.373 48.6192V66.5812H232.263V38.3955Z" fill="#231F20"/>
<path d="M281.626 38.4238H275.27V66.5805H281.626V38.4238Z" fill="#231F20"/>
<path d="M296.802 38.395H303.66L311.153 58.225L318.519 38.395H325.26L313.775 66.8287H308.153L296.802 38.395Z" fill="#231F20"/>
<path d="M340.365 38.395H361.71V43.8828H346.479V49.6239H359.966V55.1038H346.479V60.9663H361.958V66.5807H340.365V38.395Z" fill="#231F20"/>
<path d="M390.673 52.1134C393.797 52.1134 395.541 50.4934 395.541 48.1163C395.541 45.3777 393.67 44.0057 390.549 44.0057H384.428V52.1108L390.673 52.1134ZM378.191 38.3939H391.048C392.544 38.2699 394.045 38.5179 395.541 39.0165C396.918 39.5126 398.164 40.2619 399.285 41.2592C400.158 42.1298 400.789 43.1271 401.161 44.259C401.659 45.2563 401.786 46.5016 401.786 47.6203C401.786 48.6176 401.659 49.6228 401.409 50.4934C401.158 51.3667 400.789 52.2374 400.155 53.1107C399.659 53.8574 399.034 54.4827 398.285 55.1027C397.414 55.7332 396.657 56.1079 395.662 56.3585L402.654 66.5822H395.288L389.299 57.4798H384.299V66.5822H378.062L378.191 38.3939Z" fill="#231F20"/>
<path d="M416.136 62.4693L419.882 58.1028C421.012 59.1001 422.378 59.9708 423.753 60.5934C425.254 61.0894 426.75 61.472 428.375 61.472C430.869 61.472 432.497 60.4668 432.497 58.8494C432.497 57.2321 431.494 56.4828 426.75 55.2296C421.012 53.8577 417.268 52.2377 417.268 46.6232C417.268 41.5101 421.508 38.1435 427.246 38.1435C429.125 38.0195 430.993 38.3942 432.869 38.8928C434.612 39.5128 436.24 40.3861 437.736 41.5075L434.491 46.2486C432.373 44.6313 429.874 43.634 427.125 43.5073C424.758 43.5073 423.505 44.5046 423.505 45.874C423.505 47.7446 424.634 48.3646 429.623 49.6204C435.364 51.1137 438.61 53.1084 438.61 58.1001C438.61 63.588 434.24 66.8279 428.127 66.8279C426.001 66.8279 423.885 66.4532 421.758 65.7066C419.756 64.9599 417.888 63.9626 416.136 62.4693Z" fill="#231F20"/>
<path d="M461.152 38.4243H454.923V66.581H461.152V38.4243Z" fill="#231F20"/>
<path d="M485.551 44.1313H476.934V38.3955H500.526V44.1313H491.914V66.5812H485.551V44.1313Z" fill="#231F20"/>
<path d="M523.871 55.4842L513.017 38.3955H520.381L527.117 49.7458L533.987 38.3955H541.103L530.116 55.3602V66.5812H523.871V55.4842Z" fill="#231F20"/>
<path d="M600.147 52.4857C600.147 51.9871 600.147 51.3644 600.021 50.8658C599.897 50.2458 599.772 49.7445 599.646 49.1139C599.395 48.6179 599.15 48.1166 598.775 47.6206C598.525 47.1246 598.153 46.7499 597.778 46.2486C597.403 45.874 596.897 45.502 596.401 45.1273C595.902 44.8767 595.406 44.6313 594.907 44.3807C594.411 44.13 593.91 44.006 593.279 43.882C592.657 43.758 592.158 43.634 591.536 43.634C591.037 43.634 590.412 43.758 589.916 43.882C589.285 44.0086 588.786 44.1327 588.288 44.3807C587.668 44.5047 587.166 44.8767 586.794 45.1273C586.298 45.502 585.797 45.874 585.417 46.2486C585.043 46.6233 584.67 47.1219 584.42 47.6206C584.045 48.1166 583.8 48.6179 583.673 49.1139C583.423 49.6205 583.299 50.2458 583.177 50.7418C583.051 51.3644 583.051 51.8631 583.051 52.4857C583.051 52.9817 583.051 53.607 583.177 54.2297C583.301 54.7257 583.425 55.227 583.673 55.8549C583.8 56.3536 584.048 56.8522 584.42 57.3482C584.67 57.8469 585.043 58.3455 585.541 58.7228C585.924 59.0975 586.298 59.4695 586.797 59.8441C587.293 60.0921 587.794 60.4641 588.29 60.5908C588.789 60.8388 589.412 61.0868 589.918 61.2134C590.541 61.2134 591.039 61.3454 591.662 61.3454C592.282 61.3454 592.783 61.3454 593.406 61.2134C593.91 61.0868 594.535 60.9628 595.031 60.7148C595.53 60.4641 596.029 60.2188 596.527 59.8441C597.023 59.5935 597.406 59.2215 597.905 58.7228C598.279 58.3455 598.651 57.9735 598.902 57.4749C599.276 56.9789 599.522 56.4776 599.646 55.8549C599.896 55.3589 600.021 54.8523 600.145 54.2297C600.269 53.7337 600.269 53.1084 600.269 52.4857H600.147ZM576.552 52.4857C576.552 51.6124 576.676 50.6178 576.803 49.6205C577.054 48.6152 577.299 47.7446 577.674 46.7473C578.048 45.874 578.555 45.0033 579.051 44.13C579.673 43.3754 580.299 42.6288 580.921 41.8795C581.668 41.2568 582.423 40.6315 583.293 40.0089C584.04 39.5129 584.913 39.0142 585.916 38.6396C586.789 38.2649 587.662 38.0169 588.66 37.7663C589.662 37.6423 590.66 37.5156 591.657 37.5156C592.654 37.5156 593.657 37.6423 594.53 37.7663C595.527 38.0169 596.525 38.2649 597.403 38.6396C598.277 39.0142 599.147 39.5102 600.018 40.0089C600.765 40.6315 601.522 41.2568 602.268 41.8795C603.018 42.6261 603.643 43.3728 604.139 44.13C604.762 45.0033 605.144 45.874 605.516 46.7473C605.891 47.7446 606.263 48.6152 606.387 49.6205C606.638 50.6178 606.762 51.6124 606.762 52.4857C606.762 53.483 606.638 54.4803 606.387 55.4829C606.263 56.4802 605.891 57.3509 605.516 58.3482C605.142 59.2215 604.762 60.0921 604.139 60.8388C603.643 61.72 603.018 62.4667 602.268 63.2133C601.524 63.836 600.767 64.4613 600.018 65.0839C599.147 65.5799 598.277 66.0786 597.403 66.4532C596.525 66.8279 595.527 67.0759 594.53 67.3345C593.657 67.4585 592.654 67.5851 591.657 67.5851C590.66 67.5851 589.662 67.4585 588.66 67.3345C587.662 67.0759 586.789 66.8279 585.916 66.4532C584.913 66.0786 584.04 65.5826 583.293 65.0839C582.423 64.4613 581.668 63.836 580.921 63.2133C580.299 62.4667 579.673 61.72 579.051 60.8388C578.555 60.0921 578.046 59.2215 577.674 58.3482C577.299 57.3509 577.054 56.4802 576.803 55.4829C576.676 54.4803 576.552 53.483 576.552 52.4857Z" fill="#231F20"/>
<path d="M620.116 38.3955H641.719V44.01H626.361V49.9964H639.849V55.6109H626.361V66.5812H620.116V38.3955Z" fill="#231F20"/>
<path d="M70.1032 193.7L68.3513 192.83C49.8749 184.342 35.1501 172.116 25.4093 157.278C2.06501 121.726 1.31835 85.0499 0.569052 46.25C0.569052 43.2528 0.445048 40.3876 0.321045 37.3904V33.4038H139.885L139.761 37.3904C139.637 40.3902 139.637 43.2555 139.513 46.25C138.767 85.0499 137.886 121.847 114.668 157.278C104.935 171.992 90.0783 184.342 71.7258 192.83L70.1032 193.7Z" fill="white"/>
<path d="M69.7261 81.1791L15.0432 123.965C6.30497 96.8932 6.55562 68.5809 5.80896 39.7646H133.387C132.641 68.7075 133.013 96.8932 124.153 123.965L69.7261 81.1791Z" fill="#FFD13F"/>
<path d="M114.041 147.043C112.669 149.409 111.168 151.787 109.672 154.153C99.931 169.002 85.4569 179.97 69.603 187.336C53.6171 179.97 39.267 169.126 29.5288 154.153C28.0329 151.908 25.2837 147.291 25.2837 147.291L69.7296 111.987L114.041 147.043Z" fill="#FFD13F"/>
<path d="M32.2755 61.5987C25.7824 60.2215 20.044 55.3616 21.4133 49.3646C21.4133 49.3646 21.2893 47.7473 20.6666 47.4966C20.6666 47.4966 20.5426 47.246 20.4186 47.246C20.168 47.246 19.92 47.122 19.796 46.9953L19.4187 46.75C19.2947 46.998 19.4187 47.1246 19.1707 47.3726C19.0388 47.4966 19.0388 47.6206 18.9148 47.6206C18.7908 47.6206 18.7908 47.8713 18.6641 47.8713C18.1655 48.3673 18.4161 49.1139 18.5401 49.7445C18.5401 49.8685 18.5401 50.1192 18.5401 50.1192C18.5401 50.1192 18.5401 50.1192 18.2921 49.8685L18.0415 49.7445C17.9175 49.7445 17.5428 49.6205 17.5428 49.4939C17.4188 49.3619 17.5428 49.3619 17.2948 49.2379C17.1708 49.2379 17.0468 48.7393 16.9202 48.2406C16.9202 48.114 16.7962 47.99 16.7962 47.7446C16.7962 47.37 15.8015 46.7473 16.1735 46.9953C16.5482 47.3726 16.1735 46.8713 15.5508 46.7473C15.1683 46.6207 14.7963 46.6207 14.4216 46.7473C14.2976 46.7473 14.2976 46.7473 14.171 46.8713C13.799 47.246 13.4243 47.4966 12.9257 47.6206H13.0497C13.2977 47.9953 13.0497 48.3673 13.2977 48.7419C13.4243 49.1139 13.6723 49.3646 14.047 49.6231C14.295 49.8712 14.7936 49.6231 15.0443 49.9978C15.0443 49.9978 15.5482 50.1218 15.0443 50.6204C14.171 51.3671 13.1763 50.7418 12.551 52.3644C13.5483 51.9871 13.6723 53.6071 14.171 53.6071C14.6696 53.6071 15.1683 53.7337 15.6749 53.8577C16.0495 53.9817 16.5482 54.1057 16.9202 54.3537C17.4188 54.6044 17.7935 54.8524 18.1655 55.227C18.4161 55.6096 18.7881 55.9816 19.0388 56.3563C19.6693 57.7282 17.7935 57.7282 19.5453 58.1002C20.292 58.2242 20.9173 58.5962 21.2893 59.2215C21.7879 59.8442 21.912 60.7148 22.4106 61.3481C22.6586 61.7227 23.0412 61.9707 23.2892 62.2187C23.6638 62.4694 24.0358 62.5934 24.4105 62.5934C24.6611 62.5934 24.7851 62.844 25.0331 62.844C25.2811 62.9706 25.5318 63.0947 25.7798 63.2187C25.9038 63.3427 26.2785 63.5933 26.4025 63.7173C26.5265 63.9653 26.4025 64.464 26.6505 64.8386C26.9064 65.2133 27.033 64.8386 27.157 64.8386C27.281 64.8386 27.405 64.8386 27.5317 64.8386C27.7823 64.712 28.1543 64.712 28.405 64.712C28.9036 64.712 28.7796 64.712 29.4023 64.712C29.5263 64.712 29.6503 64.712 29.7769 64.712C30.0249 64.712 30.1516 64.8386 30.1516 64.712C30.3996 64.092 30.6502 63.5907 31.0302 62.9706C31.2782 62.5934 31.5288 62.2214 31.7768 61.7227C31.7768 61.7227 32.3995 61.3481 32.2755 61.3481V61.5987Z" fill="#C3002F"/>
<path d="M16.1722 62.2187C18.0402 63.34 17.7922 65.8306 19.5441 66.5799C22.5334 68.0812 26.1532 68.9545 29.401 67.4585C28.6544 69.7011 29.401 71.5717 29.1504 71.8171C28.1557 72.5664 25.0319 71.6931 23.0399 70.8224C21.6627 70.3238 20.6654 72.3158 19.1694 72.1944C19.2934 71.8171 19.2934 71.4477 19.2934 71.1971C19.0349 70.4504 18.7869 70.1998 17.6656 70.3238C16.7923 70.3238 17.1669 71.0731 16.0456 71.6957C15.5496 71.3211 14.5444 71.0731 14.4204 71.9437C14.4204 72.3184 13.5471 70.5718 13.6711 70.1998C14.4204 68.8278 14.5444 68.5798 14.5444 68.2052C14.5444 67.9572 12.6764 67.2026 12.5498 67.5852C12.0511 68.4558 10.5499 64.7093 15.043 64.836C13.7951 64.0893 13.9217 63.9627 14.2937 63.092C14.2937 62.968 13.7951 62.4694 13.5471 62.7174C13.4231 62.5907 13.5471 62.4667 13.5471 62.3427C13.6711 62.0921 13.7951 62.0921 13.9217 61.9681C14.6684 61.8441 15.423 61.8441 16.1722 62.2187Z" fill="#C3002F"/>
<path d="M25.1589 52.985C27.9081 53.7343 31.9026 50.1197 34.3932 54.3569C32.6493 53.7343 27.4068 56.4808 25.1589 52.985Z" fill="#C3002F"/>
<path d="M48.0044 59.099C48.0044 62.5922 44.3819 66.4548 47.2577 69.8266C46.0018 69.8266 44.7592 69.4519 43.7619 68.7053C43.2632 68.3306 43.3872 70.3226 43.3872 70.8239C43.5112 71.1985 41.1367 68.5786 40.2634 69.2039C39.2687 70.0772 38.1369 70.8239 36.8916 71.1985C35.6462 71.6946 34.393 71.9452 33.0237 71.8186C32.0264 71.8186 31.5277 72.6919 31.1557 73.5731C30.3985 71.9452 31.0317 68.0826 31.4037 66.3308C32.7731 61.7215 37.5168 60.3417 41.2607 58.1017C41.8833 57.603 42.5139 57.1044 43.0126 56.4817C43.5086 55.9857 43.8859 55.3604 44.2579 54.6058C44.5059 53.9832 44.7565 53.2339 44.8805 52.4872C45.0045 51.7406 45.0045 50.9939 45.0045 50.2446C45.9992 51.4899 46.6324 52.8593 47.1311 54.3552C47.7537 55.8564 47.8777 57.479 47.8777 59.099H48.0044Z" fill="#C3002F"/>
<path d="M30.6491 99.0197C31.0316 99.0197 30.781 99.3943 30.6491 99.5157C30.2744 99.7663 30.0264 100.138 29.7758 100.513C29.5278 100.764 29.4011 101.136 29.5278 101.386C29.5278 101.634 29.6518 101.882 29.7758 102.13C29.7758 102.257 29.8998 102.381 30.0238 102.505L30.2744 102.756C30.1504 102.381 30.6491 102.009 30.7783 102.133C33.145 103.51 33.269 100.64 34.6488 99.769C34.8995 99.645 35.0235 99.645 35.2715 99.645C35.5195 99.645 35.6461 99.769 35.8941 99.893C36.0181 100.02 36.1421 100.144 36.2688 100.392C36.2688 100.64 36.2688 100.766 36.2688 101.012C37.6381 100.265 38.1368 98.397 39.142 97.2731C41.7592 94.6505 44.7564 92.7826 48.2523 91.5373C46.8829 90.4054 45.6297 89.1627 44.5084 87.7908C44.1338 87.0441 43.5111 85.6722 44.5084 85.9202C44.8831 86.0468 45.2551 86.1708 45.6297 86.1708C46.0017 86.2948 46.3843 86.2948 46.7589 86.1708C47.1336 86.1708 47.5056 86.0468 47.8803 85.9202C48.2549 85.7962 48.6295 85.5455 49.0016 85.4242C49.2496 85.1735 49.4976 84.9202 49.8722 84.6696C50.1308 84.2949 50.2548 84.0469 50.5028 83.6723C50.6268 83.2976 50.8774 83.0496 51.0014 82.675C51.0014 82.3003 51.1254 81.8043 51.1254 81.4297C56.9879 82.1763 58.4918 76.6859 59.2384 72.57C59.7344 70.5754 60.7317 70.3248 59.6104 66.9556C59.1144 65.4623 62.2356 65.0876 61.613 62.5944C61.481 62.2197 61.357 61.8477 61.1064 61.5997C60.7317 61.3491 60.4837 61.2171 60.1091 61.0931C60.6077 62.4704 58.2411 62.721 58.1171 63.3437C57.6132 64.093 57.2385 64.9636 57.1145 65.8343C55.2466 63.2197 56.7399 59.9718 58.4918 57.4812C61.109 53.9854 66.6047 55.8613 68.8474 58.1039C68.7234 56.8559 68.2247 55.7373 67.2274 54.8587C69.3539 54.484 71.7205 55.8613 74.5937 54.236C75.467 53.9854 76.3377 53.4894 77.0923 52.8641C77.8389 52.2414 78.3376 51.4921 78.8362 50.6215C75.2137 51.1175 70.3486 48.3683 67.1008 47.7483C61.1064 46.751 57.1119 50.8695 54.9933 55.7346C52.8668 60.5945 54.244 64.2143 56.4866 67.8342C57.1093 68.7075 54.4946 68.0848 53.3628 68.5808C53.1148 68.8315 52.9881 68.9581 52.7401 69.2035C52.6161 69.3275 52.4921 69.5781 52.3655 69.8261C52.2388 70.0742 52.1148 70.4488 52.1148 70.6968C52.1148 70.9474 52.1148 71.1955 52.2388 71.5701C52.4895 71.3195 52.6135 71.1955 52.8615 71.0741C53.1095 71.0741 53.3575 70.9474 53.6081 70.9474C53.8641 70.8234 54.2387 70.8234 54.4867 70.9474C54.7347 70.9474 54.9854 70.9474 55.2334 71.0741C55.484 71.1981 55.732 71.3221 55.856 71.4487C56.104 71.5727 56.352 71.8207 56.4787 71.9448C56.7267 72.1954 56.8533 72.3194 56.9773 72.5674C57.1013 72.8154 57.1013 73.0634 57.2254 73.322C57.6 76.5619 54.3601 81.0524 51.3629 79.6831C48.2391 78.4272 46.1231 74.8153 44.9939 70.8234C42.2447 73.322 37.0049 71.3195 34.5064 73.6966C32.1397 76.0632 38.2502 77.3086 40.5007 78.5565C40.9994 78.6805 41.374 78.9312 41.622 79.4351C41.8727 79.8097 41.9967 80.3084 41.9967 80.807C41.622 80.559 41.25 80.311 40.7514 80.1844C40.3767 80.0604 39.8781 79.9364 39.5061 79.9364C39.0074 79.8097 38.5088 79.9364 38.1288 79.9364C37.6302 80.0604 37.2555 80.1844 36.7569 80.4324C36.3849 80.683 36.0102 80.931 35.6356 81.303C35.3876 81.5537 35.0129 81.9257 34.7623 82.3003C34.6383 82.799 34.3797 83.1736 34.2557 83.6723C34.1317 84.0469 34.1317 84.5456 34.1317 85.0495C34.3797 87.9148 37.8756 89.6588 40.7487 89.9094C41.994 90.0334 42.7486 91.2866 41.2474 92.2839C38.6301 93.9012 35.7569 95.6452 32.8864 92.7799C32.7598 92.6559 32.5118 92.5293 32.2637 92.5293C32.0157 92.5293 31.7651 92.5293 31.5171 92.6559C31.2664 92.6559 31.1424 92.7799 30.8944 92.9066C30.7704 93.0279 30.5119 93.2786 30.3879 93.5266C30.2639 94.0226 30.2639 94.5239 30.2639 95.0199C30.3879 94.7719 30.6385 94.3973 30.8944 94.3973C31.1451 94.3973 31.5171 94.7746 31.3931 94.8959C31.2691 96.3892 29.2666 95.3919 28.7679 96.5159C28.7679 96.5159 28.7679 96.7639 28.6439 96.7639C28.1453 97.5184 27.6466 98.0197 28.6439 98.6398C28.6439 98.5158 29.0186 99.2624 29.0186 99.3891C29.0186 99.1384 29.1426 99.0144 29.2666 98.8904C29.3906 98.7664 29.6412 98.6398 29.7652 98.7664H30.2639L30.6491 99.0197Z" fill="#C3002F"/>
<path d="M18.418 85.4244C18.0433 85.4244 17.6687 85.4244 17.2967 85.6751C17.0486 85.7991 16.798 85.6751 16.674 85.9231C16.55 86.0497 16.55 86.1737 16.674 86.4217C16.674 86.4217 16.674 86.6724 16.798 86.6724C16.302 86.5457 15.8033 86.2951 15.4261 85.9231C15.302 85.7964 15.1701 85.6751 15.1701 85.6751C15.0461 85.5484 15.1701 85.4244 15.0461 85.3004C14.9221 85.1738 14.9221 85.0498 15.0461 84.9178C14.9221 84.5432 15.0461 84.1712 15.1701 83.9205C15.1701 83.7965 15.302 83.6699 15.4261 83.5459L15.6767 83.1712C15.9247 82.9206 16.1753 82.7966 16.55 82.6726C17.0486 82.5486 17.5447 82.5486 18.0433 82.7992C18.418 82.9232 18.7926 83.0472 19.1725 83.0472C19.4205 83.0472 19.7952 82.5512 19.5472 82.4246C18.294 82.1766 18.294 81.8046 17.7953 80.5593C17.6713 80.3086 17.2967 80.5593 17.1727 80.8073C17.1727 78.4327 20.0458 78.1821 21.2938 79.1873C23.0457 80.5619 21.6684 83.3005 23.7923 84.0472C24.9136 84.5458 26.1589 84.6698 27.2882 84.2978C29.4068 83.4245 27.2882 81.3059 28.0348 79.562C29.2801 76.0688 32.2773 75.8181 35.8998 79.1873C35.5251 79.438 35.1505 79.562 34.7785 79.81C34.5226 80.0606 34.1479 80.3086 33.8999 80.5593C33.6519 80.8073 33.4013 81.1793 33.1532 81.5539C32.9052 81.8046 32.7786 82.1766 32.5306 82.5512C32.4066 82.9259 32.4066 83.2979 32.2799 83.7992C32.2799 84.1738 32.2799 84.5458 32.2799 84.9205C32.2799 85.4244 32.4039 85.7991 32.5306 86.1737C32.6546 86.5484 32.7786 86.9204 32.9052 87.295C30.1561 86.1737 26.5336 88.0443 24.5416 89.2896C26.4096 87.4217 23.919 85.9257 23.1723 86.2977L22.4151 86.7964C22.0404 87.2924 22.0404 87.7937 21.5418 88.2897C21.2938 88.5403 20.9191 88.6643 20.5445 88.6643C20.1698 88.791 19.7978 88.791 19.4232 88.5403C19.4232 88.5403 19.0406 88.5403 19.0406 88.6643C19.0406 88.791 19.0406 89.0416 19.0406 89.163L18.7926 88.7883C18.418 88.6617 18.17 88.4137 18.0433 88.1657C17.7953 87.6697 17.7953 87.2924 18.0433 86.7937C18.1673 86.4191 18.542 86.2951 18.7926 86.0471C19.0406 85.7964 18.7926 85.4244 18.418 85.4244Z" fill="#C3002F"/>
<path d="M87.2005 54.2334C87.4485 54.3574 87.2005 54.856 86.8258 54.856C86.5752 54.9801 86.0791 54.856 85.7045 54.856C84.3273 55.36 84.3273 58.7265 84.5753 58.2252C84.7072 57.8506 85.8285 58.1012 86.4512 58.2252C87.4485 58.4759 88.1978 56.4813 88.9523 56.4813C90.5723 56.6079 92.0682 58.5999 92.5722 59.8452C92.6962 60.0932 91.9416 60.2198 91.8176 60.9665C92.9468 60.9665 93.9441 61.2172 94.9414 61.7211C95.9361 62.0957 96.8173 62.7184 97.5666 63.465C98.1893 62.3437 99.0599 61.3464 99.9332 60.4652C96.6933 57.2279 90.0763 56.3546 91.0736 50.4922C91.1976 49.7455 90.3243 49.115 89.9523 48.6163C89.5803 48.1177 88.583 48.2417 87.9524 47.9937C88.583 49.3656 87.4537 49.4949 87.5777 51.4895C87.5777 51.4895 87.4537 51.4895 87.3297 51.4895C86.9551 51.3655 86.5804 51.1148 86.3324 50.8668C85.9578 50.7428 85.5858 50.6188 85.2111 50.7428C84.9605 50.8668 84.8365 50.8668 84.5806 51.1175C84.3325 51.2441 84.0819 51.6135 83.9579 51.8641L83.8339 51.9881C83.7099 52.1148 83.5833 52.3654 83.5833 52.4868C83.7073 52.4868 84.3325 52.4868 84.3325 52.6108C84.4565 52.7374 84.5805 53.1094 84.7151 53.3601C84.8391 53.6081 85.0898 53.6081 85.4618 53.8561C85.9578 53.9801 86.4564 54.1041 86.9551 54.1041L87.2005 54.2334Z" fill="#C3002F"/>
<path d="M95.6907 51.7404C97.8172 51.6138 99.8092 50.1205 102.184 52.7377C101.809 52.4871 101.31 52.4871 100.938 52.7377C100.688 52.9857 100.44 53.1124 100.189 53.3604C99.8065 53.4844 99.5585 53.6084 99.1865 53.735C98.8119 53.859 98.4399 53.859 98.1892 53.859C97.8146 53.983 97.4425 53.859 97.0679 53.859C96.6932 53.859 96.4453 53.735 96.0627 53.6084C95.812 53.4844 95.44 53.2337 95.1894 53.1124C94.9414 52.8617 94.5667 52.6137 94.4427 52.3657C94.1921 52.1151 93.9441 51.8671 93.8201 51.6164C94.4427 51.4924 95.192 51.8671 95.812 51.8671L95.6907 51.7404Z" fill="#C3002F"/>
<path d="M104.68 59.3461C108.051 57.6021 111.539 56.2328 112.917 51.9877C113.167 51.2437 113.79 53.2356 113.914 53.3623C115.666 58.4754 112.046 63.5912 112.793 68.707C111.671 67.9604 110.294 67.5857 108.922 67.4591C107.801 67.4591 106.672 67.5857 105.677 68.0817C104.556 68.4564 103.674 69.079 102.928 69.9497C101.556 68.8284 99.9306 68.0817 98.1866 67.7071C96.0601 65.7046 102.308 60.3408 104.68 59.2195V59.3461Z" fill="#C3002F"/>
<path d="M95.4374 93.4025C95.8094 94.0251 95.1867 92.9065 95.8094 94.1518C98.1839 93.1545 100.809 92.0332 103.426 93.0278C102.305 87.54 106.3 86.1681 106.672 85.4214C107.17 84.0442 104.429 81.4269 102.429 82.1762C99.8039 83.0469 100.936 86.4187 100.437 88.6613C100.313 88.912 100.186 89.284 99.9305 89.532C99.8065 89.7826 99.5559 90.0307 99.1839 90.1547C98.9332 90.2813 98.5612 90.4053 98.3106 90.4053C97.9359 90.5293 97.5639 90.4053 97.3133 90.4053C96.8146 90.1547 96.3186 89.9093 95.936 89.532C95.5614 89.16 95.1894 88.788 94.8147 88.4133C94.5667 87.9147 94.3161 87.416 94.0681 86.9174C93.9441 86.4214 93.8174 85.9201 93.6934 85.4241C93.4428 83.9228 90.4456 83.7988 89.8229 84.9201C87.9471 88.416 90.9442 84.5455 90.6962 87.1707C90.6962 87.6693 88.7016 87.2947 88.1977 88.7906C87.8231 89.9119 88.9523 90.6586 90.1976 91.0412C90.4456 91.0412 89.9469 90.4106 90.1976 90.2866C90.4456 90.1599 91.3189 90.6612 91.1923 90.7826C89.9469 91.5398 89.6989 93.2811 91.8149 94.0278C91.8149 94.0278 91.6909 93.4051 91.8149 93.2811C92.4455 92.9091 92.9441 92.7851 93.5668 92.7851C94.1894 92.7851 94.8121 92.9117 95.3107 93.2811L95.4374 93.4025Z" fill="#C3002F"/>
<path d="M58.3718 128.21C60.3638 129.081 61.1131 128.21 63.7356 127.711C64.6089 127.962 65.4875 128.461 66.1102 129.083C63.361 129.453 60.1131 131.822 58.3718 128.21Z" fill="#C3002F"/>
<path d="M57.2393 130.327C57.1153 130.203 56.9913 130.079 56.8647 130.079C56.6167 129.952 56.49 129.952 56.242 129.828L55.87 129.702C55.87 129.828 55.994 130.2 55.87 130.324C55.746 130.324 55.4954 130.448 55.3714 130.699C55.3714 130.823 55.2474 130.823 55.2474 130.95C55.1234 131.2 55.1234 131.446 54.9994 131.82C54.9994 131.944 54.9994 132.195 54.9994 132.319C54.9994 132.319 55.2474 132.701 55.2474 132.823L55.622 133.073C55.9967 133.448 55.622 133.324 56.1207 133.694C56.6193 134.192 55.9967 134.316 55.746 134.316C54.1261 133.82 53.8781 131.942 52.5008 131.443C52.2502 131.316 51.8782 131.316 51.6275 131.443C51.2529 131.443 51.0049 131.567 50.6302 131.818C50.3796 131.942 50.2556 132.192 50.0076 132.572C49.873 132.823 49.873 133.071 49.749 133.446C50.0076 133.322 50.1316 133.322 50.2556 133.446C50.3796 133.446 50.5036 133.57 50.6302 133.694C51.0049 135.313 53.3715 134.443 53.3715 135.564C53.3715 136.308 51.5035 135.437 50.8809 135.939C50.7569 136.187 50.5062 136.435 50.3822 136.685C50.2582 137.06 50.1342 137.308 50.1342 137.683C50.1342 137.931 50.1342 138.305 50.2582 138.561C50.3822 138.936 50.5062 139.184 50.7569 139.432C51.5035 138.561 52.5008 139.809 53.4981 139.184C54.3767 138.561 54.2527 138.179 54.8754 137.928C56.7433 137.184 57.242 138.809 56.7433 140.429C57.9966 140.055 59.2445 139.68 60.6138 139.429C61.619 139.181 61.619 136.933 62.7403 136.184C61.1125 136.184 59.1179 135.437 58.6192 133.82C58.6192 133.694 58.6192 133.446 58.6192 133.324C58.6192 132.575 58.6192 131.944 58.3712 131.446C58.2472 131.319 58.2472 131.319 58.2472 131.198L57.9966 130.947C57.8726 130.696 57.6166 130.572 57.366 130.448C57.242 130.448 57.118 130.448 56.9913 130.324H57.2393V130.327Z" fill="#C3002F"/>
<path d="M45.1351 141.679C45.8818 143.051 42.2619 140.808 40.8926 142.927C40.518 143.547 40.7686 145.053 40.7686 145.924C41.5153 145.177 42.3965 146.544 43.8924 145.177C44.0164 145.428 44.2671 145.428 44.0164 145.673C43.7684 145.924 43.5178 146.296 43.3938 146.673C43.2698 147.045 43.2698 147.417 43.3938 147.668C43.7684 148.288 44.2671 148.665 44.8871 149.04C45.0111 148.042 46.639 149.04 46.8896 147.169C47.0136 146.425 47.1376 145.177 48.2589 145.552C49.3802 146.048 49.3802 147.169 49.2562 148.166C50.7601 147.67 53.4987 146.174 55.1292 147.296C57.3719 148.916 60.9917 149.541 63.6142 150.285C61.8703 149.164 61.3637 146.05 61.6223 144.051C59.6198 144.554 57.6199 144.681 55.5039 144.433C53.3774 144.299 51.3828 143.803 49.5069 142.932C48.5122 142.433 48.6362 141.312 48.2616 140.315C48.0136 139.692 47.6389 139.193 47.1403 138.821C46.5176 138.439 46.0111 138.317 45.2644 138.317C44.6417 138.317 43.0218 139.819 43.2724 139.819C43.1484 139.819 43.1484 140.069 43.1484 140.193C43.2724 140.069 43.5204 140.069 43.6444 140.069C43.7684 140.193 43.8951 140.317 44.0191 140.444C44.0191 140.692 44.1431 140.94 44.3937 141.188C44.6365 141.307 45.0085 141.428 45.1351 141.679Z" fill="#C3002F"/>
<path d="M54.8722 163.887C55.6189 162.89 56.3656 163.389 56.7402 163.389C57.6135 163.389 57.4895 164.512 57.3629 165.259C60.6081 163.639 63.7319 161.389 67.6024 162.267C65.3518 160.017 66.1091 155.028 69.2223 154.405C68.4757 154.281 67.729 154.157 66.9797 153.909C64.2305 152.165 60.9853 150.545 59.1174 154.16C58.2441 156.027 59.864 157.405 61.1094 158.898C61.36 159.149 60.9853 159.275 60.7347 159.397C57.7454 160.143 52.2471 160.645 51.9991 156.151C51.9991 155.653 50.8778 155.402 50.1311 155.402C48.0046 155.402 48.0046 158.278 48.2552 158.027C48.6299 157.903 50.2577 157.779 50.1311 158.898C50.0071 160.022 48.0046 158.402 47.1339 159.397C46.7593 159.895 46.6353 160.394 46.6353 161.017C46.5113 161.639 46.6353 162.138 46.8859 162.769C46.8859 162.394 47.2606 162.138 47.5086 162.011C49.7512 161.639 49.8752 162.518 49.2525 164.636C49.2525 164.884 49.8752 166.256 50.3817 166.38C50.2577 166.256 50.2577 166.132 50.3817 165.884C50.3817 165.884 50.5058 165.76 50.6324 165.76C50.8804 165.76 51.131 165.76 51.3791 165.634C51.5031 165.51 51.6297 165.51 51.7537 165.383C51.8777 165.259 52.0043 165.132 52.1283 165.008C52.751 164.262 53.1256 163.515 54.0042 163.389C54.3789 163.389 54.7509 163.515 55.0015 163.763L54.8722 163.887Z" fill="#C3002F"/>
<path d="M78.5884 174.117C80.707 171.99 82.2108 169.249 84.4535 167.247C81.9628 165.877 78.839 164.384 78.5884 161.136C78.5884 160.888 78.963 160.64 78.963 160.64C82.4589 162.516 87.076 162.767 89.4532 159.268C91.4451 156.527 92.3184 151.91 96.1889 151.659C95.9383 151.037 95.8143 150.414 95.8143 149.783C95.6903 149.161 95.8143 148.535 96.0649 147.915C96.3235 147.293 96.5715 146.791 96.9435 146.295C97.4421 145.799 97.9408 145.425 98.4394 145.05C97.6901 144.675 96.9435 144.427 96.0649 144.427C95.0676 144.551 94.693 145.921 93.5743 146.045C95.3183 140.182 91.8224 131.943 85.3347 132.069C84.712 132.193 84.0815 132.444 83.4588 132.824C82.8361 133.199 82.4615 133.821 82.2135 134.444C81.9655 135.064 81.8388 135.816 81.8388 136.436C81.9628 137.185 82.2135 137.808 82.4615 138.306C84.5801 140.929 86.208 143.668 85.4587 147.042C86.332 146.422 86.952 145.549 87.4507 144.678C87.9493 143.797 88.3239 142.8 88.3239 141.805C88.3239 141.18 89.3265 141.554 89.4532 141.428C91.3211 138.813 88.3239 137.188 86.828 135.565C86.3293 135.067 87.4506 134.444 87.5746 134.444C93.0704 136.185 93.6957 142.924 91.1945 147.414C90.5718 146.67 88.1973 146.918 87.4507 146.67C90.0758 147.915 89.3265 148.161 89.3265 148.411C89.0785 149.285 86.828 148.91 86.3293 149.409C85.5827 150.414 84.9574 150.91 84.8334 154.276C85.9547 153.029 87.3266 151.285 88.9545 152.031C92.1944 153.778 88.7039 159.516 85.7093 160.387C85.0867 160.511 84.4561 160.638 83.8334 160.638C83.0841 160.638 82.4615 160.511 81.8415 160.387C81.3428 160.136 80.7123 159.764 80.2136 159.39C79.715 159.015 79.2163 158.516 78.9683 158.018C76.5938 154.648 78.2216 150.662 76.5938 147.29C75.2218 147.665 75.4725 149.535 74.7258 149.158C72.2273 148.037 70.7313 145.298 68.8554 142.924C68.1088 143.174 67.7341 143.918 66.9875 143.918C65.8662 143.918 63.8663 143.544 63.3676 144.045C63.2331 144.427 63.1064 144.802 63.1064 145.174C62.9824 145.549 62.9824 145.921 63.1064 146.295C63.1064 146.673 63.1064 146.921 63.2304 147.293C63.3544 147.667 63.4784 148.039 63.7291 148.287C63.8531 148.665 64.1037 148.913 64.2277 149.287C64.4757 149.538 64.7264 149.783 65.101 150.034C65.3517 150.282 65.6076 150.417 65.9796 150.665C66.3543 150.789 66.6023 150.913 66.9743 151.037C69.9715 151.91 72.4647 153.403 74.4646 155.646C73.2193 155.772 72.5887 155.15 71.7154 155.026C70.7208 155.15 69.9715 155.398 69.0902 155.896C68.5942 156.147 68.2169 156.654 67.9689 157.152C67.7209 157.775 67.5943 158.274 67.5943 158.894C68.341 164.511 75.0846 164.635 78.0818 168.123C78.5805 168.753 77.2085 171.246 76.0819 172.241C74.8366 173.241 72.3381 170.869 72.8341 169.128C73.2167 167.624 69.7208 166.753 68.4676 168.381C68.9636 168.381 69.0902 168.629 68.9636 168.877C68.8396 170.125 70.4675 170.249 70.3408 170.869C70.3408 171.618 69.4702 170.494 68.8396 170.373C68.2169 170.246 67.4676 170.246 66.8476 170.494C66.101 170.745 65.6023 171.117 65.2198 171.742C64.9691 171.993 64.3465 172.616 64.5971 173.114C65.7263 172.618 66.225 174.37 67.2223 173.737C67.8449 173.486 68.3436 172.99 69.0902 173.114C69.4728 173.114 69.7208 173.61 69.4728 173.737C67.4703 174.99 65.977 176.734 67.3463 178.729C67.3463 178.605 67.4703 178.354 67.5969 178.233C67.7236 178.111 67.8449 177.982 68.0956 177.858C68.5942 177.732 69.3488 178.109 69.8475 177.858C70.8421 177.608 70.3435 176.734 70.7208 176.114C71.2168 174.99 73.0874 173.365 74.0926 174.618C74.3406 174.869 74.0926 175.616 73.5939 175.616C74.2166 175.616 74.7153 176.238 75.2139 176.114C75.3379 176.114 75.4645 176.114 75.5886 176.114C75.7126 175.988 75.8392 175.988 75.9632 175.864C76.2138 175.737 76.3378 175.365 76.4618 175.114C76.8365 175.114 77.4671 175.114 77.7151 174.742C77.9657 174.492 78.2137 174.12 78.5884 173.861V174.117Z" fill="#C3002F"/>
<path d="M69.098 133.327C72.7205 132.321 76.839 130.451 77.5936 126.335C78.0896 126.718 78.4669 127.214 78.7149 127.71C78.9629 128.332 79.0895 128.833 79.0895 129.454C79.0895 134.567 76.9709 138.938 78.0922 144.17C78.2162 144.801 79.2135 146.671 78.7149 146.423C78.2162 146.297 76.9709 145.052 76.2163 145.55C75.4697 146.046 75.343 147.418 74.971 147.044C73.0951 146.046 71.7232 144.68 70.8499 142.801C70.6019 142.057 70.6019 140.682 70.4752 140.809C69.222 142.181 66.7314 142.426 64.9795 142.677C65.3542 142.057 65.6101 141.305 65.6101 140.434C64.2329 139.812 62.1143 142.178 62.1143 141.928C62.2383 141.429 62.2383 141.054 62.3623 140.68C62.6129 139.809 62.9849 138.936 63.3596 138.181C63.7342 137.435 64.2329 136.809 64.8555 136.063C65.3542 135.44 66.1087 134.944 66.7314 134.445C67.4781 133.947 68.2247 133.575 69.098 133.327Z" fill="#C3002F"/>
<path d="M39.2673 49.2416C39.3913 49.2416 39.5153 49.1149 39.5153 48.9909C38.138 47.247 36.6421 47.3736 35.8954 48.9909C35.5208 50.1201 38.138 49.7455 39.2673 49.2416ZM41.8845 47.1229C42.8871 47.1229 43.6364 46.6243 44.135 45.875C44.135 46.4977 44.8817 47.247 44.6337 47.7456C44.259 48.3656 43.3884 48.8669 43.1404 49.6215C42.7657 50.9934 43.887 52.2361 43.1404 53.6081C40.7658 57.6025 35.7741 56.2306 32.1542 57.1039C32.2782 56.9799 32.2782 56.7292 32.2782 56.4812C32.1542 56.2306 32.0302 56.1066 31.9036 55.8586C33.3969 56.1092 35.5234 55.7346 35.8981 54.6054C36.1461 53.9827 36.3967 53.36 36.3967 52.7374C36.3967 52.1147 36.1461 51.4894 35.8981 50.8668C34.7741 48.9909 32.3996 49.8695 30.6477 50.4948C30.6477 50.2468 30.6477 49.9988 30.6477 49.8721C30.7796 49.6241 30.9036 49.3682 31.0303 49.1176C31.1543 48.9936 31.2783 48.7429 31.5289 48.6215C31.7769 48.4975 32.0276 48.4975 32.2756 48.3709C34.0195 47.8749 35.7714 47.2496 37.5154 46.6269C39.0166 46.0043 40.3886 47.3762 41.8845 47.2496V47.1229Z" fill="#C3002F"/>
<path d="M107.175 48.4952C107.049 48.4952 107.299 48.4952 107.175 48.4952C105.682 47.7486 103.803 46.7513 103.181 48.7432C102.682 50.1205 105.927 49.1152 107.175 48.4952ZM109.55 54.6057C109.054 54.9803 108.18 54.9803 107.674 55.3603C107.175 55.7349 106.927 55.8563 106.677 56.1069C106.302 56.2336 106.054 56.3576 105.806 56.4816C105.555 56.6082 105.183 56.6082 104.933 56.6082C104.682 56.6082 104.434 56.6082 104.183 56.6082H102.679C102.307 56.7322 101.809 56.7322 101.31 56.6082C100.936 56.6082 100.563 56.4816 100.189 56.3576C99.9329 56.2336 99.6823 56.2336 99.4343 56.2336C99.4343 55.9829 99.5583 55.7349 99.6823 55.4843C99.9329 55.2283 100.057 55.4843 100.439 55.4843H101.062H101.313C101.561 55.4843 101.687 55.4843 101.811 55.3603C102.059 55.3603 102.186 55.2283 102.434 55.1017L102.558 54.8537C102.682 54.7271 102.933 54.7271 103.057 54.6031C103.431 54.1044 103.679 53.6057 103.679 53.1097C103.803 52.6111 103.803 52.2364 103.679 51.7378C103.679 51.7378 103.679 51.6111 103.679 51.4871C103.679 51.1125 103.555 50.8645 103.305 50.4898C102.31 48.738 99.9329 50.4898 98.189 50.3658C98.189 49.9912 98.189 49.4925 98.4396 49.11C99.5609 47.6167 101.437 48.3633 102.434 47.6167C105.558 45.2527 106.429 46.994 109.8 47.8673C110.922 47.9913 112.175 47.7433 113.172 47.1206C113.42 46.994 113.42 48.4926 113.296 48.8646C112.922 49.8672 111.803 49.8672 111.42 50.8645C110.798 52.2364 110.798 54.1044 109.302 54.8537L109.55 54.6057Z" fill="#C3002F"/>
<path d="M69.2188 125.588C69.8493 125.836 71.4693 124.838 72.0919 124.464C72.3426 124.464 72.3426 124.34 72.4666 124.213C72.0919 124.089 71.5959 123.965 71.0973 123.965C70.7226 123.965 70.4746 123.714 70.1 123.59C70.1 123.59 69.976 123.59 69.852 123.59C69.728 123.59 69.728 123.714 69.6013 123.841C69.4773 123.841 69.0948 123.841 68.9708 124.089C68.8468 124.213 68.7228 124.34 68.5988 124.585C68.5988 124.836 68.5987 125.084 68.7228 125.334C68.9708 125.464 69.0948 125.588 69.2188 125.588ZM73.7198 122.97C73.9678 123.092 74.3425 123.218 74.7145 123.218C75.0891 123.342 75.4638 123.218 75.8358 123.218C76.2104 123.092 76.5824 122.97 76.8305 122.722C77.213 122.596 77.461 122.348 77.709 122.1C78.2077 124.092 76.3318 124.342 75.9572 125.34C75.4611 126.841 75.5825 128.337 74.2132 128.959C71.092 130.827 67.8442 132.075 64.3483 132.706C64.3483 132.323 64.0977 131.574 64.5963 131.574C65.095 131.574 65.6016 131.323 65.9736 131.078C66.4696 130.827 66.7202 130.455 66.9682 129.957C67.3429 128.959 66.9682 126.717 65.9736 126.21C65.095 125.836 64.2217 126.585 63.2244 126.965C62.8497 125.96 64.4697 124.216 66.9682 124.466C66.9682 124.466 68.2135 122.976 68.0895 123.094C69.7174 121.973 71.4614 122.474 73.7119 123.094V122.97H73.7198Z" fill="#C3002F"/>
<path d="M118.784 109.001C118.784 108.497 119.913 107.122 119.913 106.001C120.037 102.257 122.279 100.637 122.279 96.7668C122.279 95.7721 118.161 94.7748 117.913 92.6562C117.913 91.5349 117.538 90.031 118.536 90.031C119.913 90.155 121.161 89.7804 122.279 88.9097C126.649 85.0472 122.902 79.8074 122.403 75.1902C122.279 74.1929 124.279 71.945 124.155 71.1957C123.781 67.3332 123.15 63.7133 124.53 59.8428C123.409 60.8375 123.029 62.4654 122.155 63.212C121.657 63.7107 121.533 62.716 121.533 62.5894C122.155 59.2202 123.409 55.9803 125.029 52.9804C126.897 49.11 125.902 46.1207 122.53 44.8754C119.282 43.8781 116.293 46.746 115.918 49.8672C115.794 52.7351 116.169 55.4816 117.04 58.2229C117.288 58.8455 117.04 59.5948 117.288 60.2175C117.786 57.8509 118.034 55.4816 117.91 53.1097C117.91 52.7351 118.034 52.4871 118.158 52.1124C118.409 51.8618 118.657 51.6138 118.905 51.4898C119.28 51.3658 119.662 51.2418 120.034 51.2418C120.533 51.2418 120.908 51.3658 121.156 51.6138C121.53 51.8644 121.778 52.1124 121.902 52.4871C122.155 52.8617 122.155 53.2364 122.155 53.6084C121.657 56.9802 120.91 60.3441 120.037 63.716C119.032 67.7104 120.535 71.8184 121.032 75.8155C119.412 74.9449 117.66 74.9449 117.037 77.3088C116.662 78.6808 117.91 80.058 118.282 81.1793C118.282 79.686 119.784 77.5595 121.28 78.4301C123.147 79.5594 123.147 85.3004 122.649 86.0471C122.525 86.4218 122.274 86.7938 122.026 87.1684C121.778 87.5431 121.404 87.7911 121.029 87.9151C120.654 88.1657 120.156 88.2897 119.784 88.4137C119.277 88.4137 118.905 88.4137 118.406 88.2871C117.285 87.9124 117.784 86.2925 117.034 85.6725C115.407 83.7966 114.037 81.802 113.164 79.5594C112.167 77.3088 111.668 75.0689 111.536 72.5703C111.536 71.821 111.919 69.9531 111.792 69.8291C107.167 68.0851 105.048 69.8291 103.048 72.5703C102.798 71.697 100.93 70.5757 100.806 70.8264C100.682 71.3224 100.431 71.821 100.431 72.3197C100.307 72.8157 100.307 73.3249 100.307 73.8209C100.431 74.3196 100.558 74.8182 100.806 75.3142C100.93 75.6889 101.18 76.1875 101.552 76.5622C105.048 79.686 108.671 81.6753 110.663 86.0471C108.544 86.4218 106.42 87.0444 105.547 89.163C104.8 91.4135 105.048 94.7775 107.415 95.7748C109.415 96.5214 112.911 95.7748 113.657 95.7748C115.784 96.0228 118.15 97.7747 117.902 99.8933C117.902 100.02 116.905 104.637 114.905 103.513C113.784 102.89 114.407 100.392 112.663 99.8933C110.412 99.2706 109.913 102.508 110.164 102.136C110.911 101.513 111.409 102.635 112.789 103.392C108.048 102.387 109.541 106.756 109.665 106.257C109.913 105.758 110.787 106.257 112.539 106.257L112.164 106.632C111.916 107.006 111.665 107.378 111.533 107.753C111.409 108.004 111.409 108.252 111.533 108.376C111.533 108.626 111.665 108.88 111.789 109.13C111.789 109.13 111.789 109.13 111.789 109.254H111.913C112.037 109.254 111.913 109.006 112.161 109.006C112.285 108.88 112.412 108.88 112.412 109.006H112.908H113.283C113.533 109.006 113.781 109.006 114.032 109.006C114.28 108.88 114.407 108.88 114.655 108.748C114.404 108.88 115.029 108.373 115.029 108.373C115.277 107.75 115.533 107.998 115.533 107.877C116.032 106.88 116.53 106.88 117.652 107.004C117.776 107.004 117.902 107.254 118.026 107.254C118.026 107.378 118.277 108.001 118.277 107.75C118.277 108.249 118.652 108.5 118.652 108.88L118.784 109.001Z" fill="#C3002F"/>
<path d="M84.4538 65.4596C84.0792 65.209 84.0792 64.8369 83.8312 64.5863L83.7072 64.4623C83.5832 64.3357 83.4592 64.2117 83.4592 64.0877C83.3352 63.713 83.3352 63.3384 83.4592 63.0903C83.5832 62.7157 83.7072 62.4677 83.9578 62.2171L84.0818 62.093C84.2058 61.969 84.2058 62.093 84.0818 61.969C84.2058 61.8424 84.2058 61.7184 84.2058 61.5944C84.2058 61.4678 84.0818 61.4678 83.9578 61.3438C84.2058 61.3438 84.4565 61.3438 84.5805 61.3438H84.8364C85.5857 61.4678 86.5804 61.8398 86.7044 62.5891L86.9524 62.8397C87.7017 64.7077 87.451 69.0768 91.8202 70.1981C94.0707 70.9448 96.3212 71.3194 98.6878 71.4461C98.0652 73.6966 98.0652 76.5592 99.9331 78.1792C97.3159 76.8099 95.564 77.0605 93.3214 74.9419C92.0682 73.8179 90.4482 73.0634 88.7043 72.9394C88.3243 72.9394 89.4535 71.4461 88.3243 71.0714C87.7017 70.8208 85.8311 70.8208 85.5831 71.3194C84.5779 72.6914 83.3325 73.5726 81.8392 74.0686C82.4619 73.5726 79.338 71.0714 83.2085 69.6995C83.5832 69.5755 83.7072 68.7048 83.2085 68.5782C82.4619 68.2035 81.8392 68.7048 81.0899 69.0768C80.3353 69.5728 80.0873 67.8289 78.7154 68.4541C78.4674 64.5837 81.9632 64.2117 84.0792 66.5783C84.2032 66.8263 84.8338 66.5783 84.4538 66.3276V65.4596Z" fill="#C3002F"/>
<path d="M131.895 48.3686C131.396 74.0715 130.765 98.7719 123.283 122.596L69.7269 80.3086L15.9226 122.723C8.3083 98.7693 7.80965 74.0715 7.17908 48.3686C7.17908 45.8779 7.17908 43.3768 7.05507 41.0102H132.145C132.019 43.5087 132.019 45.9993 131.895 48.3686ZM108.55 153.531C99.8069 167 86.3275 178.105 69.6029 185.959C52.8703 178.229 39.3909 167 30.5234 153.531C29.03 151.286 27.6581 149.038 26.4049 146.793L69.7269 112.613L112.917 146.672C111.54 148.914 110.046 151.289 108.55 153.531ZM18.5399 130.205L69.7269 89.7857L120.658 130.081C119.413 133.327 117.909 136.691 116.289 139.936L69.7269 103.014L22.909 139.936C21.2891 136.691 19.7931 133.451 18.5399 130.205ZM4.56445 38.5195V39.7675C4.56445 42.7568 4.68846 45.5059 4.68846 48.3712C5.43511 85.8017 6.18441 120.982 28.4047 154.779C37.639 168.757 51.625 180.482 68.9696 188.466L69.6002 188.714L70.0989 188.466C87.4461 180.361 101.432 168.757 110.666 154.779C132.763 120.979 133.636 85.7991 134.383 48.4978C134.383 45.6299 134.383 42.7568 134.507 39.7675V38.5195H4.56445Z" fill="#231F20"/>
</g>
<defs>
<clipPath id="clip0_485_2083">
<rect width="675" height="160.518" fill="white" transform="translate(0 33.293)"/>
</clipPath>
</defs>
</svg>
