<svg width="309" height="59" viewBox="0 0 309 59" fill="none" xmlns="http://www.w3.org/2000/svg">
<path d="M84.9154 15.0853C83.3916 15.2357 77.055 16.6545 74.9267 17.1113C72.6452 17.7186 51.7994 33.8538 50.4317 37.7755C50.128 39.1433 49.9776 41.2489 49.9776 43.2296L49.8244 46.4248C49.8244 48.7063 50.4572 52.384 50.7608 54.3591C52.1314 54.6655 62.0492 54.3988 63.871 54.6996L63.644 58.7859C61.8619 58.6553 49.2654 58.6865 42.0718 58.6865C38.4197 58.6865 26.6773 59.0895 23.0705 58.9817L23.7516 55.094C25.7294 54.9408 33.9191 55.4487 35.721 53.5475C36.6149 52.6054 36.3311 51.5951 36.3311 46.1183V43.5644C36.3311 42.3442 36.3311 40.0627 36.0247 37.9344C35.2642 35.6529 16.9042 12.7271 12.1879 9.07497C10.8173 8.62094 2.23612 7.76113 0.105002 7.30426L0 3.7997C1.0613 3.26621 10.6045 3.93024 19.8639 3.58688C25.9508 3.35986 39.8357 3.58685 41.5496 3.79117L41.1098 6.87862C39.2852 7.33266 30.4911 7.50291 28.2096 8.11302C34.1688 16.9099 43.5247 28.2976 46.5695 32.7102C48.2721 30.2755 62.9516 20.1562 63.4085 16.6573C61.1241 16.2033 53.5701 15.1108 52.3499 15.1108L51.6264 11.1266C53.6979 10.8031 64.5946 11.1266 70.0061 11.1266L87.5034 11.3593L84.9097 15.1108M91.2719 26.6148L91.1782 26.0104L85.9455 37.9287L95.3894 37.9259L91.2747 26.6432M116.354 57.1485C115.685 57.052 108.06 57.052 105.282 57.052C103.65 57.052 95.3497 57.0038 93.9081 57.0038L94.3394 53.4396C96.2577 53.3431 99.8276 52.5684 101.456 52.3755L96.1556 40.9311C94.1692 40.9311 86.899 41.1581 84.8842 41.5412C84.5011 42.2137 81.7514 44.9095 81.2747 48.5503L86.723 49.5832L86.1555 53.224C84.5267 53.1275 78.0255 53.3205 76.4903 53.224L67.1259 53.4311L68.3177 49.5832C69.85 49.3931 73.3858 48.292 74.7309 48.0083C76.7173 45.1308 86.0732 26.9014 86.8394 25.1733C85.5908 24.8838 83.4739 23.8821 82.1288 23.692L81.9443 21.0586L92.5403 21.3566L103.256 21.2033L102.651 23.7913C101.212 23.885 98.8769 24.5859 97.529 24.8753C98.2016 26.8617 100.872 33.3799 102.884 38.1756C104.416 41.6291 106.964 48.3914 109.362 52.3272L116.456 53.8085L116.553 54.7733L116.354 57.1485ZM172.524 47.2222C171.201 47.1201 164.862 47.1286 161.584 47.2222C158.974 47.296 152.776 46.9867 149.825 47.1144L149.598 43.4992L158.185 42.7613C158.591 40.8317 158.398 38.0876 158.398 35.7522L158.242 31.4957L132.552 32.7159L130.98 32.9202C130.98 38.7204 131.283 40.582 131.689 42.6904C133.392 42.9941 139.626 43.3998 140.949 43.607L140.869 47.5798C139.343 47.4776 129.797 47.5798 126.845 47.5798C123.284 47.5798 114.626 47.5032 112.592 47.6082L112.867 43.5389L121.947 42.6308C122.152 39.9833 122.251 35.8147 122.251 31.4361V26.0445L122.047 17.0887C120.724 16.89 114.569 16.4757 112.739 16.3736L112.416 13.2918C113.636 13.394 122.132 13.1613 126.604 13.1613L141.354 13.1386L141.022 16.3736L131.559 17.188C131.252 18.7147 130.946 20.0399 130.946 24.9207L130.795 27.4661L158.151 26.9752V23.4508C158.151 18.9757 158.846 14.1346 158.338 12.8094C155.321 12.2354 152.277 11.8149 149.218 11.5495L149.49 8.30029C150.71 8.40245 156.428 8.36839 160.699 8.47054L173.003 8.45353L172.703 11.1295C171.38 11.2316 165.481 12.7243 165.481 12.7243C165.481 12.7243 165.078 15.5109 165.373 19.5234L165.691 29.4043L165.903 42.8976C165.415 43.2665 170.574 43.5786 171.999 43.7829L172.555 44.7477L172.49 47.2534M216.798 31.0728C217.167 20.789 209.116 18.0194 198.92 18.7487C193.599 19.1176 182.745 21.9269 182.745 31.0728C182.745 40.1109 191.051 44.9776 202.132 44.0412C210.708 43.2948 215.209 40.1365 216.315 35.7494L216.741 31.0757M224.922 30.2244C225.404 42.6535 214.059 48.8113 199.32 48.8113C193.191 48.8113 185.722 47.6422 179.348 43.817C174.377 40.8317 173.554 36.9639 173.554 32.1256C173.554 22.1199 184.451 13.8225 201.125 13.9303C207.473 13.9303 213.591 14.8951 218.537 18.7544C222.95 22.1965 223.696 23.9048 224.496 27.6705L224.922 30.2244ZM294.837 51.1553L291.307 50.8516L291.27 43.204L295.74 43.7602L299.747 43.9475L298.634 51.4334L294.837 51.1496M299.383 37.6421L292.794 37.0037C293.487 33.6722 292.885 8.09882 292.831 5.37179L292.491 0C294.327 0.360388 294.051 0.170283 301.793 0.987541C306.503 1.4813 307.119 1.69698 308.671 1.75373L306.648 8.12436C304.945 13.2209 299.914 35.9424 299.383 37.645V37.6421ZM278.015 26.8589C278.716 15.684 267.95 11.6147 256.344 12.4093C250.271 12.8264 238.92 16.4161 238.92 26.8589C238.92 37.1739 248.418 42.3754 261.072 41.2744C270.862 40.4231 274.934 36.7398 277.161 31.7454C277.161 31.7454 277.803 30.2556 278.015 26.8589ZM286.792 25.2073C287.661 36.8419 274.233 46.5099 257.402 46.5099C250.402 46.5099 244.443 45.6587 237.538 41.1183C231.863 37.3612 229.147 34.1092 228.438 27.696C227.181 16.3452 240.876 6.80198 259.914 6.924C267.161 6.924 274.145 8.05909 279.795 12.4292C284.832 16.3565 285.711 20.0853 286.605 24.3872L286.792 25.2073Z" fill="#A9AA80"/>
</svg>
