<svg width="510" height="72" viewBox="0 0 510 72" fill="none" xmlns="http://www.w3.org/2000/svg">
<path d="M0 0H510V64H20.4545L0 47.5V0Z" fill="#F8EF00"/>
<line x1="508.973" x2="508.973" y2="64" stroke="#FFFDBF" stroke-width="2"/>
<path d="M40.928 38V28.64C40.928 28.2453 41.024 27.8827 41.216 27.552C41.408 27.2213 41.6693 26.96 42 26.768C42.3307 26.576 42.6933 26.48 43.088 26.48H50.288C50.6827 26.48 51.04 26.576 51.36 26.768C51.6907 26.96 51.952 27.2213 52.144 27.552C52.3467 27.8827 52.448 28.2453 52.448 28.64V38H50.512V34.048H42.848V38H40.928ZM42.848 32.128H50.512V28.704C50.512 28.6187 50.48 28.5493 50.416 28.496C50.3627 28.4427 50.2987 28.416 50.224 28.416H43.136C43.0613 28.416 42.992 28.4427 42.928 28.496C42.8747 28.5493 42.848 28.6187 42.848 28.704V32.128ZM59.567 38C59.1723 38 58.8097 37.904 58.479 37.712C58.159 37.52 57.903 37.2587 57.711 36.928C57.519 36.5973 57.423 36.2347 57.423 35.84V35.072H59.343V35.776C59.343 35.8613 59.3697 35.9307 59.423 35.984C59.4763 36.0373 59.5457 36.064 59.631 36.064H66.703C66.7883 36.064 66.8577 36.0373 66.911 35.984C66.975 35.9307 67.007 35.8613 67.007 35.776V33.488C67.007 33.4133 66.975 33.3493 66.911 33.296C66.8577 33.232 66.7883 33.2 66.703 33.2H59.567C59.1723 33.2 58.8097 33.104 58.479 32.912C58.159 32.72 57.903 32.464 57.711 32.144C57.519 31.8133 57.423 31.4507 57.423 31.056V28.64C57.423 28.2453 57.519 27.8827 57.711 27.552C57.903 27.2213 58.159 26.96 58.479 26.768C58.8097 26.576 59.1723 26.48 59.567 26.48H66.783C67.1777 26.48 67.535 26.576 67.855 26.768C68.1857 26.96 68.447 27.2213 68.639 27.552C68.8417 27.8827 68.943 28.2453 68.943 28.64V29.408H67.007V28.704C67.007 28.6187 66.975 28.5493 66.911 28.496C66.8577 28.4427 66.7883 28.416 66.703 28.416H59.631C59.5457 28.416 59.4763 28.4427 59.423 28.496C59.3697 28.5493 59.343 28.6187 59.343 28.704V30.992C59.343 31.0667 59.3697 31.136 59.423 31.2C59.4763 31.2533 59.5457 31.28 59.631 31.28H66.783C67.1777 31.28 67.535 31.376 67.855 31.568C68.1857 31.76 68.447 32.0213 68.639 32.352C68.8417 32.672 68.943 33.0293 68.943 33.424V35.84C68.943 36.2347 68.8417 36.5973 68.639 36.928C68.447 37.2587 68.1857 37.52 67.855 37.712C67.535 37.904 67.1777 38 66.783 38H59.567ZM75.9701 38C75.5755 38 75.2128 37.904 74.8821 37.712C74.5621 37.52 74.3061 37.2587 74.1141 36.928C73.9221 36.5973 73.8261 36.2347 73.8261 35.84V35.072H75.7461V35.776C75.7461 35.8613 75.7728 35.9307 75.8261 35.984C75.8795 36.0373 75.9488 36.064 76.0341 36.064H83.1061C83.1915 36.064 83.2608 36.0373 83.3141 35.984C83.3781 35.9307 83.4101 35.8613 83.4101 35.776V33.488C83.4101 33.4133 83.3781 33.3493 83.3141 33.296C83.2608 33.232 83.1915 33.2 83.1061 33.2H75.9701C75.5755 33.2 75.2128 33.104 74.8821 32.912C74.5621 32.72 74.3061 32.464 74.1141 32.144C73.9221 31.8133 73.8261 31.4507 73.8261 31.056V28.64C73.8261 28.2453 73.9221 27.8827 74.1141 27.552C74.3061 27.2213 74.5621 26.96 74.8821 26.768C75.2128 26.576 75.5755 26.48 75.9701 26.48H83.1861C83.5808 26.48 83.9381 26.576 84.2581 26.768C84.5888 26.96 84.8501 27.2213 85.0421 27.552C85.2448 27.8827 85.3461 28.2453 85.3461 28.64V29.408H83.4101V28.704C83.4101 28.6187 83.3781 28.5493 83.3141 28.496C83.2608 28.4427 83.1915 28.416 83.1061 28.416H76.0341C75.9488 28.416 75.8795 28.4427 75.8261 28.496C75.7728 28.5493 75.7461 28.6187 75.7461 28.704V30.992C75.7461 31.0667 75.7728 31.136 75.8261 31.2C75.8795 31.2533 75.9488 31.28 76.0341 31.28H83.1861C83.5808 31.28 83.9381 31.376 84.2581 31.568C84.5888 31.76 84.8501 32.0213 85.0421 32.352C85.2448 32.672 85.3461 33.0293 85.3461 33.424V35.84C85.3461 36.2347 85.2448 36.5973 85.0421 36.928C84.8501 37.2587 84.5888 37.52 84.2581 37.712C83.9381 37.904 83.5808 38 83.1861 38H75.9701ZM92.4052 38C92.0106 38 91.6479 37.904 91.3172 37.712C90.9866 37.52 90.7252 37.2587 90.5332 36.928C90.3412 36.5973 90.2452 36.2347 90.2452 35.84V28.64C90.2452 28.2453 90.3412 27.8827 90.5332 27.552C90.7252 27.2213 90.9866 26.96 91.3172 26.768C91.6479 26.576 92.0106 26.48 92.4052 26.48H99.6052C99.9999 26.48 100.357 26.576 100.677 26.768C101.008 26.96 101.269 27.2213 101.461 27.552C101.664 27.8827 101.765 28.2453 101.765 28.64V35.84C101.765 36.2347 101.664 36.5973 101.461 36.928C101.269 37.2587 101.008 37.52 100.677 37.712C100.357 37.904 99.9999 38 99.6052 38H92.4052ZM92.4532 36.064H99.5412C99.6159 36.064 99.6799 36.0373 99.7332 35.984C99.7972 35.9307 99.8292 35.8613 99.8292 35.776V28.704C99.8292 28.6187 99.7972 28.5493 99.7332 28.496C99.6799 28.4427 99.6159 28.416 99.5412 28.416H92.4532C92.3786 28.416 92.3092 28.4427 92.2452 28.496C92.1919 28.5493 92.1652 28.6187 92.1652 28.704V35.776C92.1652 35.8613 92.1919 35.9307 92.2452 35.984C92.3092 36.0373 92.3786 36.064 92.4532 36.064ZM108.887 38C108.493 38 108.13 37.904 107.799 37.712C107.469 37.52 107.207 37.2587 107.015 36.928C106.823 36.5973 106.727 36.2347 106.727 35.84V28.64C106.727 28.2453 106.823 27.8827 107.015 27.552C107.207 27.2213 107.469 26.96 107.799 26.768C108.13 26.576 108.493 26.48 108.887 26.48H118.215V28.416H109.223C109.053 28.416 108.914 28.4693 108.807 28.576C108.701 28.672 108.647 28.8053 108.647 28.976V35.504C108.647 35.6747 108.701 35.8133 108.807 35.92C108.914 36.016 109.053 36.064 109.223 36.064H118.215V38H108.887ZM122.956 38V26.48H124.86V38H122.956ZM129.737 38V28.64C129.737 28.2453 129.833 27.8827 130.025 27.552C130.217 27.2213 130.479 26.96 130.809 26.768C131.14 26.576 131.503 26.48 131.897 26.48H139.097C139.492 26.48 139.849 26.576 140.169 26.768C140.5 26.96 140.761 27.2213 140.953 27.552C141.156 27.8827 141.257 28.2453 141.257 28.64V38H139.321V34.048H131.657V38H129.737ZM131.657 32.128H139.321V28.704C139.321 28.6187 139.289 28.5493 139.225 28.496C139.172 28.4427 139.108 28.416 139.033 28.416H131.945C131.871 28.416 131.801 28.4427 131.737 28.496C131.684 28.5493 131.657 28.6187 131.657 28.704V32.128ZM150.504 38V28.416H145.704V26.48H157.224V28.416H152.424V38H150.504ZM161.653 38V26.48H172.229V28.416H163.589V31.28H170.549V33.2H163.589V36.064H172.229V38H161.653ZM185.069 38V28.64C185.069 28.2453 185.165 27.8827 185.357 27.552C185.549 27.2213 185.81 26.96 186.141 26.768C186.471 26.576 186.834 26.48 187.229 26.48H194.429C194.823 26.48 195.181 26.576 195.501 26.768C195.831 26.96 196.093 27.2213 196.285 27.552C196.487 27.8827 196.589 28.2453 196.589 28.64V38H194.653V34.048H186.989V38H185.069ZM186.989 32.128H194.653V28.704C194.653 28.6187 194.621 28.5493 194.557 28.496C194.503 28.4427 194.439 28.416 194.365 28.416H187.277C187.202 28.416 187.133 28.4427 187.069 28.496C187.015 28.5493 186.989 28.6187 186.989 28.704V32.128ZM201.644 38V26.48H211.004C211.398 26.48 211.756 26.576 212.076 26.768C212.406 26.96 212.668 27.2213 212.86 27.552C213.062 27.8827 213.164 28.2453 213.164 28.64V35.84C213.164 36.2347 213.062 36.5973 212.86 36.928C212.668 37.2587 212.406 37.52 212.076 37.712C211.756 37.904 211.398 38 211.004 38H201.644ZM203.852 36.064H210.94C211.014 36.064 211.078 36.0373 211.132 35.984C211.196 35.9307 211.228 35.8613 211.228 35.776V28.704C211.228 28.6187 211.196 28.5493 211.132 28.496C211.078 28.4427 211.014 28.416 210.94 28.416H203.852C203.766 28.416 203.692 28.4427 203.628 28.496C203.574 28.5493 203.548 28.6187 203.548 28.704V35.776C203.548 35.8613 203.574 35.9307 203.628 35.984C203.692 36.0373 203.766 36.064 203.852 36.064ZM218.187 38V26.48H227.547C227.942 26.48 228.299 26.576 228.619 26.768C228.95 26.96 229.211 27.2213 229.403 27.552C229.606 27.8827 229.707 28.2453 229.707 28.64V35.84C229.707 36.2347 229.606 36.5973 229.403 36.928C229.211 37.2587 228.95 37.52 228.619 37.712C228.299 37.904 227.942 38 227.547 38H218.187ZM220.395 36.064H227.483C227.558 36.064 227.622 36.0373 227.675 35.984C227.739 35.9307 227.771 35.8613 227.771 35.776V28.704C227.771 28.6187 227.739 28.5493 227.675 28.496C227.622 28.4427 227.558 28.416 227.483 28.416H220.395C220.31 28.416 220.235 28.4427 220.171 28.496C220.118 28.5493 220.091 28.6187 220.091 28.704V35.776C220.091 35.8613 220.118 35.9307 220.171 35.984C220.235 36.0373 220.31 36.064 220.395 36.064ZM244.011 38L240.475 33.776H242.987L246.171 37.552V38H244.011ZM234.699 38V26.496H244.059C244.454 26.496 244.811 26.5973 245.131 26.8C245.462 26.992 245.723 27.2533 245.915 27.584C246.118 27.904 246.219 28.2613 246.219 28.656V31.824C246.219 32.208 246.118 32.5653 245.915 32.896C245.723 33.2267 245.462 33.488 245.131 33.68C244.811 33.872 244.454 33.968 244.059 33.968L236.619 33.984V38H234.699ZM236.907 32.032H243.995C244.07 32.032 244.134 32.0053 244.187 31.952C244.251 31.8987 244.283 31.8293 244.283 31.744V28.704C244.283 28.6293 244.251 28.5653 244.187 28.512C244.134 28.448 244.07 28.416 243.995 28.416H236.907C236.832 28.416 236.763 28.448 236.699 28.512C236.646 28.5653 236.619 28.6293 236.619 28.704V31.744C236.619 31.8293 236.646 31.8987 236.699 31.952C236.763 32.0053 236.832 32.032 236.907 32.032ZM251.134 38V26.48H261.71V28.416H253.07V31.28H260.03V33.2H253.07V36.064H261.71V38H251.134ZM268.648 38C268.254 38 267.891 37.904 267.56 37.712C267.24 37.52 266.984 37.2587 266.792 36.928C266.6 36.5973 266.504 36.2347 266.504 35.84V35.072H268.424V35.776C268.424 35.8613 268.451 35.9307 268.504 35.984C268.558 36.0373 268.627 36.064 268.712 36.064H275.784C275.87 36.064 275.939 36.0373 275.992 35.984C276.056 35.9307 276.088 35.8613 276.088 35.776V33.488C276.088 33.4133 276.056 33.3493 275.992 33.296C275.939 33.232 275.87 33.2 275.784 33.2H268.648C268.254 33.2 267.891 33.104 267.56 32.912C267.24 32.72 266.984 32.464 266.792 32.144C266.6 31.8133 266.504 31.4507 266.504 31.056V28.64C266.504 28.2453 266.6 27.8827 266.792 27.552C266.984 27.2213 267.24 26.96 267.56 26.768C267.891 26.576 268.254 26.48 268.648 26.48H275.864C276.259 26.48 276.616 26.576 276.936 26.768C277.267 26.96 277.528 27.2213 277.72 27.552C277.923 27.8827 278.024 28.2453 278.024 28.64V29.408H276.088V28.704C276.088 28.6187 276.056 28.5493 275.992 28.496C275.939 28.4427 275.87 28.416 275.784 28.416H268.712C268.627 28.416 268.558 28.4427 268.504 28.496C268.451 28.5493 268.424 28.6187 268.424 28.704V30.992C268.424 31.0667 268.451 31.136 268.504 31.2C268.558 31.2533 268.627 31.28 268.712 31.28H275.864C276.259 31.28 276.616 31.376 276.936 31.568C277.267 31.76 277.528 32.0213 277.72 32.352C277.923 32.672 278.024 33.0293 278.024 33.424V35.84C278.024 36.2347 277.923 36.5973 277.72 36.928C277.528 37.2587 277.267 37.52 276.936 37.712C276.616 37.904 276.259 38 275.864 38H268.648ZM285.051 38C284.657 38 284.294 37.904 283.963 37.712C283.643 37.52 283.387 37.2587 283.195 36.928C283.003 36.5973 282.907 36.2347 282.907 35.84V35.072H284.827V35.776C284.827 35.8613 284.854 35.9307 284.907 35.984C284.961 36.0373 285.03 36.064 285.115 36.064H292.187C292.273 36.064 292.342 36.0373 292.395 35.984C292.459 35.9307 292.491 35.8613 292.491 35.776V33.488C292.491 33.4133 292.459 33.3493 292.395 33.296C292.342 33.232 292.273 33.2 292.187 33.2H285.051C284.657 33.2 284.294 33.104 283.963 32.912C283.643 32.72 283.387 32.464 283.195 32.144C283.003 31.8133 282.907 31.4507 282.907 31.056V28.64C282.907 28.2453 283.003 27.8827 283.195 27.552C283.387 27.2213 283.643 26.96 283.963 26.768C284.294 26.576 284.657 26.48 285.051 26.48H292.267C292.662 26.48 293.019 26.576 293.339 26.768C293.67 26.96 293.931 27.2213 294.123 27.552C294.326 27.8827 294.427 28.2453 294.427 28.64V29.408H292.491V28.704C292.491 28.6187 292.459 28.5493 292.395 28.496C292.342 28.4427 292.273 28.416 292.187 28.416H285.115C285.03 28.416 284.961 28.4427 284.907 28.496C284.854 28.5493 284.827 28.6187 284.827 28.704V30.992C284.827 31.0667 284.854 31.136 284.907 31.2C284.961 31.2533 285.03 31.28 285.115 31.28H292.267C292.662 31.28 293.019 31.376 293.339 31.568C293.67 31.76 293.931 32.0213 294.123 32.352C294.326 32.672 294.427 33.0293 294.427 33.424V35.84C294.427 36.2347 294.326 36.5973 294.123 36.928C293.931 37.2587 293.67 37.52 293.339 37.712C293.019 37.904 292.662 38 292.267 38H285.051Z" fill="black"/>
<path d="M458.562 25.25L465.312 32L458.562 38.75M464.375 32H450.688" stroke="black" stroke-width="2" stroke-miterlimit="10" stroke-linecap="square"/>
<rect x="452" y="56" width="38" height="8" fill="black"/>
<g filter="url(#filter0_d_429_613)">
<line x1="453" y1="56" x2="453" y2="64" stroke="#FFFDBF" stroke-width="2"/>
</g>
<path d="M463.016 63C462.968 63 462.936 62.9813 462.92 62.944L461.744 60.464C461.739 60.448 461.728 60.44 461.712 60.44H460.352C460.331 60.44 460.32 60.4507 460.32 60.472V62.92C460.32 62.9733 460.293 63 460.24 63H459.832C459.779 63 459.752 62.9733 459.752 62.92V57.48C459.752 57.4267 459.779 57.4 459.832 57.4H461.904C462.363 57.4 462.733 57.544 463.016 57.832C463.299 58.1147 463.44 58.4853 463.44 58.944C463.44 59.3173 463.339 59.6347 463.136 59.896C462.933 60.1573 462.659 60.3253 462.312 60.4C462.291 60.4107 462.285 60.424 462.296 60.44L463.496 62.904C463.501 62.9147 463.504 62.928 463.504 62.944C463.504 62.9813 463.483 63 463.44 63H463.016ZM460.352 57.896C460.331 57.896 460.32 57.9067 460.32 57.928V59.952C460.32 59.9733 460.331 59.984 460.352 59.984H461.84C462.149 59.984 462.4 59.888 462.592 59.696C462.784 59.504 462.88 59.2533 462.88 58.944C462.88 58.6347 462.784 58.384 462.592 58.192C462.4 57.9947 462.149 57.896 461.84 57.896H460.352ZM466.714 62.464C466.698 62.4907 466.704 62.504 466.73 62.504H469.242C469.296 62.504 469.322 62.5307 469.322 62.584V62.92C469.322 62.9733 469.296 63 469.242 63H466.05C465.997 63 465.97 62.9733 465.97 62.92V62.584C465.97 62.5467 465.984 62.5147 466.01 62.488C466.192 62.2747 466.6 61.7733 467.234 60.984L467.826 60.248C468.328 59.6133 468.578 59.12 468.578 58.768C468.578 58.4853 468.482 58.2587 468.29 58.088C468.098 57.9173 467.848 57.832 467.538 57.832C467.234 57.832 466.989 57.92 466.802 58.096C466.616 58.2667 466.525 58.4933 466.53 58.776V59.024C466.53 59.0773 466.504 59.104 466.45 59.104H466.034C465.981 59.104 465.954 59.0773 465.954 59.024V58.704C465.965 58.2933 466.117 57.9627 466.41 57.712C466.709 57.4613 467.085 57.336 467.538 57.336C467.858 57.336 468.141 57.3973 468.386 57.52C468.632 57.6427 468.821 57.8133 468.954 58.032C469.088 58.2453 469.154 58.488 469.154 58.76C469.154 59.2133 468.904 59.76 468.402 60.4C468.141 60.736 467.637 61.3547 466.89 62.256L466.714 62.464ZM475.027 60.552C475.075 60.7867 475.099 61.0267 475.099 61.272C475.099 61.5333 475.075 61.7573 475.027 61.944C474.937 62.2853 474.755 62.5573 474.484 62.76C474.212 62.9573 473.883 63.056 473.499 63.056C473.121 63.056 472.798 62.96 472.531 62.768C472.265 62.576 472.083 62.32 471.987 62C471.95 61.8827 471.926 61.7653 471.915 61.648V61.632C471.915 61.5893 471.939 61.568 471.987 61.568H472.411C472.465 61.568 472.494 61.5947 472.499 61.648C472.499 61.68 472.51 61.7333 472.531 61.808C472.585 62.0373 472.694 62.2213 472.859 62.36C473.03 62.4933 473.241 62.56 473.491 62.56C473.747 62.56 473.961 62.488 474.132 62.344C474.307 62.2 474.422 62.0027 474.475 61.752C474.507 61.6293 474.523 61.4693 474.523 61.272C474.523 61.0907 474.51 60.9173 474.484 60.752C474.446 60.5067 474.339 60.32 474.163 60.192C473.987 60.064 473.769 60 473.507 60C473.273 60 473.062 60.0533 472.875 60.16C472.689 60.2667 472.569 60.408 472.515 60.584C472.499 60.632 472.47 60.656 472.427 60.656H471.995C471.942 60.656 471.915 60.6293 471.915 60.576V57.48C471.915 57.4267 471.942 57.4 471.995 57.4H474.796C474.849 57.4 474.875 57.4267 474.875 57.48V57.816C474.875 57.8693 474.849 57.896 474.796 57.896H472.515C472.494 57.896 472.483 57.9067 472.483 57.928L472.475 59.864C472.475 59.8747 472.478 59.8827 472.483 59.888C472.494 59.8933 472.505 59.8907 472.515 59.88C472.649 59.7573 472.806 59.664 472.987 59.6C473.169 59.5307 473.361 59.496 473.563 59.496C473.942 59.496 474.262 59.5893 474.523 59.776C474.785 59.9573 474.953 60.216 475.027 60.552Z" fill="#F8EF00"/>
<defs>
<filter id="filter0_d_429_613" x="448" y="56" width="10" height="16" filterUnits="userSpaceOnUse" color-interpolation-filters="sRGB">
<feFlood flood-opacity="0" result="BackgroundImageFix"/>
<feColorMatrix in="SourceAlpha" type="matrix" values="0 0 0 0 0 0 0 0 0 0 0 0 0 0 0 0 0 0 127 0" result="hardAlpha"/>
<feOffset dy="4"/>
<feGaussianBlur stdDeviation="2"/>
<feComposite in2="hardAlpha" operator="out"/>
<feColorMatrix type="matrix" values="0 0 0 0 0 0 0 0 0 0 0 0 0 0 0 0 0 0 0.25 0"/>
<feBlend mode="normal" in2="BackgroundImageFix" result="effect1_dropShadow_429_613"/>
<feBlend mode="normal" in="SourceGraphic" in2="effect1_dropShadow_429_613" result="shape"/>
</filter>
</defs>
</svg>
