<svg width="531" height="45" viewBox="0 0 531 45" fill="none" xmlns="http://www.w3.org/2000/svg">
<path d="M339.542 41.4872L363.246 15.6905C371.888 6.28471 383.61 1.00037 395.832 0.999995L530.936 1.00006" stroke="#FFFDBF" stroke-miterlimit="10"/>
<path d="M191.395 41.4874L167.691 15.6906C159.048 6.2847 147.327 1.00033 135.104 0.999942L0.000245969 0.999874" stroke="#FFFDBF" stroke-miterlimit="10"/>
<path d="M254.16 40V24.664H246.48V22.72H263.76V24.664H256.104V40H254.16ZM268.387 40C267.859 40 267.371 39.872 266.923 39.616C266.491 39.36 266.147 39.016 265.891 38.584C265.635 38.136 265.507 37.648 265.507 37.12V25.6C265.507 25.072 265.635 24.592 265.891 24.16C266.147 23.712 266.491 23.36 266.923 23.104C267.371 22.848 267.859 22.72 268.387 22.72H279.907C280.435 22.72 280.915 22.848 281.347 23.104C281.795 23.36 282.147 23.712 282.403 24.16C282.659 24.592 282.787 25.072 282.787 25.6V37.12C282.787 37.648 282.659 38.136 282.403 38.584C282.147 39.016 281.795 39.36 281.347 39.616C280.915 39.872 280.435 40 279.907 40H268.387ZM268.387 38.056H279.907C280.163 38.056 280.379 37.968 280.555 37.792C280.747 37.6 280.843 37.376 280.843 37.12V25.6C280.843 25.344 280.747 25.128 280.555 24.952C280.379 24.76 280.163 24.664 279.907 24.664H268.387C268.131 24.664 267.907 24.76 267.715 24.952C267.539 25.128 267.451 25.344 267.451 25.6V37.12C267.451 37.376 267.539 37.6 267.715 37.792C267.907 37.968 268.131 38.056 268.387 38.056Z" fill="#FFFDBF"/>
</svg>
