<svg width="897" height="314" viewBox="0 0 897 314" fill="none" xmlns="http://www.w3.org/2000/svg">
<path opacity="0.8" d="M63.9937 265.721L60.5296 275.258H59.1138L63.1025 264.794H64.0152L63.9937 265.721ZM66.8972 275.258L63.4259 265.721L63.4043 264.794H64.3171L68.3202 275.258H66.8972ZM66.7175 271.384V272.52H60.8386V271.384H66.7175ZM74.3313 265.721L70.8672 275.258H69.4514L73.4401 264.794H74.3528L74.3313 265.721ZM77.2348 275.258L73.7635 265.721L73.742 264.794H74.6547L78.6578 275.258H77.2348ZM77.0551 271.384V272.52H71.1762V271.384H77.0551Z" fill="white"/>
<path opacity="0.8" d="M245.812 270.364H243.16L243.146 269.25H245.554C245.951 269.25 246.299 269.182 246.596 269.048C246.893 268.914 247.123 268.723 247.286 268.473C247.453 268.219 247.537 267.918 247.537 267.568C247.537 267.185 247.463 266.873 247.314 266.634C247.171 266.389 246.948 266.212 246.646 266.102C246.349 265.987 245.971 265.929 245.511 265.929H243.469V275.258H242.082V264.794H245.511C246.047 264.794 246.526 264.849 246.948 264.959C247.37 265.064 247.726 265.232 248.019 265.462C248.316 265.687 248.541 265.975 248.694 266.325C248.848 266.674 248.924 267.094 248.924 267.582C248.924 268.013 248.814 268.404 248.594 268.754C248.373 269.099 248.067 269.381 247.674 269.602C247.286 269.822 246.831 269.963 246.308 270.026L245.812 270.364ZM245.748 275.258H242.614L243.398 274.129H245.748C246.189 274.129 246.562 274.053 246.869 273.899C247.18 273.746 247.417 273.531 247.58 273.253C247.743 272.97 247.825 272.637 247.825 272.254C247.825 271.866 247.755 271.53 247.616 271.248C247.477 270.965 247.259 270.747 246.962 270.594C246.665 270.44 246.282 270.364 245.812 270.364H243.836L243.85 269.25H246.553L246.847 269.652C247.35 269.695 247.777 269.839 248.127 270.083C248.476 270.323 248.742 270.629 248.924 271.003C249.111 271.377 249.205 271.789 249.205 272.239C249.205 272.891 249.061 273.442 248.773 273.892C248.491 274.338 248.091 274.678 247.573 274.913C247.056 275.143 246.447 275.258 245.748 275.258ZM255.719 270.364H253.067L253.052 269.25H255.46C255.858 269.25 256.205 269.182 256.502 269.048C256.799 268.914 257.029 268.723 257.192 268.473C257.36 268.219 257.444 267.918 257.444 267.568C257.444 267.185 257.369 266.873 257.221 266.634C257.077 266.389 256.854 266.212 256.552 266.102C256.255 265.987 255.877 265.929 255.417 265.929H253.376V275.258H251.989V264.794H255.417C255.954 264.794 256.433 264.849 256.854 264.959C257.276 265.064 257.633 265.232 257.925 265.462C258.222 265.687 258.447 265.975 258.601 266.325C258.754 266.674 258.831 267.094 258.831 267.582C258.831 268.013 258.721 268.404 258.5 268.754C258.28 269.099 257.973 269.381 257.58 269.602C257.192 269.822 256.737 269.963 256.215 270.026L255.719 270.364ZM255.654 275.258H252.521L253.304 274.129H255.654C256.095 274.129 256.469 274.053 256.775 273.899C257.087 273.746 257.324 273.531 257.487 273.253C257.65 272.97 257.731 272.637 257.731 272.254C257.731 271.866 257.662 271.53 257.523 271.248C257.384 270.965 257.166 270.747 256.869 270.594C256.572 270.44 256.188 270.364 255.719 270.364H253.742L253.757 269.25H256.459L256.754 269.652C257.257 269.695 257.683 269.839 258.033 270.083C258.383 270.323 258.649 270.629 258.831 271.003C259.018 271.377 259.111 271.789 259.111 272.239C259.111 272.891 258.967 273.442 258.68 273.892C258.397 274.338 257.997 274.678 257.48 274.913C256.962 275.143 256.354 275.258 255.654 275.258Z" fill="white"/>
<path opacity="0.8" d="M456.498 271.93H457.878C457.806 272.591 457.617 273.183 457.311 273.705C457.004 274.228 456.57 274.642 456.01 274.949C455.449 275.251 454.75 275.402 453.911 275.402C453.298 275.402 452.74 275.287 452.237 275.057C451.738 274.827 451.31 274.501 450.95 274.079C450.591 273.653 450.313 273.142 450.116 272.548C449.925 271.949 449.829 271.283 449.829 270.55V269.508C449.829 268.775 449.925 268.112 450.116 267.518C450.313 266.919 450.593 266.406 450.957 265.98C451.326 265.553 451.769 265.225 452.287 264.995C452.804 264.765 453.387 264.65 454.033 264.65C454.824 264.65 455.492 264.798 456.038 265.096C456.585 265.393 457.009 265.805 457.311 266.332C457.617 266.854 457.806 267.46 457.878 268.15H456.498C456.431 267.661 456.307 267.242 456.125 266.892C455.943 266.538 455.684 266.265 455.349 266.073C455.013 265.881 454.575 265.785 454.033 265.785C453.569 265.785 453.159 265.874 452.804 266.051C452.455 266.229 452.16 266.48 451.92 266.806C451.686 267.132 451.508 267.522 451.389 267.977C451.269 268.433 451.209 268.938 451.209 269.494V270.55C451.209 271.063 451.262 271.545 451.367 271.995C451.477 272.445 451.643 272.841 451.863 273.181C452.083 273.521 452.364 273.789 452.704 273.986C453.044 274.177 453.446 274.273 453.911 274.273C454.501 274.273 454.97 274.18 455.32 273.993C455.67 273.806 455.933 273.538 456.11 273.188C456.292 272.838 456.422 272.419 456.498 271.93ZM466.822 271.93H468.202C468.13 272.591 467.94 273.183 467.634 273.705C467.327 274.228 466.894 274.642 466.333 274.949C465.772 275.251 465.073 275.402 464.234 275.402C463.621 275.402 463.063 275.287 462.56 275.057C462.062 274.827 461.633 274.501 461.273 274.079C460.914 273.653 460.636 273.142 460.44 272.548C460.248 271.949 460.152 271.283 460.152 270.55V269.508C460.152 268.775 460.248 268.112 460.44 267.518C460.636 266.919 460.916 266.406 461.281 265.98C461.65 265.553 462.093 265.225 462.61 264.995C463.128 264.765 463.71 264.65 464.357 264.65C465.147 264.65 465.816 264.798 466.362 265.096C466.908 265.393 467.332 265.805 467.634 266.332C467.94 266.854 468.13 267.46 468.202 268.15H466.822C466.755 267.661 466.63 267.242 466.448 266.892C466.266 266.538 466.007 266.265 465.672 266.073C465.336 265.881 464.898 265.785 464.357 265.785C463.892 265.785 463.482 265.874 463.128 266.051C462.778 266.229 462.483 266.48 462.244 266.806C462.009 267.132 461.832 267.522 461.712 267.977C461.592 268.433 461.532 268.938 461.532 269.494V270.55C461.532 271.063 461.585 271.545 461.69 271.995C461.8 272.445 461.966 272.841 462.186 273.181C462.407 273.521 462.687 273.789 463.027 273.986C463.367 274.177 463.77 274.273 464.234 274.273C464.824 274.273 465.293 274.18 465.643 273.993C465.993 273.806 466.256 273.538 466.434 273.188C466.616 272.838 466.745 272.419 466.822 271.93Z" fill="white"/>
<path opacity="0.8" d="M663.183 275.258H660.998L661.013 274.129H663.183C663.931 274.129 664.553 273.974 665.052 273.662C665.55 273.346 665.924 272.905 666.173 272.34C666.427 271.77 666.554 271.104 666.554 270.342V269.702C666.554 269.103 666.482 268.572 666.338 268.107C666.194 267.637 665.984 267.242 665.706 266.921C665.428 266.595 665.088 266.348 664.685 266.181C664.288 266.013 663.83 265.929 663.312 265.929H660.955V264.794H663.312C663.998 264.794 664.623 264.909 665.188 265.139C665.754 265.364 666.24 265.692 666.647 266.123C667.059 266.55 667.375 267.067 667.596 267.676C667.816 268.279 667.926 268.96 667.926 269.717V270.342C667.926 271.099 667.816 271.782 667.596 272.39C667.375 272.994 667.057 273.509 666.64 273.935C666.228 274.362 665.73 274.69 665.145 274.92C664.565 275.145 663.911 275.258 663.183 275.258ZM661.739 264.794V275.258H660.351V264.794H661.739ZM673.578 275.258H671.393L671.408 274.129H673.578C674.326 274.129 674.949 273.974 675.447 273.662C675.945 273.346 676.319 272.905 676.568 272.34C676.822 271.77 676.949 271.104 676.949 270.342V269.702C676.949 269.103 676.877 268.572 676.733 268.107C676.59 267.637 676.379 267.242 676.101 266.921C675.823 266.595 675.483 266.348 675.08 266.181C674.683 266.013 674.225 265.929 673.708 265.929H671.35V264.794H673.708C674.393 264.794 675.018 264.909 675.583 265.139C676.149 265.364 676.635 265.692 677.042 266.123C677.454 266.55 677.771 267.067 677.991 267.676C678.211 268.279 678.322 268.96 678.322 269.717V270.342C678.322 271.099 678.211 271.782 677.991 272.39C677.771 272.994 677.452 273.509 677.035 273.935C676.623 274.362 676.125 274.69 675.54 274.92C674.961 275.145 674.307 275.258 673.578 275.258ZM672.134 264.794V275.258H670.747V264.794H672.134Z" fill="white"/>
<path opacity="0.8" d="M871.629 275.356V276.484H866.088V275.356H871.629ZM866.368 266.02V276.484H864.981V266.02H866.368ZM870.896 270.519V271.648H866.088V270.519H870.896ZM871.557 266.02V267.156H866.088V266.02H871.557ZM880.73 275.356V276.484H875.189V275.356H880.73ZM875.47 266.02V276.484H874.083V266.02H875.47ZM879.997 270.519V271.648H875.189V270.519H879.997ZM880.659 266.02V267.156H875.189V266.02H880.659Z" fill="white"/>
<path d="M253.285 114.658C158.84 114.658 45.3828 152.189 45.3828 152.189V253.898H876.992V84.6328C810.145 125.542 781.934 152.189 669.09 152.189C556.246 152.189 542.141 189.72 461.188 189.72C380.234 189.72 347.73 114.658 253.285 114.658Z" fill="url(#paint0_linear_113_1950)"/>
<path d="M45.3828 152.189C45.3828 152.189 158.84 114.658 253.285 114.658C347.73 114.658 380.234 189.72 461.188 189.72C542.141 189.72 556.246 152.189 669.09 152.189C781.934 152.189 810.145 125.542 876.992 84.6328" stroke="#F8EF00" stroke-opacity="0.1" stroke-width="4.90625"/>
<path d="M253.285 192.878C158.84 192.878 45.3828 121.943 45.3828 121.943V253.898H876.992V59.9312C810.145 9.51686 781.934 173.212 669.09 173.212C556.246 173.212 562.992 136.456 461.188 136.456C359.383 136.456 347.73 192.878 253.285 192.878Z" fill="url(#paint1_linear_113_1950)"/>
<path d="M45.3828 121.943C45.3828 121.943 158.84 192.878 253.285 192.878C347.73 192.878 359.383 136.456 461.188 136.456C562.992 136.456 556.246 173.212 669.09 173.212C781.934 173.212 810.145 9.51686 876.992 59.9312" stroke="#F8EF00" stroke-width="4.90625"/>
<line x1="26.9844" y1="252.059" x2="895.391" y2="252.059" stroke="#F8EF00" stroke-width="1.22656"/>
<path d="M253.285 165.13C157.613 165.13 45.3828 77.2867 45.3828 77.2867V253.898H876.992V165.293C810.145 118.685 752.496 31.8906 669.09 31.8906C585.684 31.8906 566.059 106.674 461.188 106.674C356.316 106.674 348.957 165.13 253.285 165.13Z" fill="url(#paint2_linear_113_1950)"/>
<path d="M45.3828 77.2867C45.3828 77.2867 157.613 165.13 253.285 165.13C348.957 165.13 356.316 106.674 461.188 106.674C566.059 106.674 585.684 31.8906 669.09 31.8906C752.496 31.8906 810.145 118.685 876.992 165.293" stroke="#FFFDBF" stroke-width="4.90625"/>
<circle cx="45.3828" cy="121.43" r="4.90625" fill="white" stroke="#F8EF00" stroke-width="2.45312"/>
<circle cx="45.3828" cy="152.094" r="4.90625" fill="white" stroke="#F8EF00" stroke-opacity="0.1" stroke-width="2.45312"/>
<circle cx="251.445" cy="114.07" r="4.90625" fill="white" stroke="#F8EF00" stroke-opacity="0.1" stroke-width="2.45312"/>
<circle cx="459.961" cy="190.117" r="4.90625" fill="white" stroke="#F8EF00" stroke-opacity="0.1" stroke-width="2.45312"/>
<circle cx="668.477" cy="152.094" r="4.90625" fill="white" stroke="#F8EF00" stroke-opacity="0.1" stroke-width="2.45312"/>
<circle cx="876.992" cy="84.6328" r="4.90625" fill="white" stroke="#F8EF00" stroke-opacity="0.1" stroke-width="2.45312"/>
<circle cx="45.3828" cy="76.0469" r="4.90625" fill="white" stroke="#FFFDBF" stroke-width="2.45312"/>
<circle cx="251.445" cy="164.359" r="4.90625" fill="white" stroke="#FFFDBF" stroke-width="2.45312"/>
<circle cx="459.961" cy="105.484" r="4.90625" fill="white" stroke="#FFFDBF" stroke-width="2.45312"/>
<circle cx="668.477" cy="31.8906" r="4.90625" fill="white" stroke="#FFFDBF" stroke-width="2.45312"/>
<circle cx="876.992" cy="164.359" r="4.90625" fill="white" stroke="#FFFDBF" stroke-width="2.45312"/>
<circle cx="251.445" cy="192.57" r="4.90625" fill="white" stroke="#F8EF00" stroke-width="2.45312"/>
<circle cx="459.961" cy="137.375" r="4.90625" fill="white" stroke="#F8EF00" stroke-width="2.45312"/>
<circle cx="668.477" cy="174.172" r="4.90625" fill="white" stroke="#F8EF00" stroke-width="2.45312"/>
<circle cx="876.992" cy="60.1016" r="4.90625" fill="white" stroke="#F8EF00" stroke-width="2.45312"/>
<path opacity="0.8" d="M3.31553 12.6992L2.25187 12.4261L2.77652 7.21558H8.14512V8.44453H3.90486L3.58864 11.2905C3.78029 11.1803 4.02224 11.0773 4.31451 10.9815C4.61157 10.8857 4.95175 10.8378 5.33505 10.8378C5.81897 10.8378 6.25258 10.9216 6.63588 11.0893C7.01918 11.2522 7.34498 11.487 7.61329 11.7936C7.8864 12.1003 8.09482 12.4692 8.23855 12.9004C8.38229 13.3316 8.45416 13.8131 8.45416 14.345C8.45416 14.8481 8.38469 15.3104 8.24574 15.732C8.11158 16.1537 7.90796 16.5226 7.63485 16.8388C7.36175 17.1503 7.01678 17.3922 6.59994 17.5647C6.18789 17.7372 5.70158 17.8234 5.141 17.8234C4.71937 17.8234 4.3193 17.7659 3.94079 17.6509C3.56707 17.5312 3.23169 17.3515 2.93463 17.1119C2.64236 16.8676 2.4028 16.5657 2.21594 16.2064C2.03387 15.8422 1.91888 15.4158 1.87097 14.9271H3.13586C3.19336 15.32 3.30835 15.6506 3.48083 15.9189C3.65332 16.1872 3.87851 16.3908 4.1564 16.5298C4.43908 16.6639 4.76729 16.731 5.141 16.731C5.45723 16.731 5.73752 16.6759 5.98187 16.5657C6.22622 16.4555 6.43225 16.2974 6.59994 16.0914C6.76764 15.8854 6.8946 15.6362 6.98085 15.3439C7.07188 15.0517 7.1174 14.7235 7.1174 14.3593C7.1174 14.0287 7.07188 13.7221 6.98085 13.4394C6.88981 13.1567 6.75326 12.91 6.57119 12.6992C6.39392 12.4884 6.17592 12.3255 5.91719 12.2105C5.65846 12.0907 5.3614 12.0308 5.02601 12.0308C4.58043 12.0308 4.24264 12.0907 4.01266 12.2105C3.78747 12.3302 3.5551 12.4931 3.31553 12.6992ZM13.7466 14.5175L15.8236 7.21558H16.8298L16.2476 10.0544L14.0125 17.6797H13.0135L13.7466 14.5175ZM11.5977 7.21558L13.2507 14.3737L13.7466 17.6797H12.7548L10.2178 7.21558H11.5977ZM19.5177 14.3665L21.1347 7.21558H22.5218L19.992 17.6797H19.0002L19.5177 14.3665ZM16.9807 7.21558L19.0002 14.5175L19.7333 17.6797H18.7343L16.5782 10.0544L15.9889 7.21558H16.9807Z" fill="white"/>
<path opacity="0.8" d="M8.7057 60.5956V61.688H1.14509V60.9046L5.83095 53.6531H6.91617L5.75189 55.7516L2.65434 60.5956H8.7057ZM7.24676 53.6531V64.1172H5.91719V53.6531H7.24676ZM13.7466 60.955L15.8236 53.6531H16.8298L16.2476 56.4919L14.0125 64.1172H13.0135L13.7466 60.955ZM11.5977 53.6531L13.2507 60.8112L13.7466 64.1172H12.7548L10.2178 53.6531H11.5977ZM19.5177 60.804L21.1347 53.6531H22.5218L19.992 64.1172H19.0002L19.5177 60.804ZM16.9807 53.6531L19.0002 60.955L19.7333 64.1172H18.7343L16.5782 56.4919L15.9889 53.6531H16.9807Z" fill="white"/>
<path opacity="0.8" d="M3.57426 104.669H4.52293C4.98768 104.669 5.37098 104.592 5.67283 104.439C5.97947 104.281 6.20706 104.067 6.35559 103.799C6.50891 103.526 6.58557 103.219 6.58557 102.879C6.58557 102.477 6.51849 102.139 6.38434 101.866C6.25018 101.593 6.04895 101.387 5.78064 101.248C5.51233 101.109 5.17215 101.039 4.7601 101.039C4.38638 101.039 4.05578 101.114 3.76831 101.262C3.48562 101.406 3.26283 101.612 3.09993 101.88C2.94182 102.148 2.86276 102.465 2.86276 102.829H1.53319C1.53319 102.297 1.66734 101.813 1.93565 101.377C2.20396 100.941 2.58008 100.594 3.06399 100.335C3.5527 100.076 4.11807 99.9468 4.7601 99.9468C5.39254 99.9468 5.94594 100.059 6.42027 100.285C6.8946 100.505 7.26353 100.836 7.52705 101.276C7.79057 101.712 7.92233 102.256 7.92233 102.908C7.92233 103.171 7.86004 103.454 7.73547 103.756C7.61569 104.053 7.42643 104.331 7.16771 104.59C6.91377 104.848 6.58317 105.062 6.17592 105.229C5.76866 105.392 5.27995 105.474 4.70979 105.474H3.57426V104.669ZM3.57426 105.761V104.963H4.70979C5.37578 104.963 5.92677 105.042 6.36277 105.2C6.79878 105.359 7.14135 105.569 7.3905 105.833C7.64444 106.096 7.82171 106.386 7.92233 106.703C8.02774 107.014 8.08044 107.325 8.08044 107.637C8.08044 108.126 7.99659 108.559 7.8289 108.938C7.666 109.316 7.43362 109.637 7.13177 109.901C6.83471 110.164 6.48495 110.363 6.08249 110.497C5.68002 110.631 5.24162 110.698 4.76729 110.698C4.31212 110.698 3.8833 110.634 3.48083 110.504C3.08316 110.375 2.731 110.188 2.42436 109.944C2.11772 109.695 1.87816 109.39 1.70567 109.031C1.53319 108.667 1.44694 108.252 1.44694 107.788H2.77652C2.77652 108.152 2.85557 108.47 3.01368 108.744C3.17659 109.017 3.40657 109.23 3.70363 109.383C4.00548 109.532 4.36003 109.606 4.76729 109.606C5.17454 109.606 5.5243 109.537 5.81657 109.398C6.11363 109.254 6.34121 109.038 6.49933 108.751C6.66223 108.463 6.74368 108.102 6.74368 107.666C6.74368 107.23 6.65265 106.873 6.47058 106.595C6.28851 106.312 6.02978 106.104 5.69439 105.969C5.3638 105.831 4.97331 105.761 4.52293 105.761H3.57426ZM13.7466 107.392L15.8236 100.091H16.8298L16.2476 102.929L14.0125 110.555H13.0135L13.7466 107.392ZM11.5977 100.091L13.2507 107.249L13.7466 110.555H12.7548L10.2178 100.091H11.5977ZM19.5177 107.242L21.1347 100.091H22.5218L19.992 110.555H19.0002L19.5177 107.242ZM16.9807 100.091L19.0002 107.392L19.7333 110.555H18.7343L16.5782 102.929L15.9889 100.091H16.9807Z" fill="white"/>
<path opacity="0.8" d="M8.49009 155.9V156.992H1.64099V156.036L5.06913 152.22C5.49077 151.751 5.81657 151.353 6.04655 151.027C6.28132 150.696 6.44423 150.402 6.53526 150.143C6.63109 149.88 6.679 149.611 6.679 149.338C6.679 148.993 6.60713 148.682 6.46339 148.404C6.32444 148.121 6.11842 147.896 5.84532 147.728C5.57222 147.561 5.24162 147.477 4.85353 147.477C4.38878 147.477 4.00068 147.568 3.68925 147.75C3.38261 147.927 3.15263 148.176 2.99931 148.497C2.84599 148.818 2.76933 149.187 2.76933 149.604H1.43976C1.43976 149.015 1.56912 148.476 1.82785 147.987C2.08658 147.498 2.46988 147.11 2.97775 146.823C3.48562 146.53 4.11088 146.384 4.85353 146.384C5.51472 146.384 6.08009 146.502 6.54963 146.736C7.01918 146.966 7.37852 147.292 7.62767 147.714C7.8816 148.131 8.00857 148.619 8.00857 149.18C8.00857 149.487 7.95587 149.798 7.85046 150.114C7.74984 150.426 7.6085 150.737 7.42643 151.049C7.24916 151.36 7.04074 151.667 6.80118 151.969C6.5664 152.27 6.31486 152.567 6.04655 152.86L3.24366 155.9H8.49009ZM13.7466 153.83L15.8236 146.528H16.8298L16.2476 149.367L14.0125 156.992H13.0135L13.7466 153.83ZM11.5977 146.528L13.2507 153.686L13.7466 156.992H12.7548L10.2178 146.528H11.5977ZM19.5177 153.679L21.1347 146.528H22.5218L19.992 156.992H19.0002L19.5177 153.679ZM16.9807 146.528L19.0002 153.83L19.7333 156.992H18.7343L16.5782 149.367L15.9889 146.528H16.9807Z" fill="white"/>
<path opacity="0.8" d="M6.00343 192.908V203.43H4.67386V194.568L1.99315 195.546V194.345L5.79501 192.908H6.00343ZM13.7466 200.267L15.8236 192.966H16.8298L16.2476 195.804L14.0125 203.43H13.0135L13.7466 200.267ZM11.5977 192.966L13.2507 200.124L13.7466 203.43H12.7548L10.2178 192.966H11.5977ZM19.5177 200.117L21.1347 192.966H22.5218L19.992 203.43H19.0002L19.5177 200.117ZM16.9807 192.966L19.0002 200.267L19.7333 203.43H18.7343L16.5782 195.804L15.9889 192.966H16.9807Z" fill="white"/>
<path opacity="0.8" d="M22.1035 243.801V245.397C22.1035 246.255 22.0268 246.978 21.8735 247.567C21.7202 248.157 21.4998 248.631 21.2123 248.99C20.9248 249.35 20.5775 249.611 20.1702 249.774C19.7677 249.932 19.3126 250.011 18.8047 250.011C18.4022 250.011 18.0309 249.961 17.6907 249.86C17.3505 249.759 17.0439 249.599 16.7708 249.378C16.5025 249.153 16.2725 248.861 16.0809 248.502C15.8892 248.142 15.7431 247.706 15.6425 247.194C15.5418 246.681 15.4915 246.082 15.4915 245.397V243.801C15.4915 242.944 15.5682 242.225 15.7215 241.645C15.8796 241.066 16.1024 240.601 16.3899 240.251C16.6774 239.897 17.0223 239.643 17.4248 239.489C17.8321 239.336 18.2872 239.259 18.7903 239.259C19.1976 239.259 19.5713 239.31 19.9115 239.41C20.2564 239.506 20.5631 239.662 20.8314 239.877C21.0997 240.088 21.3273 240.371 21.5141 240.725C21.7058 241.075 21.8519 241.504 21.9525 242.012C22.0532 242.52 22.1035 243.116 22.1035 243.801ZM20.7667 245.613V243.579C20.7667 243.109 20.738 242.697 20.6805 242.343C20.6278 241.983 20.5487 241.677 20.4433 241.423C20.3379 241.169 20.2037 240.963 20.0408 240.805C19.8827 240.646 19.6983 240.531 19.4874 240.46C19.2814 240.383 19.049 240.345 18.7903 240.345C18.4741 240.345 18.1938 240.404 17.9494 240.524C17.7051 240.639 17.4991 240.824 17.3314 241.078C17.1685 241.332 17.0439 241.665 16.9577 242.077C16.8714 242.489 16.8283 242.989 16.8283 243.579V245.613C16.8283 246.082 16.8546 246.497 16.9073 246.856C16.9648 247.215 17.0487 247.527 17.1589 247.79C17.2691 248.049 17.4032 248.262 17.5614 248.43C17.7195 248.598 17.9015 248.722 18.1076 248.804C18.3184 248.88 18.5508 248.919 18.8047 248.919C19.1305 248.919 19.4156 248.856 19.6599 248.732C19.9043 248.607 20.1079 248.413 20.2708 248.15C20.4385 247.881 20.5631 247.539 20.6445 247.122C20.726 246.7 20.7667 246.197 20.7667 245.613Z" fill="white"/>
<path d="M657.057 11.8915V13.166H648.237V12.252L653.704 3.79187H654.97L653.611 6.2402L649.998 11.8915H657.057ZM655.355 3.79187V16H653.804V3.79187H655.355ZM659.518 15.1783C659.518 14.9156 659.599 14.6948 659.761 14.5159C659.928 14.3314 660.169 14.2392 660.482 14.2392C660.795 14.2392 661.032 14.3314 661.194 14.5159C661.362 14.6948 661.446 14.9156 661.446 15.1783C661.446 15.4354 661.362 15.6534 661.194 15.8323C661.032 16.0112 660.795 16.1006 660.482 16.1006C660.169 16.1006 659.928 16.0112 659.761 15.8323C659.599 15.6534 659.518 15.4354 659.518 15.1783ZM666.673 10.1894L665.432 9.87078L666.044 3.79187H672.308V5.22565H667.361L666.992 8.546C667.215 8.41743 667.498 8.29725 667.839 8.18546C668.185 8.07366 668.582 8.01776 669.029 8.01776C669.594 8.01776 670.1 8.11558 670.547 8.31123C670.994 8.50128 671.374 8.77518 671.687 9.13293C672.006 9.49067 672.249 9.92109 672.417 10.4242C672.584 10.9273 672.668 11.489 672.668 12.1095C672.668 12.6964 672.587 13.2358 672.425 13.7277C672.268 14.2196 672.031 14.6501 671.712 15.019C671.394 15.3823 670.991 15.6646 670.505 15.8658C670.024 16.0671 669.457 16.1677 668.803 16.1677C668.311 16.1677 667.844 16.1006 667.403 15.9665C666.967 15.8267 666.575 15.6171 666.229 15.3376C665.888 15.0525 665.608 14.7004 665.39 14.2811C665.178 13.8563 665.044 13.3588 664.988 12.7887H666.463C666.531 13.247 666.665 13.6327 666.866 13.9457C667.067 14.2588 667.33 14.4963 667.654 14.6584C667.984 14.815 668.367 14.8932 668.803 14.8932C669.172 14.8932 669.499 14.8289 669.784 14.7004C670.069 14.5718 670.309 14.3873 670.505 14.147C670.7 13.9066 670.849 13.6159 670.949 13.275C671.055 12.934 671.109 12.5511 671.109 12.1263C671.109 11.7406 671.055 11.3828 670.949 11.053C670.843 10.7232 670.684 10.4354 670.471 10.1894C670.264 9.94345 670.01 9.7534 669.708 9.61924C669.406 9.47949 669.06 9.40962 668.669 9.40962C668.149 9.40962 667.755 9.47949 667.486 9.61924C667.224 9.75898 666.953 9.94904 666.673 10.1894ZM678.843 12.3107L681.266 3.79187H682.44L681.76 7.10383L679.153 16H677.987L678.843 12.3107ZM676.336 3.79187L678.264 12.143L678.843 16H677.686L674.726 3.79187H676.336ZM685.576 12.1347L687.462 3.79187H689.08L686.129 16H684.972L685.576 12.1347ZM682.616 3.79187L684.972 12.3107L685.827 16H684.662L682.146 7.10383L681.459 3.79187H682.616Z" fill="white"/>
<path d="M861.194 136.194V148.469H859.643V138.13L856.515 139.271V137.87L860.951 136.194H861.194ZM866.807 147.647C866.807 147.384 866.888 147.164 867.05 146.985C867.217 146.8 867.458 146.708 867.771 146.708C868.084 146.708 868.321 146.8 868.484 146.985C868.651 147.164 868.735 147.384 868.735 147.647C868.735 147.904 868.651 148.122 868.484 148.301C868.321 148.48 868.084 148.569 867.771 148.569C867.458 148.569 867.217 148.48 867.05 148.301C866.888 148.122 866.807 147.904 866.807 147.647ZM879.697 145.165C879.697 145.909 879.524 146.54 879.177 147.06C878.836 147.574 878.372 147.966 877.786 148.234C877.204 148.502 876.547 148.636 875.815 148.636C875.083 148.636 874.423 148.502 873.836 148.234C873.249 147.966 872.785 147.574 872.444 147.06C872.103 146.54 871.933 145.909 871.933 145.165C871.933 144.679 872.025 144.234 872.21 143.832C872.4 143.424 872.665 143.069 873.006 142.767C873.353 142.465 873.761 142.233 874.23 142.071C874.706 141.904 875.228 141.82 875.798 141.82C876.547 141.82 877.215 141.965 877.802 142.256C878.389 142.541 878.85 142.935 879.186 143.438C879.527 143.941 879.697 144.517 879.697 145.165ZM878.138 145.132C878.138 144.679 878.04 144.279 877.844 143.933C877.649 143.58 877.375 143.307 877.023 143.111C876.67 142.915 876.262 142.817 875.798 142.817C875.323 142.817 874.912 142.915 874.566 143.111C874.225 143.307 873.959 143.58 873.769 143.933C873.579 144.279 873.484 144.679 873.484 145.132C873.484 145.601 873.576 146.004 873.761 146.339C873.951 146.669 874.219 146.923 874.566 147.102C874.918 147.275 875.334 147.362 875.815 147.362C876.296 147.362 876.709 147.275 877.056 147.102C877.403 146.923 877.668 146.669 877.853 146.339C878.043 146.004 878.138 145.601 878.138 145.132ZM879.412 139.438C879.412 140.031 879.256 140.565 878.943 141.04C878.63 141.515 878.202 141.89 877.66 142.163C877.118 142.437 876.503 142.574 875.815 142.574C875.116 142.574 874.493 142.437 873.945 142.163C873.403 141.89 872.978 141.515 872.671 141.04C872.363 140.565 872.21 140.031 872.21 139.438C872.21 138.729 872.363 138.125 872.671 137.627C872.984 137.13 873.412 136.75 873.954 136.487C874.496 136.224 875.114 136.093 875.807 136.093C876.505 136.093 877.126 136.224 877.668 136.487C878.21 136.75 878.635 137.13 878.943 137.627C879.256 138.125 879.412 138.729 879.412 139.438ZM877.861 139.464C877.861 139.056 877.774 138.695 877.601 138.382C877.428 138.069 877.187 137.823 876.88 137.644C876.573 137.46 876.215 137.367 875.807 137.367C875.399 137.367 875.041 137.454 874.733 137.627C874.432 137.795 874.194 138.035 874.021 138.348C873.853 138.661 873.769 139.033 873.769 139.464C873.769 139.883 873.853 140.249 874.021 140.562C874.194 140.875 874.434 141.118 874.742 141.291C875.049 141.465 875.407 141.551 875.815 141.551C876.223 141.551 876.578 141.465 876.88 141.291C877.187 141.118 877.428 140.875 877.601 140.562C877.774 140.249 877.861 139.883 877.861 139.464ZM886.132 144.779L888.555 136.261H889.729L889.05 139.573L886.442 148.469H885.276L886.132 144.779ZM883.625 136.261L885.553 144.612L886.132 148.469H884.975L882.015 136.261H883.625ZM892.865 144.603L894.751 136.261H896.369L893.418 148.469H892.261L892.865 144.603ZM889.905 136.261L892.261 144.779L893.116 148.469H891.951L889.435 139.573L888.748 136.261H889.905Z" fill="white"/>
<path d="M449.867 80.2736H450.973C451.516 80.2736 451.963 80.1841 452.315 80.0052C452.673 79.8208 452.938 79.572 453.111 79.259C453.29 78.9404 453.38 78.5826 453.38 78.1858C453.38 77.7162 453.302 77.3221 453.145 77.0035C452.988 76.6849 452.754 76.4445 452.441 76.2824C452.128 76.1203 451.731 76.0393 451.25 76.0393C450.814 76.0393 450.428 76.1259 450.093 76.2992C449.763 76.4669 449.503 76.7073 449.313 77.0203C449.129 77.3333 449.037 77.7022 449.037 78.1271H447.485C447.485 77.5066 447.642 76.942 447.955 76.4334C448.268 75.9247 448.707 75.5194 449.271 75.2176C449.841 74.9157 450.501 74.7648 451.25 74.7648C451.988 74.7648 452.634 74.8962 453.187 75.1589C453.74 75.416 454.171 75.8017 454.478 76.316C454.786 76.8246 454.939 77.4591 454.939 78.2193C454.939 78.5267 454.867 78.8565 454.721 79.2087C454.582 79.5553 454.361 79.8795 454.059 80.1813C453.763 80.4832 453.377 80.7319 452.902 80.9276C452.427 81.1176 451.857 81.2126 451.191 81.2126H449.867V80.2736ZM449.867 81.548V80.6173H451.191C451.968 80.6173 452.611 80.7096 453.12 80.894C453.629 81.0785 454.028 81.3244 454.319 81.6319C454.615 81.9393 454.822 82.2775 454.939 82.6464C455.062 83.0098 455.124 83.3731 455.124 83.7364C455.124 84.3066 455.026 84.8125 454.83 85.2541C454.64 85.6957 454.369 86.0702 454.017 86.3776C453.67 86.6851 453.262 86.917 452.793 87.0735C452.323 87.2301 451.812 87.3083 451.258 87.3083C450.727 87.3083 450.227 87.2329 449.758 87.0819C449.294 86.931 448.883 86.713 448.525 86.4279C448.167 86.1373 447.888 85.7823 447.687 85.3631C447.485 84.9382 447.385 84.4547 447.385 83.9125H448.936C448.936 84.3373 449.028 84.7091 449.213 85.0277C449.403 85.3463 449.671 85.595 450.018 85.7739C450.37 85.9472 450.783 86.0338 451.258 86.0338C451.734 86.0338 452.142 85.9528 452.483 85.7907C452.829 85.623 453.095 85.3715 453.279 85.0361C453.469 84.7007 453.564 84.2786 453.564 83.77C453.564 83.2613 453.458 82.8449 453.246 82.5207C453.033 82.1909 452.731 81.9477 452.34 81.7912C451.954 81.6291 451.499 81.548 450.973 81.548H449.867ZM461.734 83.4514L464.157 74.9325H465.331L464.652 78.2445L462.045 87.1406H460.879L461.734 83.4514ZM459.227 74.9325L461.156 83.2837L461.734 87.1406H460.577L457.617 74.9325H459.227ZM468.467 83.2753L470.354 74.9325H471.972L469.021 87.1406H467.864L468.467 83.2753ZM465.507 74.9325L467.864 83.4514L468.719 87.1406H467.553L465.038 78.2445L464.35 74.9325H465.507Z" fill="white"/>
<path d="M238.1 137.42V149.695H236.549V139.357L233.421 140.497V139.097L237.857 137.42H238.1ZM243.713 148.874C243.713 148.611 243.794 148.39 243.956 148.211C244.124 148.027 244.364 147.935 244.677 147.935C244.99 147.935 245.228 148.027 245.39 148.211C245.557 148.39 245.641 148.611 245.641 148.874C245.641 149.131 245.557 149.349 245.39 149.528C245.228 149.706 244.99 149.796 244.677 149.796C244.364 149.796 244.124 149.706 243.956 149.528C243.794 149.349 243.713 149.131 243.713 148.874ZM250.449 148.396H250.608C251.503 148.396 252.229 148.27 252.788 148.018C253.347 147.767 253.778 147.429 254.08 147.004C254.382 146.579 254.588 146.101 254.7 145.57C254.812 145.033 254.868 144.483 254.868 143.918V142.048C254.868 141.495 254.804 141.003 254.675 140.573C254.552 140.142 254.379 139.782 254.155 139.491C253.937 139.2 253.688 138.98 253.409 138.829C253.129 138.678 252.833 138.602 252.52 138.602C252.162 138.602 251.841 138.675 251.556 138.82C251.276 138.96 251.039 139.159 250.843 139.416C250.653 139.673 250.508 139.975 250.407 140.321C250.307 140.668 250.256 141.045 250.256 141.453C250.256 141.816 250.301 142.169 250.39 142.51C250.48 142.851 250.617 143.158 250.801 143.432C250.986 143.706 251.215 143.924 251.489 144.086C251.768 144.242 252.095 144.321 252.47 144.321C252.816 144.321 253.141 144.254 253.442 144.119C253.75 143.98 254.021 143.792 254.256 143.558C254.496 143.317 254.686 143.046 254.826 142.744C254.971 142.443 255.055 142.127 255.077 141.797H255.815C255.815 142.261 255.723 142.719 255.539 143.172C255.36 143.619 255.108 144.027 254.784 144.396C254.46 144.765 254.08 145.061 253.644 145.285C253.208 145.503 252.733 145.612 252.218 145.612C251.615 145.612 251.092 145.495 250.65 145.26C250.209 145.025 249.845 144.712 249.56 144.321C249.281 143.929 249.071 143.493 248.931 143.013C248.797 142.526 248.73 142.034 248.73 141.537C248.73 140.956 248.811 140.411 248.973 139.902C249.136 139.393 249.376 138.946 249.694 138.56C250.013 138.169 250.407 137.864 250.877 137.646C251.352 137.428 251.9 137.319 252.52 137.319C253.219 137.319 253.814 137.459 254.306 137.739C254.798 138.018 255.198 138.393 255.505 138.862C255.818 139.332 256.047 139.86 256.193 140.447C256.338 141.034 256.411 141.638 256.411 142.258V142.82C256.411 143.452 256.369 144.094 256.285 144.748C256.207 145.397 256.053 146.017 255.824 146.61C255.6 147.202 255.273 147.733 254.843 148.203C254.412 148.667 253.851 149.036 253.157 149.31C252.47 149.578 251.62 149.712 250.608 149.712H250.449V148.396ZM263.038 146.006L265.461 137.487H266.635L265.956 140.799L263.348 149.695H262.183L263.038 146.006ZM260.531 137.487L262.459 145.838L263.038 149.695H261.881L258.921 137.487H260.531ZM269.771 145.83L271.657 137.487H273.276L270.324 149.695H269.167L269.771 145.83ZM266.811 137.487L269.167 146.006L270.022 149.695H268.857L266.341 140.799L265.654 137.487H266.811Z" fill="white"/>
<path d="M45.1489 56.9689H46.2557C46.7979 56.9689 47.2451 56.8794 47.5972 56.7006C47.955 56.5161 48.2205 56.2673 48.3938 55.9543C48.5727 55.6357 48.6621 55.2779 48.6621 54.8811C48.6621 54.4115 48.5838 54.0174 48.4273 53.6988C48.2708 53.3802 48.036 53.1398 47.723 52.9777C47.41 52.8156 47.0131 52.7346 46.5324 52.7346C46.0964 52.7346 45.7107 52.8212 45.3753 52.9945C45.0455 53.1622 44.7856 53.4026 44.5955 53.7156C44.4111 54.0286 44.3188 54.3976 44.3188 54.8224H42.7677C42.7677 54.2019 42.9242 53.6373 43.2372 53.1287C43.5502 52.62 43.989 52.2147 44.5536 51.9129C45.1238 51.611 45.7833 51.4601 46.5324 51.4601C47.2702 51.4601 47.9159 51.5915 48.4692 51.8542C49.0226 52.1113 49.4531 52.497 49.7605 53.0113C50.0679 53.52 50.2217 54.1544 50.2217 54.9146C50.2217 55.2221 50.149 55.5518 50.0037 55.904C49.8639 56.2506 49.6431 56.5748 49.3413 56.8766C49.045 57.1785 48.6593 57.4272 48.1842 57.6229C47.709 57.8129 47.1389 57.908 46.4737 57.908H45.1489V56.9689ZM45.1489 58.2433V57.3126H46.4737C47.2507 57.3126 47.8935 57.4049 48.4022 57.5893C48.9108 57.7738 49.3105 58.0197 49.6012 58.3272C49.8974 58.6346 50.1043 58.9728 50.2217 59.3417C50.3446 59.7051 50.4061 60.0684 50.4061 60.4317C50.4061 61.0019 50.3083 61.5078 50.1127 61.9494C49.9226 62.391 49.6515 62.7655 49.2993 63.0729C48.9528 63.3804 48.5447 63.6123 48.0752 63.7689C47.6056 63.9254 47.0942 64.0036 46.5408 64.0036C46.0097 64.0036 45.5094 63.9282 45.0399 63.7772C44.576 63.6263 44.1651 63.4083 43.8074 63.1232C43.4496 62.8326 43.1701 62.4776 42.9689 62.0584C42.7677 61.6336 42.667 61.15 42.667 60.6078H44.2182C44.2182 61.0327 44.3104 61.4044 44.4949 61.723C44.685 62.0416 44.9533 62.2904 45.2998 62.4692C45.652 62.6425 46.0656 62.7292 46.5408 62.7292C47.0159 62.7292 47.424 62.6481 47.7649 62.486C48.1115 62.3183 48.377 62.0668 48.5615 61.7314C48.7515 61.396 48.8466 60.974 48.8466 60.4653C48.8466 59.9566 48.7404 59.5402 48.5279 59.216C48.3155 58.8862 48.0137 58.643 47.6224 58.4865C47.2367 58.3244 46.7811 58.2433 46.2557 58.2433H45.1489ZM53.5957 63.0142C53.5957 62.7515 53.6767 62.5307 53.8388 62.3518C54.0065 62.1674 54.2469 62.0751 54.5599 62.0751C54.8729 62.0751 55.1105 62.1674 55.2726 62.3518C55.4403 62.5307 55.5241 62.7515 55.5241 63.0142C55.5241 63.2714 55.4403 63.4894 55.2726 63.6682C55.1105 63.8471 54.8729 63.9366 54.5599 63.9366C54.2469 63.9366 54.0065 63.8471 53.8388 63.6682C53.6767 63.4894 53.5957 63.2714 53.5957 63.0142ZM66.4863 60.5324C66.4863 61.2758 66.313 61.9075 65.9665 62.4273C65.6255 62.9416 65.1615 63.3329 64.5746 63.6012C63.9933 63.8695 63.3364 64.0036 62.6042 64.0036C61.8719 64.0036 61.2123 63.8695 60.6254 63.6012C60.0385 63.3329 59.5745 62.9416 59.2335 62.4273C58.8926 61.9075 58.7221 61.2758 58.7221 60.5324C58.7221 60.0461 58.8143 59.6017 58.9988 59.1992C59.1888 58.7911 59.4543 58.4362 59.7953 58.1343C60.1419 57.8325 60.5499 57.6005 61.0195 57.4384C61.4946 57.2707 62.0173 57.1869 62.5874 57.1869C63.3364 57.1869 64.0044 57.3322 64.5914 57.6229C65.1783 57.908 65.6394 58.302 65.9748 58.8051C66.3158 59.3082 66.4863 59.8839 66.4863 60.5324ZM64.9267 60.4988C64.9267 60.0461 64.8289 59.6464 64.6333 59.2998C64.4376 58.9477 64.1637 58.6738 63.8116 58.4781C63.4594 58.2825 63.0514 58.1846 62.5874 58.1846C62.1123 58.1846 61.7014 58.2825 61.3549 58.4781C61.0139 58.6738 60.7484 58.9477 60.5583 59.2998C60.3683 59.6464 60.2732 60.0461 60.2732 60.4988C60.2732 60.9684 60.3655 61.3708 60.5499 61.7062C60.74 62.036 61.0083 62.2904 61.3549 62.4692C61.707 62.6425 62.1235 62.7292 62.6042 62.7292C63.0849 62.7292 63.4986 62.6425 63.8451 62.4692C64.1917 62.2904 64.4572 62.036 64.6417 61.7062C64.8317 61.3708 64.9267 60.9684 64.9267 60.4988ZM66.2012 54.8056C66.2012 55.3981 66.0447 55.932 65.7317 56.4071C65.4187 56.8822 64.991 57.2567 64.4488 57.5306C63.9066 57.8045 63.2917 57.9415 62.6042 57.9415C61.9055 57.9415 61.2822 57.8045 60.7344 57.5306C60.1922 57.2567 59.7674 56.8822 59.4599 56.4071C59.1525 55.932 58.9988 55.3981 58.9988 54.8056C58.9988 54.0957 59.1525 53.492 59.4599 52.9945C59.7729 52.497 60.2006 52.1169 60.7428 51.8542C61.285 51.5915 61.9027 51.4601 62.5958 51.4601C63.2945 51.4601 63.915 51.5915 64.4572 51.8542C64.9994 52.1169 65.4242 52.497 65.7317 52.9945C66.0447 53.492 66.2012 54.0957 66.2012 54.8056ZM64.6501 54.8308C64.6501 54.4227 64.5634 54.0622 64.3901 53.7491C64.2168 53.4361 63.9765 53.1902 63.669 53.0113C63.3616 52.8268 63.0039 52.7346 62.5958 52.7346C62.1877 52.7346 61.83 52.8212 61.5226 52.9945C61.2207 53.1622 60.9831 53.4026 60.8099 53.7156C60.6422 54.0286 60.5583 54.4003 60.5583 54.8308C60.5583 55.25 60.6422 55.6161 60.8099 55.9292C60.9831 56.2422 61.2235 56.4853 61.5309 56.6586C61.8384 56.8319 62.1961 56.9186 62.6042 56.9186C63.0122 56.9186 63.3672 56.8319 63.669 56.6586C63.9765 56.4853 64.2168 56.2422 64.3901 55.9292C64.5634 55.6161 64.6501 55.25 64.6501 54.8308ZM72.9207 60.1467L75.3439 51.6278H76.5178L75.8386 54.9398L73.231 63.8359H72.0655L72.9207 60.1467ZM70.4137 51.6278L72.3422 59.979L72.9207 63.8359H71.7636L68.8038 51.6278H70.4137ZM79.6536 59.9706L81.5402 51.6278H83.1584L80.207 63.8359H79.0499L79.6536 59.9706ZM76.6938 51.6278L79.0499 60.1467L79.9052 63.8359H78.7397L76.2243 54.9398L75.5368 51.6278H76.6938Z" fill="white"/>
<g clip-path="url(#clip0_113_1950)">
<g clip-path="url(#clip1_113_1950)">
<circle cx="322.586" cy="307.867" r="6.13281" fill="#F8EF00"/>
</g>
<g clip-path="url(#clip2_113_1950)">
<circle cx="354.477" cy="307.867" r="6.13281" fill="#F8EF00" fill-opacity="0.44"/>
</g>
<g clip-path="url(#clip3_113_1950)">
<circle cx="386.367" cy="307.867" r="6.13281" fill="#FFFDBF"/>
</g>
</g>
<defs>
<linearGradient id="paint0_linear_113_1950" x1="461.188" y1="114.658" x2="461.188" y2="253.898" gradientUnits="userSpaceOnUse">
<stop stop-color="#F8EF00" stop-opacity="0.18"/>
<stop offset="1" stop-color="#F8EF00" stop-opacity="0"/>
</linearGradient>
<linearGradient id="paint1_linear_113_1950" x1="461.187" y1="73.2505" x2="461.187" y2="253.898" gradientUnits="userSpaceOnUse">
<stop stop-color="#FFFDBF" stop-opacity="0.38"/>
<stop offset="1" stop-color="#FFFDBF" stop-opacity="0"/>
</linearGradient>
<linearGradient id="paint2_linear_113_1950" x1="461.188" y1="20.2383" x2="461.188" y2="253.9" gradientUnits="userSpaceOnUse">
<stop stop-color="#FFFDBF" stop-opacity="0.55"/>
<stop offset="1" stop-color="#FFFDBF" stop-opacity="0"/>
</linearGradient>
<clipPath id="clip0_113_1950">
<rect width="76.0469" height="12.2656" fill="white" transform="translate(316.453 301.734)"/>
</clipPath>
<clipPath id="clip1_113_1950">
<rect width="12.2656" height="12.2656" fill="white" transform="translate(316.453 301.734)"/>
</clipPath>
<clipPath id="clip2_113_1950">
<rect width="12.2656" height="12.2656" fill="white" transform="translate(348.344 301.734)"/>
</clipPath>
<clipPath id="clip3_113_1950">
<rect width="12.2656" height="12.2656" fill="white" transform="translate(380.234 301.734)"/>
</clipPath>
</defs>
</svg>
