<svg width="510" height="72" viewBox="0 0 510 72" fill="none" xmlns="http://www.w3.org/2000/svg">
<path d="M0 0H510V64H20.4545L0 47.5V0Z" fill="#F8EF00"/>
<line x1="508.973" x2="508.973" y2="64" stroke="#FFFDBF" stroke-width="2"/>
<path d="M43.056 38C42.6613 38 42.2987 37.904 41.968 37.712C41.6373 37.52 41.376 37.2587 41.184 36.928C40.992 36.5973 40.896 36.2347 40.896 35.84V28.64C40.896 28.2453 40.992 27.8827 41.184 27.552C41.376 27.2213 41.6373 26.96 41.968 26.768C42.2987 26.576 42.6613 26.48 43.056 26.48H52.384V28.416H43.392C43.2213 28.416 43.0827 28.4693 42.976 28.576C42.8693 28.672 42.816 28.8053 42.816 28.976V35.504C42.816 35.6747 42.8693 35.8133 42.976 35.92C43.0827 36.016 43.2213 36.064 43.392 36.064H52.384V38H43.056ZM59.3803 38C58.9856 38 58.6229 37.904 58.2923 37.712C57.9616 37.52 57.7003 37.2587 57.5083 36.928C57.3163 36.5973 57.2203 36.2347 57.2203 35.84V28.64C57.2203 28.2453 57.3163 27.8827 57.5083 27.552C57.7003 27.2213 57.9616 26.96 58.2923 26.768C58.6229 26.576 58.9856 26.48 59.3803 26.48H66.5803C66.9749 26.48 67.3323 26.576 67.6523 26.768C67.9829 26.96 68.2443 27.2213 68.4363 27.552C68.6389 27.8827 68.7403 28.2453 68.7403 28.64V35.84C68.7403 36.2347 68.6389 36.5973 68.4363 36.928C68.2443 37.2587 67.9829 37.52 67.6523 37.712C67.3323 37.904 66.9749 38 66.5803 38H59.3803ZM59.4283 36.064H66.5163C66.5909 36.064 66.6549 36.0373 66.7083 35.984C66.7723 35.9307 66.8043 35.8613 66.8043 35.776V28.704C66.8043 28.6187 66.7723 28.5493 66.7083 28.496C66.6549 28.4427 66.5909 28.416 66.5163 28.416H59.4283C59.3536 28.416 59.2843 28.4427 59.2203 28.496C59.1669 28.5493 59.1403 28.6187 59.1403 28.704V35.776C59.1403 35.8613 59.1669 35.9307 59.2203 35.984C59.2843 36.0373 59.3536 36.064 59.4283 36.064ZM73.7023 38V26.48H75.8943L83.2863 35.28V26.48H85.2223V38H83.0303L75.6223 29.184V38H73.7023ZM90.2467 38V26.48H100.823V28.416H92.1827V31.28H99.1427V33.2H92.1827V38H90.2467ZM104.849 38V26.48H106.753V38H104.849ZM120.911 38L117.375 33.776H119.887L123.071 37.552V38H120.911ZM111.599 38V26.496H120.959C121.354 26.496 121.711 26.5973 122.031 26.8C122.362 26.992 122.623 27.2533 122.815 27.584C123.018 27.904 123.119 28.2613 123.119 28.656V31.824C123.119 32.208 123.018 32.5653 122.815 32.896C122.623 33.2267 122.362 33.488 122.031 33.68C121.711 33.872 121.354 33.968 120.959 33.968L113.519 33.984V38H111.599ZM113.807 32.032H120.895C120.97 32.032 121.034 32.0053 121.087 31.952C121.151 31.8987 121.183 31.8293 121.183 31.744V28.704C121.183 28.6293 121.151 28.5653 121.087 28.512C121.034 28.448 120.97 28.416 120.895 28.416H113.807C113.732 28.416 113.663 28.448 113.599 28.512C113.546 28.5653 113.519 28.6293 113.519 28.704V31.744C113.519 31.8293 113.546 31.8987 113.599 31.952C113.663 32.0053 113.732 32.032 113.807 32.032ZM128.002 38V26.48H130.194L134.514 31.632L138.818 26.48H141.026V38H139.09V29.168L134.514 34.624L129.922 29.184V38H128.002ZM154.044 38V26.48H163.404C163.798 26.48 164.156 26.576 164.476 26.768C164.806 26.96 165.068 27.2213 165.26 27.552C165.462 27.8827 165.564 28.2453 165.564 28.64V35.84C165.564 36.2347 165.462 36.5973 165.26 36.928C165.068 37.2587 164.806 37.52 164.476 37.712C164.156 37.904 163.798 38 163.404 38H154.044ZM156.252 36.064H163.34C163.414 36.064 163.478 36.0373 163.532 35.984C163.596 35.9307 163.628 35.8613 163.628 35.776V28.704C163.628 28.6187 163.596 28.5493 163.532 28.496C163.478 28.4427 163.414 28.416 163.34 28.416H156.252C156.166 28.416 156.092 28.4427 156.028 28.496C155.974 28.5493 155.948 28.6187 155.948 28.704V35.776C155.948 35.8613 155.974 35.9307 156.028 35.984C156.092 36.0373 156.166 36.064 156.252 36.064ZM170.587 38V26.48H181.163V28.416H172.523V31.28H179.483V33.2H172.523V36.064H181.163V38H170.587ZM186.005 38V26.496H195.365C195.76 26.496 196.117 26.5973 196.437 26.8C196.768 26.992 197.029 27.2533 197.221 27.584C197.424 27.904 197.525 28.2613 197.525 28.656V31.824C197.525 32.208 197.424 32.5653 197.221 32.896C197.029 33.2267 196.768 33.488 196.437 33.68C196.117 33.872 195.76 33.968 195.365 33.968L187.925 33.984V38H186.005ZM188.213 32.032H195.301C195.376 32.032 195.44 32.0053 195.493 31.952C195.557 31.8987 195.589 31.8293 195.589 31.744V28.704C195.589 28.6293 195.557 28.5653 195.493 28.512C195.44 28.448 195.376 28.416 195.301 28.416H188.213C188.139 28.416 188.069 28.448 188.005 28.512C187.952 28.5653 187.925 28.6293 187.925 28.704V31.744C187.925 31.8293 187.952 31.8987 188.005 31.952C188.069 32.0053 188.139 32.032 188.213 32.032ZM203.99 38C203.595 38 203.232 37.904 202.902 37.712C202.571 37.52 202.31 37.2587 202.118 36.928C201.926 36.5973 201.83 36.2347 201.83 35.84V28.64C201.83 28.2453 201.926 27.8827 202.118 27.552C202.31 27.2213 202.571 26.96 202.902 26.768C203.232 26.576 203.595 26.48 203.99 26.48H211.19C211.584 26.48 211.942 26.576 212.262 26.768C212.592 26.96 212.854 27.2213 213.046 27.552C213.248 27.8827 213.35 28.2453 213.35 28.64V35.84C213.35 36.2347 213.248 36.5973 213.046 36.928C212.854 37.2587 212.592 37.52 212.262 37.712C211.942 37.904 211.584 38 211.19 38H203.99ZM204.038 36.064H211.126C211.2 36.064 211.264 36.0373 211.318 35.984C211.382 35.9307 211.414 35.8613 211.414 35.776V28.704C211.414 28.6187 211.382 28.5493 211.318 28.496C211.264 28.4427 211.2 28.416 211.126 28.416H204.038C203.963 28.416 203.894 28.4427 203.83 28.496C203.776 28.5493 203.75 28.6187 203.75 28.704V35.776C203.75 35.8613 203.776 35.9307 203.83 35.984C203.894 36.0373 203.963 36.064 204.038 36.064ZM220.408 38C220.013 38 219.65 37.904 219.32 37.712C219 37.52 218.744 37.2587 218.552 36.928C218.36 36.5973 218.264 36.2347 218.264 35.84V35.072H220.184V35.776C220.184 35.8613 220.21 35.9307 220.264 35.984C220.317 36.0373 220.386 36.064 220.472 36.064H227.544C227.629 36.064 227.698 36.0373 227.752 35.984C227.816 35.9307 227.848 35.8613 227.848 35.776V33.488C227.848 33.4133 227.816 33.3493 227.752 33.296C227.698 33.232 227.629 33.2 227.544 33.2H220.408C220.013 33.2 219.65 33.104 219.32 32.912C219 32.72 218.744 32.464 218.552 32.144C218.36 31.8133 218.264 31.4507 218.264 31.056V28.64C218.264 28.2453 218.36 27.8827 218.552 27.552C218.744 27.2213 219 26.96 219.32 26.768C219.65 26.576 220.013 26.48 220.408 26.48H227.624C228.018 26.48 228.376 26.576 228.696 26.768C229.026 26.96 229.288 27.2213 229.48 27.552C229.682 27.8827 229.784 28.2453 229.784 28.64V29.408H227.848V28.704C227.848 28.6187 227.816 28.5493 227.752 28.496C227.698 28.4427 227.629 28.416 227.544 28.416H220.472C220.386 28.416 220.317 28.4427 220.264 28.496C220.21 28.5493 220.184 28.6187 220.184 28.704V30.992C220.184 31.0667 220.21 31.136 220.264 31.2C220.317 31.2533 220.386 31.28 220.472 31.28H227.624C228.018 31.28 228.376 31.376 228.696 31.568C229.026 31.76 229.288 32.0213 229.48 32.352C229.682 32.672 229.784 33.0293 229.784 33.424V35.84C229.784 36.2347 229.682 36.5973 229.48 36.928C229.288 37.2587 229.026 37.52 228.696 37.712C228.376 37.904 228.018 38 227.624 38H220.408ZM234.587 38V26.48H236.491V38H234.587ZM245.733 38V28.416H240.933V26.48H252.453V28.416H247.653V38H245.733Z" fill="black"/>
<path d="M458.562 25.25L465.312 32L458.562 38.75M464.375 32H450.688" stroke="black" stroke-width="2" stroke-miterlimit="10" stroke-linecap="square"/>
<rect x="452" y="56" width="38" height="8" fill="black"/>
<g filter="url(#filter0_d_66_15285)">
<line x1="453" y1="56" x2="453" y2="64" stroke="#FFFDBF" stroke-width="2"/>
</g>
<path d="M463.016 63C462.968 63 462.936 62.9813 462.92 62.944L461.744 60.464C461.739 60.448 461.728 60.44 461.712 60.44H460.352C460.331 60.44 460.32 60.4507 460.32 60.472V62.92C460.32 62.9733 460.293 63 460.24 63H459.832C459.779 63 459.752 62.9733 459.752 62.92V57.48C459.752 57.4267 459.779 57.4 459.832 57.4H461.904C462.363 57.4 462.733 57.544 463.016 57.832C463.299 58.1147 463.44 58.4853 463.44 58.944C463.44 59.3173 463.339 59.6347 463.136 59.896C462.933 60.1573 462.659 60.3253 462.312 60.4C462.291 60.4107 462.285 60.424 462.296 60.44L463.496 62.904C463.501 62.9147 463.504 62.928 463.504 62.944C463.504 62.9813 463.483 63 463.44 63H463.016ZM460.352 57.896C460.331 57.896 460.32 57.9067 460.32 57.928V59.952C460.32 59.9733 460.331 59.984 460.352 59.984H461.84C462.149 59.984 462.4 59.888 462.592 59.696C462.784 59.504 462.88 59.2533 462.88 58.944C462.88 58.6347 462.784 58.384 462.592 58.192C462.4 57.9947 462.149 57.896 461.84 57.896H460.352ZM466.714 62.464C466.698 62.4907 466.704 62.504 466.73 62.504H469.242C469.296 62.504 469.322 62.5307 469.322 62.584V62.92C469.322 62.9733 469.296 63 469.242 63H466.05C465.997 63 465.97 62.9733 465.97 62.92V62.584C465.97 62.5467 465.984 62.5147 466.01 62.488C466.192 62.2747 466.6 61.7733 467.234 60.984L467.826 60.248C468.328 59.6133 468.578 59.12 468.578 58.768C468.578 58.4853 468.482 58.2587 468.29 58.088C468.098 57.9173 467.848 57.832 467.538 57.832C467.234 57.832 466.989 57.92 466.802 58.096C466.616 58.2667 466.525 58.4933 466.53 58.776V59.024C466.53 59.0773 466.504 59.104 466.45 59.104H466.034C465.981 59.104 465.954 59.0773 465.954 59.024V58.704C465.965 58.2933 466.117 57.9627 466.41 57.712C466.709 57.4613 467.085 57.336 467.538 57.336C467.858 57.336 468.141 57.3973 468.386 57.52C468.632 57.6427 468.821 57.8133 468.954 58.032C469.088 58.2453 469.154 58.488 469.154 58.76C469.154 59.2133 468.904 59.76 468.402 60.4C468.141 60.736 467.637 61.3547 466.89 62.256L466.714 62.464ZM475.027 60.552C475.075 60.7867 475.099 61.0267 475.099 61.272C475.099 61.5333 475.075 61.7573 475.027 61.944C474.937 62.2853 474.755 62.5573 474.484 62.76C474.212 62.9573 473.883 63.056 473.499 63.056C473.121 63.056 472.798 62.96 472.531 62.768C472.265 62.576 472.083 62.32 471.987 62C471.95 61.8827 471.926 61.7653 471.915 61.648V61.632C471.915 61.5893 471.939 61.568 471.987 61.568H472.411C472.465 61.568 472.494 61.5947 472.499 61.648C472.499 61.68 472.51 61.7333 472.531 61.808C472.585 62.0373 472.694 62.2213 472.859 62.36C473.03 62.4933 473.241 62.56 473.491 62.56C473.747 62.56 473.961 62.488 474.132 62.344C474.307 62.2 474.422 62.0027 474.475 61.752C474.507 61.6293 474.523 61.4693 474.523 61.272C474.523 61.0907 474.51 60.9173 474.484 60.752C474.446 60.5067 474.339 60.32 474.163 60.192C473.987 60.064 473.769 60 473.507 60C473.273 60 473.062 60.0533 472.875 60.16C472.689 60.2667 472.569 60.408 472.515 60.584C472.499 60.632 472.47 60.656 472.427 60.656H471.995C471.942 60.656 471.915 60.6293 471.915 60.576V57.48C471.915 57.4267 471.942 57.4 471.995 57.4H474.796C474.849 57.4 474.875 57.4267 474.875 57.48V57.816C474.875 57.8693 474.849 57.896 474.796 57.896H472.515C472.494 57.896 472.483 57.9067 472.483 57.928L472.475 59.864C472.475 59.8747 472.478 59.8827 472.483 59.888C472.494 59.8933 472.505 59.8907 472.515 59.88C472.649 59.7573 472.806 59.664 472.987 59.6C473.169 59.5307 473.361 59.496 473.563 59.496C473.942 59.496 474.262 59.5893 474.523 59.776C474.785 59.9573 474.953 60.216 475.027 60.552Z" fill="#F8EF00"/>
<defs>
<filter id="filter0_d_66_15285" x="448" y="56" width="10" height="16" filterUnits="userSpaceOnUse" color-interpolation-filters="sRGB">
<feFlood flood-opacity="0" result="BackgroundImageFix"/>
<feColorMatrix in="SourceAlpha" type="matrix" values="0 0 0 0 0 0 0 0 0 0 0 0 0 0 0 0 0 0 127 0" result="hardAlpha"/>
<feOffset dy="4"/>
<feGaussianBlur stdDeviation="2"/>
<feComposite in2="hardAlpha" operator="out"/>
<feColorMatrix type="matrix" values="0 0 0 0 0 0 0 0 0 0 0 0 0 0 0 0 0 0 0.25 0"/>
<feBlend mode="normal" in2="BackgroundImageFix" result="effect1_dropShadow_66_15285"/>
<feBlend mode="normal" in="SourceGraphic" in2="effect1_dropShadow_66_15285" result="shape"/>
</filter>
</defs>
</svg>
