<svg width="510" height="72" viewBox="0 0 510 72" fill="none" xmlns="http://www.w3.org/2000/svg">
    <path d="M0 0H510V64H20.4545L0 47.5V0Z" fill="#F8EF00" />
    <line x1="508.973" x2="508.973" y2="64" stroke="#FFFDBF" stroke-width="2" />
    <path
        d="M26.056 38C25.6613 38 25.2987 37.904 24.968 37.712C24.6373 37.52 24.376 37.2587 24.184 36.928C23.992 36.5973 23.896 36.2347 23.896 35.84V28.64C23.896 28.2453 23.992 27.8827 24.184 27.552C24.376 27.2213 24.6373 26.96 24.968 26.768C25.2987 26.576 25.6613 26.48 26.056 26.48H35.384V28.416H26.392C26.2213 28.416 26.0827 28.4693 25.976 28.576C25.8693 28.672 25.816 28.8053 25.816 28.976V35.504C25.816 35.6747 25.8693 35.8133 25.976 35.92C26.0827 36.016 26.2213 36.064 26.392 36.064H35.384V38H26.056ZM42.3803 38C41.9856 38 41.6229 37.904 41.2923 37.712C40.9616 37.52 40.7003 37.2587 40.5083 36.928C40.3163 36.5973 40.2203 36.2347 40.2203 35.84V28.64C40.2203 28.2453 40.3163 27.8827 40.5083 27.552C40.7003 27.2213 40.9616 26.96 41.2923 26.768C41.6229 26.576 41.9856 26.48 42.3803 26.48H49.5803C49.9749 26.48 50.3323 26.576 50.6523 26.768C50.9829 26.96 51.2443 27.2213 51.4363 27.552C51.6389 27.8827 51.7403 28.2453 51.7403 28.64V35.84C51.7403 36.2347 51.6389 36.5973 51.4363 36.928C51.2443 37.2587 50.9829 37.52 50.6523 37.712C50.3323 37.904 49.9749 38 49.5803 38H42.3803ZM42.4283 36.064H49.5163C49.5909 36.064 49.6549 36.0373 49.7083 35.984C49.7723 35.9307 49.8043 35.8613 49.8043 35.776V28.704C49.8043 28.6187 49.7723 28.5493 49.7083 28.496C49.6549 28.4427 49.5909 28.416 49.5163 28.416H42.4283C42.3536 28.416 42.2843 28.4427 42.2203 28.496C42.1669 28.5493 42.1403 28.6187 42.1403 28.704V35.776C42.1403 35.8613 42.1669 35.9307 42.2203 35.984C42.2843 36.0373 42.3536 36.064 42.4283 36.064ZM56.7023 38V26.48H58.8943L66.2863 35.28V26.48H68.2223V38H66.0303L58.6223 29.184V38H56.7023ZM73.2147 38V26.48H75.4067L82.7987 35.28V26.48H84.7347V38H82.5427L75.1347 29.184V38H73.2147ZM89.7593 38V26.48H100.335V28.416H91.6953V31.28H98.6553V33.2H91.6953V36.064H100.335V38H89.7593ZM107.337 38C106.943 38 106.58 37.904 106.249 37.712C105.919 37.52 105.657 37.2587 105.465 36.928C105.273 36.5973 105.177 36.2347 105.177 35.84V28.64C105.177 28.2453 105.273 27.8827 105.465 27.552C105.657 27.2213 105.919 26.96 106.249 26.768C106.58 26.576 106.943 26.48 107.337 26.48H116.665V28.416H107.673C107.503 28.416 107.364 28.4693 107.257 28.576C107.151 28.672 107.097 28.8053 107.097 28.976V35.504C107.097 35.6747 107.151 35.8133 107.257 35.92C107.364 36.016 107.503 36.064 107.673 36.064H116.665V38H107.337ZM125.757 38V28.416H120.957V26.48H132.477V28.416H127.677V38H125.757ZM148.696 38L144.504 26.48H146.552L149.464 34.464L152.376 26.48H154.328L157.256 34.464L160.168 26.48H162.216L158.024 38H156.472L153.352 29.44L150.232 38H148.696ZM166.306 38V28.64C166.306 28.2453 166.402 27.8827 166.594 27.552C166.786 27.2213 167.047 26.96 167.378 26.768C167.709 26.576 168.071 26.48 168.466 26.48H175.666C176.061 26.48 176.418 26.576 176.738 26.768C177.069 26.96 177.33 27.2213 177.522 27.552C177.725 27.8827 177.826 28.2453 177.826 28.64V38H175.89V34.048H168.226V38H166.306ZM168.226 32.128H175.89V28.704C175.89 28.6187 175.858 28.5493 175.794 28.496C175.741 28.4427 175.677 28.416 175.602 28.416H168.514C168.439 28.416 168.37 28.4427 168.306 28.496C168.253 28.5493 168.226 28.6187 168.226 28.704V32.128ZM182.865 38V26.464H184.785V36.064H194.385V38H182.865ZM198.534 38V26.464H200.454V36.064H210.054V38H198.534ZM214.219 38V26.48H224.795V28.416H216.155V31.28H223.115V33.2H216.155V36.064H224.795V38H214.219ZM233.861 38V28.416H229.061V26.48H240.581V28.416H235.781V38H233.861Z"
        fill="black" />
    <path d="M458.562 25.25L465.312 32L458.562 38.75M464.375 32H450.688" stroke="black"
        stroke-width="2" stroke-miterlimit="10" stroke-linecap="square" />
    <rect x="452" y="56" width="38" height="8" fill="black" />
    <g filter="url(#filter0_d_429_613)">
        <line x1="453" y1="56" x2="453" y2="64" stroke="#FFFDBF" stroke-width="2" />
    </g>
    <path
        d="M463.016 63C462.968 63 462.936 62.9813 462.92 62.944L461.744 60.464C461.739 60.448 461.728 60.44 461.712 60.44H460.352C460.331 60.44 460.32 60.4507 460.32 60.472V62.92C460.32 62.9733 460.293 63 460.24 63H459.832C459.779 63 459.752 62.9733 459.752 62.92V57.48C459.752 57.4267 459.779 57.4 459.832 57.4H461.904C462.363 57.4 462.733 57.544 463.016 57.832C463.299 58.1147 463.44 58.4853 463.44 58.944C463.44 59.3173 463.339 59.6347 463.136 59.896C462.933 60.1573 462.659 60.3253 462.312 60.4C462.291 60.4107 462.285 60.424 462.296 60.44L463.496 62.904C463.501 62.9147 463.504 62.928 463.504 62.944C463.504 62.9813 463.483 63 463.44 63H463.016ZM460.352 57.896C460.331 57.896 460.32 57.9067 460.32 57.928V59.952C460.32 59.9733 460.331 59.984 460.352 59.984H461.84C462.149 59.984 462.4 59.888 462.592 59.696C462.784 59.504 462.88 59.2533 462.88 58.944C462.88 58.6347 462.784 58.384 462.592 58.192C462.4 57.9947 462.149 57.896 461.84 57.896H460.352ZM466.714 62.464C466.698 62.4907 466.704 62.504 466.73 62.504H469.242C469.296 62.504 469.322 62.5307 469.322 62.584V62.92C469.322 62.9733 469.296 63 469.242 63H466.05C465.997 63 465.97 62.9733 465.97 62.92V62.584C465.97 62.5467 465.984 62.5147 466.01 62.488C466.192 62.2747 466.6 61.7733 467.234 60.984L467.826 60.248C468.328 59.6133 468.578 59.12 468.578 58.768C468.578 58.4853 468.482 58.2587 468.29 58.088C468.098 57.9173 467.848 57.832 467.538 57.832C467.234 57.832 466.989 57.92 466.802 58.096C466.616 58.2667 466.525 58.4933 466.53 58.776V59.024C466.53 59.0773 466.504 59.104 466.45 59.104H466.034C465.981 59.104 465.954 59.0773 465.954 59.024V58.704C465.965 58.2933 466.117 57.9627 466.41 57.712C466.709 57.4613 467.085 57.336 467.538 57.336C467.858 57.336 468.141 57.3973 468.386 57.52C468.632 57.6427 468.821 57.8133 468.954 58.032C469.088 58.2453 469.154 58.488 469.154 58.76C469.154 59.2133 468.904 59.76 468.402 60.4C468.141 60.736 467.637 61.3547 466.89 62.256L466.714 62.464ZM475.027 60.552C475.075 60.7867 475.099 61.0267 475.099 61.272C475.099 61.5333 475.075 61.7573 475.027 61.944C474.937 62.2853 474.755 62.5573 474.484 62.76C474.212 62.9573 473.883 63.056 473.499 63.056C473.121 63.056 472.798 62.96 472.531 62.768C472.265 62.576 472.083 62.32 471.987 62C471.95 61.8827 471.926 61.7653 471.915 61.648V61.632C471.915 61.5893 471.939 61.568 471.987 61.568H472.411C472.465 61.568 472.494 61.5947 472.499 61.648C472.499 61.68 472.51 61.7333 472.531 61.808C472.585 62.0373 472.694 62.2213 472.859 62.36C473.03 62.4933 473.241 62.56 473.491 62.56C473.747 62.56 473.961 62.488 474.132 62.344C474.307 62.2 474.422 62.0027 474.475 61.752C474.507 61.6293 474.523 61.4693 474.523 61.272C474.523 61.0907 474.51 60.9173 474.484 60.752C474.446 60.5067 474.339 60.32 474.163 60.192C473.987 60.064 473.769 60 473.507 60C473.273 60 473.062 60.0533 472.875 60.16C472.689 60.2667 472.569 60.408 472.515 60.584C472.499 60.632 472.47 60.656 472.427 60.656H471.995C471.942 60.656 471.915 60.6293 471.915 60.576V57.48C471.915 57.4267 471.942 57.4 471.995 57.4H474.796C474.849 57.4 474.875 57.4267 474.875 57.48V57.816C474.875 57.8693 474.849 57.896 474.796 57.896H472.515C472.494 57.896 472.483 57.9067 472.483 57.928L472.475 59.864C472.475 59.8747 472.478 59.8827 472.483 59.888C472.494 59.8933 472.505 59.8907 472.515 59.88C472.649 59.7573 472.806 59.664 472.987 59.6C473.169 59.5307 473.361 59.496 473.563 59.496C473.942 59.496 474.262 59.5893 474.523 59.776C474.785 59.9573 474.953 60.216 475.027 60.552Z"
        fill="#F8EF00" />
    <defs>
        <filter id="filter0_d_429_613" x="448" y="56" width="10" height="16"
            filterUnits="userSpaceOnUse" color-interpolation-filters="sRGB">
            <feFlood flood-opacity="0" result="BackgroundImageFix" />
            <feColorMatrix in="SourceAlpha" type="matrix"
                values="0 0 0 0 0 0 0 0 0 0 0 0 0 0 0 0 0 0 127 0" result="hardAlpha" />
            <feOffset dy="4" />
            <feGaussianBlur stdDeviation="2" />
            <feComposite in2="hardAlpha" operator="out" />
            <feColorMatrix type="matrix" values="0 0 0 0 0 0 0 0 0 0 0 0 0 0 0 0 0 0 0.25 0" />
            <feBlend mode="normal" in2="BackgroundImageFix" result="effect1_dropShadow_429_613" />
            <feBlend mode="normal" in="SourceGraphic" in2="effect1_dropShadow_429_613"
                result="shape" />
        </filter>
    </defs>
</svg>