<svg width="1706" height="80" viewBox="0 0 1706 80" fill="none" xmlns="http://www.w3.org/2000/svg">
    <path opacity="0.5"
        d="M1.94375 28.6949H2.29175C2.48641 28.6949 2.58375 28.5962 2.58375 28.3989V27.0989C2.58375 26.9016 2.48641 26.8029 2.29175 26.8029H1.94375C1.75175 26.8029 1.65575 26.9016 1.65575 27.0989V28.3989C1.65575 28.5962 1.75175 28.6949 1.94375 28.6949ZM2.35175 29.0349H1.88775C1.69041 29.0349 1.53708 28.9802 1.42775 28.8709C1.32108 28.7616 1.26775 28.6096 1.26775 28.4149V27.0829C1.26775 26.8856 1.32108 26.7336 1.42775 26.6269C1.53708 26.5176 1.69041 26.4629 1.88775 26.4629H2.35175C2.54908 26.4629 2.70241 26.5176 2.81175 26.6269C2.92108 26.7336 2.97575 26.8856 2.97575 27.0829V28.4149C2.97575 28.6096 2.92108 28.7616 2.81175 28.8709C2.70241 28.9802 2.54908 29.0349 2.35175 29.0349ZM3.83078 29.0349H3.58278C3.53745 29.0349 3.51478 29.0122 3.51478 28.9669V26.5309C3.51478 26.4856 3.53745 26.4629 3.58278 26.4629H3.80678C3.84945 26.4629 3.87878 26.4776 3.89478 26.5069L4.86278 28.2469H4.87878V26.5309C4.87878 26.4856 4.90145 26.4629 4.94678 26.4629H5.19478C5.24011 26.4629 5.26278 26.4856 5.26278 26.5309V28.9669C5.26278 29.0122 5.24011 29.0349 5.19478 29.0349H4.97878C4.93611 29.0349 4.90145 29.0136 4.87478 28.9709L3.91478 27.2509H3.89878V28.9669C3.89878 29.0122 3.87611 29.0349 3.83078 29.0349ZM7.21081 29.0349H5.91481C5.86948 29.0349 5.84681 29.0122 5.84681 28.9669V26.5309C5.84681 26.4856 5.86948 26.4629 5.91481 26.4629H6.16681C6.21214 26.4629 6.23481 26.4856 6.23481 26.5309V28.6469C6.23481 28.6736 6.25081 28.6869 6.28281 28.6869H7.21081C7.25614 28.6869 7.27881 28.7109 7.27881 28.7589V28.9669C7.27881 29.0122 7.25614 29.0349 7.21081 29.0349ZM8.49959 29.0349H8.24359C8.19826 29.0349 8.17559 29.0122 8.17559 28.9669V28.0829L7.42759 26.5349C7.41692 26.5136 7.41692 26.4962 7.42759 26.4829C7.43826 26.4696 7.45292 26.4629 7.47159 26.4629H7.79159C7.82626 26.4629 7.85292 26.4856 7.87159 26.5309L8.36359 27.6309H8.38759L8.87159 26.5309C8.88759 26.4856 8.91426 26.4629 8.95159 26.4629H9.27159C9.29292 26.4629 9.30759 26.4696 9.31559 26.4829C9.32626 26.4962 9.32626 26.5136 9.31559 26.5349L8.56759 28.0829V28.9669C8.56759 29.0122 8.54492 29.0349 8.49959 29.0349ZM11.676 29.0349H11.212C11.0146 29.0349 10.8613 28.9802 10.752 28.8709C10.6453 28.7616 10.592 28.6096 10.592 28.4149V27.0829C10.592 26.8856 10.6453 26.7336 10.752 26.6269C10.8613 26.5176 11.0146 26.4629 11.212 26.4629H11.676C11.8706 26.4629 12.0226 26.5176 12.132 26.6269C12.2413 26.7336 12.296 26.8856 12.296 27.0829V27.2749C12.296 27.3229 12.272 27.3469 12.224 27.3469H11.972C11.9266 27.3469 11.904 27.3229 11.904 27.2749V27.0989C11.904 26.9016 11.808 26.8029 11.616 26.8029H11.268C11.076 26.8029 10.98 26.9016 10.98 27.0989V28.3989C10.98 28.5962 11.076 28.6949 11.268 28.6949H11.616C11.808 28.6949 11.904 28.5962 11.904 28.3989V28.2229C11.904 28.1749 11.9266 28.1509 11.972 28.1509H12.224C12.272 28.1509 12.296 28.1749 12.296 28.2229V28.4149C12.296 28.6096 12.2413 28.7616 12.132 28.8709C12.0226 28.9802 11.8706 29.0349 11.676 29.0349ZM13.8361 29.0349H13.3721C13.1748 29.0349 13.0215 28.9802 12.9121 28.8709C12.8055 28.7616 12.7521 28.6096 12.7521 28.4149V27.0829C12.7521 26.8856 12.8055 26.7336 12.9121 26.6269C13.0215 26.5176 13.1748 26.4629 13.3721 26.4629H13.8361C14.0308 26.4629 14.1828 26.5176 14.2921 26.6269C14.4015 26.7336 14.4561 26.8856 14.4561 27.0829V27.2749C14.4561 27.3229 14.4321 27.3469 14.3841 27.3469H14.1321C14.0868 27.3469 14.0641 27.3229 14.0641 27.2749V27.0989C14.0641 26.9016 13.9681 26.8029 13.7761 26.8029H13.4281C13.2361 26.8029 13.1401 26.9016 13.1401 27.0989V28.3989C13.1401 28.5962 13.2361 28.6949 13.4281 28.6949H13.7761C13.9681 28.6949 14.0641 28.5962 14.0641 28.3989V28.2229C14.0641 28.1749 14.0868 28.1509 14.1321 28.1509H14.3841C14.4321 28.1509 14.4561 28.1749 14.4561 28.2229V28.4149C14.4561 28.6096 14.4015 28.7616 14.2921 28.8709C14.1828 28.9802 14.0308 29.0349 13.8361 29.0349ZM15.5443 27.5829H15.7643C15.9616 27.5829 16.0603 27.4856 16.0603 27.2909V27.0829C16.0603 26.8909 15.9616 26.7949 15.7643 26.7949H15.5283C15.4296 26.7949 15.3563 26.8176 15.3083 26.8629C15.2629 26.9082 15.2403 26.9816 15.2403 27.0829V27.1989C15.2403 27.2442 15.2176 27.2669 15.1723 27.2669H14.9163C14.8709 27.2669 14.8483 27.2442 14.8483 27.1989V27.0749C14.8483 26.8802 14.9029 26.7296 15.0123 26.6229C15.1216 26.5162 15.2749 26.4629 15.4723 26.4629H15.8203C16.0176 26.4629 16.1709 26.5162 16.2803 26.6229C16.3896 26.7296 16.4443 26.8802 16.4443 27.0749V27.2949C16.4443 27.5296 16.3376 27.6789 16.1243 27.7429C16.3376 27.7936 16.4443 27.9429 16.4443 28.1909V28.4229C16.4443 28.6176 16.3896 28.7682 16.2803 28.8749C16.1709 28.9816 16.0176 29.0349 15.8203 29.0349H15.4723C15.2749 29.0349 15.1216 28.9816 15.0123 28.8749C14.9029 28.7682 14.8483 28.6176 14.8483 28.4229V28.2829C14.8483 28.2349 14.8709 28.2109 14.9163 28.2109H15.1723C15.2176 28.2109 15.2403 28.2349 15.2403 28.2829V28.4149C15.2403 28.5136 15.2629 28.5869 15.3083 28.6349C15.3563 28.6802 15.4296 28.7029 15.5283 28.7029H15.7643C15.9616 28.7029 16.0603 28.6069 16.0603 28.4149V28.1949C16.0603 28.0002 15.9616 27.9029 15.7643 27.9029H15.5443C15.4989 27.9029 15.4763 27.8802 15.4763 27.8349V27.6549C15.4763 27.6069 15.4989 27.5829 15.5443 27.5829ZM17.7799 27.6749H17.5319C17.4812 27.6749 17.4386 27.6842 17.4039 27.7029C17.3719 27.7216 17.3506 27.7416 17.3399 27.7629C17.3106 27.8242 17.2746 27.8549 17.2319 27.8549H16.9799C16.9346 27.8549 16.9119 27.8322 16.9119 27.7869V26.5309C16.9119 26.4856 16.9346 26.4629 16.9799 26.4629H18.3359C18.3839 26.4629 18.4079 26.4856 18.4079 26.5309V26.7589C18.4079 26.8042 18.3839 26.8269 18.3359 26.8269H17.3039V27.5549C17.3492 27.4242 17.4612 27.3589 17.6399 27.3589H17.8759C18.0679 27.3589 18.2146 27.4096 18.3159 27.5109C18.4172 27.6096 18.4679 27.7562 18.4679 27.9509V28.4149C18.4679 28.6096 18.4132 28.7616 18.3039 28.8709C18.1946 28.9802 18.0426 29.0349 17.8479 29.0349H17.5079C17.3106 29.0349 17.1572 28.9802 17.0479 28.8709C16.9412 28.7616 16.8879 28.6096 16.8879 28.4149V28.3109C16.8879 28.2629 16.9106 28.2389 16.9559 28.2389H17.2079C17.2532 28.2389 17.2759 28.2629 17.2759 28.3109V28.4109C17.2759 28.6056 17.3719 28.7029 17.5639 28.7029H17.7919C17.9892 28.7029 18.0879 28.6056 18.0879 28.4109V28.0069C18.0879 27.8869 18.0639 27.8016 18.0159 27.7509C17.9706 27.7002 17.8919 27.6749 17.7799 27.6749ZM20.9533 29.0349H20.4893C20.292 29.0349 20.1386 28.9802 20.0293 28.8709C19.9226 28.7616 19.8693 28.6096 19.8693 28.4149V27.0829C19.8693 26.8856 19.9226 26.7336 20.0293 26.6269C20.1386 26.5176 20.292 26.4629 20.4893 26.4629H20.9533C21.148 26.4629 21.3 26.5176 21.4093 26.6269C21.5186 26.7336 21.5733 26.8856 21.5733 27.0829V27.2749C21.5733 27.3229 21.5493 27.3469 21.5013 27.3469H21.2493C21.204 27.3469 21.1813 27.3229 21.1813 27.2749V27.0989C21.1813 26.9016 21.0853 26.8029 20.8933 26.8029H20.5453C20.3533 26.8029 20.2573 26.9016 20.2573 27.0989V28.3989C20.2573 28.5962 20.3533 28.6949 20.5453 28.6949H20.8933C21.0853 28.6949 21.1813 28.5962 21.1813 28.3989V28.2229C21.1813 28.1749 21.204 28.1509 21.2493 28.1509H21.5013C21.5493 28.1509 21.5733 28.1749 21.5733 28.2229V28.4149C21.5733 28.6096 21.5186 28.7616 21.4093 28.8709C21.3 28.9802 21.148 29.0349 20.9533 29.0349ZM23.4175 29.0349H22.1375C22.0921 29.0349 22.0695 29.0122 22.0695 28.9669V26.5309C22.0695 26.4856 22.0921 26.4629 22.1375 26.4629H23.4175C23.4601 26.4629 23.4815 26.4856 23.4815 26.5309V26.7349C23.4815 26.7802 23.4601 26.8029 23.4175 26.8029H22.5055C22.4735 26.8029 22.4575 26.8162 22.4575 26.8429V27.5189C22.4575 27.5456 22.4735 27.5589 22.5055 27.5589H23.2775C23.3255 27.5589 23.3495 27.5816 23.3495 27.6269V27.8309C23.3495 27.8762 23.3255 27.8989 23.2775 27.8989H22.5055C22.4735 27.8989 22.4575 27.9122 22.4575 27.9389V28.6509C22.4575 28.6802 22.4735 28.6949 22.5055 28.6949H23.4175C23.4601 28.6949 23.4815 28.7176 23.4815 28.7629V28.9669C23.4815 29.0122 23.4601 29.0349 23.4175 29.0349ZM24.3113 29.0349H24.0593C24.014 29.0349 23.9913 29.0122 23.9913 28.9669V26.5309C23.9913 26.4856 24.014 26.4629 24.0593 26.4629H24.9953C25.19 26.4629 25.342 26.5189 25.4513 26.6309C25.5633 26.7402 25.6193 26.8922 25.6193 27.0869V27.4229C25.6193 27.7296 25.4927 27.9229 25.2393 28.0029V28.0189L25.6833 28.9549C25.7127 29.0082 25.6953 29.0349 25.6313 29.0349H25.3833C25.3193 29.0349 25.278 29.0122 25.2593 28.9669L24.8313 28.0469H24.4273C24.3953 28.0469 24.3793 28.0602 24.3793 28.0869V28.9669C24.3793 29.0122 24.3567 29.0349 24.3113 29.0349ZM24.4233 27.7269H24.9313C25.1287 27.7269 25.2273 27.6296 25.2273 27.4349V27.0989C25.2273 26.9016 25.1287 26.8029 24.9313 26.8029H24.4233C24.394 26.8029 24.3793 26.8162 24.3793 26.8429V27.6869C24.3793 27.7136 24.394 27.7269 24.4233 27.7269ZM26.8633 29.0349H26.6113C26.5633 29.0349 26.5393 29.0122 26.5393 28.9669V26.8429C26.5393 26.8162 26.526 26.8029 26.4993 26.8029H25.9953C25.9473 26.8029 25.9233 26.7802 25.9233 26.7349V26.5309C25.9233 26.4856 25.9473 26.4629 25.9953 26.4629H27.4793C27.5273 26.4629 27.5513 26.4856 27.5513 26.5309V26.7349C27.5513 26.7802 27.5273 26.8029 27.4793 26.8029H26.9753C26.946 26.8029 26.9313 26.8162 26.9313 26.8429V28.9669C26.9313 29.0122 26.9086 29.0349 26.8633 29.0349ZM28.3017 26.5309V28.9669C28.3017 29.0122 28.279 29.0349 28.2337 29.0349H27.9817C27.9364 29.0349 27.9137 29.0122 27.9137 28.9669V26.5309C27.9137 26.4856 27.9364 26.4629 27.9817 26.4629H28.2337C28.279 26.4629 28.3017 26.4856 28.3017 26.5309ZM29.2254 29.0349H28.9734C28.9281 29.0349 28.9054 29.0122 28.9054 28.9669V26.5309C28.9054 26.4856 28.9281 26.4629 28.9734 26.4629H30.2294C30.2747 26.4629 30.2974 26.4856 30.2974 26.5309V26.7349C30.2974 26.7802 30.2747 26.8029 30.2294 26.8029H29.3414C29.3094 26.8029 29.2934 26.8162 29.2934 26.8429V27.5989C29.2934 27.6282 29.3094 27.6429 29.3414 27.6429H30.1134C30.1614 27.6429 30.1854 27.6656 30.1854 27.7109V27.9109C30.1854 27.9589 30.1614 27.9829 30.1134 27.9829H29.3414C29.3094 27.9829 29.2934 27.9962 29.2934 28.0229V28.9669C29.2934 29.0122 29.2707 29.0349 29.2254 29.0349ZM31.1298 26.5309V28.9669C31.1298 29.0122 31.1071 29.0349 31.0618 29.0349H30.8098C30.7645 29.0349 30.7418 29.0122 30.7418 28.9669V26.5309C30.7418 26.4856 30.7645 26.4629 30.8098 26.4629H31.0618C31.1071 26.4629 31.1298 26.4856 31.1298 26.5309ZM33.0815 29.0349H31.8015C31.7562 29.0349 31.7335 29.0122 31.7335 28.9669V26.5309C31.7335 26.4856 31.7562 26.4629 31.8015 26.4629H33.0815C33.1242 26.4629 33.1455 26.4856 33.1455 26.5309V26.7349C33.1455 26.7802 33.1242 26.8029 33.0815 26.8029H32.1695C32.1375 26.8029 32.1215 26.8162 32.1215 26.8429V27.5189C32.1215 27.5456 32.1375 27.5589 32.1695 27.5589H32.9415C32.9895 27.5589 33.0135 27.5816 33.0135 27.6269V27.8309C33.0135 27.8762 32.9895 27.8989 32.9415 27.8989H32.1695C32.1375 27.8989 32.1215 27.9122 32.1215 27.9389V28.6509C32.1215 28.6802 32.1375 28.6949 32.1695 28.6949H33.0815C33.1242 28.6949 33.1455 28.7176 33.1455 28.7629V28.9669C33.1455 29.0122 33.1242 29.0349 33.0815 29.0349ZM34.0874 28.6949H34.6514C34.8434 28.6949 34.9394 28.5962 34.9394 28.3989V27.0989C34.9394 26.9016 34.8434 26.8029 34.6514 26.8029H34.0874C34.0581 26.8029 34.0434 26.8162 34.0434 26.8429V28.6509C34.0434 28.6802 34.0581 28.6949 34.0874 28.6949ZM33.6554 28.9669V26.5309C33.6554 26.4856 33.6781 26.4629 33.7234 26.4629H34.7074C34.9021 26.4629 35.0541 26.5176 35.1634 26.6269C35.2754 26.7336 35.3314 26.8856 35.3314 27.0829V28.4149C35.3314 28.6096 35.2754 28.7616 35.1634 28.8709C35.0541 28.9802 34.9021 29.0349 34.7074 29.0349H33.7234C33.6781 29.0349 33.6554 29.0122 33.6554 28.9669ZM36.9673 29.0349H36.6793C36.6419 29.0349 36.6286 29.0122 36.6393 28.9669L37.3353 26.5309C37.3486 26.4856 37.3806 26.4629 37.4313 26.4629H37.8313C37.8846 26.4629 37.9166 26.4856 37.9273 26.5309L38.6233 28.9669C38.6339 29.0122 38.6193 29.0349 38.5793 29.0349H38.2953C38.2713 29.0349 38.2539 29.0309 38.2433 29.0229C38.2353 29.0122 38.2286 28.9936 38.2233 28.9669L38.0713 28.4469H37.1913L37.0393 28.9669C37.0286 29.0122 37.0046 29.0349 36.9673 29.0349ZM37.6233 26.8469L37.2713 28.1269H37.9953L37.6393 26.8469H37.6233ZM39.3347 29.0349H39.0867C39.0414 29.0349 39.0187 29.0122 39.0187 28.9669V26.5309C39.0187 26.4856 39.0414 26.4629 39.0867 26.4629H39.3107C39.3534 26.4629 39.3827 26.4776 39.3987 26.5069L40.3667 28.2469H40.3827V26.5309C40.3827 26.4856 40.4054 26.4629 40.4507 26.4629H40.6987C40.744 26.4629 40.7667 26.4856 40.7667 26.5309V28.9669C40.7667 29.0122 40.744 29.0349 40.6987 29.0349H40.4827C40.44 29.0349 40.4054 29.0136 40.3787 28.9709L39.4187 27.2509H39.4027V28.9669C39.4027 29.0122 39.38 29.0349 39.3347 29.0349ZM41.7827 28.6949H42.3467C42.5387 28.6949 42.6347 28.5962 42.6347 28.3989V27.0989C42.6347 26.9016 42.5387 26.8029 42.3467 26.8029H41.7827C41.7534 26.8029 41.7387 26.8162 41.7387 26.8429V28.6509C41.7387 28.6802 41.7534 28.6949 41.7827 28.6949ZM41.3507 28.9669V26.5309C41.3507 26.4856 41.3734 26.4629 41.4187 26.4629H42.4027C42.5974 26.4629 42.7494 26.5176 42.8587 26.6269C42.9707 26.7336 43.0267 26.8856 43.0267 27.0829V28.4149C43.0267 28.6096 42.9707 28.7616 42.8587 28.8709C42.7494 28.9802 42.5974 29.0349 42.4027 29.0349H41.4187C41.3734 29.0349 41.3507 29.0122 41.3507 28.9669ZM44.9546 28.6949H45.5186C45.7106 28.6949 45.8066 28.5962 45.8066 28.3989V27.0989C45.8066 26.9016 45.7106 26.8029 45.5186 26.8029H44.9546C44.9253 26.8029 44.9106 26.8162 44.9106 26.8429V28.6509C44.9106 28.6802 44.9253 28.6949 44.9546 28.6949ZM44.5226 28.9669V26.5309C44.5226 26.4856 44.5453 26.4629 44.5906 26.4629H45.5746C45.7693 26.4629 45.9213 26.5176 46.0306 26.6269C46.1426 26.7336 46.1986 26.8856 46.1986 27.0829V28.4149C46.1986 28.6096 46.1426 28.7616 46.0306 28.8709C45.9213 28.9802 45.7693 29.0349 45.5746 29.0349H44.5906C44.5453 29.0349 44.5226 29.0122 44.5226 28.9669ZM47.0613 29.0349H46.8093C46.764 29.0349 46.7413 29.0122 46.7413 28.9669V26.5309C46.7413 26.4856 46.764 26.4629 46.8093 26.4629H47.0613C47.1067 26.4629 47.1293 26.4856 47.1293 26.5309V27.5309C47.1293 27.5576 47.1453 27.5709 47.1773 27.5709H48.0213C48.048 27.5709 48.0613 27.5576 48.0613 27.5309V26.5309C48.0613 26.4856 48.084 26.4629 48.1293 26.4629H48.3853C48.4307 26.4629 48.4533 26.4856 48.4533 26.5309V28.9669C48.4533 29.0122 48.4307 29.0349 48.3853 29.0349H48.1293C48.084 29.0349 48.0613 29.0122 48.0613 28.9669V27.9549C48.0613 27.9282 48.048 27.9149 48.0213 27.9149H47.1773C47.1453 27.9149 47.1293 27.9282 47.1293 27.9549V28.9669C47.1293 29.0122 47.1067 29.0349 47.0613 29.0349ZM48.9902 28.4109V28.3069C48.9902 28.2616 49.0129 28.2389 49.0582 28.2389H49.3142C49.3595 28.2389 49.3822 28.2616 49.3822 28.3069V28.3789C49.3822 28.4909 49.4062 28.5722 49.4542 28.6229C49.5049 28.6709 49.5875 28.6949 49.7022 28.6949H49.9782C50.0929 28.6949 50.1755 28.6696 50.2262 28.6189C50.2769 28.5656 50.3022 28.4802 50.3022 28.3629V28.2709C50.3022 28.1856 50.2689 28.1189 50.2022 28.0709C50.1382 28.0202 50.0582 27.9882 49.9622 27.9749C49.8662 27.9589 49.7609 27.9376 49.6462 27.9109C49.5315 27.8842 49.4262 27.8536 49.3302 27.8189C49.2342 27.7842 49.1529 27.7189 49.0862 27.6229C49.0222 27.5269 48.9902 27.4042 48.9902 27.2549V27.0869C48.9902 26.8922 49.0449 26.7402 49.1542 26.6309C49.2662 26.5189 49.4195 26.4629 49.6142 26.4629H50.0382C50.2355 26.4629 50.3889 26.5189 50.4982 26.6309C50.6102 26.7402 50.6662 26.8922 50.6662 27.0869V27.1749C50.6662 27.2202 50.6435 27.2429 50.5982 27.2429H50.3422C50.2969 27.2429 50.2742 27.2202 50.2742 27.1749V27.1229C50.2742 27.0082 50.2489 26.9269 50.1982 26.8789C50.1502 26.8282 50.0689 26.8029 49.9542 26.8029H49.7022C49.5875 26.8029 49.5049 26.8296 49.4542 26.8829C49.4062 26.9336 49.3822 27.0216 49.3822 27.1469V27.2709C49.3822 27.3909 49.4689 27.4722 49.6422 27.5149C49.7195 27.5336 49.8035 27.5496 49.8942 27.5629C49.9875 27.5762 50.0809 27.5962 50.1742 27.6229C50.2675 27.6496 50.3529 27.6856 50.4302 27.7309C50.5075 27.7736 50.5702 27.8402 50.6182 27.9309C50.6662 28.0189 50.6902 28.1269 50.6902 28.2549V28.4109C50.6902 28.6056 50.6342 28.7589 50.5222 28.8709C50.4129 28.9802 50.2609 29.0349 50.0662 29.0349H49.6182C49.4235 29.0349 49.2702 28.9802 49.1582 28.8709C49.0462 28.7589 48.9902 28.6056 48.9902 28.4109ZM51.5496 29.0349H51.2976C51.2523 29.0349 51.2296 29.0122 51.2296 28.9669V26.5309C51.2296 26.4856 51.2523 26.4629 51.2976 26.4629H52.5536C52.599 26.4629 52.6216 26.4856 52.6216 26.5309V26.7349C52.6216 26.7802 52.599 26.8029 52.5536 26.8029H51.6656C51.6336 26.8029 51.6176 26.8162 51.6176 26.8429V27.5989C51.6176 27.6282 51.6336 27.6429 51.6656 27.6429H52.4376C52.4856 27.6429 52.5096 27.6656 52.5096 27.7109V27.9109C52.5096 27.9589 52.4856 27.9829 52.4376 27.9829H51.6656C51.6336 27.9829 51.6176 27.9962 51.6176 28.0229V28.9669C51.6176 29.0122 51.595 29.0349 51.5496 29.0349ZM54.8112 27.6749H54.5632C54.5125 27.6749 54.4698 27.6842 54.4352 27.7029C54.4032 27.7216 54.3818 27.7416 54.3712 27.7629C54.3418 27.8242 54.3058 27.8549 54.2632 27.8549H54.0112C53.9658 27.8549 53.9432 27.8322 53.9432 27.7869V26.5309C53.9432 26.4856 53.9658 26.4629 54.0112 26.4629H55.3672C55.4152 26.4629 55.4392 26.4856 55.4392 26.5309V26.7589C55.4392 26.8042 55.4152 26.8269 55.3672 26.8269H54.3352V27.5549C54.3805 27.4242 54.4925 27.3589 54.6712 27.3589H54.9072C55.0992 27.3589 55.2458 27.4096 55.3472 27.5109C55.4485 27.6096 55.4992 27.7562 55.4992 27.9509V28.4149C55.4992 28.6096 55.4445 28.7616 55.3352 28.8709C55.2258 28.9802 55.0738 29.0349 54.8792 29.0349H54.5392C54.3418 29.0349 54.1885 28.9802 54.0792 28.8709C53.9725 28.7616 53.9192 28.6096 53.9192 28.4149V28.3109C53.9192 28.2629 53.9418 28.2389 53.9872 28.2389H54.2392C54.2845 28.2389 54.3072 28.2629 54.3072 28.3109V28.4109C54.3072 28.6056 54.4032 28.7029 54.5952 28.7029H54.8232C55.0205 28.7029 55.1192 28.6056 55.1192 28.4109V28.0069C55.1192 27.8869 55.0952 27.8016 55.0472 27.7509C55.0018 27.7002 54.9232 27.6749 54.8112 27.6749ZM56.6914 29.0349H56.4394C56.3914 29.0349 56.3674 29.0122 56.3674 28.9669V26.8429C56.3674 26.8162 56.3541 26.8029 56.3274 26.8029H55.8234C55.7754 26.8029 55.7514 26.7802 55.7514 26.7349V26.5309C55.7514 26.4856 55.7754 26.4629 55.8234 26.4629H57.3074C57.3554 26.4629 57.3794 26.4856 57.3794 26.5309V26.7349C57.3794 26.7802 57.3554 26.8029 57.3074 26.8029H56.8034C56.7741 26.8029 56.7594 26.8162 56.7594 26.8429V28.9669C56.7594 29.0122 56.7368 29.0349 56.6914 29.0349ZM58.0418 29.0349H57.7898C57.7445 29.0349 57.7218 29.0122 57.7218 28.9669V26.5309C57.7218 26.4856 57.7445 26.4629 57.7898 26.4629H58.0418C58.0871 26.4629 58.1098 26.4856 58.1098 26.5309V27.5309C58.1098 27.5576 58.1258 27.5709 58.1578 27.5709H59.0018C59.0285 27.5709 59.0418 27.5576 59.0418 27.5309V26.5309C59.0418 26.4856 59.0645 26.4629 59.1098 26.4629H59.3658C59.4111 26.4629 59.4338 26.4856 59.4338 26.5309V28.9669C59.4338 29.0122 59.4111 29.0349 59.3658 29.0349H59.1098C59.0645 29.0349 59.0418 29.0122 59.0418 28.9669V27.9549C59.0418 27.9282 59.0285 27.9149 59.0018 27.9149H58.1578C58.1258 27.9149 58.1098 27.9282 58.1098 27.9549V28.9669C58.1098 29.0122 58.0871 29.0349 58.0418 29.0349ZM62.0158 29.0349H61.5518C61.3545 29.0349 61.2011 28.9802 61.0918 28.8709C60.9851 28.7616 60.9318 28.6096 60.9318 28.4149V27.0829C60.9318 26.8856 60.9851 26.7336 61.0918 26.6269C61.2011 26.5176 61.3545 26.4629 61.5518 26.4629H62.0158C62.2105 26.4629 62.3625 26.5176 62.4718 26.6269C62.5811 26.7336 62.6358 26.8856 62.6358 27.0829V27.2749C62.6358 27.3229 62.6118 27.3469 62.5638 27.3469H62.3118C62.2665 27.3469 62.2438 27.3229 62.2438 27.2749V27.0989C62.2438 26.9016 62.1478 26.8029 61.9558 26.8029H61.6078C61.4158 26.8029 61.3198 26.9016 61.3198 27.0989V28.3989C61.3198 28.5962 61.4158 28.6949 61.6078 28.6949H61.9558C62.1478 28.6949 62.2438 28.5962 62.2438 28.3989V28.2229C62.2438 28.1749 62.2665 28.1509 62.3118 28.1509H62.5638C62.6118 28.1509 62.6358 28.1749 62.6358 28.2229V28.4149C62.6358 28.6096 62.5811 28.7616 62.4718 28.8709C62.3625 28.9802 62.2105 29.0349 62.0158 29.0349ZM64.496 29.0349H63.2C63.1546 29.0349 63.132 29.0122 63.132 28.9669V26.5309C63.132 26.4856 63.1546 26.4629 63.2 26.4629H63.452C63.4973 26.4629 63.52 26.4856 63.52 26.5309V28.6469C63.52 28.6736 63.536 28.6869 63.568 28.6869H64.496C64.5413 28.6869 64.564 28.7109 64.564 28.7589V28.9669C64.564 29.0122 64.5413 29.0349 64.496 29.0349ZM65.0727 29.0349H64.7847C64.7474 29.0349 64.7341 29.0122 64.7447 28.9669L65.4407 26.5309C65.4541 26.4856 65.4861 26.4629 65.5367 26.4629H65.9367C65.9901 26.4629 66.0221 26.4856 66.0327 26.5309L66.7287 28.9669C66.7394 29.0122 66.7247 29.0349 66.6847 29.0349H66.4007C66.3767 29.0349 66.3594 29.0309 66.3487 29.0229C66.3407 29.0122 66.3341 28.9936 66.3287 28.9669L66.1767 28.4469H65.2967L65.1447 28.9669C65.1341 29.0122 65.1101 29.0349 65.0727 29.0349ZM65.7287 26.8469L65.3767 28.1269H66.1007L65.7447 26.8469H65.7287ZM67.0762 28.4109V28.3069C67.0762 28.2616 67.0988 28.2389 67.1442 28.2389H67.4002C67.4455 28.2389 67.4682 28.2616 67.4682 28.3069V28.3789C67.4682 28.4909 67.4922 28.5722 67.5402 28.6229C67.5908 28.6709 67.6735 28.6949 67.7882 28.6949H68.0642C68.1788 28.6949 68.2615 28.6696 68.3122 28.6189C68.3628 28.5656 68.3882 28.4802 68.3882 28.3629V28.2709C68.3882 28.1856 68.3548 28.1189 68.2882 28.0709C68.2242 28.0202 68.1442 27.9882 68.0482 27.9749C67.9522 27.9589 67.8468 27.9376 67.7322 27.9109C67.6175 27.8842 67.5122 27.8536 67.4162 27.8189C67.3202 27.7842 67.2388 27.7189 67.1722 27.6229C67.1082 27.5269 67.0762 27.4042 67.0762 27.2549V27.0869C67.0762 26.8922 67.1308 26.7402 67.2402 26.6309C67.3522 26.5189 67.5055 26.4629 67.7002 26.4629H68.1242C68.3215 26.4629 68.4748 26.5189 68.5842 26.6309C68.6962 26.7402 68.7522 26.8922 68.7522 27.0869V27.1749C68.7522 27.2202 68.7295 27.2429 68.6842 27.2429H68.4282C68.3828 27.2429 68.3602 27.2202 68.3602 27.1749V27.1229C68.3602 27.0082 68.3348 26.9269 68.2842 26.8789C68.2362 26.8282 68.1548 26.8029 68.0402 26.8029H67.7882C67.6735 26.8029 67.5908 26.8296 67.5402 26.8829C67.4922 26.9336 67.4682 27.0216 67.4682 27.1469V27.2709C67.4682 27.3909 67.5548 27.4722 67.7282 27.5149C67.8055 27.5336 67.8895 27.5496 67.9802 27.5629C68.0735 27.5762 68.1668 27.5962 68.2602 27.6229C68.3535 27.6496 68.4388 27.6856 68.5162 27.7309C68.5935 27.7736 68.6562 27.8402 68.7042 27.9309C68.7522 28.0189 68.7762 28.1269 68.7762 28.2549V28.4109C68.7762 28.6056 68.7202 28.7589 68.6082 28.8709C68.4988 28.9802 68.3468 29.0349 68.1522 29.0349H67.7042C67.5095 29.0349 67.3562 28.9802 67.2442 28.8709C67.1322 28.7589 67.0762 28.6056 67.0762 28.4109ZM69.2676 28.4109V28.3069C69.2676 28.2616 69.2902 28.2389 69.3356 28.2389H69.5916C69.6369 28.2389 69.6596 28.2616 69.6596 28.3069V28.3789C69.6596 28.4909 69.6836 28.5722 69.7316 28.6229C69.7822 28.6709 69.8649 28.6949 69.9796 28.6949H70.2556C70.3702 28.6949 70.4529 28.6696 70.5036 28.6189C70.5542 28.5656 70.5796 28.4802 70.5796 28.3629V28.2709C70.5796 28.1856 70.5462 28.1189 70.4796 28.0709C70.4156 28.0202 70.3356 27.9882 70.2396 27.9749C70.1436 27.9589 70.0382 27.9376 69.9236 27.9109C69.8089 27.8842 69.7036 27.8536 69.6076 27.8189C69.5116 27.7842 69.4302 27.7189 69.3636 27.6229C69.2996 27.5269 69.2676 27.4042 69.2676 27.2549V27.0869C69.2676 26.8922 69.3222 26.7402 69.4316 26.6309C69.5436 26.5189 69.6969 26.4629 69.8916 26.4629H70.3156C70.5129 26.4629 70.6662 26.5189 70.7756 26.6309C70.8876 26.7402 70.9436 26.8922 70.9436 27.0869V27.1749C70.9436 27.2202 70.9209 27.2429 70.8756 27.2429H70.6196C70.5742 27.2429 70.5516 27.2202 70.5516 27.1749V27.1229C70.5516 27.0082 70.5262 26.9269 70.4756 26.8789C70.4276 26.8282 70.3462 26.8029 70.2316 26.8029H69.9796C69.8649 26.8029 69.7822 26.8296 69.7316 26.8829C69.6836 26.9336 69.6596 27.0216 69.6596 27.1469V27.2709C69.6596 27.3909 69.7462 27.4722 69.9196 27.5149C69.9969 27.5336 70.0809 27.5496 70.1716 27.5629C70.2649 27.5762 70.3582 27.5962 70.4516 27.6229C70.5449 27.6496 70.6302 27.6856 70.7076 27.7309C70.7849 27.7736 70.8476 27.8402 70.8956 27.9309C70.9436 28.0189 70.9676 28.1269 70.9676 28.2549V28.4109C70.9676 28.6056 70.9116 28.7589 70.7996 28.8709C70.6902 28.9802 70.5382 29.0349 70.3436 29.0349H69.8956C69.7009 29.0349 69.5476 28.9802 69.4356 28.8709C69.3236 28.7589 69.2676 28.6056 69.2676 28.4109ZM73.0961 28.6949H73.4441C73.6388 28.6949 73.7361 28.5962 73.7361 28.3989V27.0989C73.7361 26.9016 73.6388 26.8029 73.4441 26.8029H73.0961C72.9041 26.8029 72.8081 26.9016 72.8081 27.0989V28.3989C72.8081 28.5962 72.9041 28.6949 73.0961 28.6949ZM73.5041 29.0349H73.0401C72.8428 29.0349 72.6894 28.9802 72.5801 28.8709C72.4734 28.7616 72.4201 28.6096 72.4201 28.4149V27.0829C72.4201 26.8856 72.4734 26.7336 72.5801 26.6269C72.6894 26.5176 72.8428 26.4629 73.0401 26.4629H73.5041C73.7014 26.4629 73.8548 26.5176 73.9641 26.6269C74.0734 26.7336 74.1281 26.8856 74.1281 27.0829V28.4149C74.1281 28.6096 74.0734 28.7616 73.9641 28.8709C73.8548 28.9802 73.7014 29.0349 73.5041 29.0349ZM74.9871 29.0349H74.7351C74.6898 29.0349 74.6671 29.0122 74.6671 28.9669V26.5309C74.6671 26.4856 74.6898 26.4629 74.7351 26.4629H75.9911C76.0365 26.4629 76.0591 26.4856 76.0591 26.5309V26.7349C76.0591 26.7802 76.0365 26.8029 75.9911 26.8029H75.1031C75.0711 26.8029 75.0551 26.8162 75.0551 26.8429V27.5989C75.0551 27.6282 75.0711 27.6429 75.1031 27.6429H75.8751C75.9231 27.6429 75.9471 27.6656 75.9471 27.7109V27.9109C75.9471 27.9589 75.9231 27.9829 75.8751 27.9829H75.1031C75.0711 27.9829 75.0551 27.9962 75.0551 28.0229V28.9669C75.0551 29.0122 75.0325 29.0349 74.9871 29.0349ZM76.8035 29.0349H76.5515C76.5062 29.0349 76.4835 29.0122 76.4835 28.9669V26.5309C76.4835 26.4856 76.5062 26.4629 76.5515 26.4629H77.8075C77.8529 26.4629 77.8755 26.4856 77.8755 26.5309V26.7349C77.8755 26.7802 77.8529 26.8029 77.8075 26.8029H76.9195C76.8875 26.8029 76.8715 26.8162 76.8715 26.8429V27.5989C76.8715 27.6282 76.8875 27.6429 76.9195 27.6429H77.6915C77.7395 27.6429 77.7635 27.6656 77.7635 27.7109V27.9109C77.7635 27.9589 77.7395 27.9829 77.6915 27.9829H76.9195C76.8875 27.9829 76.8715 27.9962 76.8715 28.0229V28.9669C76.8715 29.0122 76.8489 29.0349 76.8035 29.0349ZM78.7079 26.5309V28.9669C78.7079 29.0122 78.6853 29.0349 78.6399 29.0349H78.3879C78.3426 29.0349 78.3199 29.0122 78.3199 28.9669V26.5309C78.3199 26.4856 78.3426 26.4629 78.3879 26.4629H78.6399C78.6853 26.4629 78.7079 26.4856 78.7079 26.5309ZM80.3557 29.0349H79.8917C79.6943 29.0349 79.541 28.9802 79.4317 28.8709C79.325 28.7616 79.2717 28.6096 79.2717 28.4149V27.0829C79.2717 26.8856 79.325 26.7336 79.4317 26.6269C79.541 26.5176 79.6943 26.4629 79.8917 26.4629H80.3557C80.5503 26.4629 80.7023 26.5176 80.8117 26.6269C80.921 26.7336 80.9757 26.8856 80.9757 27.0829V27.2749C80.9757 27.3229 80.9517 27.3469 80.9037 27.3469H80.6517C80.6063 27.3469 80.5837 27.3229 80.5837 27.2749V27.0989C80.5837 26.9016 80.4877 26.8029 80.2957 26.8029H79.9477C79.7557 26.8029 79.6597 26.9016 79.6597 27.0989V28.3989C79.6597 28.5962 79.7557 28.6949 79.9477 28.6949H80.2957C80.4877 28.6949 80.5837 28.5962 80.5837 28.3989V28.2229C80.5837 28.1749 80.6063 28.1509 80.6517 28.1509H80.9037C80.9517 28.1509 80.9757 28.1749 80.9757 28.2229V28.4149C80.9757 28.6096 80.921 28.7616 80.8117 28.8709C80.7023 28.9802 80.5503 29.0349 80.3557 29.0349ZM82.8198 29.0349H81.5398C81.4945 29.0349 81.4718 29.0122 81.4718 28.9669V26.5309C81.4718 26.4856 81.4945 26.4629 81.5398 26.4629H82.8198C82.8625 26.4629 82.8838 26.4856 82.8838 26.5309V26.7349C82.8838 26.7802 82.8625 26.8029 82.8198 26.8029H81.9078C81.8758 26.8029 81.8598 26.8162 81.8598 26.8429V27.5189C81.8598 27.5456 81.8758 27.5589 81.9078 27.5589H82.6798C82.7278 27.5589 82.7518 27.5816 82.7518 27.6269V27.8309C82.7518 27.8762 82.7278 27.8989 82.6798 27.8989H81.9078C81.8758 27.8989 81.8598 27.9122 81.8598 27.9389V28.6509C81.8598 28.6802 81.8758 28.6949 81.9078 28.6949H82.8198C82.8625 28.6949 82.8838 28.7176 82.8838 28.7629V28.9669C82.8838 29.0122 82.8625 29.0349 82.8198 29.0349ZM83.7137 29.0349H83.4617C83.4164 29.0349 83.3937 29.0122 83.3937 28.9669V26.5309C83.3937 26.4856 83.4164 26.4629 83.4617 26.4629H84.3977C84.5924 26.4629 84.7444 26.5189 84.8537 26.6309C84.9657 26.7402 85.0217 26.8922 85.0217 27.0869V27.4229C85.0217 27.7296 84.895 27.9229 84.6417 28.0029V28.0189L85.0857 28.9549C85.115 29.0082 85.0977 29.0349 85.0337 29.0349H84.7857C84.7217 29.0349 84.6804 29.0122 84.6617 28.9669L84.2337 28.0469H83.8297C83.7977 28.0469 83.7817 28.0602 83.7817 28.0869V28.9669C83.7817 29.0122 83.759 29.0349 83.7137 29.0349ZM83.8257 27.7269H84.3337C84.531 27.7269 84.6297 27.6296 84.6297 27.4349V27.0989C84.6297 26.9016 84.531 26.8029 84.3337 26.8029H83.8257C83.7964 26.8029 83.7817 26.8162 83.7817 26.8429V27.6869C83.7817 27.7136 83.7964 27.7269 83.8257 27.7269ZM85.5137 28.4109V28.3069C85.5137 28.2616 85.5363 28.2389 85.5817 28.2389H85.8377C85.883 28.2389 85.9057 28.2616 85.9057 28.3069V28.3789C85.9057 28.4909 85.9297 28.5722 85.9777 28.6229C86.0283 28.6709 86.111 28.6949 86.2257 28.6949H86.5017C86.6163 28.6949 86.699 28.6696 86.7497 28.6189C86.8003 28.5656 86.8257 28.4802 86.8257 28.3629V28.2709C86.8257 28.1856 86.7923 28.1189 86.7257 28.0709C86.6617 28.0202 86.5817 27.9882 86.4857 27.9749C86.3897 27.9589 86.2843 27.9376 86.1697 27.9109C86.055 27.8842 85.9497 27.8536 85.8537 27.8189C85.7577 27.7842 85.6763 27.7189 85.6097 27.6229C85.5457 27.5269 85.5137 27.4042 85.5137 27.2549V27.0869C85.5137 26.8922 85.5683 26.7402 85.6777 26.6309C85.7897 26.5189 85.943 26.4629 86.1377 26.4629H86.5617C86.759 26.4629 86.9123 26.5189 87.0217 26.6309C87.1337 26.7402 87.1897 26.8922 87.1897 27.0869V27.1749C87.1897 27.2202 87.167 27.2429 87.1217 27.2429H86.8657C86.8203 27.2429 86.7977 27.2202 86.7977 27.1749V27.1229C86.7977 27.0082 86.7723 26.9269 86.7217 26.8789C86.6737 26.8282 86.5923 26.8029 86.4777 26.8029H86.2257C86.111 26.8029 86.0283 26.8296 85.9777 26.8829C85.9297 26.9336 85.9057 27.0216 85.9057 27.1469V27.2709C85.9057 27.3909 85.9923 27.4722 86.1657 27.5149C86.243 27.5336 86.327 27.5496 86.4177 27.5629C86.511 27.5762 86.6043 27.5962 86.6977 27.6229C86.791 27.6496 86.8763 27.6856 86.9537 27.7309C87.031 27.7736 87.0937 27.8402 87.1417 27.9309C87.1897 28.0189 87.2137 28.1269 87.2137 28.2549V28.4109C87.2137 28.6056 87.1577 28.7589 87.0457 28.8709C86.9363 28.9802 86.7843 29.0349 86.5897 29.0349H86.1417C85.947 29.0349 85.7937 28.9802 85.6817 28.8709C85.5697 28.7589 85.5137 28.6056 85.5137 28.4109ZM88.8462 29.0349H88.5582C88.5209 29.0349 88.5075 29.0122 88.5182 28.9669L89.2142 26.5309C89.2275 26.4856 89.2595 26.4629 89.3102 26.4629H89.7102C89.7635 26.4629 89.7955 26.4856 89.8062 26.5309L90.5022 28.9669C90.5129 29.0122 90.4982 29.0349 90.4582 29.0349H90.1742C90.1502 29.0349 90.1329 29.0309 90.1222 29.0229C90.1142 29.0122 90.1075 28.9936 90.1022 28.9669L89.9502 28.4469H89.0702L88.9182 28.9669C88.9075 29.0122 88.8835 29.0349 88.8462 29.0349ZM89.5022 26.8469L89.1502 28.1269H89.8742L89.5182 26.8469H89.5022ZM91.2176 29.0349H90.9656C90.9203 29.0349 90.8976 29.0122 90.8976 28.9669V26.5309C90.8976 26.4856 90.9203 26.4629 90.9656 26.4629H91.9016C92.0963 26.4629 92.2483 26.5189 92.3576 26.6309C92.4696 26.7402 92.5256 26.8922 92.5256 27.0869V27.4229C92.5256 27.7296 92.3989 27.9229 92.1456 28.0029V28.0189L92.5896 28.9549C92.6189 29.0082 92.6016 29.0349 92.5376 29.0349H92.2896C92.2256 29.0349 92.1843 29.0122 92.1656 28.9669L91.7376 28.0469H91.3336C91.3016 28.0469 91.2856 28.0602 91.2856 28.0869V28.9669C91.2856 29.0122 91.2629 29.0349 91.2176 29.0349ZM91.3296 27.7269H91.8376C92.0349 27.7269 92.1336 27.6296 92.1336 27.4349V27.0989C92.1336 26.9016 92.0349 26.8029 91.8376 26.8029H91.3296C91.3003 26.8029 91.2856 26.8162 91.2856 26.8429V27.6869C91.2856 27.7136 91.3003 27.7269 91.3296 27.7269ZM94.4136 29.0349H93.1336C93.0882 29.0349 93.0656 29.0122 93.0656 28.9669V26.5309C93.0656 26.4856 93.0882 26.4629 93.1336 26.4629H94.4136C94.4562 26.4629 94.4776 26.4856 94.4776 26.5309V26.7349C94.4776 26.7802 94.4562 26.8029 94.4136 26.8029H93.5016C93.4696 26.8029 93.4536 26.8162 93.4536 26.8429V27.5189C93.4536 27.5456 93.4696 27.5589 93.5016 27.5589H94.2736C94.3216 27.5589 94.3456 27.5816 94.3456 27.6269V27.8309C94.3456 27.8762 94.3216 27.8989 94.2736 27.8989H93.5016C93.4696 27.8989 93.4536 27.9122 93.4536 27.9389V28.6509C93.4536 28.6802 93.4696 28.6949 93.5016 28.6949H94.4136C94.4562 28.6949 94.4776 28.7176 94.4776 28.7629V28.9669C94.4776 29.0122 94.4562 29.0349 94.4136 29.0349ZM96.0806 29.0349H95.7926C95.7552 29.0349 95.7419 29.0122 95.7526 28.9669L96.4486 26.5309C96.4619 26.4856 96.4939 26.4629 96.5446 26.4629H96.9446C96.9979 26.4629 97.0299 26.4856 97.0406 26.5309L97.7366 28.9669C97.7472 29.0122 97.7326 29.0349 97.6926 29.0349H97.4086C97.3846 29.0349 97.3672 29.0309 97.3566 29.0229C97.3486 29.0122 97.3419 28.9936 97.3366 28.9669L97.1846 28.4469H96.3046L96.1526 28.9669C96.1419 29.0122 96.1179 29.0349 96.0806 29.0349ZM96.7366 26.8469L96.3846 28.1269H97.1086L96.7526 26.8469H96.7366ZM99.496 29.0349H98.2C98.1546 29.0349 98.132 29.0122 98.132 28.9669V26.5309C98.132 26.4856 98.1546 26.4629 98.2 26.4629H98.452C98.4973 26.4629 98.52 26.4856 98.52 26.5309V28.6469C98.52 28.6736 98.536 28.6869 98.568 28.6869H99.496C99.5413 28.6869 99.564 28.7109 99.564 28.7589V28.9669C99.564 29.0122 99.5413 29.0349 99.496 29.0349ZM101.297 29.0349H100.001C99.9554 29.0349 99.9327 29.0122 99.9327 28.9669V26.5309C99.9327 26.4856 99.9554 26.4629 100.001 26.4629H100.253C100.298 26.4629 100.321 26.4856 100.321 26.5309V28.6469C100.321 28.6736 100.337 28.6869 100.369 28.6869H101.297C101.342 28.6869 101.365 28.7109 101.365 28.7589V28.9669C101.365 29.0122 101.342 29.0349 101.297 29.0349ZM102.37 28.6949H102.718C102.912 28.6949 103.01 28.5962 103.01 28.3989V27.0989C103.01 26.9016 102.912 26.8029 102.718 26.8029H102.37C102.178 26.8029 102.082 26.9016 102.082 27.0989V28.3989C102.082 28.5962 102.178 28.6949 102.37 28.6949ZM102.778 29.0349H102.314C102.116 29.0349 101.963 28.9802 101.854 28.8709C101.747 28.7616 101.694 28.6096 101.694 28.4149V27.0829C101.694 26.8856 101.747 26.7336 101.854 26.6269C101.963 26.5176 102.116 26.4629 102.314 26.4629H102.778C102.975 26.4629 103.128 26.5176 103.238 26.6269C103.347 26.7336 103.402 26.8856 103.402 27.0829V28.4149C103.402 28.6096 103.347 28.7616 103.238 28.8709C103.128 28.9802 102.975 29.0349 102.778 29.0349ZM104.717 29.0349H104.293C104.245 29.0349 104.217 29.0122 104.209 28.9669L103.733 26.5309C103.727 26.4856 103.75 26.4629 103.801 26.4629H104.109C104.159 26.4629 104.186 26.4856 104.189 26.5309L104.513 28.6269H104.537L105.009 26.5229C105.014 26.4829 105.038 26.4629 105.081 26.4629H105.417C105.459 26.4629 105.485 26.4829 105.493 26.5229L105.969 28.6269H105.993L106.317 26.5349C106.319 26.4869 106.346 26.4629 106.397 26.4629H106.705C106.758 26.4629 106.781 26.4869 106.773 26.5349L106.297 28.9669C106.289 29.0122 106.262 29.0349 106.217 29.0349H105.793C105.747 29.0349 105.721 29.0122 105.713 28.9669L105.261 26.9429H105.245L104.793 28.9669C104.785 29.0122 104.759 29.0349 104.717 29.0349ZM108.496 29.0349H107.216C107.17 29.0349 107.148 29.0122 107.148 28.9669V26.5309C107.148 26.4856 107.17 26.4629 107.216 26.4629H108.496C108.538 26.4629 108.56 26.4856 108.56 26.5309V26.7349C108.56 26.7802 108.538 26.8029 108.496 26.8029H107.584C107.552 26.8029 107.536 26.8162 107.536 26.8429V27.5189C107.536 27.5456 107.552 27.5589 107.584 27.5589H108.356C108.404 27.5589 108.428 27.5816 108.428 27.6269V27.8309C108.428 27.8762 108.404 27.8989 108.356 27.8989H107.584C107.552 27.8989 107.536 27.9122 107.536 27.9389V28.6509C107.536 28.6802 107.552 28.6949 107.584 28.6949H108.496C108.538 28.6949 108.56 28.7176 108.56 28.7629V28.9669C108.56 29.0122 108.538 29.0349 108.496 29.0349ZM109.501 28.6949H110.065C110.257 28.6949 110.353 28.5962 110.353 28.3989V27.0989C110.353 26.9016 110.257 26.8029 110.065 26.8029H109.501C109.472 26.8029 109.457 26.8162 109.457 26.8429V28.6509C109.457 28.6802 109.472 28.6949 109.501 28.6949ZM109.069 28.9669V26.5309C109.069 26.4856 109.092 26.4629 109.137 26.4629H110.121C110.316 26.4629 110.468 26.5176 110.577 26.6269C110.689 26.7336 110.745 26.8856 110.745 27.0829V28.4149C110.745 28.6096 110.689 28.7616 110.577 28.8709C110.468 28.9802 110.316 29.0349 110.121 29.0349H109.137C109.092 29.0349 109.069 29.0122 109.069 28.9669ZM112.945 29.0349H112.693C112.645 29.0349 112.621 29.0122 112.621 28.9669V26.8429C112.621 26.8162 112.608 26.8029 112.581 26.8029H112.077C112.029 26.8029 112.005 26.7802 112.005 26.7349V26.5309C112.005 26.4856 112.029 26.4629 112.077 26.4629H113.561C113.609 26.4629 113.633 26.4856 113.633 26.5309V26.7349C113.633 26.7802 113.609 26.8029 113.561 26.8029H113.057C113.028 26.8029 113.013 26.8162 113.013 26.8429V28.9669C113.013 29.0122 112.991 29.0349 112.945 29.0349ZM114.612 28.6949H114.96C115.154 28.6949 115.252 28.5962 115.252 28.3989V27.0989C115.252 26.9016 115.154 26.8029 114.96 26.8029H114.612C114.42 26.8029 114.324 26.9016 114.324 27.0989V28.3989C114.324 28.5962 114.42 28.6949 114.612 28.6949ZM115.02 29.0349H114.556C114.358 29.0349 114.205 28.9802 114.096 28.8709C113.989 28.7616 113.936 28.6096 113.936 28.4149V27.0829C113.936 26.8856 113.989 26.7336 114.096 26.6269C114.205 26.5176 114.358 26.4629 114.556 26.4629H115.02C115.217 26.4629 115.37 26.5176 115.48 26.6269C115.589 26.7336 115.644 26.8856 115.644 27.0829V28.4149C115.644 28.6096 115.589 28.7616 115.48 28.8709C115.37 28.9802 115.217 29.0349 115.02 29.0349ZM118.896 26.4629H119.344C119.389 26.4629 119.412 26.4856 119.412 26.5309V28.9669C119.412 29.0122 119.389 29.0349 119.344 29.0349H119.096C119.051 29.0349 119.028 29.0122 119.028 28.9669V26.9469H119.012L118.492 28.4109C118.476 28.4536 118.447 28.4749 118.404 28.4749H118.148C118.108 28.4749 118.08 28.4536 118.064 28.4109L117.532 26.9429H117.516V28.9669C117.516 28.9936 117.511 29.0122 117.5 29.0229C117.492 29.0309 117.475 29.0349 117.448 29.0349H117.204C117.159 29.0349 117.136 29.0122 117.136 28.9669V26.5309C117.136 26.4856 117.159 26.4629 117.204 26.4629H117.652C117.681 26.4629 117.703 26.4776 117.716 26.5069L118.264 28.0509H118.284L118.836 26.5069C118.841 26.4776 118.861 26.4629 118.896 26.4629ZM120.135 29.0349H119.847C119.81 29.0349 119.797 29.0122 119.807 28.9669L120.503 26.5309C120.517 26.4856 120.549 26.4629 120.599 26.4629H120.999C121.053 26.4629 121.085 26.4856 121.095 26.5309L121.791 28.9669C121.802 29.0122 121.787 29.0349 121.747 29.0349H121.463C121.439 29.0349 121.422 29.0309 121.411 29.0229C121.403 29.0122 121.397 28.9936 121.391 28.9669L121.239 28.4469H120.359L120.207 28.9669C120.197 29.0122 120.173 29.0349 120.135 29.0349ZM120.791 26.8469L120.439 28.1269H121.163L120.807 26.8469H120.791ZM122.503 29.0349H122.255C122.209 29.0349 122.187 29.0122 122.187 28.9669V26.5309C122.187 26.4856 122.209 26.4629 122.255 26.4629H122.479C122.521 26.4629 122.551 26.4776 122.567 26.5069L123.535 28.2469H123.551V26.5309C123.551 26.4856 123.573 26.4629 123.619 26.4629H123.867C123.912 26.4629 123.935 26.4856 123.935 26.5309V28.9669C123.935 29.0122 123.912 29.0349 123.867 29.0349H123.651C123.608 29.0349 123.573 29.0136 123.547 28.9709L122.587 27.2509H122.571V28.9669C122.571 29.0122 122.548 29.0349 122.503 29.0349ZM124.927 26.5309V28.9669C124.927 29.0122 124.904 29.0349 124.859 29.0349H124.607C124.561 29.0349 124.539 29.0122 124.539 28.9669V26.5309C124.539 26.4856 124.561 26.4629 124.607 26.4629H124.859C124.904 26.4629 124.927 26.4856 124.927 26.5309ZM125.85 29.0349H125.598C125.553 29.0349 125.53 29.0122 125.53 28.9669V26.5309C125.53 26.4856 125.553 26.4629 125.598 26.4629H126.55C126.745 26.4629 126.897 26.5176 127.006 26.6269C127.116 26.7336 127.17 26.8856 127.17 27.0829V27.4989C127.17 27.6936 127.116 27.8456 127.006 27.9549C126.897 28.0642 126.745 28.1189 126.55 28.1189H125.966C125.934 28.1189 125.918 28.1322 125.918 28.1589V28.9669C125.918 29.0122 125.896 29.0349 125.85 29.0349ZM125.962 27.7749H126.494C126.684 27.7749 126.778 27.6762 126.778 27.4789V27.0989C126.778 26.9016 126.684 26.8029 126.494 26.8029H125.962C125.933 26.8029 125.918 26.8162 125.918 26.8429V27.7349C125.918 27.7616 125.933 27.7749 125.962 27.7749ZM128.988 26.4629H129.24C129.288 26.4629 129.312 26.4842 129.312 26.5269V28.4149C129.312 28.6096 129.256 28.7616 129.144 28.8709C129.034 28.9802 128.882 29.0349 128.688 29.0349H128.244C128.049 29.0349 127.897 28.9802 127.788 28.8709C127.678 28.7616 127.624 28.6096 127.624 28.4149V26.5309C127.624 26.4856 127.646 26.4629 127.692 26.4629H127.944C127.989 26.4629 128.012 26.4856 128.012 26.5309V28.3989C128.012 28.5962 128.108 28.6949 128.3 28.6949H128.628C128.822 28.6949 128.92 28.5962 128.92 28.3989V26.5309C128.92 26.4856 128.942 26.4629 128.988 26.4629ZM131.234 29.0349H129.938C129.893 29.0349 129.87 29.0122 129.87 28.9669V26.5309C129.87 26.4856 129.893 26.4629 129.938 26.4629H130.19C130.236 26.4629 130.258 26.4856 130.258 26.5309V28.6469C130.258 28.6736 130.274 28.6869 130.306 28.6869H131.234C131.28 28.6869 131.302 28.7109 131.302 28.7589V28.9669C131.302 29.0122 131.28 29.0349 131.234 29.0349ZM131.811 29.0349H131.523C131.486 29.0349 131.472 29.0122 131.483 28.9669L132.179 26.5309C132.192 26.4856 132.224 26.4629 132.275 26.4629H132.675C132.728 26.4629 132.76 26.4856 132.771 26.5309L133.467 28.9669C133.478 29.0122 133.463 29.0349 133.423 29.0349H133.139C133.115 29.0349 133.098 29.0309 133.087 29.0229C133.079 29.0122 133.072 28.9936 133.067 28.9669L132.915 28.4469H132.035L131.883 28.9669C131.872 29.0122 131.848 29.0349 131.811 29.0349ZM132.467 26.8469L132.115 28.1269H132.839L132.483 26.8469H132.467ZM134.566 29.0349H134.314C134.266 29.0349 134.242 29.0122 134.242 28.9669V26.8429C134.242 26.8162 134.229 26.8029 134.202 26.8029H133.698C133.65 26.8029 133.626 26.7802 133.626 26.7349V26.5309C133.626 26.4856 133.65 26.4629 133.698 26.4629H135.182C135.23 26.4629 135.254 26.4856 135.254 26.5309V26.7349C135.254 26.7802 135.23 26.8029 135.182 26.8029H134.678C134.649 26.8029 134.634 26.8162 134.634 26.8429V28.9669C134.634 29.0122 134.612 29.0349 134.566 29.0349ZM136.945 29.0349H135.665C135.619 29.0349 135.597 29.0122 135.597 28.9669V26.5309C135.597 26.4856 135.619 26.4629 135.665 26.4629H136.945C136.987 26.4629 137.009 26.4856 137.009 26.5309V26.7349C137.009 26.7802 136.987 26.8029 136.945 26.8029H136.033C136.001 26.8029 135.985 26.8162 135.985 26.8429V27.5189C135.985 27.5456 136.001 27.5589 136.033 27.5589H136.805C136.853 27.5589 136.877 27.5816 136.877 27.6269V27.8309C136.877 27.8762 136.853 27.8989 136.805 27.8989H136.033C136.001 27.8989 135.985 27.9122 135.985 27.9389V28.6509C135.985 28.6802 136.001 28.6949 136.033 28.6949H136.945C136.987 28.6949 137.009 28.7176 137.009 28.7629V28.9669C137.009 29.0122 136.987 29.0349 136.945 29.0349ZM137.827 28.4789V28.7909C137.827 28.8549 137.801 28.9349 137.751 29.0309L137.539 29.4189C137.528 29.4429 137.508 29.4549 137.479 29.4549C137.441 29.4549 137.423 29.4336 137.423 29.3909V28.4789C137.423 28.4362 137.445 28.4149 137.491 28.4149H137.763C137.805 28.4149 137.827 28.4362 137.827 28.4789ZM139.409 29.0349H139.121C139.083 29.0349 139.07 29.0122 139.081 28.9669L139.777 26.5309C139.79 26.4856 139.822 26.4629 139.873 26.4629H140.273C140.326 26.4629 140.358 26.4856 140.369 26.5309L141.065 28.9669C141.075 29.0122 141.061 29.0349 141.021 29.0349H140.737C140.713 29.0349 140.695 29.0309 140.685 29.0229C140.677 29.0122 140.67 28.9936 140.665 28.9669L140.513 28.4469H139.633L139.481 28.9669C139.47 29.0122 139.446 29.0349 139.409 29.0349ZM140.065 26.8469L139.713 28.1269H140.437L140.081 26.8469H140.065ZM142.504 29.0349H142.04C141.843 29.0349 141.689 28.9802 141.58 28.8709C141.473 28.7616 141.42 28.6096 141.42 28.4149V27.0829C141.42 26.8856 141.473 26.7336 141.58 26.6269C141.689 26.5176 141.843 26.4629 142.04 26.4629H142.504C142.699 26.4629 142.851 26.5176 142.96 26.6269C143.069 26.7336 143.124 26.8856 143.124 27.0829V27.2749C143.124 27.3229 143.1 27.3469 143.052 27.3469H142.8C142.755 27.3469 142.732 27.3229 142.732 27.2749V27.0989C142.732 26.9016 142.636 26.8029 142.444 26.8029H142.096C141.904 26.8029 141.808 26.9016 141.808 27.0989V28.3989C141.808 28.5962 141.904 28.6949 142.096 28.6949H142.444C142.636 28.6949 142.732 28.5962 142.732 28.3989V28.2229C142.732 28.1749 142.755 28.1509 142.8 28.1509H143.052C143.1 28.1509 143.124 28.1749 143.124 28.2229V28.4149C143.124 28.6096 143.069 28.7616 142.96 28.8709C142.851 28.9802 142.699 29.0349 142.504 29.0349ZM144.664 29.0349H144.2C144.003 29.0349 143.85 28.9802 143.74 28.8709C143.634 28.7616 143.58 28.6096 143.58 28.4149V27.0829C143.58 26.8856 143.634 26.7336 143.74 26.6269C143.85 26.5176 144.003 26.4629 144.2 26.4629H144.664C144.859 26.4629 145.011 26.5176 145.12 26.6269C145.23 26.7336 145.284 26.8856 145.284 27.0829V27.2749C145.284 27.3229 145.26 27.3469 145.212 27.3469H144.96C144.915 27.3469 144.892 27.3229 144.892 27.2749V27.0989C144.892 26.9016 144.796 26.8029 144.604 26.8029H144.256C144.064 26.8029 143.968 26.9016 143.968 27.0989V28.3989C143.968 28.5962 144.064 28.6949 144.256 28.6949H144.604C144.796 28.6949 144.892 28.5962 144.892 28.3989V28.2229C144.892 28.1749 144.915 28.1509 144.96 28.1509H145.212C145.26 28.1509 145.284 28.1749 145.284 28.2229V28.4149C145.284 28.6096 145.23 28.7616 145.12 28.8709C145.011 28.9802 144.859 29.0349 144.664 29.0349ZM147.128 29.0349H145.848C145.803 29.0349 145.78 29.0122 145.78 28.9669V26.5309C145.78 26.4856 145.803 26.4629 145.848 26.4629H147.128C147.171 26.4629 147.192 26.4856 147.192 26.5309V26.7349C147.192 26.7802 147.171 26.8029 147.128 26.8029H146.216C146.184 26.8029 146.168 26.8162 146.168 26.8429V27.5189C146.168 27.5456 146.184 27.5589 146.216 27.5589H146.988C147.036 27.5589 147.06 27.5816 147.06 27.6269V27.8309C147.06 27.8762 147.036 27.8989 146.988 27.8989H146.216C146.184 27.8989 146.168 27.9122 146.168 27.9389V28.6509C146.168 28.6802 146.184 28.6949 146.216 28.6949H147.128C147.171 28.6949 147.192 28.7176 147.192 28.7629V28.9669C147.192 29.0122 147.171 29.0349 147.128 29.0349ZM147.654 28.4109V28.3069C147.654 28.2616 147.677 28.2389 147.722 28.2389H147.978C148.024 28.2389 148.046 28.2616 148.046 28.3069V28.3789C148.046 28.4909 148.07 28.5722 148.118 28.6229C148.169 28.6709 148.252 28.6949 148.366 28.6949H148.642C148.757 28.6949 148.84 28.6696 148.89 28.6189C148.941 28.5656 148.966 28.4802 148.966 28.3629V28.2709C148.966 28.1856 148.933 28.1189 148.866 28.0709C148.802 28.0202 148.722 27.9882 148.626 27.9749C148.53 27.9589 148.425 27.9376 148.31 27.9109C148.196 27.8842 148.09 27.8536 147.994 27.8189C147.898 27.7842 147.817 27.7189 147.75 27.6229C147.686 27.5269 147.654 27.4042 147.654 27.2549V27.0869C147.654 26.8922 147.709 26.7402 147.818 26.6309C147.93 26.5189 148.084 26.4629 148.278 26.4629H148.702C148.9 26.4629 149.053 26.5189 149.162 26.6309C149.274 26.7402 149.33 26.8922 149.33 27.0869V27.1749C149.33 27.2202 149.308 27.2429 149.262 27.2429H149.006C148.961 27.2429 148.938 27.2202 148.938 27.1749V27.1229C148.938 27.0082 148.913 26.9269 148.862 26.8789C148.814 26.8282 148.733 26.8029 148.618 26.8029H148.366C148.252 26.8029 148.169 26.8296 148.118 26.8829C148.07 26.9336 148.046 27.0216 148.046 27.1469V27.2709C148.046 27.3909 148.133 27.4722 148.306 27.5149C148.384 27.5336 148.468 27.5496 148.558 27.5629C148.652 27.5762 148.745 27.5962 148.838 27.6229C148.932 27.6496 149.017 27.6856 149.094 27.7309C149.172 27.7736 149.234 27.8402 149.282 27.9309C149.33 28.0189 149.354 28.1269 149.354 28.2549V28.4109C149.354 28.6056 149.298 28.7589 149.186 28.8709C149.077 28.9802 148.925 29.0349 148.73 29.0349H148.282C148.088 29.0349 147.934 28.9802 147.822 28.8709C147.71 28.7589 147.654 28.6056 147.654 28.4109ZM149.846 28.4109V28.3069C149.846 28.2616 149.868 28.2389 149.914 28.2389H150.17C150.215 28.2389 150.238 28.2616 150.238 28.3069V28.3789C150.238 28.4909 150.262 28.5722 150.31 28.6229C150.36 28.6709 150.443 28.6949 150.558 28.6949H150.834C150.948 28.6949 151.031 28.6696 151.082 28.6189C151.132 28.5656 151.158 28.4802 151.158 28.3629V28.2709C151.158 28.1856 151.124 28.1189 151.058 28.0709C150.994 28.0202 150.914 27.9882 150.818 27.9749C150.722 27.9589 150.616 27.9376 150.502 27.9109C150.387 27.8842 150.282 27.8536 150.186 27.8189C150.09 27.7842 150.008 27.7189 149.942 27.6229C149.878 27.5269 149.846 27.4042 149.846 27.2549V27.0869C149.846 26.8922 149.9 26.7402 150.01 26.6309C150.122 26.5189 150.275 26.4629 150.47 26.4629H150.894C151.091 26.4629 151.244 26.5189 151.354 26.6309C151.466 26.7402 151.522 26.8922 151.522 27.0869V27.1749C151.522 27.2202 151.499 27.2429 151.454 27.2429H151.198C151.152 27.2429 151.13 27.2202 151.13 27.1749V27.1229C151.13 27.0082 151.104 26.9269 151.054 26.8789C151.006 26.8282 150.924 26.8029 150.81 26.8029H150.558C150.443 26.8029 150.36 26.8296 150.31 26.8829C150.262 26.9336 150.238 27.0216 150.238 27.1469V27.2709C150.238 27.3909 150.324 27.4722 150.498 27.5149C150.575 27.5336 150.659 27.5496 150.75 27.5629C150.843 27.5762 150.936 27.5962 151.03 27.6229C151.123 27.6496 151.208 27.6856 151.286 27.7309C151.363 27.7736 151.426 27.8402 151.474 27.9309C151.522 28.0189 151.546 28.1269 151.546 28.2549V28.4109C151.546 28.6056 151.49 28.7589 151.378 28.8709C151.268 28.9802 151.116 29.0349 150.922 29.0349H150.474C150.279 29.0349 150.126 28.9802 150.014 28.8709C149.902 28.7589 149.846 28.6056 149.846 28.4109ZM153.674 28.6949H154.022C154.217 28.6949 154.314 28.5962 154.314 28.3989V27.0989C154.314 26.9016 154.217 26.8029 154.022 26.8029H153.674C153.482 26.8029 153.386 26.9016 153.386 27.0989V28.3989C153.386 28.5962 153.482 28.6949 153.674 28.6949ZM154.082 29.0349H153.618C153.421 29.0349 153.268 28.9802 153.158 28.8709C153.052 28.7616 152.998 28.6096 152.998 28.4149V27.0829C152.998 26.8856 153.052 26.7336 153.158 26.6269C153.268 26.5176 153.421 26.4629 153.618 26.4629H154.082C154.28 26.4629 154.433 26.5176 154.542 26.6269C154.652 26.7336 154.706 26.8856 154.706 27.0829V28.4149C154.706 28.6096 154.652 28.7616 154.542 28.8709C154.433 28.9802 154.28 29.0349 154.082 29.0349ZM155.565 29.0349H155.313C155.268 29.0349 155.245 29.0122 155.245 28.9669V26.5309C155.245 26.4856 155.268 26.4629 155.313 26.4629H156.249C156.444 26.4629 156.596 26.5189 156.705 26.6309C156.817 26.7402 156.873 26.8922 156.873 27.0869V27.4229C156.873 27.7296 156.747 27.9229 156.493 28.0029V28.0189L156.937 28.9549C156.967 29.0082 156.949 29.0349 156.885 29.0349H156.637C156.573 29.0349 156.532 29.0122 156.513 28.9669L156.085 28.0469H155.681C155.649 28.0469 155.633 28.0602 155.633 28.0869V28.9669C155.633 29.0122 155.611 29.0349 155.565 29.0349ZM155.677 27.7269H156.185C156.383 27.7269 156.481 27.6296 156.481 27.4349V27.0989C156.481 26.9016 156.383 26.8029 156.185 26.8029H155.677C155.648 26.8029 155.633 26.8162 155.633 26.8429V27.6869C155.633 27.7136 155.648 27.7269 155.677 27.7269ZM158.798 28.6949H159.362C159.554 28.6949 159.65 28.5962 159.65 28.3989V27.0989C159.65 26.9016 159.554 26.8029 159.362 26.8029H158.798C158.769 26.8029 158.754 26.8162 158.754 26.8429V28.6509C158.754 28.6802 158.769 28.6949 158.798 28.6949ZM158.366 28.9669V26.5309C158.366 26.4856 158.389 26.4629 158.434 26.4629H159.418C159.613 26.4629 159.765 26.5176 159.874 26.6269C159.986 26.7336 160.042 26.8856 160.042 27.0829V28.4149C160.042 28.6096 159.986 28.7616 159.874 28.8709C159.765 28.9802 159.613 29.0349 159.418 29.0349H158.434C158.389 29.0349 158.366 29.0122 158.366 28.9669ZM160.993 26.5309V28.9669C160.993 29.0122 160.97 29.0349 160.925 29.0349H160.673C160.628 29.0349 160.605 29.0122 160.605 28.9669V26.5309C160.605 26.4856 160.628 26.4629 160.673 26.4629H160.925C160.97 26.4629 160.993 26.4856 160.993 26.5309ZM161.549 28.4109V28.3069C161.549 28.2616 161.571 28.2389 161.617 28.2389H161.873C161.918 28.2389 161.941 28.2616 161.941 28.3069V28.3789C161.941 28.4909 161.965 28.5722 162.013 28.6229C162.063 28.6709 162.146 28.6949 162.261 28.6949H162.537C162.651 28.6949 162.734 28.6696 162.785 28.6189C162.835 28.5656 162.861 28.4802 162.861 28.3629V28.2709C162.861 28.1856 162.827 28.1189 162.761 28.0709C162.697 28.0202 162.617 27.9882 162.521 27.9749C162.425 27.9589 162.319 27.9376 162.205 27.9109C162.09 27.8842 161.985 27.8536 161.889 27.8189C161.793 27.7842 161.711 27.7189 161.645 27.6229C161.581 27.5269 161.549 27.4042 161.549 27.2549V27.0869C161.549 26.8922 161.603 26.7402 161.713 26.6309C161.825 26.5189 161.978 26.4629 162.173 26.4629H162.597C162.794 26.4629 162.947 26.5189 163.057 26.6309C163.169 26.7402 163.225 26.8922 163.225 27.0869V27.1749C163.225 27.2202 163.202 27.2429 163.157 27.2429H162.901C162.855 27.2429 162.833 27.2202 162.833 27.1749V27.1229C162.833 27.0082 162.807 26.9269 162.757 26.8789C162.709 26.8282 162.627 26.8029 162.513 26.8029H162.261C162.146 26.8029 162.063 26.8296 162.013 26.8829C161.965 26.9336 161.941 27.0216 161.941 27.1469V27.2709C161.941 27.3909 162.027 27.4722 162.201 27.5149C162.278 27.5336 162.362 27.5496 162.453 27.5629C162.546 27.5762 162.639 27.5962 162.733 27.6229C162.826 27.6496 162.911 27.6856 162.989 27.7309C163.066 27.7736 163.129 27.8402 163.177 27.9309C163.225 28.0189 163.249 28.1269 163.249 28.2549V28.4109C163.249 28.6056 163.193 28.7589 163.081 28.8709C162.971 28.9802 162.819 29.0349 162.625 29.0349H162.177C161.982 29.0349 161.829 28.9802 161.717 28.8709C161.605 28.7589 161.549 28.6056 161.549 28.4109ZM163.928 29.0349H163.64C163.603 29.0349 163.59 29.0122 163.6 28.9669L164.296 26.5309C164.31 26.4856 164.342 26.4629 164.392 26.4629H164.792C164.846 26.4629 164.878 26.4856 164.888 26.5309L165.584 28.9669C165.595 29.0122 165.58 29.0349 165.54 29.0349H165.256C165.232 29.0349 165.215 29.0309 165.204 29.0229C165.196 29.0122 165.19 28.9936 165.184 28.9669L165.032 28.4469H164.152L164 28.9669C163.99 29.0122 163.966 29.0349 163.928 29.0349ZM164.584 26.8469L164.232 28.1269H164.956L164.6 26.8469H164.584ZM166.412 28.7029H166.972C167.172 28.7029 167.272 28.6069 167.272 28.4149V28.1669C167.272 27.9749 167.166 27.8789 166.956 27.8789H166.412C166.382 27.8789 166.368 27.8922 166.368 27.9189V28.6629C166.368 28.6896 166.382 28.7029 166.412 28.7029ZM166.412 27.5589H166.932C167.134 27.5589 167.236 27.4616 167.236 27.2669V27.0829C167.236 26.8909 167.137 26.7949 166.94 26.7949H166.412C166.382 26.7949 166.368 26.8082 166.368 26.8349V27.5189C166.368 27.5456 166.382 27.5589 166.412 27.5589ZM165.98 28.9669V26.5309C165.98 26.4856 166.002 26.4629 166.048 26.4629H166.996C167.193 26.4629 167.346 26.5162 167.456 26.6229C167.565 26.7296 167.62 26.8802 167.62 27.0749V27.2709C167.62 27.5029 167.51 27.6522 167.292 27.7189C167.396 27.7322 167.481 27.7776 167.548 27.8549C167.617 27.9322 167.652 28.0362 167.652 28.1669V28.4229C167.652 28.6176 167.597 28.7682 167.488 28.8749C167.378 28.9816 167.226 29.0349 167.032 29.0349H166.048C166.002 29.0349 165.98 29.0122 165.98 28.9669ZM169.551 29.0349H168.255C168.209 29.0349 168.187 29.0122 168.187 28.9669V26.5309C168.187 26.4856 168.209 26.4629 168.255 26.4629H168.507C168.552 26.4629 168.575 26.4856 168.575 26.5309V28.6469C168.575 28.6736 168.591 28.6869 168.623 28.6869H169.551C169.596 28.6869 169.619 28.7109 169.619 28.7589V28.9669C169.619 29.0122 169.596 29.0349 169.551 29.0349ZM171.335 29.0349H170.055C170.01 29.0349 169.987 29.0122 169.987 28.9669V26.5309C169.987 26.4856 170.01 26.4629 170.055 26.4629H171.335C171.378 26.4629 171.399 26.4856 171.399 26.5309V26.7349C171.399 26.7802 171.378 26.8029 171.335 26.8029H170.423C170.391 26.8029 170.375 26.8162 170.375 26.8429V27.5189C170.375 27.5456 170.391 27.5589 170.423 27.5589H171.195C171.243 27.5589 171.267 27.5816 171.267 27.6269V27.8309C171.267 27.8762 171.243 27.8989 171.195 27.8989H170.423C170.391 27.8989 170.375 27.9122 170.375 27.9389V28.6509C170.375 28.6802 170.391 28.6949 170.423 28.6949H171.335C171.378 28.6949 171.399 28.7176 171.399 28.7629V28.9669C171.399 29.0122 171.378 29.0349 171.335 29.0349ZM173.566 29.0349H173.314C173.266 29.0349 173.242 29.0122 173.242 28.9669V26.8429C173.242 26.8162 173.229 26.8029 173.202 26.8029H172.698C172.65 26.8029 172.626 26.7802 172.626 26.7349V26.5309C172.626 26.4856 172.65 26.4629 172.698 26.4629H174.182C174.23 26.4629 174.254 26.4856 174.254 26.5309V26.7349C174.254 26.7802 174.23 26.8029 174.182 26.8029H173.678C173.649 26.8029 173.634 26.8162 173.634 26.8429V28.9669C173.634 29.0122 173.612 29.0349 173.566 29.0349ZM174.917 29.0349H174.665C174.619 29.0349 174.597 29.0122 174.597 28.9669V26.5309C174.597 26.4856 174.619 26.4629 174.665 26.4629H174.917C174.962 26.4629 174.985 26.4856 174.985 26.5309V27.5309C174.985 27.5576 175.001 27.5709 175.033 27.5709H175.877C175.903 27.5709 175.917 27.5576 175.917 27.5309V26.5309C175.917 26.4856 175.939 26.4629 175.985 26.4629H176.241C176.286 26.4629 176.309 26.4856 176.309 26.5309V28.9669C176.309 29.0122 176.286 29.0349 176.241 29.0349H175.985C175.939 29.0349 175.917 29.0122 175.917 28.9669V27.9549C175.917 27.9282 175.903 27.9149 175.877 27.9149H175.033C175.001 27.9149 174.985 27.9282 174.985 27.9549V28.9669C174.985 29.0122 174.962 29.0349 174.917 29.0349ZM178.242 29.0349H176.962C176.916 29.0349 176.894 29.0122 176.894 28.9669V26.5309C176.894 26.4856 176.916 26.4629 176.962 26.4629H178.242C178.284 26.4629 178.306 26.4856 178.306 26.5309V26.7349C178.306 26.7802 178.284 26.8029 178.242 26.8029H177.33C177.298 26.8029 177.282 26.8162 177.282 26.8429V27.5189C177.282 27.5456 177.298 27.5589 177.33 27.5589H178.102C178.15 27.5589 178.174 27.5816 178.174 27.6269V27.8309C178.174 27.8762 178.15 27.8989 178.102 27.8989H177.33C177.298 27.8989 177.282 27.9122 177.282 27.9389V28.6509C177.282 28.6802 177.298 28.6949 177.33 28.6949H178.242C178.284 28.6949 178.306 28.7176 178.306 28.7629V28.9669C178.306 29.0122 178.284 29.0349 178.242 29.0349ZM178.768 28.4109V28.3069C178.768 28.2616 178.79 28.2389 178.836 28.2389H179.092C179.137 28.2389 179.16 28.2616 179.16 28.3069V28.3789C179.16 28.4909 179.184 28.5722 179.232 28.6229C179.282 28.6709 179.365 28.6949 179.48 28.6949H179.756C179.87 28.6949 179.953 28.6696 180.004 28.6189C180.054 28.5656 180.08 28.4802 180.08 28.3629V28.2709C180.08 28.1856 180.046 28.1189 179.98 28.0709C179.916 28.0202 179.836 27.9882 179.74 27.9749C179.644 27.9589 179.538 27.9376 179.424 27.9109C179.309 27.8842 179.204 27.8536 179.108 27.8189C179.012 27.7842 178.93 27.7189 178.864 27.6229C178.8 27.5269 178.768 27.4042 178.768 27.2549V27.0869C178.768 26.8922 178.822 26.7402 178.932 26.6309C179.044 26.5189 179.197 26.4629 179.392 26.4629H179.816C180.013 26.4629 180.166 26.5189 180.276 26.6309C180.388 26.7402 180.444 26.8922 180.444 27.0869V27.1749C180.444 27.2202 180.421 27.2429 180.376 27.2429H180.12C180.074 27.2429 180.052 27.2202 180.052 27.1749V27.1229C180.052 27.0082 180.026 26.9269 179.976 26.8789C179.928 26.8282 179.846 26.8029 179.732 26.8029H179.48C179.365 26.8029 179.282 26.8296 179.232 26.8829C179.184 26.9336 179.16 27.0216 179.16 27.1469V27.2709C179.16 27.3909 179.246 27.4722 179.42 27.5149C179.497 27.5336 179.581 27.5496 179.672 27.5629C179.765 27.5762 179.858 27.5962 179.952 27.6229C180.045 27.6496 180.13 27.6856 180.208 27.7309C180.285 27.7736 180.348 27.8402 180.396 27.9309C180.444 28.0189 180.468 28.1269 180.468 28.2549V28.4109C180.468 28.6056 180.412 28.7589 180.3 28.8709C180.19 28.9802 180.038 29.0349 179.844 29.0349H179.396C179.201 29.0349 179.048 28.9802 178.936 28.8709C178.824 28.7589 178.768 28.6056 178.768 28.4109ZM182.355 29.0349H181.075C181.03 29.0349 181.007 29.0122 181.007 28.9669V26.5309C181.007 26.4856 181.03 26.4629 181.075 26.4629H182.355C182.398 26.4629 182.419 26.4856 182.419 26.5309V26.7349C182.419 26.7802 182.398 26.8029 182.355 26.8029H181.443C181.411 26.8029 181.395 26.8162 181.395 26.8429V27.5189C181.395 27.5456 181.411 27.5589 181.443 27.5589H182.215C182.263 27.5589 182.287 27.5816 182.287 27.6269V27.8309C182.287 27.8762 182.263 27.8989 182.215 27.8989H181.443C181.411 27.8989 181.395 27.9122 181.395 27.9389V28.6509C181.395 28.6802 181.411 28.6949 181.443 28.6949H182.355C182.398 28.6949 182.419 28.7176 182.419 28.7629V28.9669C182.419 29.0122 182.398 29.0349 182.355 29.0349ZM1.73975 33.6949H2.30375C2.49575 33.6949 2.59175 33.5962 2.59175 33.3989V32.0989C2.59175 31.9016 2.49575 31.8029 2.30375 31.8029H1.73975C1.71041 31.8029 1.69575 31.8162 1.69575 31.8429V33.6509C1.69575 33.6802 1.71041 33.6949 1.73975 33.6949ZM1.30775 33.9669V31.5309C1.30775 31.4856 1.33041 31.4629 1.37575 31.4629H2.35975C2.55441 31.4629 2.70641 31.5176 2.81575 31.6269C2.92775 31.7336 2.98375 31.8856 2.98375 32.0829V33.4149C2.98375 33.6096 2.92775 33.7616 2.81575 33.8709C2.70641 33.9802 2.55441 34.0349 2.35975 34.0349H1.37575C1.33041 34.0349 1.30775 34.0122 1.30775 33.9669ZM4.8745 34.0349H3.5945C3.54916 34.0349 3.5265 34.0122 3.5265 33.9669V31.5309C3.5265 31.4856 3.54916 31.4629 3.5945 31.4629H4.8745C4.91716 31.4629 4.9385 31.4856 4.9385 31.5309V31.7349C4.9385 31.7802 4.91716 31.8029 4.8745 31.8029H3.9625C3.9305 31.8029 3.9145 31.8162 3.9145 31.8429V32.5189C3.9145 32.5456 3.9305 32.5589 3.9625 32.5589H4.7345C4.7825 32.5589 4.8065 32.5816 4.8065 32.6269V32.8309C4.8065 32.8762 4.7825 32.8989 4.7345 32.8989H3.9625C3.9305 32.8989 3.9145 32.9122 3.9145 32.9389V33.6509C3.9145 33.6802 3.9305 33.6949 3.9625 33.6949H4.8745C4.91716 33.6949 4.9385 33.7176 4.9385 33.7629V33.9669C4.9385 34.0122 4.91716 34.0349 4.8745 34.0349ZM6.38437 34.0349H5.98837C5.94304 34.0349 5.91504 34.0122 5.90437 33.9669L5.24037 31.5389C5.22437 31.4882 5.24437 31.4629 5.30037 31.4629H5.58437C5.62704 31.4629 5.65237 31.4856 5.66037 31.5309L6.17637 33.6189H6.19237L6.70437 31.5309C6.71504 31.4856 6.74171 31.4629 6.78437 31.4629H7.06437C7.12037 31.4629 7.14171 31.4882 7.12837 31.5389L6.46037 33.9669C6.44971 34.0122 6.42437 34.0349 6.38437 34.0349ZM7.90715 31.5309V33.9669C7.90715 34.0122 7.88449 34.0349 7.83915 34.0349H7.58715C7.54182 34.0349 7.51915 34.0122 7.51915 33.9669V31.5309C7.51915 31.4856 7.54182 31.4629 7.58715 31.4629H7.83915C7.88449 31.4629 7.90715 31.4856 7.90715 31.5309ZM9.55487 34.0349H9.09087C8.89354 34.0349 8.74021 33.9802 8.63087 33.8709C8.52421 33.7616 8.47087 33.6096 8.47087 33.4149V32.0829C8.47087 31.8856 8.52421 31.7336 8.63087 31.6269C8.74021 31.5176 8.89354 31.4629 9.09087 31.4629H9.55487C9.74954 31.4629 9.90154 31.5176 10.0109 31.6269C10.1202 31.7336 10.1749 31.8856 10.1749 32.0829V32.2749C10.1749 32.3229 10.1509 32.3469 10.1029 32.3469H9.85087C9.80554 32.3469 9.78287 32.3229 9.78287 32.2749V32.0989C9.78287 31.9016 9.68687 31.8029 9.49487 31.8029H9.14687C8.95487 31.8029 8.85887 31.9016 8.85887 32.0989V33.3989C8.85887 33.5962 8.95487 33.6949 9.14687 33.6949H9.49487C9.68687 33.6949 9.78287 33.5962 9.78287 33.3989V33.2229C9.78287 33.1749 9.80554 33.1509 9.85087 33.1509H10.1029C10.1509 33.1509 10.1749 33.1749 10.1749 33.2229V33.4149C10.1749 33.6096 10.1202 33.7616 10.0109 33.8709C9.90154 33.9802 9.74954 34.0349 9.55487 34.0349ZM12.019 34.0349H10.739C10.6937 34.0349 10.671 34.0122 10.671 33.9669V31.5309C10.671 31.4856 10.6937 31.4629 10.739 31.4629H12.019C12.0617 31.4629 12.083 31.4856 12.083 31.5309V31.7349C12.083 31.7802 12.0617 31.8029 12.019 31.8029H11.107C11.075 31.8029 11.059 31.8162 11.059 31.8429V32.5189C11.059 32.5456 11.075 32.5589 11.107 32.5589H11.879C11.927 32.5589 11.951 32.5816 11.951 32.6269V32.8309C11.951 32.8762 11.927 32.8989 11.879 32.8989H11.107C11.075 32.8989 11.059 32.9122 11.059 32.9389V33.6509C11.059 33.6802 11.075 33.6949 11.107 33.6949H12.019C12.0617 33.6949 12.083 33.7176 12.083 33.7629V33.9669C12.083 34.0122 12.0617 34.0349 12.019 34.0349Z"
        fill="#F8EF00" />
    <path opacity="0.5"
        d="M1.12775 74.5169V74.2809C1.12775 74.2383 1.14641 74.2063 1.18375 74.1849L1.59975 73.9329C1.65041 73.9036 1.69308 73.8889 1.72775 73.8889H1.96775C2.01308 73.8889 2.03575 73.9116 2.03575 73.9569V76.3929C2.03575 76.4383 2.01441 76.4609 1.97175 76.4609H1.71175C1.66641 76.4609 1.64375 76.4383 1.64375 76.3929V74.3049L1.20775 74.5569C1.15441 74.5809 1.12775 74.5676 1.12775 74.5169ZM2.43634 74.5169V74.2809C2.43634 74.2383 2.45501 74.2063 2.49234 74.1849L2.90834 73.9329C2.95901 73.9036 3.00167 73.8889 3.03634 73.8889H3.27634C3.32167 73.8889 3.34434 73.9116 3.34434 73.9569V76.3929C3.34434 76.4383 3.32301 76.4609 3.28034 76.4609H3.02034C2.97501 76.4609 2.95234 76.4383 2.95234 76.3929V74.3049L2.51634 74.5569C2.46301 74.5809 2.43634 74.5676 2.43634 74.5169ZM4.54093 76.1209H4.85693C4.9556 76.1209 5.0276 76.0983 5.07293 76.0529C5.12093 76.0076 5.14493 75.9356 5.14493 75.8369V75.6209C5.14493 75.4209 5.04893 75.3209 4.85693 75.3209H4.54093C4.34893 75.3209 4.25293 75.4209 4.25293 75.6209V75.8369C4.25293 75.9356 4.2756 76.0076 4.32093 76.0529C4.36893 76.0983 4.44227 76.1209 4.54093 76.1209ZM4.54093 75.0089H4.85693C5.04893 75.0089 5.14493 74.9089 5.14493 74.7089V74.5129C5.14493 74.4143 5.12093 74.3423 5.07293 74.2969C5.0276 74.2516 4.9556 74.2289 4.85693 74.2289H4.54093C4.44227 74.2289 4.36893 74.2516 4.32093 74.2969C4.2756 74.3423 4.25293 74.4143 4.25293 74.5129V74.7089C4.25293 74.9089 4.34893 75.0089 4.54093 75.0089ZM4.91293 76.4609H4.48893C4.2916 76.4609 4.13827 76.4103 4.02893 76.3089C3.9196 76.2076 3.86493 76.0596 3.86493 75.8649V75.6489C3.86493 75.4036 3.95693 75.2436 4.14093 75.1689C3.95693 75.0943 3.86493 74.9329 3.86493 74.6849V74.4809C3.86493 74.2889 3.9196 74.1423 4.02893 74.0409C4.13827 73.9396 4.2916 73.8889 4.48893 73.8889H4.91293C5.11027 73.8889 5.26227 73.9396 5.36893 74.0409C5.47827 74.1423 5.53293 74.2889 5.53293 74.4809V74.6849C5.53293 74.8076 5.5076 74.9116 5.45693 74.9969C5.40893 75.0823 5.3436 75.1396 5.26093 75.1689C5.44227 75.2409 5.53293 75.4023 5.53293 75.6529V75.8649C5.53293 76.0596 5.47827 76.2076 5.36893 76.3089C5.26227 76.4103 5.11027 76.4609 4.91293 76.4609ZM6.36975 76.4609H6.09375C6.04308 76.4609 6.03108 76.4356 6.05775 76.3849L6.91375 74.2489H5.90575C5.86041 74.2489 5.83775 74.2249 5.83775 74.1769V73.9569C5.83775 73.9116 5.86041 73.8889 5.90575 73.8889H7.26175C7.30975 73.8889 7.33375 73.9116 7.33375 73.9569V74.2049C7.33375 74.2476 7.31908 74.3036 7.28975 74.3729L6.48175 76.3969C6.46575 76.4396 6.42841 76.4609 6.36975 76.4609ZM8.01818 76.4609H7.74218C7.69152 76.4609 7.67952 76.4356 7.70618 76.3849L8.56218 74.2489H7.55418C7.50885 74.2489 7.48618 74.2249 7.48618 74.1769V73.9569C7.48618 73.9116 7.50885 73.8889 7.55418 73.8889H8.91018C8.95818 73.8889 8.98218 73.9116 8.98218 73.9569V74.2049C8.98218 74.2476 8.96752 74.3036 8.93818 74.3729L8.13018 76.3969C8.11418 76.4396 8.07685 76.4609 8.01818 76.4609ZM9.66662 76.4609H9.39062C9.33996 76.4609 9.32796 76.4356 9.35462 76.3849L10.2106 74.2489H9.20262C9.15729 74.2489 9.13462 74.2249 9.13462 74.1769V73.9569C9.13462 73.9116 9.15729 73.8889 9.20262 73.8889H10.5586C10.6066 73.8889 10.6306 73.9116 10.6306 73.9569V74.2049C10.6306 74.2476 10.616 74.3036 10.5866 74.3729L9.77862 76.3969C9.76262 76.4396 9.72529 76.4609 9.66662 76.4609ZM12.5722 76.1209H12.8882C12.9869 76.1209 13.0589 76.0983 13.1042 76.0529C13.1522 76.0076 13.1762 75.9356 13.1762 75.8369V75.6209C13.1762 75.4209 13.0802 75.3209 12.8882 75.3209H12.5722C12.3802 75.3209 12.2842 75.4209 12.2842 75.6209V75.8369C12.2842 75.9356 12.3069 76.0076 12.3522 76.0529C12.4002 76.0983 12.4735 76.1209 12.5722 76.1209ZM12.5722 75.0089H12.8882C13.0802 75.0089 13.1762 74.9089 13.1762 74.7089V74.5129C13.1762 74.4143 13.1522 74.3423 13.1042 74.2969C13.0589 74.2516 12.9869 74.2289 12.8882 74.2289H12.5722C12.4735 74.2289 12.4002 74.2516 12.3522 74.2969C12.3069 74.3423 12.2842 74.4143 12.2842 74.5129V74.7089C12.2842 74.9089 12.3802 75.0089 12.5722 75.0089ZM12.9442 76.4609H12.5202C12.3229 76.4609 12.1695 76.4103 12.0602 76.3089C11.9509 76.2076 11.8962 76.0596 11.8962 75.8649V75.6489C11.8962 75.4036 11.9882 75.2436 12.1722 75.1689C11.9882 75.0943 11.8962 74.9329 11.8962 74.6849V74.4809C11.8962 74.2889 11.9509 74.1423 12.0602 74.0409C12.1695 73.9396 12.3229 73.8889 12.5202 73.8889H12.9442C13.1415 73.8889 13.2935 73.9396 13.4002 74.0409C13.5095 74.1423 13.5642 74.2889 13.5642 74.4809V74.6849C13.5642 74.8076 13.5389 74.9116 13.4882 74.9969C13.4402 75.0823 13.3749 75.1396 13.2922 75.1689C13.4735 75.2409 13.5642 75.4023 13.5642 75.6529V75.8649C13.5642 76.0596 13.5095 76.2076 13.4002 76.3089C13.2935 76.4103 13.1415 76.4609 12.9442 76.4609ZM14.673 75.1569H15.233V74.5249C15.233 74.3276 15.1357 74.2289 14.941 74.2289H14.673C14.481 74.2289 14.385 74.3276 14.385 74.5249V74.8649C14.385 75.0596 14.481 75.1569 14.673 75.1569ZM14.997 76.4609H14.185C14.1343 76.4609 14.109 76.4383 14.109 76.3929V76.1849C14.109 76.1423 14.1343 76.1209 14.185 76.1209H14.941C15.133 76.1209 15.229 76.0223 15.229 75.8249V75.5009H14.613C14.4157 75.5009 14.2623 75.4476 14.153 75.3409C14.0437 75.2316 13.989 75.0796 13.989 74.8849V74.5089C13.989 74.3116 14.0437 74.1596 14.153 74.0529C14.2623 73.9436 14.4157 73.8889 14.613 73.8889H14.997C15.1943 73.8889 15.3477 73.9436 15.457 74.0529C15.5663 74.1596 15.621 74.3116 15.621 74.5089V75.8409C15.621 76.0356 15.5663 76.1876 15.457 76.2969C15.3477 76.4063 15.1943 76.4609 14.997 76.4609ZM16.0636 76.3929V76.0249C16.0636 75.8596 16.1343 75.7209 16.2756 75.6089L17.0316 74.9929C17.1596 74.8916 17.2236 74.7743 17.2236 74.6409V74.5089C17.2236 74.3169 17.1236 74.2209 16.9236 74.2209H16.7276C16.6263 74.2209 16.5529 74.2436 16.5076 74.2889C16.4623 74.3343 16.4396 74.4076 16.4396 74.5089V74.6569C16.4396 74.7049 16.4169 74.7289 16.3716 74.7289H16.1156C16.0703 74.7289 16.0476 74.7049 16.0476 74.6569V74.5009C16.0476 74.3063 16.1023 74.1556 16.2116 74.0489C16.3209 73.9423 16.4743 73.8889 16.6716 73.8889H16.9836C17.1783 73.8889 17.3303 73.9423 17.4396 74.0489C17.5489 74.1556 17.6036 74.3063 17.6036 74.5009V74.6649C17.6036 74.8729 17.5223 75.0436 17.3596 75.1769L16.5916 75.8049C16.5303 75.8556 16.4996 75.9156 16.4996 75.9849V76.1129H17.5396C17.5876 76.1129 17.6116 76.1356 17.6116 76.1809V76.3929C17.6116 76.4383 17.5876 76.4609 17.5396 76.4609H16.1356C16.0876 76.4609 16.0636 76.4383 16.0636 76.3929ZM18.6888 75.0089H18.9088C19.1061 75.0089 19.2048 74.9116 19.2048 74.7169V74.5089C19.2048 74.3169 19.1061 74.2209 18.9088 74.2209H18.6728C18.5741 74.2209 18.5008 74.2436 18.4528 74.2889C18.4075 74.3343 18.3848 74.4076 18.3848 74.5089V74.6249C18.3848 74.6703 18.3621 74.6929 18.3168 74.6929H18.0608C18.0155 74.6929 17.9928 74.6703 17.9928 74.6249V74.5009C17.9928 74.3063 18.0475 74.1556 18.1568 74.0489C18.2661 73.9423 18.4195 73.8889 18.6168 73.8889H18.9648C19.1621 73.8889 19.3155 73.9423 19.4248 74.0489C19.5341 74.1556 19.5888 74.3063 19.5888 74.5009V74.7209C19.5888 74.9556 19.4821 75.1049 19.2688 75.1689C19.4821 75.2196 19.5888 75.3689 19.5888 75.6169V75.8489C19.5888 76.0436 19.5341 76.1943 19.4248 76.3009C19.3155 76.4076 19.1621 76.4609 18.9648 76.4609H18.6168C18.4195 76.4609 18.2661 76.4076 18.1568 76.3009C18.0475 76.1943 17.9928 76.0436 17.9928 75.8489V75.7089C17.9928 75.6609 18.0155 75.6369 18.0608 75.6369H18.3168C18.3621 75.6369 18.3848 75.6609 18.3848 75.7089V75.8409C18.3848 75.9396 18.4075 76.0129 18.4528 76.0609C18.5008 76.1063 18.5741 76.1289 18.6728 76.1289H18.9088C19.1061 76.1289 19.2048 76.0329 19.2048 75.8409V75.6209C19.2048 75.4263 19.1061 75.3289 18.9088 75.3289H18.6888C18.6435 75.3289 18.6208 75.3063 18.6208 75.2609V75.0809C18.6208 75.0329 18.6435 75.0089 18.6888 75.0089ZM21.1444 75.6289V74.2129L20.3564 75.6289H21.1444ZM21.4484 76.4609H21.2124C21.1671 76.4609 21.1444 76.4383 21.1444 76.3929V75.9729H20.0884C20.0111 75.9729 19.9724 75.9343 19.9724 75.8569V75.7329C19.9724 75.6743 19.9844 75.6223 20.0084 75.5769L20.9004 73.9889C20.9218 73.9489 20.9418 73.9223 20.9604 73.9089C20.9791 73.8956 21.0071 73.8889 21.0444 73.8889H21.3964C21.4738 73.8889 21.5124 73.9276 21.5124 74.0049V75.6289H21.8044C21.8498 75.6289 21.8724 75.6516 21.8724 75.6969V75.8969C21.8724 75.9476 21.8498 75.9729 21.8044 75.9729H21.5124V76.3929C21.5124 76.4383 21.4911 76.4609 21.4484 76.4609ZM22.1612 76.3929V76.0249C22.1612 75.8596 22.2319 75.7209 22.3732 75.6089L23.1292 74.9929C23.2572 74.8916 23.3212 74.7743 23.3212 74.6409V74.5089C23.3212 74.3169 23.2212 74.2209 23.0212 74.2209H22.8252C22.7239 74.2209 22.6506 74.2436 22.6052 74.2889C22.5599 74.3343 22.5372 74.4076 22.5372 74.5089V74.6569C22.5372 74.7049 22.5146 74.7289 22.4692 74.7289H22.2132C22.1679 74.7289 22.1452 74.7049 22.1452 74.6569V74.5009C22.1452 74.3063 22.1999 74.1556 22.3092 74.0489C22.4186 73.9423 22.5719 73.8889 22.7692 73.8889H23.0812C23.2759 73.8889 23.4279 73.9423 23.5372 74.0489C23.6466 74.1556 23.7012 74.3063 23.7012 74.5009V74.6649C23.7012 74.8729 23.6199 75.0436 23.4572 75.1769L22.6892 75.8049C22.6279 75.8556 22.5972 75.9156 22.5972 75.9849V76.1129H23.6372C23.6852 76.1129 23.7092 76.1356 23.7092 76.1809V76.3929C23.7092 76.4383 23.6852 76.4609 23.6372 76.4609H22.2332C22.1852 76.4609 22.1612 76.4383 22.1612 76.3929ZM25.0636 76.3929V76.0249C25.0636 75.8596 25.1343 75.7209 25.2756 75.6089L26.0316 74.9929C26.1596 74.8916 26.2236 74.7743 26.2236 74.6409V74.5089C26.2236 74.3169 26.1236 74.2209 25.9236 74.2209H25.7276C25.6263 74.2209 25.5529 74.2436 25.5076 74.2889C25.4623 74.3343 25.4396 74.4076 25.4396 74.5089V74.6569C25.4396 74.7049 25.4169 74.7289 25.3716 74.7289H25.1156C25.0703 74.7289 25.0476 74.7049 25.0476 74.6569V74.5009C25.0476 74.3063 25.1023 74.1556 25.2116 74.0489C25.3209 73.9423 25.4743 73.8889 25.6716 73.8889H25.9836C26.1783 73.8889 26.3303 73.9423 26.4396 74.0489C26.5489 74.1556 26.6036 74.3063 26.6036 74.5009V74.6649C26.6036 74.8729 26.5223 75.0436 26.3596 75.1769L25.5916 75.8049C25.5303 75.8556 25.4996 75.9156 25.4996 75.9849V76.1129H26.5396C26.5876 76.1129 26.6116 76.1356 26.6116 76.1809V76.3929C26.6116 76.4383 26.5876 76.4609 26.5396 76.4609H25.1356C25.0876 76.4609 25.0636 76.4383 25.0636 76.3929ZM27.6888 75.0089H27.9088C28.1061 75.0089 28.2048 74.9116 28.2048 74.7169V74.5089C28.2048 74.3169 28.1061 74.2209 27.9088 74.2209H27.6728C27.5741 74.2209 27.5008 74.2436 27.4528 74.2889C27.4075 74.3343 27.3848 74.4076 27.3848 74.5089V74.6249C27.3848 74.6703 27.3621 74.6929 27.3168 74.6929H27.0608C27.0155 74.6929 26.9928 74.6703 26.9928 74.6249V74.5009C26.9928 74.3063 27.0475 74.1556 27.1568 74.0489C27.2661 73.9423 27.4195 73.8889 27.6168 73.8889H27.9648C28.1621 73.8889 28.3155 73.9423 28.4248 74.0489C28.5341 74.1556 28.5888 74.3063 28.5888 74.5009V74.7209C28.5888 74.9556 28.4821 75.1049 28.2688 75.1689C28.4821 75.2196 28.5888 75.3689 28.5888 75.6169V75.8489C28.5888 76.0436 28.5341 76.1943 28.4248 76.3009C28.3155 76.4076 28.1621 76.4609 27.9648 76.4609H27.6168C27.4195 76.4609 27.2661 76.4076 27.1568 76.3009C27.0475 76.1943 26.9928 76.0436 26.9928 75.8489V75.7089C26.9928 75.6609 27.0155 75.6369 27.0608 75.6369H27.3168C27.3621 75.6369 27.3848 75.6609 27.3848 75.7089V75.8409C27.3848 75.9396 27.4075 76.0129 27.4528 76.0609C27.5008 76.1063 27.5741 76.1289 27.6728 76.1289H27.9088C28.1061 76.1289 28.2048 76.0329 28.2048 75.8409V75.6209C28.2048 75.4263 28.1061 75.3289 27.9088 75.3289H27.6888C27.6435 75.3289 27.6208 75.3063 27.6208 75.2609V75.0809C27.6208 75.0329 27.6435 75.0089 27.6888 75.0089ZM29.7284 76.1209H30.0444C30.1431 76.1209 30.2151 76.0983 30.2604 76.0529C30.3084 76.0076 30.3324 75.9356 30.3324 75.8369V75.6209C30.3324 75.4209 30.2364 75.3209 30.0444 75.3209H29.7284C29.5364 75.3209 29.4404 75.4209 29.4404 75.6209V75.8369C29.4404 75.9356 29.4631 76.0076 29.5084 76.0529C29.5564 76.0983 29.6298 76.1209 29.7284 76.1209ZM29.7284 75.0089H30.0444C30.2364 75.0089 30.3324 74.9089 30.3324 74.7089V74.5129C30.3324 74.4143 30.3084 74.3423 30.2604 74.2969C30.2151 74.2516 30.1431 74.2289 30.0444 74.2289H29.7284C29.6298 74.2289 29.5564 74.2516 29.5084 74.2969C29.4631 74.3423 29.4404 74.4143 29.4404 74.5129V74.7089C29.4404 74.9089 29.5364 75.0089 29.7284 75.0089ZM30.1004 76.4609H29.6764C29.4791 76.4609 29.3258 76.4103 29.2164 76.3089C29.1071 76.2076 29.0524 76.0596 29.0524 75.8649V75.6489C29.0524 75.4036 29.1444 75.2436 29.3284 75.1689C29.1444 75.0943 29.0524 74.9329 29.0524 74.6849V74.4809C29.0524 74.2889 29.1071 74.1423 29.2164 74.0409C29.3258 73.9396 29.4791 73.8889 29.6764 73.8889H30.1004C30.2978 73.8889 30.4498 73.9396 30.5564 74.0409C30.6658 74.1423 30.7204 74.2889 30.7204 74.4809V74.6849C30.7204 74.8076 30.6951 74.9116 30.6444 74.9969C30.5964 75.0823 30.5311 75.1396 30.4484 75.1689C30.6298 75.2409 30.7204 75.4023 30.7204 75.6529V75.8649C30.7204 76.0596 30.6658 76.2076 30.5564 76.3089C30.4498 76.4103 30.2978 76.4609 30.1004 76.4609ZM32.2772 75.6289V74.2129L31.4892 75.6289H32.2772ZM32.5812 76.4609H32.3452C32.2999 76.4609 32.2772 76.4383 32.2772 76.3929V75.9729H31.2212C31.1439 75.9729 31.1052 75.9343 31.1052 75.8569V75.7329C31.1052 75.6743 31.1172 75.6223 31.1412 75.5769L32.0332 73.9889C32.0546 73.9489 32.0746 73.9223 32.0932 73.9089C32.1119 73.8956 32.1399 73.8889 32.1772 73.8889H32.5292C32.6066 73.8889 32.6452 73.9276 32.6452 74.0049V75.6289H32.9372C32.9826 75.6289 33.0052 75.6516 33.0052 75.6969V75.8969C33.0052 75.9476 32.9826 75.9729 32.9372 75.9729H32.6452V76.3929C32.6452 76.4383 32.6239 76.4609 32.5812 76.4609ZM33.9701 75.0089H34.1901C34.3874 75.0089 34.4861 74.9116 34.4861 74.7169V74.5089C34.4861 74.3169 34.3874 74.2209 34.1901 74.2209H33.9541C33.8554 74.2209 33.7821 74.2436 33.7341 74.2889C33.6887 74.3343 33.6661 74.4076 33.6661 74.5089V74.6249C33.6661 74.6703 33.6434 74.6929 33.5981 74.6929H33.3421C33.2967 74.6929 33.2741 74.6703 33.2741 74.6249V74.5009C33.2741 74.3063 33.3287 74.1556 33.4381 74.0489C33.5474 73.9423 33.7007 73.8889 33.8981 73.8889H34.2461C34.4434 73.8889 34.5967 73.9423 34.7061 74.0489C34.8154 74.1556 34.8701 74.3063 34.8701 74.5009V74.7209C34.8701 74.9556 34.7634 75.1049 34.5501 75.1689C34.7634 75.2196 34.8701 75.3689 34.8701 75.6169V75.8489C34.8701 76.0436 34.8154 76.1943 34.7061 76.3009C34.5967 76.4076 34.4434 76.4609 34.2461 76.4609H33.8981C33.7007 76.4609 33.5474 76.4076 33.4381 76.3009C33.3287 76.1943 33.2741 76.0436 33.2741 75.8489V75.7089C33.2741 75.6609 33.2967 75.6369 33.3421 75.6369H33.5981C33.6434 75.6369 33.6661 75.6609 33.6661 75.7089V75.8409C33.6661 75.9396 33.6887 76.0129 33.7341 76.0609C33.7821 76.1063 33.8554 76.1289 33.9541 76.1289H34.1901C34.3874 76.1289 34.4861 76.0329 34.4861 75.8409V75.6209C34.4861 75.4263 34.3874 75.3289 34.1901 75.3289H33.9701C33.9247 75.3289 33.9021 75.3063 33.9021 75.2609V75.0809C33.9021 75.0329 33.9247 75.0089 33.9701 75.0089ZM35.3097 76.3929V76.0249C35.3097 75.8596 35.3804 75.7209 35.5217 75.6089L36.2777 74.9929C36.4057 74.8916 36.4697 74.7743 36.4697 74.6409V74.5089C36.4697 74.3169 36.3697 74.2209 36.1697 74.2209H35.9737C35.8724 74.2209 35.799 74.2436 35.7537 74.2889C35.7084 74.3343 35.6857 74.4076 35.6857 74.5089V74.6569C35.6857 74.7049 35.663 74.7289 35.6177 74.7289H35.3617C35.3164 74.7289 35.2937 74.7049 35.2937 74.6569V74.5009C35.2937 74.3063 35.3484 74.1556 35.4577 74.0489C35.567 73.9423 35.7204 73.8889 35.9177 73.8889H36.2297C36.4244 73.8889 36.5764 73.9423 36.6857 74.0489C36.795 74.1556 36.8497 74.3063 36.8497 74.5009V74.6649C36.8497 74.8729 36.7684 75.0436 36.6057 75.1769L35.8377 75.8049C35.7764 75.8556 35.7457 75.9156 35.7457 75.9849V76.1129H36.7857C36.8337 76.1129 36.8577 76.1356 36.8577 76.1809V76.3929C36.8577 76.4383 36.8337 76.4609 36.7857 76.4609H35.3817C35.3337 76.4609 35.3097 76.4383 35.3097 76.3929ZM37.9669 76.1209H38.2509C38.4429 76.1209 38.5389 76.0223 38.5389 75.8249V74.5249C38.5389 74.3276 38.4429 74.2289 38.2509 74.2289H37.9669C37.7749 74.2289 37.6789 74.3276 37.6789 74.5249V75.8249C37.6789 76.0223 37.7749 76.1209 37.9669 76.1209ZM38.3069 76.4609H37.9069C37.7096 76.4609 37.5562 76.4063 37.4469 76.2969C37.3376 76.1876 37.2829 76.0356 37.2829 75.8409V74.5089C37.2829 74.3116 37.3376 74.1596 37.4469 74.0529C37.5562 73.9436 37.7096 73.8889 37.9069 73.8889H38.3069C38.5016 73.8889 38.6536 73.9436 38.7629 74.0529C38.8722 74.1596 38.9269 74.3116 38.9269 74.5089V75.8409C38.9269 76.0356 38.8722 76.1876 38.7629 76.2969C38.6536 76.4063 38.5016 76.4609 38.3069 76.4609ZM40.0402 75.1569H40.6002V74.5249C40.6002 74.3276 40.5029 74.2289 40.3082 74.2289H40.0402C39.8482 74.2289 39.7522 74.3276 39.7522 74.5249V74.8649C39.7522 75.0596 39.8482 75.1569 40.0402 75.1569ZM40.3642 76.4609H39.5522C39.5015 76.4609 39.4762 76.4383 39.4762 76.3929V76.1849C39.4762 76.1423 39.5015 76.1209 39.5522 76.1209H40.3082C40.5002 76.1209 40.5962 76.0223 40.5962 75.8249V75.5009H39.9802C39.7829 75.5009 39.6295 75.4476 39.5202 75.3409C39.4109 75.2316 39.3562 75.0796 39.3562 74.8849V74.5089C39.3562 74.3116 39.4109 74.1596 39.5202 74.0529C39.6295 73.9436 39.7829 73.8889 39.9802 73.8889H40.3642C40.5615 73.8889 40.7149 73.9436 40.8242 74.0529C40.9335 74.1596 40.9882 74.3116 40.9882 74.5089V75.8409C40.9882 76.0356 40.9335 76.1876 40.8242 76.2969C40.7149 76.4063 40.5615 76.4609 40.3642 76.4609ZM42.1308 76.1209H42.4468C42.5454 76.1209 42.6174 76.0983 42.6628 76.0529C42.7108 76.0076 42.7348 75.9356 42.7348 75.8369V75.6209C42.7348 75.4209 42.6388 75.3209 42.4468 75.3209H42.1308C41.9388 75.3209 41.8428 75.4209 41.8428 75.6209V75.8369C41.8428 75.9356 41.8654 76.0076 41.9108 76.0529C41.9588 76.0983 42.0321 76.1209 42.1308 76.1209ZM42.1308 75.0089H42.4468C42.6388 75.0089 42.7348 74.9089 42.7348 74.7089V74.5129C42.7348 74.4143 42.7108 74.3423 42.6628 74.2969C42.6174 74.2516 42.5454 74.2289 42.4468 74.2289H42.1308C42.0321 74.2289 41.9588 74.2516 41.9108 74.2969C41.8654 74.3423 41.8428 74.4143 41.8428 74.5129V74.7089C41.8428 74.9089 41.9388 75.0089 42.1308 75.0089ZM42.5028 76.4609H42.0788C41.8814 76.4609 41.7281 76.4103 41.6188 76.3089C41.5094 76.2076 41.4548 76.0596 41.4548 75.8649V75.6489C41.4548 75.4036 41.5468 75.2436 41.7308 75.1689C41.5468 75.0943 41.4548 74.9329 41.4548 74.6849V74.4809C41.4548 74.2889 41.5094 74.1423 41.6188 74.0409C41.7281 73.9396 41.8814 73.8889 42.0788 73.8889H42.5028C42.7001 73.8889 42.8521 73.9396 42.9588 74.0409C43.0681 74.1423 43.1228 74.2889 43.1228 74.4809V74.6849C43.1228 74.8076 43.0974 74.9116 43.0468 74.9969C42.9988 75.0823 42.9334 75.1396 42.8508 75.1689C43.0321 75.2409 43.1228 75.4023 43.1228 75.6529V75.8649C43.1228 76.0596 43.0681 76.2076 42.9588 76.3089C42.8521 76.4103 42.7001 76.4609 42.5028 76.4609Z"
        fill="#F8EF00" />
    <path opacity="0.3"
        d="M0.0966797 57.5556H275.836L300.653 39.2627H1462.44L1487.25 57.5556H1706.01"
        stroke="#F8EF00" stroke-width="2" />
    <g opacity="0.5">
        <path
            d="M21.5504 11.5804L24.765 13.9448L19.4819 13.9448L19.1471 13.698V13.9448H1.26837L1.26836 7.91456L4.59781 10.3689V11.3718V11.6218H4.84781H15.5697H16.3302L15.718 11.1706L1.77629 0.894532H7.06325L21.5501 11.5802L21.5504 11.5804ZM17.2467 3.25915L17.2464 3.25895L14.0318 0.894531L19.3149 0.894532L19.6497 1.14134V0.894532H37.5284V6.9248L34.199 4.47041V3.46751V3.21751H33.949H23.2271H22.4665L23.0787 3.66875L37.0205 13.9448H31.7335L17.2467 3.25915Z"
            stroke="#F8EF00" stroke-width="0.5" />
    </g>
</svg>