<svg width="1809" height="834" viewBox="0 0 1809 834" fill="none" xmlns="http://www.w3.org/2000/svg">
<g opacity="0.8">
<line x1="0.5" y1="829.433" x2="0.5" y2="1.00043" stroke="#F8EF00" stroke-opacity="0.1"/>
<line x1="17.719" y1="829.433" x2="17.719" y2="1.00043" stroke="#F8EF00" stroke-opacity="0.1"/>
<line x1="34.938" y1="829.433" x2="34.938" y2="1.00043" stroke="#F8EF00" stroke-opacity="0.1"/>
<line x1="52.1572" y1="829.433" x2="52.1572" y2="1.00043" stroke="#F8EF00" stroke-opacity="0.1"/>
<line x1="69.3762" y1="829.433" x2="69.3762" y2="1.00043" stroke="#F8EF00" stroke-opacity="0.1"/>
<line x1="86.5952" y1="829.433" x2="86.5952" y2="1.00043" stroke="#F8EF00" stroke-opacity="0.1"/>
<line x1="103.814" y1="829.433" x2="103.814" y2="1.00043" stroke="#F8EF00" stroke-opacity="0.1"/>
<line x1="121.033" y1="829.433" x2="121.033" y2="1.00043" stroke="#F8EF00" stroke-opacity="0.1"/>
<line x1="138.252" y1="829.433" x2="138.252" y2="1.00043" stroke="#F8EF00" stroke-opacity="0.1"/>
<line x1="155.471" y1="829.433" x2="155.471" y2="1.00043" stroke="#F8EF00" stroke-opacity="0.1"/>
<line x1="172.69" y1="829.433" x2="172.69" y2="1.00043" stroke="#F8EF00" stroke-opacity="0.1"/>
<line x1="189.909" y1="829.433" x2="189.909" y2="1.00043" stroke="#F8EF00" stroke-opacity="0.1"/>
<line x1="207.128" y1="829.433" x2="207.128" y2="1.00043" stroke="#F8EF00" stroke-opacity="0.1"/>
<line x1="224.348" y1="829.433" x2="224.348" y2="1.00043" stroke="#F8EF00" stroke-opacity="0.1"/>
<line x1="241.567" y1="829.433" x2="241.567" y2="1.00043" stroke="#F8EF00" stroke-opacity="0.1"/>
<line x1="258.786" y1="829.433" x2="258.786" y2="1.00043" stroke="#F8EF00" stroke-opacity="0.1"/>
<line x1="276.005" y1="829.433" x2="276.005" y2="1.00043" stroke="#F8EF00" stroke-opacity="0.1"/>
<line x1="293.224" y1="829.433" x2="293.224" y2="1.00043" stroke="#F8EF00" stroke-opacity="0.1"/>
<line x1="310.443" y1="829.433" x2="310.443" y2="1.00043" stroke="#F8EF00" stroke-opacity="0.1"/>
<line x1="327.662" y1="829.433" x2="327.662" y2="1.00043" stroke="#F8EF00" stroke-opacity="0.1"/>
<line x1="344.881" y1="829.433" x2="344.881" y2="1.00043" stroke="#F8EF00" stroke-opacity="0.1"/>
<line x1="362.1" y1="829.433" x2="362.1" y2="1.00043" stroke="#F8EF00" stroke-opacity="0.1"/>
<line x1="379.319" y1="829.433" x2="379.319" y2="1.00043" stroke="#F8EF00" stroke-opacity="0.1"/>
<line x1="396.538" y1="829.433" x2="396.538" y2="1.00043" stroke="#F8EF00" stroke-opacity="0.1"/>
<line x1="413.757" y1="829.433" x2="413.757" y2="1.00043" stroke="#F8EF00" stroke-opacity="0.1"/>
<line x1="430.976" y1="829.433" x2="430.976" y2="1.00043" stroke="#F8EF00" stroke-opacity="0.1"/>
<line x1="448.195" y1="829.433" x2="448.195" y2="1.00043" stroke="#F8EF00" stroke-opacity="0.1"/>
<line x1="465.414" y1="829.433" x2="465.414" y2="1.00043" stroke="#F8EF00" stroke-opacity="0.1"/>
<line x1="482.633" y1="829.433" x2="482.633" y2="1.00043" stroke="#F8EF00" stroke-opacity="0.1"/>
<line x1="499.852" y1="829.433" x2="499.852" y2="1.00043" stroke="#F8EF00" stroke-opacity="0.1"/>
<line x1="517.072" y1="829.433" x2="517.072" y2="1.00043" stroke="#F8EF00" stroke-opacity="0.1"/>
<line x1="534.291" y1="829.433" x2="534.291" y2="1.00043" stroke="#F8EF00" stroke-opacity="0.1"/>
<line x1="551.51" y1="829.433" x2="551.51" y2="1.00043" stroke="#F8EF00" stroke-opacity="0.1"/>
<line x1="568.729" y1="829.433" x2="568.729" y2="1.00043" stroke="#F8EF00" stroke-opacity="0.1"/>
<line x1="585.948" y1="829.433" x2="585.948" y2="1.00043" stroke="#F8EF00" stroke-opacity="0.1"/>
<line x1="603.167" y1="829.433" x2="603.167" y2="1.00043" stroke="#F8EF00" stroke-opacity="0.1"/>
<line x1="620.386" y1="829.433" x2="620.386" y2="1.00043" stroke="#F8EF00" stroke-opacity="0.1"/>
<line x1="637.605" y1="829.433" x2="637.605" y2="1.00043" stroke="#F8EF00" stroke-opacity="0.1"/>
<line x1="654.824" y1="829.433" x2="654.824" y2="1.00043" stroke="#F8EF00" stroke-opacity="0.1"/>
<line x1="672.043" y1="829.433" x2="672.043" y2="1.00043" stroke="#F8EF00" stroke-opacity="0.1"/>
<line x1="689.262" y1="829.433" x2="689.262" y2="1.00043" stroke="#F8EF00" stroke-opacity="0.1"/>
<line x1="706.481" y1="829.433" x2="706.481" y2="1.00043" stroke="#F8EF00" stroke-opacity="0.1"/>
<line x1="723.7" y1="829.433" x2="723.7" y2="1.00043" stroke="#F8EF00" stroke-opacity="0.1"/>
<line x1="740.919" y1="829.433" x2="740.919" y2="1.00043" stroke="#F8EF00" stroke-opacity="0.1"/>
<line x1="758.138" y1="829.433" x2="758.138" y2="1.00043" stroke="#F8EF00" stroke-opacity="0.1"/>
<line x1="775.357" y1="829.433" x2="775.357" y2="1.00043" stroke="#F8EF00" stroke-opacity="0.1"/>
<line x1="792.576" y1="829.433" x2="792.576" y2="1.00043" stroke="#F8EF00" stroke-opacity="0.1"/>
<line x1="809.795" y1="829.433" x2="809.795" y2="1.00043" stroke="#F8EF00" stroke-opacity="0.1"/>
<line x1="827.014" y1="829.433" x2="827.014" y2="1.00043" stroke="#F8EF00" stroke-opacity="0.1"/>
<line x1="844.233" y1="829.433" x2="844.233" y2="1.00043" stroke="#F8EF00" stroke-opacity="0.1"/>
<line x1="861.453" y1="829.433" x2="861.453" y2="1.00043" stroke="#F8EF00" stroke-opacity="0.1"/>
<line x1="878.671" y1="829.433" x2="878.671" y2="1.00043" stroke="#F8EF00" stroke-opacity="0.1"/>
<line x1="895.891" y1="829.433" x2="895.891" y2="1.00043" stroke="#F8EF00" stroke-opacity="0.1"/>
<line x1="913.109" y1="829.433" x2="913.109" y2="1.00043" stroke="#F8EF00" stroke-opacity="0.1"/>
<line x1="930.329" y1="829.433" x2="930.329" y2="1.00043" stroke="#F8EF00" stroke-opacity="0.1"/>
<line x1="947.547" y1="829.433" x2="947.547" y2="1.00043" stroke="#F8EF00" stroke-opacity="0.1"/>
<line x1="964.767" y1="829.433" x2="964.767" y2="1.00043" stroke="#F8EF00" stroke-opacity="0.1"/>
<line x1="981.986" y1="829.433" x2="981.986" y2="1.00043" stroke="#F8EF00" stroke-opacity="0.1"/>
<line x1="999.205" y1="829.433" x2="999.205" y2="1.00043" stroke="#F8EF00" stroke-opacity="0.1"/>
<line x1="1016.42" y1="829.433" x2="1016.42" y2="1.00043" stroke="#F8EF00" stroke-opacity="0.1"/>
<line x1="1033.64" y1="829.433" x2="1033.64" y2="1.00043" stroke="#F8EF00" stroke-opacity="0.1"/>
<line x1="1050.86" y1="829.433" x2="1050.86" y2="1.00043" stroke="#F8EF00" stroke-opacity="0.1"/>
<line x1="1068.08" y1="829.433" x2="1068.08" y2="1.00043" stroke="#F8EF00" stroke-opacity="0.1"/>
<line x1="1085.3" y1="829.433" x2="1085.3" y2="1.00043" stroke="#F8EF00" stroke-opacity="0.1"/>
<line x1="1102.52" y1="829.433" x2="1102.52" y2="1.00043" stroke="#F8EF00" stroke-opacity="0.1"/>
<line x1="1119.74" y1="829.433" x2="1119.74" y2="1.00043" stroke="#F8EF00" stroke-opacity="0.1"/>
<line x1="1136.96" y1="829.433" x2="1136.96" y2="1.00043" stroke="#F8EF00" stroke-opacity="0.1"/>
<line x1="1154.18" y1="829.433" x2="1154.18" y2="1.00043" stroke="#F8EF00" stroke-opacity="0.1"/>
<line x1="1171.4" y1="829.433" x2="1171.4" y2="1.00043" stroke="#F8EF00" stroke-opacity="0.1"/>
<line x1="1188.61" y1="829.433" x2="1188.61" y2="1.00043" stroke="#F8EF00" stroke-opacity="0.1"/>
<line x1="1205.83" y1="829.433" x2="1205.83" y2="1.00043" stroke="#F8EF00" stroke-opacity="0.1"/>
<line x1="1223.05" y1="829.433" x2="1223.05" y2="1.00043" stroke="#F8EF00" stroke-opacity="0.1"/>
<line x1="1240.27" y1="829.433" x2="1240.27" y2="1.00043" stroke="#F8EF00" stroke-opacity="0.1"/>
<line x1="1257.49" y1="829.433" x2="1257.49" y2="1.00043" stroke="#F8EF00" stroke-opacity="0.1"/>
<line x1="1274.71" y1="829.433" x2="1274.71" y2="1.00043" stroke="#F8EF00" stroke-opacity="0.1"/>
<line x1="1291.93" y1="829.433" x2="1291.93" y2="1.00043" stroke="#F8EF00" stroke-opacity="0.1"/>
<line x1="1309.15" y1="829.433" x2="1309.15" y2="1.00043" stroke="#F8EF00" stroke-opacity="0.1"/>
<line x1="1326.37" y1="829.433" x2="1326.37" y2="1.00043" stroke="#F8EF00" stroke-opacity="0.1"/>
<line x1="1343.59" y1="829.433" x2="1343.59" y2="1.00043" stroke="#F8EF00" stroke-opacity="0.1"/>
<line x1="1360.8" y1="829.433" x2="1360.8" y2="1.00043" stroke="#F8EF00" stroke-opacity="0.1"/>
<line x1="1378.02" y1="829.433" x2="1378.02" y2="1.00043" stroke="#F8EF00" stroke-opacity="0.1"/>
<line x1="1395.24" y1="829.433" x2="1395.24" y2="1.00043" stroke="#F8EF00" stroke-opacity="0.1"/>
<line x1="1412.46" y1="829.433" x2="1412.46" y2="1.00043" stroke="#F8EF00" stroke-opacity="0.1"/>
<line x1="1429.68" y1="829.433" x2="1429.68" y2="1.00043" stroke="#F8EF00" stroke-opacity="0.1"/>
<line x1="1446.9" y1="829.433" x2="1446.9" y2="1.00043" stroke="#F8EF00" stroke-opacity="0.1"/>
<line x1="1464.12" y1="829.433" x2="1464.12" y2="1.00043" stroke="#F8EF00" stroke-opacity="0.1"/>
<line x1="1481.34" y1="829.433" x2="1481.34" y2="1.00043" stroke="#F8EF00" stroke-opacity="0.1"/>
<line x1="1498.56" y1="829.433" x2="1498.56" y2="1.00043" stroke="#F8EF00" stroke-opacity="0.1"/>
<line x1="1515.78" y1="829.433" x2="1515.78" y2="1.00043" stroke="#F8EF00" stroke-opacity="0.1"/>
<line x1="1533" y1="829.433" x2="1533" y2="1.00043" stroke="#F8EF00" stroke-opacity="0.1"/>
<line x1="1550.21" y1="829.433" x2="1550.21" y2="1.00043" stroke="#F8EF00" stroke-opacity="0.1"/>
<line x1="1567.43" y1="829.433" x2="1567.43" y2="1.00043" stroke="#F8EF00" stroke-opacity="0.1"/>
<line x1="1584.65" y1="829.433" x2="1584.65" y2="1.00043" stroke="#F8EF00" stroke-opacity="0.1"/>
<line x1="1601.87" y1="829.433" x2="1601.87" y2="1.00043" stroke="#F8EF00" stroke-opacity="0.1"/>
<line x1="1619.09" y1="829.433" x2="1619.09" y2="1.00043" stroke="#F8EF00" stroke-opacity="0.1"/>
<line x1="1636.31" y1="829.433" x2="1636.31" y2="1.00043" stroke="#F8EF00" stroke-opacity="0.1"/>
<line x1="1653.53" y1="829.433" x2="1653.53" y2="1.00043" stroke="#F8EF00" stroke-opacity="0.1"/>
<line x1="1670.75" y1="829.433" x2="1670.75" y2="1.00043" stroke="#F8EF00" stroke-opacity="0.1"/>
<line x1="1687.97" y1="829.433" x2="1687.97" y2="1.00043" stroke="#F8EF00" stroke-opacity="0.1"/>
<line x1="1705.19" y1="829.433" x2="1705.19" y2="1.00043" stroke="#F8EF00" stroke-opacity="0.1"/>
<line x1="1722.4" y1="829.433" x2="1722.4" y2="1.00043" stroke="#F8EF00" stroke-opacity="0.1"/>
<line x1="1739.62" y1="829.433" x2="1739.62" y2="1.00043" stroke="#F8EF00" stroke-opacity="0.1"/>
<line x1="1756.84" y1="829.433" x2="1756.84" y2="1.00043" stroke="#F8EF00" stroke-opacity="0.1"/>
<line x1="1774.06" y1="829.433" x2="1774.06" y2="1.00043" stroke="#F8EF00" stroke-opacity="0.1"/>
<line x1="1791.28" y1="829.433" x2="1791.28" y2="1.00043" stroke="#F8EF00" stroke-opacity="0.1"/>
<line x1="1" y1="0.5" x2="1804.3" y2="0.5" stroke="#F8EF00" stroke-opacity="0.1"/>
<line x1="1" y1="9.96582" x2="1804.3" y2="9.96582" stroke="#F8EF00" stroke-opacity="0.1"/>
<line x1="1" y1="19.4319" x2="1804.3" y2="19.4319" stroke="#F8EF00" stroke-opacity="0.1"/>
<line x1="1" y1="28.8977" x2="1804.3" y2="28.8977" stroke="#F8EF00" stroke-opacity="0.1"/>
<line x1="1" y1="38.3635" x2="1804.3" y2="38.3635" stroke="#F8EF00" stroke-opacity="0.1"/>
<line x1="1" y1="47.8293" x2="1804.3" y2="47.8293" stroke="#F8EF00" stroke-opacity="0.1"/>
<line x1="1" y1="57.2957" x2="1804.3" y2="57.2957" stroke="#F8EF00" stroke-opacity="0.1"/>
<line x1="1" y1="66.7615" x2="1804.3" y2="66.7615" stroke="#F8EF00" stroke-opacity="0.1"/>
<line x1="1" y1="76.2273" x2="1804.3" y2="76.2273" stroke="#F8EF00" stroke-opacity="0.1"/>
<line x1="1" y1="85.6931" x2="1804.3" y2="85.6931" stroke="#F8EF00" stroke-opacity="0.1"/>
<line x1="1" y1="95.1592" x2="1804.3" y2="95.1592" stroke="#F8EF00" stroke-opacity="0.1"/>
<line x1="1" y1="104.625" x2="1804.3" y2="104.625" stroke="#F8EF00" stroke-opacity="0.1"/>
<line x1="1" y1="114.091" x2="1804.3" y2="114.091" stroke="#F8EF00" stroke-opacity="0.1"/>
<line x1="1" y1="123.557" x2="1804.3" y2="123.557" stroke="#F8EF00" stroke-opacity="0.1"/>
<line x1="1" y1="133.023" x2="1804.3" y2="133.023" stroke="#F8EF00" stroke-opacity="0.1"/>
<line x1="1" y1="142.489" x2="1804.3" y2="142.489" stroke="#F8EF00" stroke-opacity="0.1"/>
<line x1="1" y1="151.955" x2="1804.3" y2="151.955" stroke="#F8EF00" stroke-opacity="0.1"/>
<line x1="1" y1="161.42" x2="1804.3" y2="161.42" stroke="#F8EF00" stroke-opacity="0.1"/>
<line x1="1" y1="170.886" x2="1804.3" y2="170.886" stroke="#F8EF00" stroke-opacity="0.1"/>
<line x1="1" y1="180.352" x2="1804.3" y2="180.352" stroke="#F8EF00" stroke-opacity="0.1"/>
<line x1="1" y1="189.818" x2="1804.3" y2="189.818" stroke="#F8EF00" stroke-opacity="0.1"/>
<line x1="1" y1="199.284" x2="1804.3" y2="199.284" stroke="#F8EF00" stroke-opacity="0.1"/>
<line x1="1" y1="208.75" x2="1804.3" y2="208.75" stroke="#F8EF00" stroke-opacity="0.1"/>
<line x1="1" y1="218.216" x2="1804.3" y2="218.216" stroke="#F8EF00" stroke-opacity="0.1"/>
<line x1="1" y1="227.682" x2="1804.3" y2="227.682" stroke="#F8EF00" stroke-opacity="0.1"/>
<line x1="1" y1="237.148" x2="1804.3" y2="237.148" stroke="#F8EF00" stroke-opacity="0.1"/>
<line x1="1" y1="246.614" x2="1804.3" y2="246.614" stroke="#F8EF00" stroke-opacity="0.1"/>
<line x1="1" y1="256.08" x2="1804.3" y2="256.08" stroke="#F8EF00" stroke-opacity="0.1"/>
<line x1="1" y1="265.545" x2="1804.3" y2="265.545" stroke="#F8EF00" stroke-opacity="0.1"/>
<line x1="1" y1="275.011" x2="1804.3" y2="275.011" stroke="#F8EF00" stroke-opacity="0.1"/>
<line x1="1" y1="284.477" x2="1804.3" y2="284.477" stroke="#F8EF00" stroke-opacity="0.1"/>
<line x1="1" y1="293.943" x2="1804.3" y2="293.943" stroke="#F8EF00" stroke-opacity="0.1"/>
<line x1="1" y1="303.409" x2="1804.3" y2="303.409" stroke="#F8EF00" stroke-opacity="0.1"/>
<line x1="1" y1="312.875" x2="1804.3" y2="312.875" stroke="#F8EF00" stroke-opacity="0.1"/>
<line x1="1" y1="322.341" x2="1804.3" y2="322.341" stroke="#F8EF00" stroke-opacity="0.1"/>
<line x1="1" y1="331.807" x2="1804.3" y2="331.807" stroke="#F8EF00" stroke-opacity="0.1"/>
<line x1="1" y1="341.273" x2="1804.3" y2="341.273" stroke="#F8EF00" stroke-opacity="0.1"/>
<line x1="1" y1="350.739" x2="1804.3" y2="350.739" stroke="#F8EF00" stroke-opacity="0.1"/>
<line x1="1" y1="360.205" x2="1804.3" y2="360.205" stroke="#F8EF00" stroke-opacity="0.1"/>
<line x1="1" y1="369.67" x2="1804.3" y2="369.67" stroke="#F8EF00" stroke-opacity="0.1"/>
<line x1="1" y1="379.136" x2="1804.3" y2="379.136" stroke="#F8EF00" stroke-opacity="0.1"/>
<line x1="1" y1="388.602" x2="1804.3" y2="388.602" stroke="#F8EF00" stroke-opacity="0.1"/>
<line x1="1" y1="398.068" x2="1804.3" y2="398.068" stroke="#F8EF00" stroke-opacity="0.1"/>
<line x1="1" y1="407.534" x2="1804.3" y2="407.534" stroke="#F8EF00" stroke-opacity="0.1"/>
<line x1="1" y1="417" x2="1804.3" y2="417" stroke="#F8EF00" stroke-opacity="0.1"/>
<line x1="1" y1="426.466" x2="1804.3" y2="426.466" stroke="#F8EF00" stroke-opacity="0.1"/>
<line x1="1" y1="435.932" x2="1804.3" y2="435.932" stroke="#F8EF00" stroke-opacity="0.1"/>
<line x1="1" y1="445.398" x2="1804.3" y2="445.398" stroke="#F8EF00" stroke-opacity="0.1"/>
<line x1="1" y1="454.864" x2="1804.3" y2="454.864" stroke="#F8EF00" stroke-opacity="0.1"/>
<line x1="1" y1="464.33" x2="1804.3" y2="464.33" stroke="#F8EF00" stroke-opacity="0.1"/>
<line x1="1" y1="473.795" x2="1804.3" y2="473.795" stroke="#F8EF00" stroke-opacity="0.1"/>
<line x1="1" y1="483.261" x2="1804.3" y2="483.261" stroke="#F8EF00" stroke-opacity="0.1"/>
<line x1="1" y1="492.727" x2="1804.3" y2="492.727" stroke="#F8EF00" stroke-opacity="0.1"/>
<line x1="1" y1="502.193" x2="1804.3" y2="502.193" stroke="#F8EF00" stroke-opacity="0.1"/>
<line x1="1" y1="511.659" x2="1804.3" y2="511.659" stroke="#F8EF00" stroke-opacity="0.1"/>
<line x1="1" y1="521.125" x2="1804.3" y2="521.125" stroke="#F8EF00" stroke-opacity="0.1"/>
<line x1="1" y1="530.591" x2="1804.3" y2="530.591" stroke="#F8EF00" stroke-opacity="0.1"/>
<line x1="1" y1="540.057" x2="1804.3" y2="540.057" stroke="#F8EF00" stroke-opacity="0.1"/>
<line x1="1" y1="549.523" x2="1804.3" y2="549.523" stroke="#F8EF00" stroke-opacity="0.1"/>
<line x1="1" y1="558.989" x2="1804.3" y2="558.989" stroke="#F8EF00" stroke-opacity="0.1"/>
<line x1="1" y1="568.455" x2="1804.3" y2="568.455" stroke="#F8EF00" stroke-opacity="0.1"/>
<line x1="1" y1="577.92" x2="1804.3" y2="577.92" stroke="#F8EF00" stroke-opacity="0.1"/>
<line x1="1" y1="587.386" x2="1804.3" y2="587.386" stroke="#F8EF00" stroke-opacity="0.1"/>
<line x1="1" y1="596.852" x2="1804.3" y2="596.852" stroke="#F8EF00" stroke-opacity="0.1"/>
<line x1="1" y1="606.318" x2="1804.3" y2="606.318" stroke="#F8EF00" stroke-opacity="0.1"/>
<line x1="1" y1="615.784" x2="1804.3" y2="615.784" stroke="#F8EF00" stroke-opacity="0.1"/>
<line x1="1" y1="625.25" x2="1804.3" y2="625.25" stroke="#F8EF00" stroke-opacity="0.1"/>
<line x1="1" y1="634.716" x2="1804.3" y2="634.716" stroke="#F8EF00" stroke-opacity="0.1"/>
<line x1="1" y1="644.182" x2="1804.3" y2="644.182" stroke="#F8EF00" stroke-opacity="0.1"/>
<line x1="1" y1="653.648" x2="1804.3" y2="653.648" stroke="#F8EF00" stroke-opacity="0.1"/>
<line x1="1" y1="663.114" x2="1804.3" y2="663.114" stroke="#F8EF00" stroke-opacity="0.1"/>
<line x1="1" y1="672.58" x2="1804.3" y2="672.58" stroke="#F8EF00" stroke-opacity="0.1"/>
<line x1="1" y1="682.045" x2="1804.3" y2="682.045" stroke="#F8EF00" stroke-opacity="0.1"/>
<line x1="1" y1="691.511" x2="1804.3" y2="691.511" stroke="#F8EF00" stroke-opacity="0.1"/>
<line x1="1" y1="700.977" x2="1804.3" y2="700.977" stroke="#F8EF00" stroke-opacity="0.1"/>
<line x1="1" y1="710.443" x2="1804.3" y2="710.443" stroke="#F8EF00" stroke-opacity="0.1"/>
<line x1="1" y1="719.909" x2="1804.3" y2="719.909" stroke="#F8EF00" stroke-opacity="0.1"/>
<line x1="1" y1="729.375" x2="1804.3" y2="729.375" stroke="#F8EF00" stroke-opacity="0.1"/>
<line x1="1" y1="738.841" x2="1804.3" y2="738.841" stroke="#F8EF00" stroke-opacity="0.1"/>
<line x1="1" y1="748.307" x2="1804.3" y2="748.307" stroke="#F8EF00" stroke-opacity="0.1"/>
<line x1="1" y1="757.773" x2="1804.3" y2="757.773" stroke="#F8EF00" stroke-opacity="0.1"/>
<line x1="1" y1="767.239" x2="1804.3" y2="767.239" stroke="#F8EF00" stroke-opacity="0.1"/>
<line x1="1" y1="776.705" x2="1804.3" y2="776.705" stroke="#F8EF00" stroke-opacity="0.1"/>
<line x1="1" y1="786.17" x2="1804.3" y2="786.17" stroke="#F8EF00" stroke-opacity="0.1"/>
<line x1="1" y1="795.636" x2="1804.3" y2="795.636" stroke="#F8EF00" stroke-opacity="0.1"/>
<line x1="1" y1="805.102" x2="1804.3" y2="805.102" stroke="#F8EF00" stroke-opacity="0.1"/>
<line x1="1" y1="814.568" x2="1804.3" y2="814.568" stroke="#F8EF00" stroke-opacity="0.1"/>
<line x1="1" y1="824.034" x2="1804.3" y2="824.034" stroke="#F8EF00" stroke-opacity="0.1"/>
<line x1="1" y1="833.5" x2="1804.3" y2="833.5" stroke="#F8EF00" stroke-opacity="0.1"/>
<line x1="1808.5" y1="829.433" x2="1808.5" y2="1.00043" stroke="#F8EF00" stroke-opacity="0.1"/>
</g>
</svg>
