<svg width="182" height="8" viewBox="0 0 182 8" fill="none" xmlns="http://www.w3.org/2000/svg">
<path opacity="0.5" d="M0.732688 2.48239H1.08069C1.27535 2.48239 1.37269 2.38372 1.37269 2.18639V0.886388C1.37269 0.689054 1.27535 0.590388 1.08069 0.590388H0.732688C0.540688 0.590388 0.444688 0.689054 0.444688 0.886388V2.18639C0.444688 2.38372 0.540688 2.48239 0.732688 2.48239ZM1.14069 2.82239H0.676688C0.479354 2.82239 0.326021 2.76772 0.216688 2.65839C0.110021 2.54905 0.0566875 2.39705 0.0566875 2.20239V0.870388C0.0566875 0.673054 0.110021 0.521054 0.216688 0.414387C0.326021 0.305054 0.479354 0.250388 0.676688 0.250388H1.14069C1.33802 0.250388 1.49135 0.305054 1.60069 0.414387C1.71002 0.521054 1.76469 0.673054 1.76469 0.870388V2.20239C1.76469 2.39705 1.71002 2.54905 1.60069 2.65839C1.49135 2.76772 1.33802 2.82239 1.14069 2.82239ZM2.61972 2.82239H2.37172C2.32639 2.82239 2.30372 2.79972 2.30372 2.75439V0.318388C2.30372 0.273054 2.32639 0.250388 2.37172 0.250388H2.59572C2.63839 0.250388 2.66772 0.265054 2.68372 0.294388L3.65172 2.03439H3.66772V0.318388C3.66772 0.273054 3.69039 0.250388 3.73572 0.250388H3.98372C4.02905 0.250388 4.05172 0.273054 4.05172 0.318388V2.75439C4.05172 2.79972 4.02905 2.82239 3.98372 2.82239H3.76772C3.72505 2.82239 3.69039 2.80105 3.66372 2.75839L2.70372 1.03839H2.68772V2.75439C2.68772 2.79972 2.66505 2.82239 2.61972 2.82239ZM5.99975 2.82239H4.70375C4.65842 2.82239 4.63575 2.79972 4.63575 2.75439V0.318388C4.63575 0.273054 4.65842 0.250388 4.70375 0.250388H4.95575C5.00108 0.250388 5.02375 0.273054 5.02375 0.318388V2.43439C5.02375 2.46105 5.03975 2.47439 5.07175 2.47439H5.99975C6.04508 2.47439 6.06775 2.49839 6.06775 2.54639V2.75439C6.06775 2.79972 6.04508 2.82239 5.99975 2.82239ZM7.28853 2.82239H7.03253C6.9872 2.82239 6.96453 2.79972 6.96453 2.75439V1.87039L6.21653 0.322388C6.20586 0.301054 6.20586 0.283721 6.21653 0.270388C6.2272 0.257054 6.24186 0.250388 6.26053 0.250388H6.58053C6.6152 0.250388 6.64186 0.273054 6.66053 0.318388L7.15253 1.41839H7.17653L7.66053 0.318388C7.67653 0.273054 7.7032 0.250388 7.74053 0.250388H8.06053C8.08186 0.250388 8.09653 0.257054 8.10453 0.270388C8.1152 0.283721 8.1152 0.301054 8.10453 0.322388L7.35653 1.87039V2.75439C7.35653 2.79972 7.33386 2.82239 7.28853 2.82239ZM10.4649 2.82239H10.0009C9.80357 2.82239 9.65024 2.76772 9.54091 2.65839C9.43424 2.54905 9.38091 2.39705 9.38091 2.20239V0.870388C9.38091 0.673054 9.43424 0.521054 9.54091 0.414387C9.65024 0.305054 9.80357 0.250388 10.0009 0.250388H10.4649C10.6596 0.250388 10.8116 0.305054 10.9209 0.414387C11.0302 0.521054 11.0849 0.673054 11.0849 0.870388V1.06239C11.0849 1.11039 11.0609 1.13439 11.0129 1.13439H10.7609C10.7156 1.13439 10.6929 1.11039 10.6929 1.06239V0.886388C10.6929 0.689054 10.5969 0.590388 10.4049 0.590388H10.0569C9.86491 0.590388 9.76891 0.689054 9.76891 0.886388V2.18639C9.76891 2.38372 9.86491 2.48239 10.0569 2.48239H10.4049C10.5969 2.48239 10.6929 2.38372 10.6929 2.18639V2.01039C10.6929 1.96239 10.7156 1.93839 10.7609 1.93839H11.0129C11.0609 1.93839 11.0849 1.96239 11.0849 2.01039V2.20239C11.0849 2.39705 11.0302 2.54905 10.9209 2.65839C10.8116 2.76772 10.6596 2.82239 10.4649 2.82239ZM12.6251 2.82239H12.1611C11.9637 2.82239 11.8104 2.76772 11.7011 2.65839C11.5944 2.54905 11.5411 2.39705 11.5411 2.20239V0.870388C11.5411 0.673054 11.5944 0.521054 11.7011 0.414387C11.8104 0.305054 11.9637 0.250388 12.1611 0.250388H12.6251C12.8197 0.250388 12.9717 0.305054 13.0811 0.414387C13.1904 0.521054 13.2451 0.673054 13.2451 0.870388V1.06239C13.2451 1.11039 13.2211 1.13439 13.1731 1.13439H12.9211C12.8757 1.13439 12.8531 1.11039 12.8531 1.06239V0.886388C12.8531 0.689054 12.7571 0.590388 12.5651 0.590388H12.2171C12.0251 0.590388 11.9291 0.689054 11.9291 0.886388V2.18639C11.9291 2.38372 12.0251 2.48239 12.2171 2.48239H12.5651C12.7571 2.48239 12.8531 2.38372 12.8531 2.18639V2.01039C12.8531 1.96239 12.8757 1.93839 12.9211 1.93839H13.1731C13.2211 1.93839 13.2451 1.96239 13.2451 2.01039V2.20239C13.2451 2.39705 13.1904 2.54905 13.0811 2.65839C12.9717 2.76772 12.8197 2.82239 12.6251 2.82239ZM14.3332 1.37039H14.5532C14.7506 1.37039 14.8492 1.27305 14.8492 1.07839V0.870388C14.8492 0.678388 14.7506 0.582388 14.5532 0.582388H14.3172C14.2186 0.582388 14.1452 0.605054 14.0972 0.650388C14.0519 0.695721 14.0292 0.769054 14.0292 0.870388V0.986388C14.0292 1.03172 14.0066 1.05439 13.9612 1.05439H13.7052C13.6599 1.05439 13.6372 1.03172 13.6372 0.986388V0.862388C13.6372 0.667721 13.6919 0.517054 13.8012 0.410388C13.9106 0.303721 14.0639 0.250388 14.2612 0.250388H14.6092C14.8066 0.250388 14.9599 0.303721 15.0692 0.410388C15.1786 0.517054 15.2332 0.667721 15.2332 0.862388V1.08239C15.2332 1.31705 15.1266 1.46639 14.9132 1.53039C15.1266 1.58105 15.2332 1.73039 15.2332 1.97839V2.21039C15.2332 2.40505 15.1786 2.55572 15.0692 2.66239C14.9599 2.76905 14.8066 2.82239 14.6092 2.82239H14.2612C14.0639 2.82239 13.9106 2.76905 13.8012 2.66239C13.6919 2.55572 13.6372 2.40505 13.6372 2.21039V2.07039C13.6372 2.02239 13.6599 1.99839 13.7052 1.99839H13.9612C14.0066 1.99839 14.0292 2.02239 14.0292 2.07039V2.20239C14.0292 2.30105 14.0519 2.37439 14.0972 2.42239C14.1452 2.46772 14.2186 2.49039 14.3172 2.49039H14.5532C14.7506 2.49039 14.8492 2.39439 14.8492 2.20239V1.98239C14.8492 1.78772 14.7506 1.69039 14.5532 1.69039H14.3332C14.2879 1.69039 14.2652 1.66772 14.2652 1.62239V1.44239C14.2652 1.39439 14.2879 1.37039 14.3332 1.37039ZM16.5688 1.46239H16.3208C16.2702 1.46239 16.2275 1.47172 16.1928 1.49039C16.1608 1.50905 16.1395 1.52905 16.1288 1.55039C16.0995 1.61172 16.0635 1.64239 16.0208 1.64239H15.7688C15.7235 1.64239 15.7008 1.61972 15.7008 1.57439V0.318388C15.7008 0.273054 15.7235 0.250388 15.7688 0.250388H17.1248C17.1728 0.250388 17.1968 0.273054 17.1968 0.318388V0.546388C17.1968 0.591721 17.1728 0.614388 17.1248 0.614388H16.0928V1.34239C16.1382 1.21172 16.2502 1.14639 16.4288 1.14639H16.6648C16.8568 1.14639 17.0035 1.19705 17.1048 1.29839C17.2062 1.39705 17.2568 1.54372 17.2568 1.73839V2.20239C17.2568 2.39705 17.2022 2.54905 17.0928 2.65839C16.9835 2.76772 16.8315 2.82239 16.6368 2.82239H16.2968C16.0995 2.82239 15.9462 2.76772 15.8368 2.65839C15.7302 2.54905 15.6768 2.39705 15.6768 2.20239V2.09839C15.6768 2.05039 15.6995 2.02639 15.7448 2.02639H15.9968C16.0422 2.02639 16.0648 2.05039 16.0648 2.09839V2.19839C16.0648 2.39305 16.1608 2.49039 16.3528 2.49039H16.5808C16.7782 2.49039 16.8768 2.39305 16.8768 2.19839V1.79439C16.8768 1.67439 16.8528 1.58905 16.8048 1.53839C16.7595 1.48772 16.6808 1.46239 16.5688 1.46239ZM19.7423 2.82239H19.2783C19.0809 2.82239 18.9276 2.76772 18.8183 2.65839C18.7116 2.54905 18.6583 2.39705 18.6583 2.20239V0.870388C18.6583 0.673054 18.7116 0.521054 18.8183 0.414387C18.9276 0.305054 19.0809 0.250388 19.2783 0.250388H19.7423C19.9369 0.250388 20.0889 0.305054 20.1983 0.414387C20.3076 0.521054 20.3623 0.673054 20.3623 0.870388V1.06239C20.3623 1.11039 20.3383 1.13439 20.2903 1.13439H20.0383C19.9929 1.13439 19.9703 1.11039 19.9703 1.06239V0.886388C19.9703 0.689054 19.8743 0.590388 19.6823 0.590388H19.3343C19.1423 0.590388 19.0463 0.689054 19.0463 0.886388V2.18639C19.0463 2.38372 19.1423 2.48239 19.3343 2.48239H19.6823C19.8743 2.48239 19.9703 2.38372 19.9703 2.18639V2.01039C19.9703 1.96239 19.9929 1.93839 20.0383 1.93839H20.2903C20.3383 1.93839 20.3623 1.96239 20.3623 2.01039V2.20239C20.3623 2.39705 20.3076 2.54905 20.1983 2.65839C20.0889 2.76772 19.9369 2.82239 19.7423 2.82239ZM22.2064 2.82239H20.9264C20.8811 2.82239 20.8584 2.79972 20.8584 2.75439V0.318388C20.8584 0.273054 20.8811 0.250388 20.9264 0.250388H22.2064C22.2491 0.250388 22.2704 0.273054 22.2704 0.318388V0.522388C22.2704 0.567721 22.2491 0.590388 22.2064 0.590388H21.2944C21.2624 0.590388 21.2464 0.603721 21.2464 0.630388V1.30639C21.2464 1.33305 21.2624 1.34639 21.2944 1.34639H22.0664C22.1144 1.34639 22.1384 1.36905 22.1384 1.41439V1.61839C22.1384 1.66372 22.1144 1.68639 22.0664 1.68639H21.2944C21.2624 1.68639 21.2464 1.69972 21.2464 1.72639V2.43839C21.2464 2.46772 21.2624 2.48239 21.2944 2.48239H22.2064C22.2491 2.48239 22.2704 2.50505 22.2704 2.55039V2.75439C22.2704 2.79972 22.2491 2.82239 22.2064 2.82239ZM23.1003 2.82239H22.8483C22.8029 2.82239 22.7803 2.79972 22.7803 2.75439V0.318388C22.7803 0.273054 22.8029 0.250388 22.8483 0.250388H23.7843C23.9789 0.250388 24.1309 0.306388 24.2403 0.418388C24.3523 0.527721 24.4083 0.679721 24.4083 0.874388V1.21039C24.4083 1.51705 24.2816 1.71039 24.0283 1.79039V1.80639L24.4723 2.74239C24.5016 2.79572 24.4843 2.82239 24.4203 2.82239H24.1723C24.1083 2.82239 24.0669 2.79972 24.0483 2.75439L23.6203 1.83439H23.2163C23.1843 1.83439 23.1683 1.84772 23.1683 1.87439V2.75439C23.1683 2.79972 23.1456 2.82239 23.1003 2.82239ZM23.2123 1.51439H23.7203C23.9176 1.51439 24.0163 1.41705 24.0163 1.22239V0.886388C24.0163 0.689054 23.9176 0.590388 23.7203 0.590388H23.2123C23.1829 0.590388 23.1683 0.603721 23.1683 0.630388V1.47439C23.1683 1.50105 23.1829 1.51439 23.2123 1.51439ZM25.6523 2.82239H25.4003C25.3523 2.82239 25.3283 2.79972 25.3283 2.75439V0.630388C25.3283 0.603721 25.3149 0.590388 25.2883 0.590388H24.7843C24.7363 0.590388 24.7123 0.567721 24.7123 0.522388V0.318388C24.7123 0.273054 24.7363 0.250388 24.7843 0.250388H26.2683C26.3163 0.250388 26.3403 0.273054 26.3403 0.318388V0.522388C26.3403 0.567721 26.3163 0.590388 26.2683 0.590388H25.7643C25.7349 0.590388 25.7203 0.603721 25.7203 0.630388V2.75439C25.7203 2.79972 25.6976 2.82239 25.6523 2.82239ZM27.0906 0.318388V2.75439C27.0906 2.79972 27.068 2.82239 27.0226 2.82239H26.7706C26.7253 2.82239 26.7026 2.79972 26.7026 2.75439V0.318388C26.7026 0.273054 26.7253 0.250388 26.7706 0.250388H27.0226C27.068 0.250388 27.0906 0.273054 27.0906 0.318388ZM28.0143 2.82239H27.7623C27.717 2.82239 27.6943 2.79972 27.6943 2.75439V0.318388C27.6943 0.273054 27.717 0.250388 27.7623 0.250388H29.0183C29.0637 0.250388 29.0863 0.273054 29.0863 0.318388V0.522388C29.0863 0.567721 29.0637 0.590388 29.0183 0.590388H28.1303C28.0983 0.590388 28.0823 0.603721 28.0823 0.630388V1.38639C28.0823 1.41572 28.0983 1.43039 28.1303 1.43039H28.9023C28.9503 1.43039 28.9743 1.45305 28.9743 1.49839V1.69839C28.9743 1.74639 28.9503 1.77039 28.9023 1.77039H28.1303C28.0983 1.77039 28.0823 1.78372 28.0823 1.81039V2.75439C28.0823 2.79972 28.0597 2.82239 28.0143 2.82239ZM29.9188 0.318388V2.75439C29.9188 2.79972 29.8961 2.82239 29.8508 2.82239H29.5988C29.5534 2.82239 29.5308 2.79972 29.5308 2.75439V0.318388C29.5308 0.273054 29.5534 0.250388 29.5988 0.250388H29.8508C29.8961 0.250388 29.9188 0.273054 29.9188 0.318388ZM31.8705 2.82239H30.5905C30.5451 2.82239 30.5225 2.79972 30.5225 2.75439V0.318388C30.5225 0.273054 30.5451 0.250388 30.5905 0.250388H31.8705C31.9131 0.250388 31.9345 0.273054 31.9345 0.318388V0.522388C31.9345 0.567721 31.9131 0.590388 31.8705 0.590388H30.9585C30.9265 0.590388 30.9105 0.603721 30.9105 0.630388V1.30639C30.9105 1.33305 30.9265 1.34639 30.9585 1.34639H31.7305C31.7785 1.34639 31.8025 1.36905 31.8025 1.41439V1.61839C31.8025 1.66372 31.7785 1.68639 31.7305 1.68639H30.9585C30.9265 1.68639 30.9105 1.69972 30.9105 1.72639V2.43839C30.9105 2.46772 30.9265 2.48239 30.9585 2.48239H31.8705C31.9131 2.48239 31.9345 2.50505 31.9345 2.55039V2.75439C31.9345 2.79972 31.9131 2.82239 31.8705 2.82239ZM32.8763 2.48239H33.4403C33.6323 2.48239 33.7283 2.38372 33.7283 2.18639V0.886388C33.7283 0.689054 33.6323 0.590388 33.4403 0.590388H32.8763C32.847 0.590388 32.8323 0.603721 32.8323 0.630388V2.43839C32.8323 2.46772 32.847 2.48239 32.8763 2.48239ZM32.4443 2.75439V0.318388C32.4443 0.273054 32.467 0.250388 32.5123 0.250388H33.4963C33.691 0.250388 33.843 0.305054 33.9523 0.414387C34.0643 0.521054 34.1203 0.673054 34.1203 0.870388V2.20239C34.1203 2.39705 34.0643 2.54905 33.9523 2.65839C33.843 2.76772 33.691 2.82239 33.4963 2.82239H32.5123C32.467 2.82239 32.4443 2.79972 32.4443 2.75439ZM35.7562 2.82239H35.4682C35.4309 2.82239 35.4176 2.79972 35.4282 2.75439L36.1242 0.318388C36.1376 0.273054 36.1696 0.250388 36.2202 0.250388H36.6202C36.6736 0.250388 36.7056 0.273054 36.7162 0.318388L37.4122 2.75439C37.4229 2.79972 37.4082 2.82239 37.3682 2.82239H37.0842C37.0602 2.82239 37.0429 2.81839 37.0322 2.81039C37.0242 2.79972 37.0176 2.78105 37.0122 2.75439L36.8602 2.23439H35.9802L35.8282 2.75439C35.8176 2.79972 35.7936 2.82239 35.7562 2.82239ZM36.4122 0.634387L36.0602 1.91439H36.7842L36.4282 0.634387H36.4122ZM38.1236 2.82239H37.8756C37.8303 2.82239 37.8076 2.79972 37.8076 2.75439V0.318388C37.8076 0.273054 37.8303 0.250388 37.8756 0.250388H38.0996C38.1423 0.250388 38.1716 0.265054 38.1876 0.294388L39.1556 2.03439H39.1716V0.318388C39.1716 0.273054 39.1943 0.250388 39.2396 0.250388H39.4876C39.533 0.250388 39.5556 0.273054 39.5556 0.318388V2.75439C39.5556 2.79972 39.533 2.82239 39.4876 2.82239H39.2716C39.229 2.82239 39.1943 2.80105 39.1676 2.75839L38.2076 1.03839H38.1916V2.75439C38.1916 2.79972 38.169 2.82239 38.1236 2.82239ZM40.5717 2.48239H41.1357C41.3277 2.48239 41.4237 2.38372 41.4237 2.18639V0.886388C41.4237 0.689054 41.3277 0.590388 41.1357 0.590388H40.5717C40.5423 0.590388 40.5277 0.603721 40.5277 0.630388V2.43839C40.5277 2.46772 40.5423 2.48239 40.5717 2.48239ZM40.1397 2.75439V0.318388C40.1397 0.273054 40.1623 0.250388 40.2077 0.250388H41.1917C41.3863 0.250388 41.5383 0.305054 41.6477 0.414387C41.7597 0.521054 41.8157 0.673054 41.8157 0.870388V2.20239C41.8157 2.39705 41.7597 2.54905 41.6477 2.65839C41.5383 2.76772 41.3863 2.82239 41.1917 2.82239H40.2077C40.1623 2.82239 40.1397 2.79972 40.1397 2.75439ZM43.7435 2.48239H44.3075C44.4995 2.48239 44.5955 2.38372 44.5955 2.18639V0.886388C44.5955 0.689054 44.4995 0.590388 44.3075 0.590388H43.7435C43.7142 0.590388 43.6995 0.603721 43.6995 0.630388V2.43839C43.6995 2.46772 43.7142 2.48239 43.7435 2.48239ZM43.3115 2.75439V0.318388C43.3115 0.273054 43.3342 0.250388 43.3795 0.250388H44.3635C44.5582 0.250388 44.7102 0.305054 44.8195 0.414387C44.9315 0.521054 44.9875 0.673054 44.9875 0.870388V2.20239C44.9875 2.39705 44.9315 2.54905 44.8195 2.65839C44.7102 2.76772 44.5582 2.82239 44.3635 2.82239H43.3795C43.3342 2.82239 43.3115 2.79972 43.3115 2.75439ZM45.8503 2.82239H45.5983C45.5529 2.82239 45.5303 2.79972 45.5303 2.75439V0.318388C45.5303 0.273054 45.5529 0.250388 45.5983 0.250388H45.8503C45.8956 0.250388 45.9183 0.273054 45.9183 0.318388V1.31839C45.9183 1.34505 45.9343 1.35839 45.9663 1.35839H46.8103C46.8369 1.35839 46.8503 1.34505 46.8503 1.31839V0.318388C46.8503 0.273054 46.8729 0.250388 46.9183 0.250388H47.1743C47.2196 0.250388 47.2423 0.273054 47.2423 0.318388V2.75439C47.2423 2.79972 47.2196 2.82239 47.1743 2.82239H46.9183C46.8729 2.82239 46.8503 2.79972 46.8503 2.75439V1.74239C46.8503 1.71572 46.8369 1.70239 46.8103 1.70239H45.9663C45.9343 1.70239 45.9183 1.71572 45.9183 1.74239V2.75439C45.9183 2.79972 45.8956 2.82239 45.8503 2.82239ZM47.7792 2.19839V2.09439C47.7792 2.04905 47.8018 2.02639 47.8472 2.02639H48.1032C48.1485 2.02639 48.1712 2.04905 48.1712 2.09439V2.16639C48.1712 2.27839 48.1952 2.35972 48.2432 2.41039C48.2938 2.45839 48.3765 2.48239 48.4912 2.48239H48.7672C48.8818 2.48239 48.9645 2.45705 49.0152 2.40639C49.0658 2.35305 49.0912 2.26772 49.0912 2.15039V2.05839C49.0912 1.97305 49.0578 1.90639 48.9912 1.85839C48.9272 1.80772 48.8472 1.77572 48.7512 1.76239C48.6552 1.74639 48.5498 1.72505 48.4352 1.69839C48.3205 1.67172 48.2152 1.64105 48.1192 1.60639C48.0232 1.57172 47.9418 1.50639 47.8752 1.41039C47.8112 1.31439 47.7792 1.19172 47.7792 1.04239V0.874388C47.7792 0.679721 47.8338 0.527721 47.9432 0.418388C48.0552 0.306388 48.2085 0.250388 48.4032 0.250388H48.8272C49.0245 0.250388 49.1778 0.306388 49.2872 0.418388C49.3992 0.527721 49.4552 0.679721 49.4552 0.874388V0.962388C49.4552 1.00772 49.4325 1.03039 49.3872 1.03039H49.1312C49.0858 1.03039 49.0632 1.00772 49.0632 0.962388V0.910388C49.0632 0.795721 49.0378 0.714388 48.9872 0.666388C48.9392 0.615721 48.8578 0.590388 48.7432 0.590388H48.4912C48.3765 0.590388 48.2938 0.617054 48.2432 0.670388C48.1952 0.721054 48.1712 0.809054 48.1712 0.934388V1.05839C48.1712 1.17839 48.2578 1.25972 48.4312 1.30239C48.5085 1.32105 48.5925 1.33705 48.6832 1.35039C48.7765 1.36372 48.8698 1.38372 48.9632 1.41039C49.0565 1.43705 49.1418 1.47305 49.2192 1.51839C49.2965 1.56105 49.3592 1.62772 49.4072 1.71839C49.4552 1.80639 49.4792 1.91439 49.4792 2.04239V2.19839C49.4792 2.39305 49.4232 2.54639 49.3112 2.65839C49.2018 2.76772 49.0498 2.82239 48.8552 2.82239H48.4072C48.2125 2.82239 48.0592 2.76772 47.9472 2.65839C47.8352 2.54639 47.7792 2.39305 47.7792 2.19839ZM50.3386 2.82239H50.0866C50.0412 2.82239 50.0186 2.79972 50.0186 2.75439V0.318388C50.0186 0.273054 50.0412 0.250388 50.0866 0.250388H51.3426C51.3879 0.250388 51.4106 0.273054 51.4106 0.318388V0.522388C51.4106 0.567721 51.3879 0.590388 51.3426 0.590388H50.4546C50.4226 0.590388 50.4066 0.603721 50.4066 0.630388V1.38639C50.4066 1.41572 50.4226 1.43039 50.4546 1.43039H51.2266C51.2746 1.43039 51.2986 1.45305 51.2986 1.49839V1.69839C51.2986 1.74639 51.2746 1.77039 51.2266 1.77039H50.4546C50.4226 1.77039 50.4066 1.78372 50.4066 1.81039V2.75439C50.4066 2.79972 50.3839 2.82239 50.3386 2.82239ZM53.6001 1.46239H53.3521C53.3014 1.46239 53.2588 1.47172 53.2241 1.49039C53.1921 1.50905 53.1708 1.52905 53.1601 1.55039C53.1308 1.61172 53.0948 1.64239 53.0521 1.64239H52.8001C52.7548 1.64239 52.7321 1.61972 52.7321 1.57439V0.318388C52.7321 0.273054 52.7548 0.250388 52.8001 0.250388H54.1561C54.2041 0.250388 54.2281 0.273054 54.2281 0.318388V0.546388C54.2281 0.591721 54.2041 0.614388 54.1561 0.614388H53.1241V1.34239C53.1694 1.21172 53.2814 1.14639 53.4601 1.14639H53.6961C53.8881 1.14639 54.0348 1.19705 54.1361 1.29839C54.2374 1.39705 54.2881 1.54372 54.2881 1.73839V2.20239C54.2881 2.39705 54.2334 2.54905 54.1241 2.65839C54.0148 2.76772 53.8628 2.82239 53.6681 2.82239H53.3281C53.1308 2.82239 52.9774 2.76772 52.8681 2.65839C52.7614 2.54905 52.7081 2.39705 52.7081 2.20239V2.09839C52.7081 2.05039 52.7308 2.02639 52.7761 2.02639H53.0281C53.0734 2.02639 53.0961 2.05039 53.0961 2.09839V2.19839C53.0961 2.39305 53.1921 2.49039 53.3841 2.49039H53.6121C53.8094 2.49039 53.9081 2.39305 53.9081 2.19839V1.79439C53.9081 1.67439 53.8841 1.58905 53.8361 1.53839C53.7908 1.48772 53.7121 1.46239 53.6001 1.46239ZM55.4804 2.82239H55.2284C55.1804 2.82239 55.1564 2.79972 55.1564 2.75439V0.630388C55.1564 0.603721 55.143 0.590388 55.1164 0.590388H54.6124C54.5644 0.590388 54.5404 0.567721 54.5404 0.522388V0.318388C54.5404 0.273054 54.5644 0.250388 54.6124 0.250388H56.0964C56.1444 0.250388 56.1684 0.273054 56.1684 0.318388V0.522388C56.1684 0.567721 56.1444 0.590388 56.0964 0.590388H55.5924C55.563 0.590388 55.5484 0.603721 55.5484 0.630388V2.75439C55.5484 2.79972 55.5257 2.82239 55.4804 2.82239ZM56.8308 2.82239H56.5788C56.5334 2.82239 56.5108 2.79972 56.5108 2.75439V0.318388C56.5108 0.273054 56.5334 0.250388 56.5788 0.250388H56.8308C56.8761 0.250388 56.8988 0.273054 56.8988 0.318388V1.31839C56.8988 1.34505 56.9148 1.35839 56.9468 1.35839H57.7908C57.8174 1.35839 57.8308 1.34505 57.8308 1.31839V0.318388C57.8308 0.273054 57.8534 0.250388 57.8988 0.250388H58.1548C58.2001 0.250388 58.2228 0.273054 58.2228 0.318388V2.75439C58.2228 2.79972 58.2001 2.82239 58.1548 2.82239H57.8988C57.8534 2.82239 57.8308 2.79972 57.8308 2.75439V1.74239C57.8308 1.71572 57.8174 1.70239 57.7908 1.70239H56.9468C56.9148 1.70239 56.8988 1.71572 56.8988 1.74239V2.75439C56.8988 2.79972 56.8761 2.82239 56.8308 2.82239ZM60.8048 2.82239H60.3408C60.1434 2.82239 59.9901 2.76772 59.8808 2.65839C59.7741 2.54905 59.7208 2.39705 59.7208 2.20239V0.870388C59.7208 0.673054 59.7741 0.521054 59.8808 0.414387C59.9901 0.305054 60.1434 0.250388 60.3408 0.250388H60.8048C60.9994 0.250388 61.1514 0.305054 61.2608 0.414387C61.3701 0.521054 61.4248 0.673054 61.4248 0.870388V1.06239C61.4248 1.11039 61.4008 1.13439 61.3528 1.13439H61.1008C61.0554 1.13439 61.0328 1.11039 61.0328 1.06239V0.886388C61.0328 0.689054 60.9368 0.590388 60.7448 0.590388H60.3968C60.2048 0.590388 60.1088 0.689054 60.1088 0.886388V2.18639C60.1088 2.38372 60.2048 2.48239 60.3968 2.48239H60.7448C60.9368 2.48239 61.0328 2.38372 61.0328 2.18639V2.01039C61.0328 1.96239 61.0554 1.93839 61.1008 1.93839H61.3528C61.4008 1.93839 61.4248 1.96239 61.4248 2.01039V2.20239C61.4248 2.39705 61.3701 2.54905 61.2608 2.65839C61.1514 2.76772 60.9994 2.82239 60.8048 2.82239ZM63.2849 2.82239H61.9889C61.9436 2.82239 61.9209 2.79972 61.9209 2.75439V0.318388C61.9209 0.273054 61.9436 0.250388 61.9889 0.250388H62.2409C62.2862 0.250388 62.3089 0.273054 62.3089 0.318388V2.43439C62.3089 2.46105 62.3249 2.47439 62.3569 2.47439H63.2849C63.3302 2.47439 63.3529 2.49839 63.3529 2.54639V2.75439C63.3529 2.79972 63.3302 2.82239 63.2849 2.82239ZM63.8617 2.82239H63.5737C63.5364 2.82239 63.523 2.79972 63.5337 2.75439L64.2297 0.318388C64.243 0.273054 64.275 0.250388 64.3257 0.250388H64.7257C64.779 0.250388 64.811 0.273054 64.8217 0.318388L65.5177 2.75439C65.5284 2.79972 65.5137 2.82239 65.4737 2.82239H65.1897C65.1657 2.82239 65.1484 2.81839 65.1377 2.81039C65.1297 2.79972 65.123 2.78105 65.1177 2.75439L64.9657 2.23439H64.0857L63.9337 2.75439C63.923 2.79972 63.899 2.82239 63.8617 2.82239ZM64.5177 0.634387L64.1657 1.91439H64.8897L64.5337 0.634387H64.5177ZM65.8651 2.19839V2.09439C65.8651 2.04905 65.8878 2.02639 65.9331 2.02639H66.1891C66.2344 2.02639 66.2571 2.04905 66.2571 2.09439V2.16639C66.2571 2.27839 66.2811 2.35972 66.3291 2.41039C66.3798 2.45839 66.4624 2.48239 66.5771 2.48239H66.8531C66.9678 2.48239 67.0504 2.45705 67.1011 2.40639C67.1518 2.35305 67.1771 2.26772 67.1771 2.15039V2.05839C67.1771 1.97305 67.1438 1.90639 67.0771 1.85839C67.0131 1.80772 66.9331 1.77572 66.8371 1.76239C66.7411 1.74639 66.6358 1.72505 66.5211 1.69839C66.4064 1.67172 66.3011 1.64105 66.2051 1.60639C66.1091 1.57172 66.0278 1.50639 65.9611 1.41039C65.8971 1.31439 65.8651 1.19172 65.8651 1.04239V0.874388C65.8651 0.679721 65.9198 0.527721 66.0291 0.418388C66.1411 0.306388 66.2944 0.250388 66.4891 0.250388H66.9131C67.1104 0.250388 67.2638 0.306388 67.3731 0.418388C67.4851 0.527721 67.5411 0.679721 67.5411 0.874388V0.962388C67.5411 1.00772 67.5184 1.03039 67.4731 1.03039H67.2171C67.1718 1.03039 67.1491 1.00772 67.1491 0.962388V0.910388C67.1491 0.795721 67.1238 0.714388 67.0731 0.666388C67.0251 0.615721 66.9438 0.590388 66.8291 0.590388H66.5771C66.4624 0.590388 66.3798 0.617054 66.3291 0.670388C66.2811 0.721054 66.2571 0.809054 66.2571 0.934388V1.05839C66.2571 1.17839 66.3438 1.25972 66.5171 1.30239C66.5944 1.32105 66.6784 1.33705 66.7691 1.35039C66.8624 1.36372 66.9558 1.38372 67.0491 1.41039C67.1424 1.43705 67.2278 1.47305 67.3051 1.51839C67.3824 1.56105 67.4451 1.62772 67.4931 1.71839C67.5411 1.80639 67.5651 1.91439 67.5651 2.04239V2.19839C67.5651 2.39305 67.5091 2.54639 67.3971 2.65839C67.2878 2.76772 67.1358 2.82239 66.9411 2.82239H66.4931C66.2984 2.82239 66.1451 2.76772 66.0331 2.65839C65.9211 2.54639 65.8651 2.39305 65.8651 2.19839ZM68.0565 2.19839V2.09439C68.0565 2.04905 68.0792 2.02639 68.1245 2.02639H68.3805C68.4258 2.02639 68.4485 2.04905 68.4485 2.09439V2.16639C68.4485 2.27839 68.4725 2.35972 68.5205 2.41039C68.5712 2.45839 68.6538 2.48239 68.7685 2.48239H69.0445C69.1592 2.48239 69.2418 2.45705 69.2925 2.40639C69.3432 2.35305 69.3685 2.26772 69.3685 2.15039V2.05839C69.3685 1.97305 69.3352 1.90639 69.2685 1.85839C69.2045 1.80772 69.1245 1.77572 69.0285 1.76239C68.9325 1.74639 68.8272 1.72505 68.7125 1.69839C68.5978 1.67172 68.4925 1.64105 68.3965 1.60639C68.3005 1.57172 68.2192 1.50639 68.1525 1.41039C68.0885 1.31439 68.0565 1.19172 68.0565 1.04239V0.874388C68.0565 0.679721 68.1112 0.527721 68.2205 0.418388C68.3325 0.306388 68.4858 0.250388 68.6805 0.250388H69.1045C69.3018 0.250388 69.4552 0.306388 69.5645 0.418388C69.6765 0.527721 69.7325 0.679721 69.7325 0.874388V0.962388C69.7325 1.00772 69.7098 1.03039 69.6645 1.03039H69.4085C69.3632 1.03039 69.3405 1.00772 69.3405 0.962388V0.910388C69.3405 0.795721 69.3152 0.714388 69.2645 0.666388C69.2165 0.615721 69.1352 0.590388 69.0205 0.590388H68.7685C68.6538 0.590388 68.5712 0.617054 68.5205 0.670388C68.4725 0.721054 68.4485 0.809054 68.4485 0.934388V1.05839C68.4485 1.17839 68.5352 1.25972 68.7085 1.30239C68.7858 1.32105 68.8698 1.33705 68.9605 1.35039C69.0538 1.36372 69.1472 1.38372 69.2405 1.41039C69.3338 1.43705 69.4192 1.47305 69.4965 1.51839C69.5738 1.56105 69.6365 1.62772 69.6845 1.71839C69.7325 1.80639 69.7565 1.91439 69.7565 2.04239V2.19839C69.7565 2.39305 69.7005 2.54639 69.5885 2.65839C69.4792 2.76772 69.3272 2.82239 69.1325 2.82239H68.6845C68.4898 2.82239 68.3365 2.76772 68.2245 2.65839C68.1125 2.54639 68.0565 2.39305 68.0565 2.19839ZM71.885 2.48239H72.233C72.4277 2.48239 72.525 2.38372 72.525 2.18639V0.886388C72.525 0.689054 72.4277 0.590388 72.233 0.590388H71.885C71.693 0.590388 71.597 0.689054 71.597 0.886388V2.18639C71.597 2.38372 71.693 2.48239 71.885 2.48239ZM72.293 2.82239H71.829C71.6317 2.82239 71.4784 2.76772 71.369 2.65839C71.2624 2.54905 71.209 2.39705 71.209 2.20239V0.870388C71.209 0.673054 71.2624 0.521054 71.369 0.414387C71.4784 0.305054 71.6317 0.250388 71.829 0.250388H72.293C72.4904 0.250388 72.6437 0.305054 72.753 0.414387C72.8624 0.521054 72.917 0.673054 72.917 0.870388V2.20239C72.917 2.39705 72.8624 2.54905 72.753 2.65839C72.6437 2.76772 72.4904 2.82239 72.293 2.82239ZM73.7761 2.82239H73.5241C73.4787 2.82239 73.4561 2.79972 73.4561 2.75439V0.318388C73.4561 0.273054 73.4787 0.250388 73.5241 0.250388H74.7801C74.8254 0.250388 74.8481 0.273054 74.8481 0.318388V0.522388C74.8481 0.567721 74.8254 0.590388 74.7801 0.590388H73.8921C73.8601 0.590388 73.8441 0.603721 73.8441 0.630388V1.38639C73.8441 1.41572 73.8601 1.43039 73.8921 1.43039H74.6641C74.7121 1.43039 74.7361 1.45305 74.7361 1.49839V1.69839C74.7361 1.74639 74.7121 1.77039 74.6641 1.77039H73.8921C73.8601 1.77039 73.8441 1.78372 73.8441 1.81039V2.75439C73.8441 2.79972 73.8214 2.82239 73.7761 2.82239ZM75.5925 2.82239H75.3405C75.2951 2.82239 75.2725 2.79972 75.2725 2.75439V0.318388C75.2725 0.273054 75.2951 0.250388 75.3405 0.250388H76.5965C76.6418 0.250388 76.6645 0.273054 76.6645 0.318388V0.522388C76.6645 0.567721 76.6418 0.590388 76.5965 0.590388H75.7085C75.6765 0.590388 75.6605 0.603721 75.6605 0.630388V1.38639C75.6605 1.41572 75.6765 1.43039 75.7085 1.43039H76.4805C76.5285 1.43039 76.5525 1.45305 76.5525 1.49839V1.69839C76.5525 1.74639 76.5285 1.77039 76.4805 1.77039H75.7085C75.6765 1.77039 75.6605 1.78372 75.6605 1.81039V2.75439C75.6605 2.79972 75.6378 2.82239 75.5925 2.82239ZM77.4969 0.318388V2.75439C77.4969 2.79972 77.4742 2.82239 77.4289 2.82239H77.1769C77.1315 2.82239 77.1089 2.79972 77.1089 2.75439V0.318388C77.1089 0.273054 77.1315 0.250388 77.1769 0.250388H77.4289C77.4742 0.250388 77.4969 0.273054 77.4969 0.318388ZM79.1446 2.82239H78.6806C78.4833 2.82239 78.3299 2.76772 78.2206 2.65839C78.1139 2.54905 78.0606 2.39705 78.0606 2.20239V0.870388C78.0606 0.673054 78.1139 0.521054 78.2206 0.414387C78.3299 0.305054 78.4833 0.250388 78.6806 0.250388H79.1446C79.3393 0.250388 79.4913 0.305054 79.6006 0.414387C79.7099 0.521054 79.7646 0.673054 79.7646 0.870388V1.06239C79.7646 1.11039 79.7406 1.13439 79.6926 1.13439H79.4406C79.3953 1.13439 79.3726 1.11039 79.3726 1.06239V0.886388C79.3726 0.689054 79.2766 0.590388 79.0846 0.590388H78.7366C78.5446 0.590388 78.4486 0.689054 78.4486 0.886388V2.18639C78.4486 2.38372 78.5446 2.48239 78.7366 2.48239H79.0846C79.2766 2.48239 79.3726 2.38372 79.3726 2.18639V2.01039C79.3726 1.96239 79.3953 1.93839 79.4406 1.93839H79.6926C79.7406 1.93839 79.7646 1.96239 79.7646 2.01039V2.20239C79.7646 2.39705 79.7099 2.54905 79.6006 2.65839C79.4913 2.76772 79.3393 2.82239 79.1446 2.82239ZM81.6088 2.82239H80.3288C80.2834 2.82239 80.2608 2.79972 80.2608 2.75439V0.318388C80.2608 0.273054 80.2834 0.250388 80.3288 0.250388H81.6088C81.6514 0.250388 81.6728 0.273054 81.6728 0.318388V0.522388C81.6728 0.567721 81.6514 0.590388 81.6088 0.590388H80.6968C80.6648 0.590388 80.6488 0.603721 80.6488 0.630388V1.30639C80.6488 1.33305 80.6648 1.34639 80.6968 1.34639H81.4688C81.5168 1.34639 81.5408 1.36905 81.5408 1.41439V1.61839C81.5408 1.66372 81.5168 1.68639 81.4688 1.68639H80.6968C80.6648 1.68639 80.6488 1.69972 80.6488 1.72639V2.43839C80.6488 2.46772 80.6648 2.48239 80.6968 2.48239H81.6088C81.6514 2.48239 81.6728 2.50505 81.6728 2.55039V2.75439C81.6728 2.79972 81.6514 2.82239 81.6088 2.82239ZM82.5026 2.82239H82.2506C82.2053 2.82239 82.1826 2.79972 82.1826 2.75439V0.318388C82.1826 0.273054 82.2053 0.250388 82.2506 0.250388H83.1866C83.3813 0.250388 83.5333 0.306388 83.6426 0.418388C83.7546 0.527721 83.8106 0.679721 83.8106 0.874388V1.21039C83.8106 1.51705 83.684 1.71039 83.4306 1.79039V1.80639L83.8746 2.74239C83.904 2.79572 83.8866 2.82239 83.8226 2.82239H83.5746C83.5106 2.82239 83.4693 2.79972 83.4506 2.75439L83.0226 1.83439H82.6186C82.5866 1.83439 82.5706 1.84772 82.5706 1.87439V2.75439C82.5706 2.79972 82.548 2.82239 82.5026 2.82239ZM82.6146 1.51439H83.1226C83.32 1.51439 83.4186 1.41705 83.4186 1.22239V0.886388C83.4186 0.689054 83.32 0.590388 83.1226 0.590388H82.6146C82.5853 0.590388 82.5706 0.603721 82.5706 0.630388V1.47439C82.5706 1.50105 82.5853 1.51439 82.6146 1.51439ZM84.3026 2.19839V2.09439C84.3026 2.04905 84.3253 2.02639 84.3706 2.02639H84.6266C84.6719 2.02639 84.6946 2.04905 84.6946 2.09439V2.16639C84.6946 2.27839 84.7186 2.35972 84.7666 2.41039C84.8173 2.45839 84.8999 2.48239 85.0146 2.48239H85.2906C85.4053 2.48239 85.4879 2.45705 85.5386 2.40639C85.5893 2.35305 85.6146 2.26772 85.6146 2.15039V2.05839C85.6146 1.97305 85.5813 1.90639 85.5146 1.85839C85.4506 1.80772 85.3706 1.77572 85.2746 1.76239C85.1786 1.74639 85.0733 1.72505 84.9586 1.69839C84.8439 1.67172 84.7386 1.64105 84.6426 1.60639C84.5466 1.57172 84.4653 1.50639 84.3986 1.41039C84.3346 1.31439 84.3026 1.19172 84.3026 1.04239V0.874388C84.3026 0.679721 84.3573 0.527721 84.4666 0.418388C84.5786 0.306388 84.7319 0.250388 84.9266 0.250388H85.3506C85.5479 0.250388 85.7013 0.306388 85.8106 0.418388C85.9226 0.527721 85.9786 0.679721 85.9786 0.874388V0.962388C85.9786 1.00772 85.9559 1.03039 85.9106 1.03039H85.6546C85.6093 1.03039 85.5866 1.00772 85.5866 0.962388V0.910388C85.5866 0.795721 85.5613 0.714388 85.5106 0.666388C85.4626 0.615721 85.3813 0.590388 85.2666 0.590388H85.0146C84.8999 0.590388 84.8173 0.617054 84.7666 0.670388C84.7186 0.721054 84.6946 0.809054 84.6946 0.934388V1.05839C84.6946 1.17839 84.7813 1.25972 84.9546 1.30239C85.0319 1.32105 85.1159 1.33705 85.2066 1.35039C85.2999 1.36372 85.3933 1.38372 85.4866 1.41039C85.5799 1.43705 85.6653 1.47305 85.7426 1.51839C85.8199 1.56105 85.8826 1.62772 85.9306 1.71839C85.9786 1.80639 86.0026 1.91439 86.0026 2.04239V2.19839C86.0026 2.39305 85.9466 2.54639 85.8346 2.65839C85.7253 2.76772 85.5733 2.82239 85.3786 2.82239H84.9306C84.7359 2.82239 84.5826 2.76772 84.4706 2.65839C84.3586 2.54639 84.3026 2.39305 84.3026 2.19839ZM87.6351 2.82239H87.3471C87.3098 2.82239 87.2965 2.79972 87.3071 2.75439L88.0031 0.318388C88.0165 0.273054 88.0485 0.250388 88.0991 0.250388H88.4991C88.5525 0.250388 88.5845 0.273054 88.5951 0.318388L89.2911 2.75439C89.3018 2.79972 89.2871 2.82239 89.2471 2.82239H88.9631C88.9391 2.82239 88.9218 2.81839 88.9111 2.81039C88.9031 2.79972 88.8965 2.78105 88.8911 2.75439L88.7391 2.23439H87.8591L87.7071 2.75439C87.6965 2.79972 87.6725 2.82239 87.6351 2.82239ZM88.2911 0.634387L87.9391 1.91439H88.6631L88.3071 0.634387H88.2911ZM90.0065 2.82239H89.7545C89.7092 2.82239 89.6865 2.79972 89.6865 2.75439V0.318388C89.6865 0.273054 89.7092 0.250388 89.7545 0.250388H90.6905C90.8852 0.250388 91.0372 0.306388 91.1465 0.418388C91.2585 0.527721 91.3145 0.679721 91.3145 0.874388V1.21039C91.3145 1.51705 91.1879 1.71039 90.9345 1.79039V1.80639L91.3785 2.74239C91.4079 2.79572 91.3905 2.82239 91.3265 2.82239H91.0785C91.0145 2.82239 90.9732 2.79972 90.9545 2.75439L90.5265 1.83439H90.1225C90.0905 1.83439 90.0745 1.84772 90.0745 1.87439V2.75439C90.0745 2.79972 90.0519 2.82239 90.0065 2.82239ZM90.1185 1.51439H90.6265C90.8239 1.51439 90.9225 1.41705 90.9225 1.22239V0.886388C90.9225 0.689054 90.8239 0.590388 90.6265 0.590388H90.1185C90.0892 0.590388 90.0745 0.603721 90.0745 0.630388V1.47439C90.0745 1.50105 90.0892 1.51439 90.1185 1.51439ZM93.2025 2.82239H91.9225C91.8772 2.82239 91.8545 2.79972 91.8545 2.75439V0.318388C91.8545 0.273054 91.8772 0.250388 91.9225 0.250388H93.2025C93.2452 0.250388 93.2665 0.273054 93.2665 0.318388V0.522388C93.2665 0.567721 93.2452 0.590388 93.2025 0.590388H92.2905C92.2585 0.590388 92.2425 0.603721 92.2425 0.630388V1.30639C92.2425 1.33305 92.2585 1.34639 92.2905 1.34639H93.0625C93.1105 1.34639 93.1345 1.36905 93.1345 1.41439V1.61839C93.1345 1.66372 93.1105 1.68639 93.0625 1.68639H92.2905C92.2585 1.68639 92.2425 1.69972 92.2425 1.72639V2.43839C92.2425 2.46772 92.2585 2.48239 92.2905 2.48239H93.2025C93.2452 2.48239 93.2665 2.50505 93.2665 2.55039V2.75439C93.2665 2.79972 93.2452 2.82239 93.2025 2.82239ZM94.8695 2.82239H94.5815C94.5442 2.82239 94.5308 2.79972 94.5415 2.75439L95.2375 0.318388C95.2508 0.273054 95.2828 0.250388 95.3335 0.250388H95.7335C95.7868 0.250388 95.8188 0.273054 95.8295 0.318388L96.5255 2.75439C96.5362 2.79972 96.5215 2.82239 96.4815 2.82239H96.1975C96.1735 2.82239 96.1562 2.81839 96.1455 2.81039C96.1375 2.79972 96.1308 2.78105 96.1255 2.75439L95.9735 2.23439H95.0935L94.9415 2.75439C94.9308 2.79972 94.9068 2.82239 94.8695 2.82239ZM95.5255 0.634387L95.1735 1.91439H95.8975L95.5415 0.634387H95.5255ZM98.2849 2.82239H96.9889C96.9436 2.82239 96.9209 2.79972 96.9209 2.75439V0.318388C96.9209 0.273054 96.9436 0.250388 96.9889 0.250388H97.2409C97.2862 0.250388 97.3089 0.273054 97.3089 0.318388V2.43439C97.3089 2.46105 97.3249 2.47439 97.3569 2.47439H98.2849C98.3302 2.47439 98.3529 2.49839 98.3529 2.54639V2.75439C98.3529 2.79972 98.3302 2.82239 98.2849 2.82239ZM100.086 2.82239H98.7897C98.7444 2.82239 98.7217 2.79972 98.7217 2.75439V0.318388C98.7217 0.273054 98.7444 0.250388 98.7897 0.250388H99.0417C99.087 0.250388 99.1097 0.273054 99.1097 0.318388V2.43439C99.1097 2.46105 99.1257 2.47439 99.1577 2.47439H100.086C100.131 2.47439 100.154 2.49839 100.154 2.54639V2.75439C100.154 2.79972 100.131 2.82239 100.086 2.82239ZM101.158 2.48239H101.506C101.701 2.48239 101.798 2.38372 101.798 2.18639V0.886388C101.798 0.689054 101.701 0.590388 101.506 0.590388H101.158C100.966 0.590388 100.87 0.689054 100.87 0.886388V2.18639C100.87 2.38372 100.966 2.48239 101.158 2.48239ZM101.566 2.82239H101.102C100.905 2.82239 100.752 2.76772 100.642 2.65839C100.536 2.54905 100.482 2.39705 100.482 2.20239V0.870388C100.482 0.673054 100.536 0.521054 100.642 0.414387C100.752 0.305054 100.905 0.250388 101.102 0.250388H101.566C101.764 0.250388 101.917 0.305054 102.026 0.414387C102.136 0.521054 102.19 0.673054 102.19 0.870388V2.20239C102.19 2.39705 102.136 2.54905 102.026 2.65839C101.917 2.76772 101.764 2.82239 101.566 2.82239ZM103.506 2.82239H103.082C103.034 2.82239 103.006 2.79972 102.998 2.75439L102.522 0.318388C102.516 0.273054 102.539 0.250388 102.59 0.250388H102.898C102.948 0.250388 102.975 0.273054 102.978 0.318388L103.302 2.41439H103.326L103.798 0.310388C103.803 0.270388 103.827 0.250388 103.87 0.250388H104.206C104.248 0.250388 104.274 0.270388 104.282 0.310388L104.758 2.41439H104.782L105.106 0.322388C105.108 0.274388 105.135 0.250388 105.186 0.250388H105.494C105.547 0.250388 105.57 0.274388 105.562 0.322388L105.086 2.75439C105.078 2.79972 105.051 2.82239 105.006 2.82239H104.582C104.536 2.82239 104.51 2.79972 104.502 2.75439L104.05 0.730388H104.034L103.582 2.75439C103.574 2.79972 103.548 2.82239 103.506 2.82239ZM107.285 2.82239H106.005C105.959 2.82239 105.937 2.79972 105.937 2.75439V0.318388C105.937 0.273054 105.959 0.250388 106.005 0.250388H107.285C107.327 0.250388 107.349 0.273054 107.349 0.318388V0.522388C107.349 0.567721 107.327 0.590388 107.285 0.590388H106.373C106.341 0.590388 106.325 0.603721 106.325 0.630388V1.30639C106.325 1.33305 106.341 1.34639 106.373 1.34639H107.145C107.193 1.34639 107.217 1.36905 107.217 1.41439V1.61839C107.217 1.66372 107.193 1.68639 107.145 1.68639H106.373C106.341 1.68639 106.325 1.69972 106.325 1.72639V2.43839C106.325 2.46772 106.341 2.48239 106.373 2.48239H107.285C107.327 2.48239 107.349 2.50505 107.349 2.55039V2.75439C107.349 2.79972 107.327 2.82239 107.285 2.82239ZM108.29 2.48239H108.854C109.046 2.48239 109.142 2.38372 109.142 2.18639V0.886388C109.142 0.689054 109.046 0.590388 108.854 0.590388H108.29C108.261 0.590388 108.246 0.603721 108.246 0.630388V2.43839C108.246 2.46772 108.261 2.48239 108.29 2.48239ZM107.858 2.75439V0.318388C107.858 0.273054 107.881 0.250388 107.926 0.250388H108.91C109.105 0.250388 109.257 0.305054 109.366 0.414387C109.478 0.521054 109.534 0.673054 109.534 0.870388V2.20239C109.534 2.39705 109.478 2.54905 109.366 2.65839C109.257 2.76772 109.105 2.82239 108.91 2.82239H107.926C107.881 2.82239 107.858 2.79972 107.858 2.75439ZM111.734 2.82239H111.482C111.434 2.82239 111.41 2.79972 111.41 2.75439V0.630388C111.41 0.603721 111.397 0.590388 111.37 0.590388H110.866C110.818 0.590388 110.794 0.567721 110.794 0.522388V0.318388C110.794 0.273054 110.818 0.250388 110.866 0.250388H112.35C112.398 0.250388 112.422 0.273054 112.422 0.318388V0.522388C112.422 0.567721 112.398 0.590388 112.35 0.590388H111.846C111.817 0.590388 111.802 0.603721 111.802 0.630388V2.75439C111.802 2.79972 111.78 2.82239 111.734 2.82239ZM113.401 2.48239H113.749C113.943 2.48239 114.041 2.38372 114.041 2.18639V0.886388C114.041 0.689054 113.943 0.590388 113.749 0.590388H113.401C113.209 0.590388 113.113 0.689054 113.113 0.886388V2.18639C113.113 2.38372 113.209 2.48239 113.401 2.48239ZM113.809 2.82239H113.345C113.147 2.82239 112.994 2.76772 112.885 2.65839C112.778 2.54905 112.725 2.39705 112.725 2.20239V0.870388C112.725 0.673054 112.778 0.521054 112.885 0.414387C112.994 0.305054 113.147 0.250388 113.345 0.250388H113.809C114.006 0.250388 114.159 0.305054 114.269 0.414387C114.378 0.521054 114.433 0.673054 114.433 0.870388V2.20239C114.433 2.39705 114.378 2.54905 114.269 2.65839C114.159 2.76772 114.006 2.82239 113.809 2.82239ZM117.685 0.250388H118.133C118.178 0.250388 118.201 0.273054 118.201 0.318388V2.75439C118.201 2.79972 118.178 2.82239 118.133 2.82239H117.885C117.839 2.82239 117.817 2.79972 117.817 2.75439V0.734388H117.801L117.281 2.19839C117.265 2.24105 117.235 2.26239 117.193 2.26239H116.937C116.897 2.26239 116.869 2.24105 116.853 2.19839L116.321 0.730388H116.305V2.75439C116.305 2.78105 116.299 2.79972 116.289 2.81039C116.281 2.81839 116.263 2.82239 116.237 2.82239H115.993C115.947 2.82239 115.925 2.79972 115.925 2.75439V0.318388C115.925 0.273054 115.947 0.250388 115.993 0.250388H116.441C116.47 0.250388 116.491 0.265054 116.505 0.294388L117.053 1.83839H117.073L117.625 0.294388C117.63 0.265054 117.65 0.250388 117.685 0.250388ZM118.924 2.82239H118.636C118.599 2.82239 118.586 2.79972 118.596 2.75439L119.292 0.318388C119.306 0.273054 119.338 0.250388 119.388 0.250388H119.788C119.842 0.250388 119.874 0.273054 119.884 0.318388L120.58 2.75439C120.591 2.79972 120.576 2.82239 120.536 2.82239H120.252C120.228 2.82239 120.211 2.81839 120.2 2.81039C120.192 2.79972 120.186 2.78105 120.18 2.75439L120.028 2.23439H119.148L118.996 2.75439C118.986 2.79972 118.962 2.82239 118.924 2.82239ZM119.58 0.634387L119.228 1.91439H119.952L119.596 0.634387H119.58ZM121.292 2.82239H121.044C120.998 2.82239 120.976 2.79972 120.976 2.75439V0.318388C120.976 0.273054 120.998 0.250388 121.044 0.250388H121.268C121.31 0.250388 121.34 0.265054 121.356 0.294388L122.324 2.03439H122.34V0.318388C122.34 0.273054 122.362 0.250388 122.408 0.250388H122.656C122.701 0.250388 122.724 0.273054 122.724 0.318388V2.75439C122.724 2.79972 122.701 2.82239 122.656 2.82239H122.44C122.397 2.82239 122.362 2.80105 122.336 2.75839L121.376 1.03839H121.36V2.75439C121.36 2.79972 121.337 2.82239 121.292 2.82239ZM123.716 0.318388V2.75439C123.716 2.79972 123.693 2.82239 123.648 2.82239H123.396C123.35 2.82239 123.328 2.79972 123.328 2.75439V0.318388C123.328 0.273054 123.35 0.250388 123.396 0.250388H123.648C123.693 0.250388 123.716 0.273054 123.716 0.318388ZM124.639 2.82239H124.387C124.342 2.82239 124.319 2.79972 124.319 2.75439V0.318388C124.319 0.273054 124.342 0.250388 124.387 0.250388H125.339C125.534 0.250388 125.686 0.305054 125.795 0.414387C125.905 0.521054 125.959 0.673054 125.959 0.870388V1.28639C125.959 1.48105 125.905 1.63305 125.795 1.74239C125.686 1.85172 125.534 1.90639 125.339 1.90639H124.755C124.723 1.90639 124.707 1.91972 124.707 1.94639V2.75439C124.707 2.79972 124.685 2.82239 124.639 2.82239ZM124.751 1.56239H125.283C125.473 1.56239 125.567 1.46372 125.567 1.26639V0.886388C125.567 0.689054 125.473 0.590388 125.283 0.590388H124.751C124.722 0.590388 124.707 0.603721 124.707 0.630388V1.52239C124.707 1.54905 124.722 1.56239 124.751 1.56239ZM127.777 0.250388H128.029C128.077 0.250388 128.101 0.271721 128.101 0.314388V2.20239C128.101 2.39705 128.045 2.54905 127.933 2.65839C127.823 2.76772 127.671 2.82239 127.477 2.82239H127.033C126.838 2.82239 126.686 2.76772 126.577 2.65839C126.467 2.54905 126.413 2.39705 126.413 2.20239V0.318388C126.413 0.273054 126.435 0.250388 126.481 0.250388H126.733C126.778 0.250388 126.801 0.273054 126.801 0.318388V2.18639C126.801 2.38372 126.897 2.48239 127.089 2.48239H127.417C127.611 2.48239 127.709 2.38372 127.709 2.18639V0.318388C127.709 0.273054 127.731 0.250388 127.777 0.250388ZM130.023 2.82239H128.727C128.682 2.82239 128.659 2.79972 128.659 2.75439V0.318388C128.659 0.273054 128.682 0.250388 128.727 0.250388H128.979C129.025 0.250388 129.047 0.273054 129.047 0.318388V2.43439C129.047 2.46105 129.063 2.47439 129.095 2.47439H130.023C130.069 2.47439 130.091 2.49839 130.091 2.54639V2.75439C130.091 2.79972 130.069 2.82239 130.023 2.82239ZM130.6 2.82239H130.312C130.275 2.82239 130.261 2.79972 130.272 2.75439L130.968 0.318388C130.981 0.273054 131.013 0.250388 131.064 0.250388H131.464C131.517 0.250388 131.549 0.273054 131.56 0.318388L132.256 2.75439C132.267 2.79972 132.252 2.82239 132.212 2.82239H131.928C131.904 2.82239 131.887 2.81839 131.876 2.81039C131.868 2.79972 131.861 2.78105 131.856 2.75439L131.704 2.23439H130.824L130.672 2.75439C130.661 2.79972 130.637 2.82239 130.6 2.82239ZM131.256 0.634387L130.904 1.91439H131.628L131.272 0.634387H131.256ZM133.355 2.82239H133.103C133.055 2.82239 133.031 2.79972 133.031 2.75439V0.630388C133.031 0.603721 133.018 0.590388 132.991 0.590388H132.487C132.439 0.590388 132.415 0.567721 132.415 0.522388V0.318388C132.415 0.273054 132.439 0.250388 132.487 0.250388H133.971C134.019 0.250388 134.043 0.273054 134.043 0.318388V0.522388C134.043 0.567721 134.019 0.590388 133.971 0.590388H133.467C133.438 0.590388 133.423 0.603721 133.423 0.630388V2.75439C133.423 2.79972 133.401 2.82239 133.355 2.82239ZM135.734 2.82239H134.454C134.408 2.82239 134.386 2.79972 134.386 2.75439V0.318388C134.386 0.273054 134.408 0.250388 134.454 0.250388H135.734C135.776 0.250388 135.798 0.273054 135.798 0.318388V0.522388C135.798 0.567721 135.776 0.590388 135.734 0.590388H134.822C134.79 0.590388 134.774 0.603721 134.774 0.630388V1.30639C134.774 1.33305 134.79 1.34639 134.822 1.34639H135.594C135.642 1.34639 135.666 1.36905 135.666 1.41439V1.61839C135.666 1.66372 135.642 1.68639 135.594 1.68639H134.822C134.79 1.68639 134.774 1.69972 134.774 1.72639V2.43839C134.774 2.46772 134.79 2.48239 134.822 2.48239H135.734C135.776 2.48239 135.798 2.50505 135.798 2.55039V2.75439C135.798 2.79972 135.776 2.82239 135.734 2.82239ZM136.616 2.26639V2.57839C136.616 2.64239 136.59 2.72239 136.54 2.81839L136.328 3.20639C136.317 3.23039 136.297 3.24239 136.268 3.24239C136.23 3.24239 136.212 3.22105 136.212 3.17839V2.26639C136.212 2.22372 136.234 2.20239 136.28 2.20239H136.552C136.594 2.20239 136.616 2.22372 136.616 2.26639ZM138.198 2.82239H137.91C137.872 2.82239 137.859 2.79972 137.87 2.75439L138.566 0.318388C138.579 0.273054 138.611 0.250388 138.662 0.250388H139.062C139.115 0.250388 139.147 0.273054 139.158 0.318388L139.854 2.75439C139.864 2.79972 139.85 2.82239 139.81 2.82239H139.526C139.502 2.82239 139.484 2.81839 139.474 2.81039C139.466 2.79972 139.459 2.78105 139.454 2.75439L139.302 2.23439H138.422L138.27 2.75439C138.259 2.79972 138.235 2.82239 138.198 2.82239ZM138.854 0.634387L138.502 1.91439H139.226L138.87 0.634387H138.854ZM141.293 2.82239H140.829C140.632 2.82239 140.478 2.76772 140.369 2.65839C140.262 2.54905 140.209 2.39705 140.209 2.20239V0.870388C140.209 0.673054 140.262 0.521054 140.369 0.414387C140.478 0.305054 140.632 0.250388 140.829 0.250388H141.293C141.488 0.250388 141.64 0.305054 141.749 0.414387C141.858 0.521054 141.913 0.673054 141.913 0.870388V1.06239C141.913 1.11039 141.889 1.13439 141.841 1.13439H141.589C141.544 1.13439 141.521 1.11039 141.521 1.06239V0.886388C141.521 0.689054 141.425 0.590388 141.233 0.590388H140.885C140.693 0.590388 140.597 0.689054 140.597 0.886388V2.18639C140.597 2.38372 140.693 2.48239 140.885 2.48239H141.233C141.425 2.48239 141.521 2.38372 141.521 2.18639V2.01039C141.521 1.96239 141.544 1.93839 141.589 1.93839H141.841C141.889 1.93839 141.913 1.96239 141.913 2.01039V2.20239C141.913 2.39705 141.858 2.54905 141.749 2.65839C141.64 2.76772 141.488 2.82239 141.293 2.82239ZM143.453 2.82239H142.989C142.792 2.82239 142.639 2.76772 142.529 2.65839C142.423 2.54905 142.369 2.39705 142.369 2.20239V0.870388C142.369 0.673054 142.423 0.521054 142.529 0.414387C142.639 0.305054 142.792 0.250388 142.989 0.250388H143.453C143.648 0.250388 143.8 0.305054 143.909 0.414387C144.019 0.521054 144.073 0.673054 144.073 0.870388V1.06239C144.073 1.11039 144.049 1.13439 144.001 1.13439H143.749C143.704 1.13439 143.681 1.11039 143.681 1.06239V0.886388C143.681 0.689054 143.585 0.590388 143.393 0.590388H143.045C142.853 0.590388 142.757 0.689054 142.757 0.886388V2.18639C142.757 2.38372 142.853 2.48239 143.045 2.48239H143.393C143.585 2.48239 143.681 2.38372 143.681 2.18639V2.01039C143.681 1.96239 143.704 1.93839 143.749 1.93839H144.001C144.049 1.93839 144.073 1.96239 144.073 2.01039V2.20239C144.073 2.39705 144.019 2.54905 143.909 2.65839C143.8 2.76772 143.648 2.82239 143.453 2.82239ZM145.917 2.82239H144.637C144.592 2.82239 144.569 2.79972 144.569 2.75439V0.318388C144.569 0.273054 144.592 0.250388 144.637 0.250388H145.917C145.96 0.250388 145.981 0.273054 145.981 0.318388V0.522388C145.981 0.567721 145.96 0.590388 145.917 0.590388H145.005C144.973 0.590388 144.957 0.603721 144.957 0.630388V1.30639C144.957 1.33305 144.973 1.34639 145.005 1.34639H145.777C145.825 1.34639 145.849 1.36905 145.849 1.41439V1.61839C145.849 1.66372 145.825 1.68639 145.777 1.68639H145.005C144.973 1.68639 144.957 1.69972 144.957 1.72639V2.43839C144.957 2.46772 144.973 2.48239 145.005 2.48239H145.917C145.96 2.48239 145.981 2.50505 145.981 2.55039V2.75439C145.981 2.79972 145.96 2.82239 145.917 2.82239ZM146.443 2.19839V2.09439C146.443 2.04905 146.466 2.02639 146.511 2.02639H146.767C146.813 2.02639 146.835 2.04905 146.835 2.09439V2.16639C146.835 2.27839 146.859 2.35972 146.907 2.41039C146.958 2.45839 147.041 2.48239 147.155 2.48239H147.431C147.546 2.48239 147.629 2.45705 147.679 2.40639C147.73 2.35305 147.755 2.26772 147.755 2.15039V2.05839C147.755 1.97305 147.722 1.90639 147.655 1.85839C147.591 1.80772 147.511 1.77572 147.415 1.76239C147.319 1.74639 147.214 1.72505 147.099 1.69839C146.985 1.67172 146.879 1.64105 146.783 1.60639C146.687 1.57172 146.606 1.50639 146.539 1.41039C146.475 1.31439 146.443 1.19172 146.443 1.04239V0.874388C146.443 0.679721 146.498 0.527721 146.607 0.418388C146.719 0.306388 146.873 0.250388 147.067 0.250388H147.491C147.689 0.250388 147.842 0.306388 147.951 0.418388C148.063 0.527721 148.119 0.679721 148.119 0.874388V0.962388C148.119 1.00772 148.097 1.03039 148.051 1.03039H147.795C147.75 1.03039 147.727 1.00772 147.727 0.962388V0.910388C147.727 0.795721 147.702 0.714388 147.651 0.666388C147.603 0.615721 147.522 0.590388 147.407 0.590388H147.155C147.041 0.590388 146.958 0.617054 146.907 0.670388C146.859 0.721054 146.835 0.809054 146.835 0.934388V1.05839C146.835 1.17839 146.922 1.25972 147.095 1.30239C147.173 1.32105 147.257 1.33705 147.347 1.35039C147.441 1.36372 147.534 1.38372 147.627 1.41039C147.721 1.43705 147.806 1.47305 147.883 1.51839C147.961 1.56105 148.023 1.62772 148.071 1.71839C148.119 1.80639 148.143 1.91439 148.143 2.04239V2.19839C148.143 2.39305 148.087 2.54639 147.975 2.65839C147.866 2.76772 147.714 2.82239 147.519 2.82239H147.071C146.877 2.82239 146.723 2.76772 146.611 2.65839C146.499 2.54639 146.443 2.39305 146.443 2.19839ZM148.635 2.19839V2.09439C148.635 2.04905 148.657 2.02639 148.703 2.02639H148.959C149.004 2.02639 149.027 2.04905 149.027 2.09439V2.16639C149.027 2.27839 149.051 2.35972 149.099 2.41039C149.149 2.45839 149.232 2.48239 149.347 2.48239H149.623C149.737 2.48239 149.82 2.45705 149.871 2.40639C149.921 2.35305 149.947 2.26772 149.947 2.15039V2.05839C149.947 1.97305 149.913 1.90639 149.847 1.85839C149.783 1.80772 149.703 1.77572 149.607 1.76239C149.511 1.74639 149.405 1.72505 149.291 1.69839C149.176 1.67172 149.071 1.64105 148.975 1.60639C148.879 1.57172 148.797 1.50639 148.731 1.41039C148.667 1.31439 148.635 1.19172 148.635 1.04239V0.874388C148.635 0.679721 148.689 0.527721 148.799 0.418388C148.911 0.306388 149.064 0.250388 149.259 0.250388H149.683C149.88 0.250388 150.033 0.306388 150.143 0.418388C150.255 0.527721 150.311 0.679721 150.311 0.874388V0.962388C150.311 1.00772 150.288 1.03039 150.243 1.03039H149.987C149.941 1.03039 149.919 1.00772 149.919 0.962388V0.910388C149.919 0.795721 149.893 0.714388 149.843 0.666388C149.795 0.615721 149.713 0.590388 149.599 0.590388H149.347C149.232 0.590388 149.149 0.617054 149.099 0.670388C149.051 0.721054 149.027 0.809054 149.027 0.934388V1.05839C149.027 1.17839 149.113 1.25972 149.287 1.30239C149.364 1.32105 149.448 1.33705 149.539 1.35039C149.632 1.36372 149.725 1.38372 149.819 1.41039C149.912 1.43705 149.997 1.47305 150.075 1.51839C150.152 1.56105 150.215 1.62772 150.263 1.71839C150.311 1.80639 150.335 1.91439 150.335 2.04239V2.19839C150.335 2.39305 150.279 2.54639 150.167 2.65839C150.057 2.76772 149.905 2.82239 149.711 2.82239H149.263C149.068 2.82239 148.915 2.76772 148.803 2.65839C148.691 2.54639 148.635 2.39305 148.635 2.19839ZM152.463 2.48239H152.811C153.006 2.48239 153.103 2.38372 153.103 2.18639V0.886388C153.103 0.689054 153.006 0.590388 152.811 0.590388H152.463C152.271 0.590388 152.175 0.689054 152.175 0.886388V2.18639C152.175 2.38372 152.271 2.48239 152.463 2.48239ZM152.871 2.82239H152.407C152.21 2.82239 152.056 2.76772 151.947 2.65839C151.84 2.54905 151.787 2.39705 151.787 2.20239V0.870388C151.787 0.673054 151.84 0.521054 151.947 0.414387C152.056 0.305054 152.21 0.250388 152.407 0.250388H152.871C153.068 0.250388 153.222 0.305054 153.331 0.414387C153.44 0.521054 153.495 0.673054 153.495 0.870388V2.20239C153.495 2.39705 153.44 2.54905 153.331 2.65839C153.222 2.76772 153.068 2.82239 152.871 2.82239ZM154.354 2.82239H154.102C154.057 2.82239 154.034 2.79972 154.034 2.75439V0.318388C154.034 0.273054 154.057 0.250388 154.102 0.250388H155.038C155.233 0.250388 155.385 0.306388 155.494 0.418388C155.606 0.527721 155.662 0.679721 155.662 0.874388V1.21039C155.662 1.51705 155.536 1.71039 155.282 1.79039V1.80639L155.726 2.74239C155.756 2.79572 155.738 2.82239 155.674 2.82239H155.426C155.362 2.82239 155.321 2.79972 155.302 2.75439L154.874 1.83439H154.47C154.438 1.83439 154.422 1.84772 154.422 1.87439V2.75439C154.422 2.79972 154.4 2.82239 154.354 2.82239ZM154.466 1.51439H154.974C155.172 1.51439 155.27 1.41705 155.27 1.22239V0.886388C155.27 0.689054 155.172 0.590388 154.974 0.590388H154.466C154.437 0.590388 154.422 0.603721 154.422 0.630388V1.47439C154.422 1.50105 154.437 1.51439 154.466 1.51439ZM157.587 2.48239H158.151C158.343 2.48239 158.439 2.38372 158.439 2.18639V0.886388C158.439 0.689054 158.343 0.590388 158.151 0.590388H157.587C157.558 0.590388 157.543 0.603721 157.543 0.630388V2.43839C157.543 2.46772 157.558 2.48239 157.587 2.48239ZM157.155 2.75439V0.318388C157.155 0.273054 157.178 0.250388 157.223 0.250388H158.207C158.402 0.250388 158.554 0.305054 158.663 0.414387C158.775 0.521054 158.831 0.673054 158.831 0.870388V2.20239C158.831 2.39705 158.775 2.54905 158.663 2.65839C158.554 2.76772 158.402 2.82239 158.207 2.82239H157.223C157.178 2.82239 157.155 2.79972 157.155 2.75439ZM159.782 0.318388V2.75439C159.782 2.79972 159.759 2.82239 159.714 2.82239H159.462C159.417 2.82239 159.394 2.79972 159.394 2.75439V0.318388C159.394 0.273054 159.417 0.250388 159.462 0.250388H159.714C159.759 0.250388 159.782 0.273054 159.782 0.318388ZM160.338 2.19839V2.09439C160.338 2.04905 160.36 2.02639 160.406 2.02639H160.662C160.707 2.02639 160.73 2.04905 160.73 2.09439V2.16639C160.73 2.27839 160.754 2.35972 160.802 2.41039C160.852 2.45839 160.935 2.48239 161.05 2.48239H161.326C161.44 2.48239 161.523 2.45705 161.574 2.40639C161.624 2.35305 161.65 2.26772 161.65 2.15039V2.05839C161.65 1.97305 161.616 1.90639 161.55 1.85839C161.486 1.80772 161.406 1.77572 161.31 1.76239C161.214 1.74639 161.108 1.72505 160.994 1.69839C160.879 1.67172 160.774 1.64105 160.678 1.60639C160.582 1.57172 160.5 1.50639 160.434 1.41039C160.37 1.31439 160.338 1.19172 160.338 1.04239V0.874388C160.338 0.679721 160.392 0.527721 160.502 0.418388C160.614 0.306388 160.767 0.250388 160.962 0.250388H161.386C161.583 0.250388 161.736 0.306388 161.846 0.418388C161.958 0.527721 162.014 0.679721 162.014 0.874388V0.962388C162.014 1.00772 161.991 1.03039 161.946 1.03039H161.69C161.644 1.03039 161.622 1.00772 161.622 0.962388V0.910388C161.622 0.795721 161.596 0.714388 161.546 0.666388C161.498 0.615721 161.416 0.590388 161.302 0.590388H161.05C160.935 0.590388 160.852 0.617054 160.802 0.670388C160.754 0.721054 160.73 0.809054 160.73 0.934388V1.05839C160.73 1.17839 160.816 1.25972 160.99 1.30239C161.067 1.32105 161.151 1.33705 161.242 1.35039C161.335 1.36372 161.428 1.38372 161.522 1.41039C161.615 1.43705 161.7 1.47305 161.778 1.51839C161.855 1.56105 161.918 1.62772 161.966 1.71839C162.014 1.80639 162.038 1.91439 162.038 2.04239V2.19839C162.038 2.39305 161.982 2.54639 161.87 2.65839C161.76 2.76772 161.608 2.82239 161.414 2.82239H160.966C160.771 2.82239 160.618 2.76772 160.506 2.65839C160.394 2.54639 160.338 2.39305 160.338 2.19839ZM162.717 2.82239H162.429C162.392 2.82239 162.378 2.79972 162.389 2.75439L163.085 0.318388C163.098 0.273054 163.13 0.250388 163.181 0.250388H163.581C163.634 0.250388 163.666 0.273054 163.677 0.318388L164.373 2.75439C164.384 2.79972 164.369 2.82239 164.329 2.82239H164.045C164.021 2.82239 164.004 2.81839 163.993 2.81039C163.985 2.79972 163.978 2.78105 163.973 2.75439L163.821 2.23439H162.941L162.789 2.75439C162.778 2.79972 162.754 2.82239 162.717 2.82239ZM163.373 0.634387L163.021 1.91439H163.745L163.389 0.634387H163.373ZM165.201 2.49039H165.761C165.961 2.49039 166.061 2.39439 166.061 2.20239V1.95439C166.061 1.76239 165.955 1.66639 165.745 1.66639H165.201C165.171 1.66639 165.157 1.67972 165.157 1.70639V2.45039C165.157 2.47705 165.171 2.49039 165.201 2.49039ZM165.201 1.34639H165.721C165.923 1.34639 166.025 1.24905 166.025 1.05439V0.870388C166.025 0.678388 165.926 0.582388 165.729 0.582388H165.201C165.171 0.582388 165.157 0.595721 165.157 0.622388V1.30639C165.157 1.33305 165.171 1.34639 165.201 1.34639ZM164.769 2.75439V0.318388C164.769 0.273054 164.791 0.250388 164.837 0.250388H165.785C165.982 0.250388 166.135 0.303721 166.245 0.410388C166.354 0.517054 166.409 0.667721 166.409 0.862388V1.05839C166.409 1.29039 166.299 1.43972 166.081 1.50639C166.185 1.51972 166.27 1.56505 166.337 1.64239C166.406 1.71972 166.441 1.82372 166.441 1.95439V2.21039C166.441 2.40505 166.386 2.55572 166.277 2.66239C166.167 2.76905 166.015 2.82239 165.821 2.82239H164.837C164.791 2.82239 164.769 2.79972 164.769 2.75439ZM168.34 2.82239H167.044C166.998 2.82239 166.976 2.79972 166.976 2.75439V0.318388C166.976 0.273054 166.998 0.250388 167.044 0.250388H167.296C167.341 0.250388 167.364 0.273054 167.364 0.318388V2.43439C167.364 2.46105 167.38 2.47439 167.412 2.47439H168.34C168.385 2.47439 168.408 2.49839 168.408 2.54639V2.75439C168.408 2.79972 168.385 2.82239 168.34 2.82239ZM170.124 2.82239H168.844C168.799 2.82239 168.776 2.79972 168.776 2.75439V0.318388C168.776 0.273054 168.799 0.250388 168.844 0.250388H170.124C170.167 0.250388 170.188 0.273054 170.188 0.318388V0.522388C170.188 0.567721 170.167 0.590388 170.124 0.590388H169.212C169.18 0.590388 169.164 0.603721 169.164 0.630388V1.30639C169.164 1.33305 169.18 1.34639 169.212 1.34639H169.984C170.032 1.34639 170.056 1.36905 170.056 1.41439V1.61839C170.056 1.66372 170.032 1.68639 169.984 1.68639H169.212C169.18 1.68639 169.164 1.69972 169.164 1.72639V2.43839C169.164 2.46772 169.18 2.48239 169.212 2.48239H170.124C170.167 2.48239 170.188 2.50505 170.188 2.55039V2.75439C170.188 2.79972 170.167 2.82239 170.124 2.82239ZM172.355 2.82239H172.103C172.055 2.82239 172.031 2.79972 172.031 2.75439V0.630388C172.031 0.603721 172.018 0.590388 171.991 0.590388H171.487C171.439 0.590388 171.415 0.567721 171.415 0.522388V0.318388C171.415 0.273054 171.439 0.250388 171.487 0.250388H172.971C173.019 0.250388 173.043 0.273054 173.043 0.318388V0.522388C173.043 0.567721 173.019 0.590388 172.971 0.590388H172.467C172.438 0.590388 172.423 0.603721 172.423 0.630388V2.75439C172.423 2.79972 172.401 2.82239 172.355 2.82239ZM173.706 2.82239H173.454C173.408 2.82239 173.386 2.79972 173.386 2.75439V0.318388C173.386 0.273054 173.408 0.250388 173.454 0.250388H173.706C173.751 0.250388 173.774 0.273054 173.774 0.318388V1.31839C173.774 1.34505 173.79 1.35839 173.822 1.35839H174.666C174.692 1.35839 174.706 1.34505 174.706 1.31839V0.318388C174.706 0.273054 174.728 0.250388 174.774 0.250388H175.03C175.075 0.250388 175.098 0.273054 175.098 0.318388V2.75439C175.098 2.79972 175.075 2.82239 175.03 2.82239H174.774C174.728 2.82239 174.706 2.79972 174.706 2.75439V1.74239C174.706 1.71572 174.692 1.70239 174.666 1.70239H173.822C173.79 1.70239 173.774 1.71572 173.774 1.74239V2.75439C173.774 2.79972 173.751 2.82239 173.706 2.82239ZM177.031 2.82239H175.751C175.705 2.82239 175.683 2.79972 175.683 2.75439V0.318388C175.683 0.273054 175.705 0.250388 175.751 0.250388H177.031C177.073 0.250388 177.095 0.273054 177.095 0.318388V0.522388C177.095 0.567721 177.073 0.590388 177.031 0.590388H176.119C176.087 0.590388 176.071 0.603721 176.071 0.630388V1.30639C176.071 1.33305 176.087 1.34639 176.119 1.34639H176.891C176.939 1.34639 176.963 1.36905 176.963 1.41439V1.61839C176.963 1.66372 176.939 1.68639 176.891 1.68639H176.119C176.087 1.68639 176.071 1.69972 176.071 1.72639V2.43839C176.071 2.46772 176.087 2.48239 176.119 2.48239H177.031C177.073 2.48239 177.095 2.50505 177.095 2.55039V2.75439C177.095 2.79972 177.073 2.82239 177.031 2.82239ZM177.557 2.19839V2.09439C177.557 2.04905 177.579 2.02639 177.625 2.02639H177.881C177.926 2.02639 177.949 2.04905 177.949 2.09439V2.16639C177.949 2.27839 177.973 2.35972 178.021 2.41039C178.071 2.45839 178.154 2.48239 178.269 2.48239H178.545C178.659 2.48239 178.742 2.45705 178.793 2.40639C178.843 2.35305 178.869 2.26772 178.869 2.15039V2.05839C178.869 1.97305 178.835 1.90639 178.769 1.85839C178.705 1.80772 178.625 1.77572 178.529 1.76239C178.433 1.74639 178.327 1.72505 178.213 1.69839C178.098 1.67172 177.993 1.64105 177.897 1.60639C177.801 1.57172 177.719 1.50639 177.653 1.41039C177.589 1.31439 177.557 1.19172 177.557 1.04239V0.874388C177.557 0.679721 177.611 0.527721 177.721 0.418388C177.833 0.306388 177.986 0.250388 178.181 0.250388H178.605C178.802 0.250388 178.955 0.306388 179.065 0.418388C179.177 0.527721 179.233 0.679721 179.233 0.874388V0.962388C179.233 1.00772 179.21 1.03039 179.165 1.03039H178.909C178.863 1.03039 178.841 1.00772 178.841 0.962388V0.910388C178.841 0.795721 178.815 0.714388 178.765 0.666388C178.717 0.615721 178.635 0.590388 178.521 0.590388H178.269C178.154 0.590388 178.071 0.617054 178.021 0.670388C177.973 0.721054 177.949 0.809054 177.949 0.934388V1.05839C177.949 1.17839 178.035 1.25972 178.209 1.30239C178.286 1.32105 178.37 1.33705 178.461 1.35039C178.554 1.36372 178.647 1.38372 178.741 1.41039C178.834 1.43705 178.919 1.47305 178.997 1.51839C179.074 1.56105 179.137 1.62772 179.185 1.71839C179.233 1.80639 179.257 1.91439 179.257 2.04239V2.19839C179.257 2.39305 179.201 2.54639 179.089 2.65839C178.979 2.76772 178.827 2.82239 178.633 2.82239H178.185C177.99 2.82239 177.837 2.76772 177.725 2.65839C177.613 2.54639 177.557 2.39305 177.557 2.19839ZM181.144 2.82239H179.864C179.819 2.82239 179.796 2.79972 179.796 2.75439V0.318388C179.796 0.273054 179.819 0.250388 179.864 0.250388H181.144C181.187 0.250388 181.208 0.273054 181.208 0.318388V0.522388C181.208 0.567721 181.187 0.590388 181.144 0.590388H180.232C180.2 0.590388 180.184 0.603721 180.184 0.630388V1.30639C180.184 1.33305 180.2 1.34639 180.232 1.34639H181.004C181.052 1.34639 181.076 1.36905 181.076 1.41439V1.61839C181.076 1.66372 181.052 1.68639 181.004 1.68639H180.232C180.2 1.68639 180.184 1.69972 180.184 1.72639V2.43839C180.184 2.46772 180.2 2.48239 180.232 2.48239H181.144C181.187 2.48239 181.208 2.50505 181.208 2.55039V2.75439C181.208 2.79972 181.187 2.82239 181.144 2.82239ZM0.528688 7.48239H1.09269C1.28469 7.48239 1.38069 7.38372 1.38069 7.18639V5.88639C1.38069 5.68905 1.28469 5.59039 1.09269 5.59039H0.528688C0.499354 5.59039 0.484688 5.60372 0.484688 5.63039V7.43839C0.484688 7.46772 0.499354 7.48239 0.528688 7.48239ZM0.0966875 7.75439V5.31839C0.0966875 5.27305 0.119354 5.25039 0.164688 5.25039H1.14869C1.34335 5.25039 1.49535 5.30505 1.60469 5.41439C1.71669 5.52105 1.77269 5.67305 1.77269 5.87039V7.20239C1.77269 7.39705 1.71669 7.54905 1.60469 7.65839C1.49535 7.76772 1.34335 7.82239 1.14869 7.82239H0.164688C0.119354 7.82239 0.0966875 7.79972 0.0966875 7.75439ZM3.66344 7.82239H2.38344C2.3381 7.82239 2.31544 7.79972 2.31544 7.75439V5.31839C2.31544 5.27305 2.3381 5.25039 2.38344 5.25039H3.66344C3.7061 5.25039 3.72744 5.27305 3.72744 5.31839V5.52239C3.72744 5.56772 3.7061 5.59039 3.66344 5.59039H2.75144C2.71944 5.59039 2.70344 5.60372 2.70344 5.63039V6.30639C2.70344 6.33305 2.71944 6.34639 2.75144 6.34639H3.52344C3.57144 6.34639 3.59544 6.36905 3.59544 6.41439V6.61839C3.59544 6.66372 3.57144 6.68639 3.52344 6.68639H2.75144C2.71944 6.68639 2.70344 6.69972 2.70344 6.72639V7.43839C2.70344 7.46772 2.71944 7.48239 2.75144 7.48239H3.66344C3.7061 7.48239 3.72744 7.50505 3.72744 7.55039V7.75439C3.72744 7.79972 3.7061 7.82239 3.66344 7.82239ZM5.17331 7.82239H4.77731C4.73198 7.82239 4.70398 7.79972 4.69331 7.75439L4.02931 5.32639C4.01331 5.27572 4.03331 5.25039 4.08931 5.25039H4.37331C4.41598 5.25039 4.44131 5.27305 4.44931 5.31839L4.96531 7.40639H4.98131L5.49331 5.31839C5.50398 5.27305 5.53065 5.25039 5.57331 5.25039H5.85331C5.90931 5.25039 5.93065 5.27572 5.91731 5.32639L5.24931 7.75439C5.23865 7.79972 5.21331 7.82239 5.17331 7.82239ZM6.69609 5.31839V7.75439C6.69609 7.79972 6.67343 7.82239 6.62809 7.82239H6.37609C6.33076 7.82239 6.30809 7.79972 6.30809 7.75439V5.31839C6.30809 5.27305 6.33076 5.25039 6.37609 5.25039H6.62809C6.67343 5.25039 6.69609 5.27305 6.69609 5.31839ZM8.34381 7.82239H7.87981C7.68248 7.82239 7.52915 7.76772 7.41981 7.65839C7.31315 7.54905 7.25981 7.39705 7.25981 7.20239V5.87039C7.25981 5.67305 7.31315 5.52105 7.41981 5.41439C7.52915 5.30505 7.68248 5.25039 7.87981 5.25039H8.34381C8.53848 5.25039 8.69048 5.30505 8.79981 5.41439C8.90915 5.52105 8.96381 5.67305 8.96381 5.87039V6.06239C8.96381 6.11039 8.93981 6.13439 8.89181 6.13439H8.63981C8.59448 6.13439 8.57181 6.11039 8.57181 6.06239V5.88639C8.57181 5.68905 8.47581 5.59039 8.28381 5.59039H7.93581C7.74381 5.59039 7.64781 5.68905 7.64781 5.88639V7.18639C7.64781 7.38372 7.74381 7.48239 7.93581 7.48239H8.28381C8.47581 7.48239 8.57181 7.38372 8.57181 7.18639V7.01039C8.57181 6.96239 8.59448 6.93839 8.63981 6.93839H8.89181C8.93981 6.93839 8.96381 6.96239 8.96381 7.01039V7.20239C8.96381 7.39705 8.90915 7.54905 8.79981 7.65839C8.69048 7.76772 8.53848 7.82239 8.34381 7.82239ZM10.808 7.82239H9.52797C9.48264 7.82239 9.45997 7.79972 9.45997 7.75439V5.31839C9.45997 5.27305 9.48264 5.25039 9.52797 5.25039H10.808C10.8506 5.25039 10.872 5.27305 10.872 5.31839V5.52239C10.872 5.56772 10.8506 5.59039 10.808 5.59039H9.89597C9.86397 5.59039 9.84797 5.60372 9.84797 5.63039V6.30639C9.84797 6.33305 9.86397 6.34639 9.89597 6.34639H10.668C10.716 6.34639 10.74 6.36905 10.74 6.41439V6.61839C10.74 6.66372 10.716 6.68639 10.668 6.68639H9.89597C9.86397 6.68639 9.84797 6.69972 9.84797 6.72639V7.43839C9.84797 7.46772 9.86397 7.48239 9.89597 7.48239H10.808C10.8506 7.48239 10.872 7.50505 10.872 7.55039V7.75439C10.872 7.79972 10.8506 7.82239 10.808 7.82239Z" fill="#F8EF00"/>
</svg>
