<svg width="360" height="72" viewBox="0 0 360 72" fill="none" xmlns="http://www.w3.org/2000/svg">
<path d="M0 0H360V64H14.4385L0 47.5V0Z" fill="#F8EF00"/>
<line x1="358.973" x2="358.973" y2="64" stroke="#FFFDBF" stroke-width="2"/>
<path d="M40.928 38V26.48H51.504V28.416H42.864V31.28H49.824V33.2H42.864V36.064H51.504V38H40.928ZM56.346 38V26.48H58.538L65.93 35.28V26.48H67.866V38H65.674L58.266 29.184V38H56.346ZM77.0825 38V28.416H72.2825V26.48H83.8025V28.416H79.0025V38H77.0825ZM88.2311 38V26.48H98.8071V28.416H90.1671V31.28H97.1271V33.2H90.1671V36.064H98.8071V38H88.2311ZM112.961 38L109.425 33.776H111.937L115.121 37.552V38H112.961ZM103.649 38V26.496H113.009C113.404 26.496 113.761 26.5973 114.081 26.8C114.412 26.992 114.673 27.2533 114.865 27.584C115.068 27.904 115.169 28.2613 115.169 28.656V31.824C115.169 32.208 115.068 32.5653 114.865 32.896C114.673 33.2267 114.412 33.488 114.081 33.68C113.761 33.872 113.404 33.968 113.009 33.968L105.569 33.984V38H103.649ZM105.857 32.032H112.945C113.02 32.032 113.084 32.0053 113.137 31.952C113.201 31.8987 113.233 31.8293 113.233 31.744V28.704C113.233 28.6293 113.201 28.5653 113.137 28.512C113.084 28.448 113.02 28.416 112.945 28.416H105.857C105.782 28.416 105.713 28.448 105.649 28.512C105.596 28.5653 105.569 28.6293 105.569 28.704V31.744C105.569 31.8293 105.596 31.8987 105.649 31.952C105.713 32.0053 105.782 32.032 105.857 32.032ZM128.018 38V26.48H130.21L137.602 35.28V26.48H139.538V38H137.346L129.938 29.184V38H128.018ZM146.658 38C146.264 38 145.901 37.904 145.57 37.712C145.24 37.52 144.978 37.2587 144.786 36.928C144.594 36.5973 144.498 36.2347 144.498 35.84V28.64C144.498 28.2453 144.594 27.8827 144.786 27.552C144.978 27.2213 145.24 26.96 145.57 26.768C145.901 26.576 146.264 26.48 146.658 26.48H153.858C154.253 26.48 154.61 26.576 154.93 26.768C155.261 26.96 155.522 27.2213 155.714 27.552C155.917 27.8827 156.018 28.2453 156.018 28.64V35.84C156.018 36.2347 155.917 36.5973 155.714 36.928C155.522 37.2587 155.261 37.52 154.93 37.712C154.61 37.904 154.253 38 153.858 38H146.658ZM146.706 36.064H153.794C153.869 36.064 153.933 36.0373 153.986 35.984C154.05 35.9307 154.082 35.8613 154.082 35.776V28.704C154.082 28.6187 154.05 28.5493 153.986 28.496C153.933 28.4427 153.869 28.416 153.794 28.416H146.706C146.632 28.416 146.562 28.4427 146.498 28.496C146.445 28.5493 146.418 28.6187 146.418 28.704V35.776C146.418 35.8613 146.445 35.9307 146.498 35.984C146.562 36.0373 146.632 36.064 146.706 36.064ZM164.336 38L160.144 26.48H162.192L165.104 34.464L168.016 26.48H169.968L172.896 34.464L175.808 26.48H177.856L173.664 38H172.112L168.992 29.44L165.872 38H164.336Z" fill="black"/>
<path d="M308.562 25.25L315.312 32L308.562 38.75M314.375 32H300.688" stroke="black" stroke-width="2" stroke-miterlimit="10" stroke-linecap="square"/>
<rect x="302" y="56" width="38" height="8" fill="black"/>
<g filter="url(#filter0_d_1_2230)">
<line x1="303" y1="56" x2="303" y2="64" stroke="#FFFDBF" stroke-width="2"/>
</g>
<path d="M313.016 63C312.968 63 312.936 62.9813 312.92 62.944L311.744 60.464C311.739 60.448 311.728 60.44 311.712 60.44H310.352C310.331 60.44 310.32 60.4507 310.32 60.472V62.92C310.32 62.9733 310.293 63 310.24 63H309.832C309.779 63 309.752 62.9733 309.752 62.92V57.48C309.752 57.4267 309.779 57.4 309.832 57.4H311.904C312.363 57.4 312.733 57.544 313.016 57.832C313.299 58.1147 313.44 58.4853 313.44 58.944C313.44 59.3173 313.339 59.6347 313.136 59.896C312.933 60.1573 312.659 60.3253 312.312 60.4C312.291 60.4107 312.285 60.424 312.296 60.44L313.496 62.904C313.501 62.9147 313.504 62.928 313.504 62.944C313.504 62.9813 313.483 63 313.44 63H313.016ZM310.352 57.896C310.331 57.896 310.32 57.9067 310.32 57.928V59.952C310.32 59.9733 310.331 59.984 310.352 59.984H311.84C312.149 59.984 312.4 59.888 312.592 59.696C312.784 59.504 312.88 59.2533 312.88 58.944C312.88 58.6347 312.784 58.384 312.592 58.192C312.4 57.9947 312.149 57.896 311.84 57.896H310.352ZM316.714 62.464C316.698 62.4907 316.704 62.504 316.73 62.504H319.242C319.296 62.504 319.322 62.5307 319.322 62.584V62.92C319.322 62.9733 319.296 63 319.242 63H316.05C315.997 63 315.97 62.9733 315.97 62.92V62.584C315.97 62.5467 315.984 62.5147 316.01 62.488C316.192 62.2747 316.6 61.7733 317.234 60.984L317.826 60.248C318.328 59.6133 318.578 59.12 318.578 58.768C318.578 58.4853 318.482 58.2587 318.29 58.088C318.098 57.9173 317.848 57.832 317.538 57.832C317.234 57.832 316.989 57.92 316.802 58.096C316.616 58.2667 316.525 58.4933 316.53 58.776V59.024C316.53 59.0773 316.504 59.104 316.45 59.104H316.034C315.981 59.104 315.954 59.0773 315.954 59.024V58.704C315.965 58.2933 316.117 57.9627 316.41 57.712C316.709 57.4613 317.085 57.336 317.538 57.336C317.858 57.336 318.141 57.3973 318.386 57.52C318.632 57.6427 318.821 57.8133 318.954 58.032C319.088 58.2453 319.154 58.488 319.154 58.76C319.154 59.2133 318.904 59.76 318.402 60.4C318.141 60.736 317.637 61.3547 316.89 62.256L316.714 62.464ZM325.027 60.552C325.075 60.7867 325.099 61.0267 325.099 61.272C325.099 61.5333 325.075 61.7573 325.027 61.944C324.937 62.2853 324.755 62.5573 324.484 62.76C324.212 62.9573 323.883 63.056 323.499 63.056C323.121 63.056 322.798 62.96 322.531 62.768C322.265 62.576 322.083 62.32 321.987 62C321.95 61.8827 321.926 61.7653 321.915 61.648V61.632C321.915 61.5893 321.939 61.568 321.987 61.568H322.411C322.465 61.568 322.494 61.5947 322.499 61.648C322.499 61.68 322.51 61.7333 322.531 61.808C322.585 62.0373 322.694 62.2213 322.859 62.36C323.03 62.4933 323.241 62.56 323.491 62.56C323.747 62.56 323.961 62.488 324.132 62.344C324.307 62.2 324.422 62.0027 324.475 61.752C324.507 61.6293 324.523 61.4693 324.523 61.272C324.523 61.0907 324.51 60.9173 324.484 60.752C324.446 60.5067 324.339 60.32 324.163 60.192C323.987 60.064 323.769 60 323.507 60C323.273 60 323.062 60.0533 322.875 60.16C322.689 60.2667 322.569 60.408 322.515 60.584C322.499 60.632 322.47 60.656 322.427 60.656H321.995C321.942 60.656 321.915 60.6293 321.915 60.576V57.48C321.915 57.4267 321.942 57.4 321.995 57.4H324.796C324.849 57.4 324.875 57.4267 324.875 57.48V57.816C324.875 57.8693 324.849 57.896 324.796 57.896H322.515C322.494 57.896 322.483 57.9067 322.483 57.928L322.475 59.864C322.475 59.8747 322.478 59.8827 322.483 59.888C322.494 59.8933 322.505 59.8907 322.515 59.88C322.649 59.7573 322.806 59.664 322.987 59.6C323.169 59.5307 323.361 59.496 323.563 59.496C323.942 59.496 324.262 59.5893 324.523 59.776C324.785 59.9573 324.953 60.216 325.027 60.552Z" fill="#F8EF00"/>
<defs>
<filter id="filter0_d_1_2230" x="298" y="56" width="10" height="16" filterUnits="userSpaceOnUse" color-interpolation-filters="sRGB">
<feFlood flood-opacity="0" result="BackgroundImageFix"/>
<feColorMatrix in="SourceAlpha" type="matrix" values="0 0 0 0 0 0 0 0 0 0 0 0 0 0 0 0 0 0 127 0" result="hardAlpha"/>
<feOffset dy="4"/>
<feGaussianBlur stdDeviation="2"/>
<feComposite in2="hardAlpha" operator="out"/>
<feColorMatrix type="matrix" values="0 0 0 0 0 0 0 0 0 0 0 0 0 0 0 0 0 0 0.25 0"/>
<feBlend mode="normal" in2="BackgroundImageFix" result="effect1_dropShadow_1_2230"/>
<feBlend mode="normal" in="SourceGraphic" in2="effect1_dropShadow_1_2230" result="shape"/>
</filter>
</defs>
</svg>
