<svg width="32" height="1014" viewBox="0 0 32 1014" fill="none" xmlns="http://www.w3.org/2000/svg">
<path opacity="0.5" d="M26.0592 557.668L26.0592 557.944C26.0592 557.995 26.0339 558.007 25.9832 557.98L23.8472 557.124L23.8472 558.132C23.8472 558.177 23.8232 558.2 23.7752 558.2L23.5552 558.2C23.5099 558.2 23.4872 558.177 23.4872 558.132L23.4872 556.776C23.4872 556.728 23.5099 556.704 23.5552 556.704L23.8032 556.704C23.8459 556.704 23.9019 556.719 23.9712 556.748L25.9952 557.556C26.0379 557.572 26.0592 557.609 26.0592 557.668ZM25.7192 555.716L25.7192 555.4C25.7192 555.301 25.6965 555.229 25.6512 555.184C25.6059 555.136 25.5339 555.112 25.4352 555.112L25.2192 555.112C25.0192 555.112 24.9192 555.208 24.9192 555.4L24.9192 555.716C24.9192 555.908 25.0192 556.004 25.2192 556.004L25.4352 556.004C25.5339 556.004 25.6059 555.981 25.6512 555.936C25.6965 555.888 25.7192 555.814 25.7192 555.716ZM24.6072 555.716L24.6072 555.4C24.6072 555.208 24.5072 555.112 24.3072 555.112L24.1112 555.112C24.0125 555.112 23.9405 555.136 23.8952 555.184C23.8499 555.229 23.8272 555.301 23.8272 555.4L23.8272 555.716C23.8272 555.814 23.8499 555.888 23.8952 555.936C23.9405 555.981 24.0125 556.004 24.1112 556.004L24.3072 556.004C24.5072 556.004 24.6072 555.908 24.6072 555.716ZM26.0592 555.344L26.0592 555.768C26.0592 555.965 26.0085 556.118 25.9072 556.228C25.8059 556.337 25.6579 556.392 25.4632 556.392L25.2472 556.392C25.0019 556.392 24.8419 556.3 24.7672 556.116C24.6925 556.3 24.5312 556.392 24.2832 556.392L24.0792 556.392C23.8872 556.392 23.7405 556.337 23.6392 556.228C23.5379 556.118 23.4872 555.965 23.4872 555.768L23.4872 555.344C23.4872 555.146 23.5379 554.994 23.6392 554.888C23.7405 554.778 23.8872 554.724 24.0792 554.724L24.2832 554.724C24.4059 554.724 24.5099 554.749 24.5952 554.8C24.6805 554.848 24.7379 554.913 24.7672 554.996C24.8392 554.814 25.0005 554.724 25.2512 554.724L25.4632 554.724C25.6579 554.724 25.8059 554.778 25.9072 554.888C26.0085 554.994 26.0592 555.146 26.0592 555.344ZM24.7552 553.615L24.7552 553.055L24.1232 553.055C23.9259 553.055 23.8272 553.152 23.8272 553.347L23.8272 553.615C23.8272 553.807 23.9259 553.903 24.1232 553.903L24.4632 553.903C24.6579 553.903 24.7552 553.807 24.7552 553.615ZM26.0592 553.291L26.0592 554.103C26.0592 554.153 26.0365 554.179 25.9912 554.179L25.7832 554.179C25.7405 554.179 25.7192 554.153 25.7192 554.103L25.7192 553.347C25.7192 553.155 25.6205 553.059 25.4232 553.059L25.0992 553.059L25.0992 553.675C25.0992 553.872 25.0459 554.025 24.9392 554.135C24.8299 554.244 24.6779 554.299 24.4832 554.299L24.1072 554.299C23.9099 554.299 23.7579 554.244 23.6512 554.135C23.5419 554.025 23.4872 553.872 23.4872 553.675L23.4872 553.291C23.4872 553.093 23.5419 552.94 23.6512 552.831C23.7579 552.721 23.9099 552.667 24.1072 552.667L25.4392 552.667C25.6339 552.667 25.7859 552.721 25.8952 552.831C26.0045 552.94 26.0592 553.093 26.0592 553.291ZM25.9912 552.224L25.6232 552.224C25.4579 552.224 25.3192 552.153 25.2072 552.012L24.5912 551.256C24.4899 551.128 24.3725 551.064 24.2392 551.064L24.1072 551.064C23.9152 551.064 23.8192 551.164 23.8192 551.364L23.8192 551.56C23.8192 551.661 23.8419 551.735 23.8872 551.78C23.9325 551.825 24.0059 551.848 24.1072 551.848L24.2552 551.848C24.3032 551.848 24.3272 551.871 24.3272 551.916L24.3272 552.172C24.3272 552.217 24.3032 552.24 24.2552 552.24L24.0992 552.24C23.9045 552.24 23.7539 552.185 23.6472 552.076C23.5405 551.967 23.4872 551.813 23.4872 551.616L23.4872 551.304C23.4872 551.109 23.5405 550.957 23.6472 550.848C23.7539 550.739 23.9045 550.684 24.0992 550.684L24.2632 550.684C24.4712 550.684 24.6419 550.765 24.7752 550.928L25.4032 551.696C25.4539 551.757 25.5139 551.788 25.5832 551.788L25.7112 551.788L25.7112 550.748C25.7112 550.7 25.7339 550.676 25.7792 550.676L25.9912 550.676C26.0365 550.676 26.0592 550.7 26.0592 550.748L26.0592 552.152C26.0592 552.2 26.0365 552.224 25.9912 552.224ZM24.6072 549.599L24.6072 549.379C24.6072 549.182 24.5099 549.083 24.3152 549.083L24.1072 549.083C23.9152 549.083 23.8192 549.182 23.8192 549.379L23.8192 549.615C23.8192 549.714 23.8419 549.787 23.8872 549.835C23.9325 549.88 24.0059 549.903 24.1072 549.903L24.2232 549.903C24.2685 549.903 24.2912 549.926 24.2912 549.971L24.2912 550.227C24.2912 550.272 24.2685 550.295 24.2232 550.295L24.0992 550.295C23.9045 550.295 23.7539 550.24 23.6472 550.131C23.5405 550.022 23.4872 549.868 23.4872 549.671L23.4872 549.323C23.4872 549.126 23.5405 548.972 23.6472 548.863C23.7539 548.754 23.9045 548.699 24.0992 548.699L24.3192 548.699C24.5539 548.699 24.7032 548.806 24.7672 549.019C24.8179 548.806 24.9672 548.699 25.2152 548.699L25.4472 548.699C25.6419 548.699 25.7925 548.754 25.8992 548.863C26.0059 548.972 26.0592 549.126 26.0592 549.323L26.0592 549.671C26.0592 549.868 26.0059 550.022 25.8992 550.131C25.7925 550.24 25.6419 550.295 25.4472 550.295L25.3072 550.295C25.2592 550.295 25.2352 550.272 25.2352 550.227L25.2352 549.971C25.2352 549.926 25.2592 549.903 25.3072 549.903L25.4392 549.903C25.5379 549.903 25.6112 549.88 25.6592 549.835C25.7045 549.787 25.7272 549.714 25.7272 549.615L25.7272 549.379C25.7272 549.182 25.6312 549.083 25.4392 549.083L25.2192 549.083C25.0245 549.083 24.9272 549.182 24.9272 549.379L24.9272 549.599C24.9272 549.644 24.9045 549.667 24.8592 549.667L24.6792 549.667C24.6312 549.667 24.6072 549.644 24.6072 549.599ZM25.9912 547.306L25.6232 547.306C25.4579 547.306 25.3192 547.235 25.2072 547.094L24.5912 546.338C24.4899 546.21 24.3725 546.146 24.2392 546.146L24.1072 546.146C23.9152 546.146 23.8192 546.246 23.8192 546.446L23.8192 546.642C23.8192 546.743 23.8419 546.817 23.8872 546.862C23.9325 546.907 24.0059 546.93 24.1072 546.93L24.2552 546.93C24.3032 546.93 24.3272 546.953 24.3272 546.998L24.3272 547.254C24.3272 547.299 24.3032 547.322 24.2552 547.322L24.0992 547.322C23.9045 547.322 23.7539 547.267 23.6472 547.158C23.5405 547.049 23.4872 546.895 23.4872 546.698L23.4872 546.386C23.4872 546.191 23.5405 546.039 23.6472 545.93C23.7539 545.821 23.9045 545.766 24.0992 545.766L24.2632 545.766C24.4712 545.766 24.6419 545.847 24.7752 546.01L25.4032 546.778C25.4539 546.839 25.5139 546.87 25.5832 546.87L25.7112 546.87L25.7112 545.83C25.7112 545.782 25.7339 545.758 25.7792 545.758L25.9912 545.758C26.0365 545.758 26.0592 545.782 26.0592 545.83L26.0592 547.234C26.0592 547.282 26.0365 547.306 25.9912 547.306ZM24.6072 544.681L24.6072 544.461C24.6072 544.264 24.5099 544.165 24.3152 544.165L24.1072 544.165C23.9152 544.165 23.8192 544.264 23.8192 544.461L23.8192 544.697C23.8192 544.796 23.8419 544.869 23.8872 544.917C23.9325 544.962 24.0059 544.985 24.1072 544.985L24.2232 544.985C24.2685 544.985 24.2912 545.008 24.2912 545.053L24.2912 545.309C24.2912 545.354 24.2685 545.377 24.2232 545.377L24.0992 545.377C23.9045 545.377 23.7539 545.322 23.6472 545.213C23.5405 545.104 23.4872 544.95 23.4872 544.753L23.4872 544.405C23.4872 544.208 23.5405 544.054 23.6472 543.945C23.7539 543.836 23.9045 543.781 24.0992 543.781L24.3192 543.781C24.5539 543.781 24.7032 543.888 24.7672 544.101C24.8179 543.888 24.9672 543.781 25.2152 543.781L25.4472 543.781C25.6419 543.781 25.7925 543.836 25.8992 543.945C26.0059 544.054 26.0592 544.208 26.0592 544.405L26.0592 544.753C26.0592 544.95 26.0059 545.104 25.8992 545.213C25.7925 545.322 25.6419 545.377 25.4472 545.377L25.3072 545.377C25.2592 545.377 25.2352 545.354 25.2352 545.309L25.2352 545.053C25.2352 545.008 25.2592 544.985 25.3072 544.985L25.4392 544.985C25.5379 544.985 25.6112 544.962 25.6592 544.917C25.7045 544.869 25.7272 544.796 25.7272 544.697L25.7272 544.461C25.7272 544.264 25.6312 544.165 25.4392 544.165L25.2192 544.165C25.0245 544.165 24.9272 544.264 24.9272 544.461L24.9272 544.681C24.9272 544.726 24.9045 544.749 24.8592 544.749L24.6792 544.749C24.6312 544.749 24.6072 544.726 24.6072 544.681ZM25.7192 542.641L25.7192 542.325C25.7192 542.227 25.6965 542.155 25.6512 542.109C25.6059 542.061 25.5339 542.037 25.4352 542.037L25.2192 542.037C25.0192 542.037 24.9192 542.133 24.9192 542.325L24.9192 542.641C24.9192 542.833 25.0192 542.929 25.2192 542.929L25.4352 542.929C25.5339 542.929 25.6059 542.907 25.6512 542.861C25.6965 542.813 25.7192 542.74 25.7192 542.641ZM24.6072 542.641L24.6072 542.325C24.6072 542.133 24.5072 542.037 24.3072 542.037L24.1112 542.037C24.0125 542.037 23.9405 542.061 23.8952 542.109C23.8499 542.155 23.8272 542.227 23.8272 542.325L23.8272 542.641C23.8272 542.74 23.8499 542.813 23.8952 542.861C23.9405 542.907 24.0125 542.929 24.1112 542.929L24.3072 542.929C24.5072 542.929 24.6072 542.833 24.6072 542.641ZM26.0592 542.269L26.0592 542.693C26.0592 542.891 26.0085 543.044 25.9072 543.153C25.8059 543.263 25.6579 543.317 25.4632 543.317L25.2472 543.317C25.0019 543.317 24.8419 543.225 24.7672 543.041C24.6925 543.225 24.5312 543.317 24.2832 543.317L24.0792 543.317C23.8872 543.317 23.7405 543.263 23.6392 543.153C23.5379 543.044 23.4872 542.891 23.4872 542.693L23.4872 542.269C23.4872 542.072 23.5379 541.92 23.6392 541.813C23.7405 541.704 23.8872 541.649 24.0792 541.649L24.2832 541.649C24.4059 541.649 24.5099 541.675 24.5952 541.725C24.6805 541.773 24.7379 541.839 24.7672 541.921C24.8392 541.74 25.0005 541.649 25.2512 541.649L25.4632 541.649C25.6579 541.649 25.8059 541.704 25.9072 541.813C26.0085 541.92 26.0592 542.072 26.0592 542.269ZM24.7552 540.541L24.7552 539.981L24.1232 539.981C23.9259 539.981 23.8272 540.078 23.8272 540.273L23.8272 540.541C23.8272 540.733 23.9259 540.829 24.1232 540.829L24.4632 540.829C24.6579 540.829 24.7552 540.733 24.7552 540.541ZM26.0592 540.217L26.0592 541.029C26.0592 541.079 26.0365 541.105 25.9912 541.105L25.7832 541.105C25.7405 541.105 25.7192 541.079 25.7192 541.029L25.7192 540.273C25.7192 540.081 25.6205 539.985 25.4232 539.985L25.0992 539.985L25.0992 540.601C25.0992 540.798 25.0459 540.951 24.9392 541.061C24.8299 541.17 24.6779 541.225 24.4832 541.225L24.1072 541.225C23.9099 541.225 23.7579 541.17 23.6512 541.061C23.5419 540.951 23.4872 540.798 23.4872 540.601L23.4872 540.217C23.4872 540.019 23.5419 539.866 23.6512 539.757C23.7579 539.647 23.9099 539.593 24.1072 539.593L25.4392 539.593C25.6339 539.593 25.7859 539.647 25.8952 539.757C26.0045 539.866 26.0592 540.019 26.0592 540.217ZM24.7552 538.482L24.7552 537.922L24.1232 537.922C23.9259 537.922 23.8272 538.019 23.8272 538.214L23.8272 538.482C23.8272 538.674 23.9259 538.77 24.1232 538.77L24.4632 538.77C24.6579 538.77 24.7552 538.674 24.7552 538.482ZM26.0592 538.158L26.0592 538.97C26.0592 539.021 26.0365 539.046 25.9912 539.046L25.7832 539.046C25.7405 539.046 25.7192 539.021 25.7192 538.97L25.7192 538.214C25.7192 538.022 25.6205 537.926 25.4232 537.926L25.0992 537.926L25.0992 538.542C25.0992 538.739 25.0459 538.893 24.9392 539.002C24.8299 539.111 24.6779 539.166 24.4832 539.166L24.1072 539.166C23.9099 539.166 23.7579 539.111 23.6512 539.002C23.5419 538.893 23.4872 538.739 23.4872 538.542L23.4872 538.158C23.4872 537.961 23.5419 537.807 23.6512 537.698C23.7579 537.589 23.9099 537.534 24.1072 537.534L25.4392 537.534C25.6339 537.534 25.7859 537.589 25.8952 537.698C26.0045 537.807 26.0592 537.961 26.0592 538.158ZM25.2272 535.975L23.8112 535.975L25.2272 536.763L25.2272 535.975ZM26.0592 535.671L26.0592 535.907C26.0592 535.953 26.0365 535.975 25.9912 535.975L25.5712 535.975L25.5712 537.031C25.5712 537.109 25.5325 537.147 25.4552 537.147L25.3312 537.147C25.2725 537.147 25.2205 537.135 25.1752 537.111L23.5872 536.219C23.5472 536.198 23.5205 536.178 23.5072 536.159C23.4939 536.141 23.4872 536.113 23.4872 536.075L23.4872 535.723C23.4872 535.646 23.5259 535.607 23.6032 535.607L25.2272 535.607L25.2272 535.315C25.2272 535.27 25.2499 535.247 25.2952 535.247L25.4952 535.247C25.5459 535.247 25.5712 535.27 25.5712 535.315L25.5712 535.607L25.9912 535.607C26.0365 535.607 26.0592 535.629 26.0592 535.671ZM25.7192 534.251L25.7192 533.967C25.7192 533.775 25.6205 533.679 25.4232 533.679L24.1232 533.679C23.9259 533.679 23.8272 533.775 23.8272 533.967L23.8272 534.251C23.8272 534.443 23.9259 534.539 24.1232 534.539L25.4232 534.539C25.6205 534.539 25.7192 534.443 25.7192 534.251ZM26.0592 533.911L26.0592 534.311C26.0592 534.508 26.0045 534.661 25.8952 534.771C25.7859 534.88 25.6339 534.935 25.4392 534.935L24.1072 534.935C23.9099 534.935 23.7579 534.88 23.6512 534.771C23.5419 534.661 23.4872 534.508 23.4872 534.311L23.4872 533.911C23.4872 533.716 23.5419 533.564 23.6512 533.455C23.7579 533.345 23.9099 533.291 24.1072 533.291L25.4392 533.291C25.6339 533.291 25.7859 533.345 25.8952 533.455C26.0045 533.564 26.0592 533.716 26.0592 533.911ZM25.9912 532.845L25.6232 532.845C25.4579 532.845 25.3192 532.775 25.2072 532.633L24.5912 531.877C24.4899 531.749 24.3725 531.685 24.2392 531.685L24.1072 531.685C23.9152 531.685 23.8192 531.785 23.8192 531.985L23.8192 532.181C23.8192 532.283 23.8419 532.356 23.8872 532.401C23.9325 532.447 24.0059 532.469 24.1072 532.469L24.2552 532.469C24.3032 532.469 24.3272 532.492 24.3272 532.537L24.3272 532.793C24.3272 532.839 24.3032 532.861 24.2552 532.861L24.0992 532.861C23.9045 532.861 23.7539 532.807 23.6472 532.697C23.5405 532.588 23.4872 532.435 23.4872 532.237L23.4872 531.925C23.4872 531.731 23.5405 531.579 23.6472 531.469C23.7539 531.36 23.9045 531.305 24.0992 531.305L24.2632 531.305C24.4712 531.305 24.6419 531.387 24.7752 531.549L25.4032 532.317C25.4539 532.379 25.5139 532.409 25.5832 532.409L25.7112 532.409L25.7112 531.369C25.7112 531.321 25.7339 531.297 25.7792 531.297L25.9912 531.297C26.0365 531.297 26.0592 531.321 26.0592 531.369L26.0592 532.773C26.0592 532.821 26.0365 532.845 25.9912 532.845ZM25.9912 529.943L25.6232 529.943C25.4579 529.943 25.3192 529.872 25.2072 529.731L24.5912 528.975C24.4899 528.847 24.3725 528.783 24.2392 528.783L24.1072 528.783C23.9152 528.783 23.8192 528.883 23.8192 529.083L23.8192 529.279C23.8192 529.38 23.8419 529.454 23.8872 529.499C23.9325 529.544 24.0059 529.567 24.1072 529.567L24.2552 529.567C24.3032 529.567 24.3272 529.59 24.3272 529.635L24.3272 529.891C24.3272 529.936 24.3032 529.959 24.2552 529.959L24.0992 529.959C23.9045 529.959 23.7539 529.904 23.6472 529.795C23.5405 529.686 23.4872 529.532 23.4872 529.335L23.4872 529.023C23.4872 528.828 23.5405 528.676 23.6472 528.567C23.7539 528.458 23.9045 528.403 24.0992 528.403L24.2632 528.403C24.4712 528.403 24.6419 528.484 24.7752 528.647L25.4032 529.415C25.4539 529.476 25.5139 529.507 25.5832 529.507L25.7112 529.507L25.7112 528.467C25.7112 528.419 25.7339 528.395 25.7792 528.395L25.9912 528.395C26.0365 528.395 26.0592 528.419 26.0592 528.467L26.0592 529.871C26.0592 529.919 26.0365 529.943 25.9912 529.943ZM25.7192 527.294L25.7192 526.978C25.7192 526.879 25.6965 526.807 25.6512 526.762C25.6059 526.714 25.5339 526.69 25.4352 526.69L25.2192 526.69C25.0192 526.69 24.9192 526.786 24.9192 526.978L24.9192 527.294C24.9192 527.486 25.0192 527.582 25.2192 527.582L25.4352 527.582C25.5339 527.582 25.6059 527.559 25.6512 527.514C25.6965 527.466 25.7192 527.392 25.7192 527.294ZM24.6072 527.294L24.6072 526.978C24.6072 526.786 24.5072 526.69 24.3072 526.69L24.1112 526.69C24.0125 526.69 23.9405 526.714 23.8952 526.762C23.8499 526.807 23.8272 526.879 23.8272 526.978L23.8272 527.294C23.8272 527.392 23.8499 527.466 23.8952 527.514C23.9405 527.559 24.0125 527.582 24.1112 527.582L24.3072 527.582C24.5072 527.582 24.6072 527.486 24.6072 527.294ZM26.0592 526.922L26.0592 527.346C26.0592 527.543 26.0085 527.696 25.9072 527.806C25.8059 527.915 25.6579 527.97 25.4632 527.97L25.2472 527.97C25.0019 527.97 24.8419 527.878 24.7672 527.694C24.6925 527.878 24.5312 527.97 24.2832 527.97L24.0792 527.97C23.8872 527.97 23.7405 527.915 23.6392 527.806C23.5379 527.696 23.4872 527.543 23.4872 527.346L23.4872 526.922C23.4872 526.724 23.5379 526.572 23.6392 526.466C23.7405 526.356 23.8872 526.302 24.0792 526.302L24.2832 526.302C24.4059 526.302 24.5099 526.327 24.5952 526.378C24.6805 526.426 24.7379 526.491 24.7672 526.574C24.8392 526.392 25.0005 526.302 25.2512 526.302L25.4632 526.302C25.6579 526.302 25.8059 526.356 25.9072 526.466C26.0085 526.572 26.0592 526.724 26.0592 526.922ZM24.7552 525.193L24.7552 524.633L24.1232 524.633C23.9259 524.633 23.8272 524.73 23.8272 524.925L23.8272 525.193C23.8272 525.385 23.9259 525.481 24.1232 525.481L24.4632 525.481C24.6579 525.481 24.7552 525.385 24.7552 525.193ZM26.0592 524.869L26.0592 525.681C26.0592 525.732 26.0365 525.757 25.9912 525.757L25.7832 525.757C25.7405 525.757 25.7192 525.732 25.7192 525.681L25.7192 524.925C25.7192 524.733 25.6205 524.637 25.4232 524.637L25.0992 524.637L25.0992 525.253C25.0992 525.45 25.0459 525.604 24.9392 525.713C24.8299 525.822 24.6779 525.877 24.4832 525.877L24.1072 525.877C23.9099 525.877 23.7579 525.822 23.6512 525.713C23.5419 525.604 23.4872 525.45 23.4872 525.253L23.4872 524.869C23.4872 524.672 23.5419 524.518 23.6512 524.409C23.7579 524.3 23.9099 524.245 24.1072 524.245L25.4392 524.245C25.6339 524.245 25.7859 524.3 25.8952 524.409C26.0045 524.518 26.0592 524.672 26.0592 524.869ZM23.4872 522.55L23.4872 522.298C23.4872 522.253 23.5085 522.23 23.5512 522.23L25.4392 522.23C25.6339 522.23 25.7859 522.285 25.8952 522.394C26.0045 522.504 26.0592 522.656 26.0592 522.85L26.0592 523.25C26.0592 523.448 26.0045 523.601 25.8952 523.71C25.7859 523.82 25.6339 523.874 25.4392 523.874L25.0792 523.874C25.0339 523.874 25.0112 523.85 25.0112 523.802L25.0112 523.55C25.0112 523.505 25.0339 523.482 25.0792 523.482L25.4232 523.482C25.6205 523.482 25.7192 523.386 25.7192 523.194L25.7192 522.91C25.7192 522.718 25.6205 522.622 25.4232 522.622L23.5552 522.622C23.5099 522.622 23.4872 522.598 23.4872 522.55ZM24.7552 521.083L24.7552 520.523L24.1232 520.523C23.9259 520.523 23.8272 520.621 23.8272 520.815L23.8272 521.083C23.8272 521.275 23.9259 521.371 24.1232 521.371L24.4632 521.371C24.6579 521.371 24.7552 521.275 24.7552 521.083ZM26.0592 520.759L26.0592 521.571C26.0592 521.622 26.0365 521.647 25.9912 521.647L25.7832 521.647C25.7405 521.647 25.7192 521.622 25.7192 521.571L25.7192 520.815C25.7192 520.623 25.6205 520.527 25.4232 520.527L25.0992 520.527L25.0992 521.143C25.0992 521.341 25.0459 521.494 24.9392 521.603C24.8299 521.713 24.6779 521.767 24.4832 521.767L24.1072 521.767C23.9099 521.767 23.7579 521.713 23.6512 521.603C23.5419 521.494 23.4872 521.341 23.4872 521.143L23.4872 520.759C23.4872 520.562 23.5419 520.409 23.6512 520.299C23.7579 520.19 23.9099 520.135 24.1072 520.135L25.4392 520.135C25.6339 520.135 25.7859 520.19 25.8952 520.299C26.0045 520.409 26.0592 520.562 26.0592 520.759ZM25.7192 519.177L25.7192 518.613C25.7192 518.421 25.6205 518.325 25.4232 518.325L24.1232 518.325C23.9259 518.325 23.8272 518.421 23.8272 518.613L23.8272 519.177C23.8272 519.206 23.8405 519.221 23.8672 519.221L25.6752 519.221C25.7045 519.221 25.7192 519.206 25.7192 519.177ZM25.9912 519.609L23.5552 519.609C23.5099 519.609 23.4872 519.586 23.4872 519.541L23.4872 518.557C23.4872 518.362 23.5419 518.21 23.6512 518.101C23.7579 517.989 23.9099 517.933 24.1072 517.933L25.4392 517.933C25.6339 517.933 25.7859 517.989 25.8952 518.101C26.0045 518.21 26.0592 518.362 26.0592 518.557L26.0592 519.541C26.0592 519.586 26.0365 519.609 25.9912 519.609ZM23.4872 516.222L23.4872 515.97C23.4872 515.925 23.5085 515.902 23.5512 515.902L25.4392 515.902C25.6339 515.902 25.7859 515.957 25.8952 516.066C26.0045 516.175 26.0592 516.327 26.0592 516.522L26.0592 516.922C26.0592 517.119 26.0045 517.273 25.8952 517.382C25.7859 517.491 25.6339 517.546 25.4392 517.546L25.0792 517.546C25.0339 517.546 25.0112 517.522 25.0112 517.474L25.0112 517.222C25.0112 517.177 25.0339 517.154 25.0792 517.154L25.4232 517.154C25.6205 517.154 25.7192 517.058 25.7192 516.866L25.7192 516.582C25.7192 516.39 25.6205 516.294 25.4232 516.294L23.5552 516.294C23.5099 516.294 23.4872 516.27 23.4872 516.222ZM25.9912 515.423L25.6232 515.423C25.4579 515.423 25.3192 515.353 25.2072 515.211L24.5912 514.455C24.4899 514.327 24.3725 514.263 24.2392 514.263L24.1072 514.263C23.9152 514.263 23.8192 514.363 23.8192 514.563L23.8192 514.759C23.8192 514.861 23.8419 514.934 23.8872 514.979C23.9325 515.025 24.0059 515.047 24.1072 515.047L24.2552 515.047C24.3032 515.047 24.3272 515.07 24.3272 515.115L24.3272 515.371C24.3272 515.417 24.3032 515.439 24.2552 515.439L24.0992 515.439C23.9045 515.439 23.7539 515.385 23.6472 515.275C23.5405 515.166 23.4872 515.013 23.4872 514.815L23.4872 514.503C23.4872 514.309 23.5405 514.157 23.6472 514.047C23.7539 513.938 23.9045 513.883 24.0992 513.883L24.2632 513.883C24.4712 513.883 24.6419 513.965 24.7752 514.127L25.4032 514.895C25.4539 514.957 25.5139 514.987 25.5832 514.987L25.7112 514.987L25.7112 513.947C25.7112 513.899 25.7339 513.875 25.7792 513.875L25.9912 513.875C26.0365 513.875 26.0592 513.899 26.0592 513.947L26.0592 515.351C26.0592 515.399 26.0365 515.423 25.9912 515.423ZM24.6072 512.798L24.6072 512.578C24.6072 512.381 24.5099 512.282 24.3152 512.282L24.1072 512.282C23.9152 512.282 23.8192 512.381 23.8192 512.578L23.8192 512.814C23.8192 512.913 23.8419 512.986 23.8872 513.034C23.9325 513.079 24.0059 513.102 24.1072 513.102L24.2232 513.102C24.2685 513.102 24.2912 513.125 24.2912 513.17L24.2912 513.426C24.2912 513.471 24.2685 513.494 24.2232 513.494L24.0992 513.494C23.9045 513.494 23.7539 513.439 23.6472 513.33C23.5405 513.221 23.4872 513.067 23.4872 512.87L23.4872 512.522C23.4872 512.325 23.5405 512.171 23.6472 512.062C23.7539 511.953 23.9045 511.898 24.0992 511.898L24.3192 511.898C24.5539 511.898 24.7032 512.005 24.7672 512.218C24.8179 512.005 24.9672 511.898 25.2152 511.898L25.4472 511.898C25.6419 511.898 25.7925 511.953 25.8992 512.062C26.0059 512.171 26.0592 512.325 26.0592 512.522L26.0592 512.87C26.0592 513.067 26.0059 513.221 25.8992 513.33C25.7925 513.439 25.6419 513.494 25.4472 513.494L25.3072 513.494C25.2592 513.494 25.2352 513.471 25.2352 513.426L25.2352 513.17C25.2352 513.125 25.2592 513.102 25.3072 513.102L25.4392 513.102C25.5379 513.102 25.6112 513.079 25.6592 513.034C25.7045 512.986 25.7272 512.913 25.7272 512.814L25.7272 512.578C25.7272 512.381 25.6312 512.282 25.4392 512.282L25.2192 512.282C25.0245 512.282 24.9272 512.381 24.9272 512.578L24.9272 512.798C24.9272 512.843 24.9045 512.866 24.8592 512.866L24.6792 512.866C24.6312 512.866 24.6072 512.843 24.6072 512.798ZM24.7552 510.791L24.7552 510.231L24.1232 510.231C23.9259 510.231 23.8272 510.328 23.8272 510.523L23.8272 510.791C23.8272 510.983 23.9259 511.079 24.1232 511.079L24.4632 511.079C24.6579 511.079 24.7552 510.983 24.7552 510.791ZM26.0592 510.467L26.0592 511.279C26.0592 511.329 26.0365 511.355 25.9912 511.355L25.7832 511.355C25.7405 511.355 25.7192 511.329 25.7192 511.279L25.7192 510.523C25.7192 510.331 25.6205 510.235 25.4232 510.235L25.0992 510.235L25.0992 510.851C25.0992 511.048 25.0459 511.201 24.9392 511.311C24.8299 511.42 24.6779 511.475 24.4832 511.475L24.1072 511.475C23.9099 511.475 23.7579 511.42 23.6512 511.311C23.5419 511.201 23.4872 511.048 23.4872 510.851L23.4872 510.467C23.4872 510.269 23.5419 510.116 23.6512 510.007C23.7579 509.897 23.9099 509.843 24.1072 509.843L25.4392 509.843C25.6339 509.843 25.7859 509.897 25.8952 510.007C26.0045 510.116 26.0592 510.269 26.0592 510.467ZM25.7192 508.692L25.7192 508.408C25.7192 508.216 25.6205 508.12 25.4232 508.12L24.1232 508.12C23.9259 508.12 23.8272 508.216 23.8272 508.408L23.8272 508.692C23.8272 508.884 23.9259 508.98 24.1232 508.98L25.4232 508.98C25.6205 508.98 25.7192 508.884 25.7192 508.692ZM26.0592 508.352L26.0592 508.752C26.0592 508.949 26.0045 509.103 25.8952 509.212C25.7859 509.321 25.6339 509.376 25.4392 509.376L24.1072 509.376C23.9099 509.376 23.7579 509.321 23.6512 509.212C23.5419 509.103 23.4872 508.949 23.4872 508.752L23.4872 508.352C23.4872 508.157 23.5419 508.005 23.6512 507.896C23.7579 507.787 23.9099 507.732 24.1072 507.732L25.4392 507.732C25.6339 507.732 25.7859 507.787 25.8952 507.896C26.0045 508.005 26.0592 508.157 26.0592 508.352ZM24.6072 506.611L24.6072 506.391C24.6072 506.193 24.5099 506.095 24.3152 506.095L24.1072 506.095C23.9152 506.095 23.8192 506.193 23.8192 506.391L23.8192 506.627C23.8192 506.725 23.8419 506.799 23.8872 506.847C23.9325 506.892 24.0059 506.915 24.1072 506.915L24.2232 506.915C24.2685 506.915 24.2912 506.937 24.2912 506.983L24.2912 507.239C24.2912 507.284 24.2685 507.307 24.2232 507.307L24.0992 507.307C23.9045 507.307 23.7539 507.252 23.6472 507.143C23.5405 507.033 23.4872 506.88 23.4872 506.683L23.4872 506.335C23.4872 506.137 23.5405 505.984 23.6472 505.875C23.7539 505.765 23.9045 505.711 24.0992 505.711L24.3192 505.711C24.5539 505.711 24.7032 505.817 24.7672 506.031C24.8179 505.817 24.9672 505.711 25.2152 505.711L25.4472 505.711C25.6419 505.711 25.7925 505.765 25.8992 505.875C26.0059 505.984 26.0592 506.137 26.0592 506.335L26.0592 506.683C26.0592 506.88 26.0059 507.033 25.8992 507.143C25.7925 507.252 25.6419 507.307 25.4472 507.307L25.3072 507.307C25.2592 507.307 25.2352 507.284 25.2352 507.239L25.2352 506.983C25.2352 506.937 25.2592 506.915 25.3072 506.915L25.4392 506.915C25.5379 506.915 25.6112 506.892 25.6592 506.847C25.7045 506.799 25.7272 506.725 25.7272 506.627L25.7272 506.391C25.7272 506.193 25.6312 506.095 25.4392 506.095L25.2192 506.095C25.0245 506.095 24.9272 506.193 24.9272 506.391L24.9272 506.611C24.9272 506.656 24.9045 506.679 24.8592 506.679L24.6792 506.679C24.6312 506.679 24.6072 506.656 24.6072 506.611ZM25.9912 505.271L25.6232 505.271C25.4579 505.271 25.3192 505.2 25.2072 505.059L24.5912 504.303C24.4899 504.175 24.3725 504.111 24.2392 504.111L24.1072 504.111C23.9152 504.111 23.8192 504.211 23.8192 504.411L23.8192 504.607C23.8192 504.708 23.8419 504.782 23.8872 504.827C23.9325 504.872 24.0059 504.895 24.1072 504.895L24.2552 504.895C24.3032 504.895 24.3272 504.918 24.3272 504.963L24.3272 505.219C24.3272 505.264 24.3032 505.287 24.2552 505.287L24.0992 505.287C23.9045 505.287 23.7539 505.232 23.6472 505.123C23.5405 505.014 23.4872 504.86 23.4872 504.663L23.4872 504.351C23.4872 504.156 23.5405 504.004 23.6472 503.895C23.7539 503.786 23.9045 503.731 24.0992 503.731L24.2632 503.731C24.4712 503.731 24.6419 503.812 24.7752 503.975L25.4032 504.743C25.4539 504.804 25.5139 504.835 25.5832 504.835L25.7112 504.835L25.7112 503.795C25.7112 503.747 25.7339 503.723 25.7792 503.723L25.9912 503.723C26.0365 503.723 26.0592 503.747 26.0592 503.795L26.0592 505.199C26.0592 505.247 26.0365 505.271 25.9912 505.271ZM25.7192 502.806L25.7192 502.242C25.7192 502.05 25.6205 501.954 25.4232 501.954L24.1232 501.954C23.9259 501.954 23.8272 502.05 23.8272 502.242L23.8272 502.806C23.8272 502.835 23.8405 502.85 23.8672 502.85L25.6752 502.85C25.7045 502.85 25.7192 502.835 25.7192 502.806ZM25.9912 503.238L23.5552 503.238C23.5099 503.238 23.4872 503.215 23.4872 503.17L23.4872 502.186C23.4872 501.991 23.5419 501.839 23.6512 501.73C23.7579 501.618 23.9099 501.562 24.1072 501.562L25.4392 501.562C25.6339 501.562 25.7859 501.618 25.8952 501.73C26.0045 501.839 26.0592 501.991 26.0592 502.186L26.0592 503.17C26.0592 503.215 26.0365 503.238 25.9912 503.238ZM26.0592 499.902L26.0592 500.198C26.0592 500.219 26.0525 500.235 26.0392 500.246C26.0259 500.254 26.0085 500.253 25.9872 500.242L24.7272 499.582L23.5592 500.214C23.5405 500.225 23.5245 500.226 23.5112 500.218C23.4952 500.207 23.4872 500.191 23.4872 500.17L23.4872 499.886C23.4872 499.833 23.5099 499.795 23.5552 499.774L24.4832 499.314L24.4832 499.298L23.5552 498.838C23.5099 498.814 23.4872 498.779 23.4872 498.734L23.4872 498.438C23.4872 498.417 23.4952 498.402 23.5112 498.394C23.5272 498.383 23.5445 498.382 23.5632 498.39L24.7272 499.03L25.9832 498.37C26.0045 498.359 26.0232 498.358 26.0392 498.366C26.0525 498.374 26.0592 498.39 26.0592 498.414L26.0592 498.714C26.0592 498.757 26.0379 498.787 25.9952 498.806L25.0192 499.298L25.0192 499.314L25.9952 499.806C26.0379 499.825 26.0592 499.857 26.0592 499.902ZM26.0592 497.796L26.0592 498.092C26.0592 498.114 26.0525 498.13 26.0392 498.14C26.0259 498.148 26.0085 498.147 25.9872 498.136L24.7272 497.476L23.5592 498.108C23.5405 498.119 23.5245 498.12 23.5112 498.112C23.4952 498.102 23.4872 498.086 23.4872 498.064L23.4872 497.78C23.4872 497.727 23.5099 497.69 23.5552 497.668L24.4832 497.208L24.4832 497.192L23.5552 496.732C23.5099 496.708 23.4872 496.674 23.4872 496.628L23.4872 496.332C23.4872 496.311 23.4952 496.296 23.5112 496.288C23.5272 496.278 23.5445 496.276 23.5632 496.284L24.7272 496.924L25.9832 496.264C26.0045 496.254 26.0232 496.252 26.0392 496.26C26.0525 496.268 26.0592 496.284 26.0592 496.308L26.0592 496.608C26.0592 496.651 26.0379 496.682 25.9952 496.7L25.0192 497.192L25.0192 497.208L25.9952 497.7C26.0379 497.719 26.0592 497.751 26.0592 497.796ZM25.7192 495.239L25.7192 494.923C25.7192 494.824 25.6965 494.752 25.6512 494.707C25.6059 494.659 25.5339 494.635 25.4352 494.635L25.2192 494.635C25.0192 494.635 24.9192 494.731 24.9192 494.923L24.9192 495.239C24.9192 495.431 25.0192 495.527 25.2192 495.527L25.4352 495.527C25.5339 495.527 25.6059 495.504 25.6512 495.459C25.6965 495.411 25.7192 495.338 25.7192 495.239ZM24.6072 495.239L24.6072 494.923C24.6072 494.731 24.5072 494.635 24.3072 494.635L24.1112 494.635C24.0125 494.635 23.9405 494.659 23.8952 494.707C23.8499 494.752 23.8272 494.824 23.8272 494.923L23.8272 495.239C23.8272 495.338 23.8499 495.411 23.8952 495.459C23.9405 495.504 24.0125 495.527 24.1112 495.527L24.3072 495.527C24.5072 495.527 24.6072 495.431 24.6072 495.239ZM26.0592 494.867L26.0592 495.291C26.0592 495.488 26.0085 495.642 25.9072 495.751C25.8059 495.86 25.6579 495.915 25.4632 495.915L25.2472 495.915C25.0019 495.915 24.8419 495.823 24.7672 495.639C24.6925 495.823 24.5312 495.915 24.2832 495.915L24.0792 495.915C23.8872 495.915 23.7405 495.86 23.6392 495.751C23.5379 495.642 23.4872 495.488 23.4872 495.291L23.4872 494.867C23.4872 494.67 23.5379 494.518 23.6392 494.411C23.7405 494.302 23.8872 494.247 24.0792 494.247L24.2832 494.247C24.4059 494.247 24.5099 494.272 24.5952 494.323C24.6805 494.371 24.7379 494.436 24.7672 494.519C24.8392 494.338 25.0005 494.247 25.2512 494.247L25.4632 494.247C25.6579 494.247 25.8059 494.302 25.9072 494.411C26.0085 494.518 26.0592 494.67 26.0592 494.867ZM24.7552 493.138L24.7552 492.578L24.1232 492.578C23.9259 492.578 23.8272 492.675 23.8272 492.87L23.8272 493.138C23.8272 493.33 23.9259 493.426 24.1232 493.426L24.4632 493.426C24.6579 493.426 24.7552 493.33 24.7552 493.138ZM26.0592 492.814L26.0592 493.626C26.0592 493.677 26.0365 493.702 25.9912 493.702L25.7832 493.702C25.7405 493.702 25.7192 493.677 25.7192 493.626L25.7192 492.87C25.7192 492.678 25.6205 492.582 25.4232 492.582L25.0992 492.582L25.0992 493.198C25.0992 493.395 25.0459 493.549 24.9392 493.658C24.8299 493.767 24.6779 493.822 24.4832 493.822L24.1072 493.822C23.9099 493.822 23.7579 493.767 23.6512 493.658C23.5419 493.549 23.4872 493.395 23.4872 493.198L23.4872 492.814C23.4872 492.617 23.5419 492.463 23.6512 492.354C23.7579 492.245 23.9099 492.19 24.1072 492.19L25.4392 492.19C25.6339 492.19 25.7859 492.245 25.8952 492.354C26.0045 492.463 26.0592 492.617 26.0592 492.814ZM25.9912 491.748L25.6232 491.748C25.4579 491.748 25.3192 491.677 25.2072 491.536L24.5912 490.78C24.4899 490.652 24.3725 490.588 24.2392 490.588L24.1072 490.588C23.9152 490.588 23.8192 490.688 23.8192 490.888L23.8192 491.084C23.8192 491.185 23.8419 491.258 23.8872 491.304C23.9325 491.349 24.0059 491.372 24.1072 491.372L24.2552 491.372C24.3032 491.372 24.3272 491.394 24.3272 491.44L24.3272 491.696C24.3272 491.741 24.3032 491.764 24.2552 491.764L24.0992 491.764C23.9045 491.764 23.7539 491.709 23.6472 491.6C23.5405 491.49 23.4872 491.337 23.4872 491.14L23.4872 490.828C23.4872 490.633 23.5405 490.481 23.6472 490.372C23.7539 490.262 23.9045 490.208 24.0992 490.208L24.2632 490.208C24.4712 490.208 24.6419 490.289 24.7752 490.452L25.4032 491.22C25.4539 491.281 25.5139 491.312 25.5832 491.312L25.7112 491.312L25.7112 490.272C25.7112 490.224 25.7339 490.2 25.7792 490.2L25.9912 490.2C26.0365 490.2 26.0592 490.224 26.0592 490.272L26.0592 491.676C26.0592 491.724 26.0365 491.748 25.9912 491.748ZM24.6072 489.122L24.6072 488.902C24.6072 488.705 24.5099 488.606 24.3152 488.606L24.1072 488.606C23.9152 488.606 23.8192 488.705 23.8192 488.902L23.8192 489.138C23.8192 489.237 23.8419 489.31 23.8872 489.358C23.9325 489.404 24.0059 489.426 24.1072 489.426L24.2232 489.426C24.2685 489.426 24.2912 489.449 24.2912 489.494L24.2912 489.75C24.2912 489.796 24.2685 489.818 24.2232 489.818L24.0992 489.818C23.9045 489.818 23.7539 489.764 23.6472 489.654C23.5405 489.545 23.4872 489.392 23.4872 489.194L23.4872 488.846C23.4872 488.649 23.5405 488.496 23.6472 488.386C23.7539 488.277 23.9045 488.222 24.0992 488.222L24.3192 488.222C24.5539 488.222 24.7032 488.329 24.7672 488.542C24.8179 488.329 24.9672 488.222 25.2152 488.222L25.4472 488.222C25.6419 488.222 25.7925 488.277 25.8992 488.386C26.0059 488.496 26.0592 488.649 26.0592 488.846L26.0592 489.194C26.0592 489.392 26.0059 489.545 25.8992 489.654C25.7925 489.764 25.6419 489.818 25.4472 489.818L25.3072 489.818C25.2592 489.818 25.2352 489.796 25.2352 489.75L25.2352 489.494C25.2352 489.449 25.2592 489.426 25.3072 489.426L25.4392 489.426C25.5379 489.426 25.6112 489.404 25.6592 489.358C25.7045 489.31 25.7272 489.237 25.7272 489.138L25.7272 488.902C25.7272 488.705 25.6312 488.606 25.4392 488.606L25.2192 488.606C25.0245 488.606 24.9272 488.705 24.9272 488.902L24.9272 489.122C24.9272 489.168 24.9045 489.19 24.8592 489.19L24.6792 489.19C24.6312 489.19 24.6072 489.168 24.6072 489.122ZM25.7192 487.083L25.7192 486.767C25.7192 486.668 25.6965 486.596 25.6512 486.551C25.6059 486.503 25.5339 486.479 25.4352 486.479L25.2192 486.479C25.0192 486.479 24.9192 486.575 24.9192 486.767L24.9192 487.083C24.9192 487.275 25.0192 487.371 25.2192 487.371L25.4352 487.371C25.5339 487.371 25.6059 487.348 25.6512 487.303C25.6965 487.255 25.7192 487.181 25.7192 487.083ZM24.6072 487.083L24.6072 486.767C24.6072 486.575 24.5072 486.479 24.3072 486.479L24.1112 486.479C24.0125 486.479 23.9405 486.503 23.8952 486.551C23.8499 486.596 23.8272 486.668 23.8272 486.767L23.8272 487.083C23.8272 487.181 23.8499 487.255 23.8952 487.303C23.9405 487.348 24.0125 487.371 24.1112 487.371L24.3072 487.371C24.5072 487.371 24.6072 487.275 24.6072 487.083ZM26.0592 486.711L26.0592 487.135C26.0592 487.332 26.0085 487.485 25.9072 487.595C25.8059 487.704 25.6579 487.759 25.4632 487.759L25.2472 487.759C25.0019 487.759 24.8419 487.667 24.7672 487.483C24.6925 487.667 24.5312 487.759 24.2832 487.759L24.0792 487.759C23.8872 487.759 23.7405 487.704 23.6392 487.595C23.5379 487.485 23.4872 487.332 23.4872 487.135L23.4872 486.711C23.4872 486.513 23.5379 486.361 23.6392 486.255C23.7405 486.145 23.8872 486.091 24.0792 486.091L24.2832 486.091C24.4059 486.091 24.5099 486.116 24.5952 486.167C24.6805 486.215 24.7379 486.28 24.7672 486.363C24.8392 486.181 25.0005 486.091 25.2512 486.091L25.4632 486.091C25.6579 486.091 25.8059 486.145 25.9072 486.255C26.0085 486.361 26.0592 486.513 26.0592 486.711ZM24.7552 484.982L24.7552 484.422L24.1232 484.422C23.9259 484.422 23.8272 484.519 23.8272 484.714L23.8272 484.982C23.8272 485.174 23.9259 485.27 24.1232 485.27L24.4632 485.27C24.6579 485.27 24.7552 485.174 24.7552 484.982ZM26.0592 484.658L26.0592 485.47C26.0592 485.521 26.0365 485.546 25.9912 485.546L25.7832 485.546C25.7405 485.546 25.7192 485.521 25.7192 485.47L25.7192 484.714C25.7192 484.522 25.6205 484.426 25.4232 484.426L25.0992 484.426L25.0992 485.042C25.0992 485.239 25.0459 485.393 24.9392 485.502C24.8299 485.611 24.6779 485.666 24.4832 485.666L24.1072 485.666C23.9099 485.666 23.7579 485.611 23.6512 485.502C23.5419 485.393 23.4872 485.239 23.4872 485.042L23.4872 484.658C23.4872 484.461 23.5419 484.307 23.6512 484.198C23.7579 484.089 23.9099 484.034 24.1072 484.034L25.4392 484.034C25.6339 484.034 25.7859 484.089 25.8952 484.198C26.0045 484.307 26.0592 484.461 26.0592 484.658ZM25.7192 483.075L25.7192 482.511C25.7192 482.319 25.6205 482.223 25.4232 482.223L24.1232 482.223C23.9259 482.223 23.8272 482.319 23.8272 482.511L23.8272 483.075C23.8272 483.105 23.8405 483.119 23.8672 483.119L25.6752 483.119C25.7045 483.119 25.7192 483.105 25.7192 483.075ZM25.9912 483.507L23.5552 483.507C23.5099 483.507 23.4872 483.485 23.4872 483.439L23.4872 482.455C23.4872 482.261 23.5419 482.109 23.6512 481.999C23.7579 481.887 23.9099 481.831 24.1072 481.831L25.4392 481.831C25.6339 481.831 25.7859 481.887 25.8952 481.999C26.0045 482.109 26.0592 482.261 26.0592 482.455L26.0592 483.439C26.0592 483.485 26.0365 483.507 25.9912 483.507ZM24.6072 480.697L24.6072 480.477C24.6072 480.279 24.5099 480.181 24.3152 480.181L24.1072 480.181C23.9152 480.181 23.8192 480.279 23.8192 480.477L23.8192 480.713C23.8192 480.811 23.8419 480.885 23.8872 480.933C23.9325 480.978 24.0059 481.001 24.1072 481.001L24.2232 481.001C24.2685 481.001 24.2912 481.023 24.2912 481.069L24.2912 481.325C24.2912 481.37 24.2685 481.393 24.2232 481.393L24.0992 481.393C23.9045 481.393 23.7539 481.338 23.6472 481.229C23.5405 481.119 23.4872 480.966 23.4872 480.769L23.4872 480.421C23.4872 480.223 23.5405 480.07 23.6472 479.961C23.7539 479.851 23.9045 479.797 24.0992 479.797L24.3192 479.797C24.5539 479.797 24.7032 479.903 24.7672 480.117C24.8179 479.903 24.9672 479.797 25.2152 479.797L25.4472 479.797C25.6419 479.797 25.7925 479.851 25.8992 479.961C26.0059 480.07 26.0592 480.223 26.0592 480.421L26.0592 480.769C26.0592 480.966 26.0059 481.119 25.8992 481.229C25.7925 481.338 25.6419 481.393 25.4472 481.393L25.3072 481.393C25.2592 481.393 25.2352 481.37 25.2352 481.325L25.2352 481.069C25.2352 481.023 25.2592 481.001 25.3072 481.001L25.4392 481.001C25.5379 481.001 25.6112 480.978 25.6592 480.933C25.7045 480.885 25.7272 480.811 25.7272 480.713L25.7272 480.477C25.7272 480.279 25.6312 480.181 25.4392 480.181L25.2192 480.181C25.0245 480.181 24.9272 480.279 24.9272 480.477L24.9272 480.697C24.9272 480.742 24.9045 480.765 24.8592 480.765L24.6792 480.765C24.6312 480.765 24.6072 480.742 24.6072 480.697ZM24.6072 477.728L24.6072 477.508C24.6072 477.31 24.5099 477.212 24.3152 477.212L24.1072 477.212C23.9152 477.212 23.8192 477.31 23.8192 477.508L23.8192 477.744C23.8192 477.842 23.8419 477.916 23.8872 477.964C23.9325 478.009 24.0059 478.032 24.1072 478.032L24.2232 478.032C24.2685 478.032 24.2912 478.054 24.2912 478.1L24.2912 478.356C24.2912 478.401 24.2685 478.424 24.2232 478.424L24.0992 478.424C23.9045 478.424 23.7539 478.369 23.6472 478.26C23.5405 478.15 23.4872 477.997 23.4872 477.8L23.4872 477.452C23.4872 477.254 23.5405 477.101 23.6472 476.992C23.7539 476.882 23.9045 476.828 24.0992 476.828L24.3192 476.828C24.5539 476.828 24.7032 476.934 24.7672 477.148C24.8179 476.934 24.9672 476.828 25.2152 476.828L25.4472 476.828C25.6419 476.828 25.7925 476.882 25.8992 476.992C26.0059 477.101 26.0592 477.254 26.0592 477.452L26.0592 477.8C26.0592 477.997 26.0059 478.15 25.8992 478.26C25.7925 478.369 25.6419 478.424 25.4472 478.424L25.3072 478.424C25.2592 478.424 25.2352 478.401 25.2352 478.356L25.2352 478.1C25.2352 478.054 25.2592 478.032 25.3072 478.032L25.4392 478.032C25.5379 478.032 25.6112 478.009 25.6592 477.964C25.7045 477.916 25.7272 477.842 25.7272 477.744L25.7272 477.508C25.7272 477.31 25.6312 477.212 25.4392 477.212L25.2192 477.212C25.0245 477.212 24.9272 477.31 24.9272 477.508L24.9272 477.728C24.9272 477.773 24.9045 477.796 24.8592 477.796L24.6792 477.796C24.6312 477.796 24.6072 477.773 24.6072 477.728ZM25.2272 475.272L23.8112 475.272L25.2272 476.06L25.2272 475.272ZM26.0592 474.968L26.0592 475.204C26.0592 475.25 26.0365 475.272 25.9912 475.272L25.5712 475.272L25.5712 476.328C25.5712 476.406 25.5325 476.444 25.4552 476.444L25.3312 476.444C25.2725 476.444 25.2205 476.432 25.1752 476.408L23.5872 475.516C23.5472 475.495 23.5205 475.475 23.5072 475.456C23.4939 475.438 23.4872 475.41 23.4872 475.372L23.4872 475.02C23.4872 474.943 23.5259 474.904 23.6032 474.904L25.2272 474.904L25.2272 474.612C25.2272 474.567 25.2499 474.544 25.2952 474.544L25.4952 474.544C25.5459 474.544 25.5712 474.567 25.5712 474.612L25.5712 474.904L25.9912 474.904C26.0365 474.904 26.0592 474.926 26.0592 474.968ZM25.7192 473.555L25.7192 473.239C25.7192 473.141 25.6965 473.069 25.6512 473.023C25.6059 472.975 25.5339 472.951 25.4352 472.951L25.2192 472.951C25.0192 472.951 24.9192 473.047 24.9192 473.239L24.9192 473.555C24.9192 473.747 25.0192 473.843 25.2192 473.843L25.4352 473.843C25.5339 473.843 25.6059 473.821 25.6512 473.775C25.6965 473.727 25.7192 473.654 25.7192 473.555ZM24.6072 473.555L24.6072 473.239C24.6072 473.047 24.5072 472.951 24.3072 472.951L24.1112 472.951C24.0125 472.951 23.9405 472.975 23.8952 473.023C23.8499 473.069 23.8272 473.141 23.8272 473.239L23.8272 473.555C23.8272 473.654 23.8499 473.727 23.8952 473.775C23.9405 473.821 24.0125 473.843 24.1112 473.843L24.3072 473.843C24.5072 473.843 24.6072 473.747 24.6072 473.555ZM26.0592 473.183L26.0592 473.607C26.0592 473.805 26.0085 473.958 25.9072 474.067C25.8059 474.177 25.6579 474.231 25.4632 474.231L25.2472 474.231C25.0019 474.231 24.8419 474.139 24.7672 473.955C24.6925 474.139 24.5312 474.231 24.2832 474.231L24.0792 474.231C23.8872 474.231 23.7405 474.177 23.6392 474.067C23.5379 473.958 23.4872 473.805 23.4872 473.607L23.4872 473.183C23.4872 472.986 23.5379 472.834 23.6392 472.727C23.7405 472.618 23.8872 472.563 24.0792 472.563L24.2832 472.563C24.4059 472.563 24.5099 472.589 24.5952 472.639C24.6805 472.687 24.7379 472.753 24.7672 472.835C24.8392 472.654 25.0005 472.563 25.2512 472.563L25.4632 472.563C25.6579 472.563 25.8059 472.618 25.9072 472.727C26.0085 472.834 26.0592 472.986 26.0592 473.183ZM25.9912 472.123L25.6232 472.123C25.4579 472.123 25.3192 472.052 25.2072 471.911L24.5912 471.155C24.4899 471.027 24.3725 470.963 24.2392 470.963L24.1072 470.963C23.9152 470.963 23.8192 471.063 23.8192 471.263L23.8192 471.459C23.8192 471.56 23.8419 471.633 23.8872 471.679C23.9325 471.724 24.0059 471.747 24.1072 471.747L24.2552 471.747C24.3032 471.747 24.3272 471.769 24.3272 471.815L24.3272 472.071C24.3272 472.116 24.3032 472.139 24.2552 472.139L24.0992 472.139C23.9045 472.139 23.7539 472.084 23.6472 471.975C23.5405 471.865 23.4872 471.712 23.4872 471.515L23.4872 471.203C23.4872 471.008 23.5405 470.856 23.6472 470.747C23.7539 470.637 23.9045 470.583 24.0992 470.583L24.2632 470.583C24.4712 470.583 24.6419 470.664 24.7752 470.827L25.4032 471.595C25.4539 471.656 25.5139 471.687 25.5832 471.687L25.7112 471.687L25.7112 470.647C25.7112 470.599 25.7339 470.575 25.7792 470.575L25.9912 470.575C26.0365 470.575 26.0592 470.599 26.0592 470.647L26.0592 472.051C26.0592 472.099 26.0365 472.123 25.9912 472.123ZM24.7552 469.505L24.7552 468.945L24.1232 468.945C23.9259 468.945 23.8272 469.043 23.8272 469.237L23.8272 469.505C23.8272 469.697 23.9259 469.793 24.1232 469.793L24.4632 469.793C24.6579 469.793 24.7552 469.697 24.7552 469.505ZM26.0592 469.181L26.0592 469.993C26.0592 470.044 26.0365 470.069 25.9912 470.069L25.7832 470.069C25.7405 470.069 25.7192 470.044 25.7192 469.993L25.7192 469.237C25.7192 469.045 25.6205 468.949 25.4232 468.949L25.0992 468.949L25.0992 469.565C25.0992 469.763 25.0459 469.916 24.9392 470.025C24.8299 470.135 24.6779 470.189 24.4832 470.189L24.1072 470.189C23.9099 470.189 23.7579 470.135 23.6512 470.025C23.5419 469.916 23.4872 469.763 23.4872 469.565L23.4872 469.181C23.4872 468.984 23.5419 468.831 23.6512 468.721C23.7579 468.612 23.9099 468.557 24.1072 468.557L25.4392 468.557C25.6339 468.557 25.7859 468.612 25.8952 468.721C26.0045 468.831 26.0592 468.984 26.0592 469.181ZM25.9912 467.162L25.6232 467.162C25.4579 467.162 25.3192 467.091 25.2072 466.95L24.5912 466.194C24.4899 466.066 24.3725 466.002 24.2392 466.002L24.1072 466.002C23.9152 466.002 23.8192 466.102 23.8192 466.302L23.8192 466.498C23.8192 466.599 23.8419 466.672 23.8872 466.718C23.9325 466.763 24.0059 466.786 24.1072 466.786L24.2552 466.786C24.3032 466.786 24.3272 466.808 24.3272 466.854L24.3272 467.11C24.3272 467.155 24.3032 467.178 24.2552 467.178L24.0992 467.178C23.9045 467.178 23.7539 467.123 23.6472 467.014C23.5405 466.904 23.4872 466.751 23.4872 466.554L23.4872 466.242C23.4872 466.047 23.5405 465.895 23.6472 465.786C23.7539 465.676 23.9045 465.622 24.0992 465.622L24.2632 465.622C24.4712 465.622 24.6419 465.703 24.7752 465.866L25.4032 466.634C25.4539 466.695 25.5139 466.726 25.5832 466.726L25.7112 466.726L25.7112 465.686C25.7112 465.638 25.7339 465.614 25.7792 465.614L25.9912 465.614C26.0365 465.614 26.0592 465.638 26.0592 465.686L26.0592 467.09C26.0592 467.138 26.0365 467.162 25.9912 467.162ZM24.6072 464.536L24.6072 464.316C24.6072 464.119 24.5099 464.02 24.3152 464.02L24.1072 464.02C23.9152 464.02 23.8192 464.119 23.8192 464.316L23.8192 464.552C23.8192 464.651 23.8419 464.724 23.8872 464.772C23.9325 464.818 24.0059 464.84 24.1072 464.84L24.2232 464.84C24.2685 464.84 24.2912 464.863 24.2912 464.908L24.2912 465.164C24.2912 465.21 24.2685 465.232 24.2232 465.232L24.0992 465.232C23.9045 465.232 23.7539 465.178 23.6472 465.068C23.5405 464.959 23.4872 464.806 23.4872 464.608L23.4872 464.26C23.4872 464.063 23.5405 463.91 23.6472 463.8C23.7539 463.691 23.9045 463.636 24.0992 463.636L24.3192 463.636C24.5539 463.636 24.7032 463.743 24.7672 463.956C24.8179 463.743 24.9672 463.636 25.2152 463.636L25.4472 463.636C25.6419 463.636 25.7925 463.691 25.8992 463.8C26.0059 463.91 26.0592 464.063 26.0592 464.26L26.0592 464.608C26.0592 464.806 26.0059 464.959 25.8992 465.068C25.7925 465.178 25.6419 465.232 25.4472 465.232L25.3072 465.232C25.2592 465.232 25.2352 465.21 25.2352 465.164L25.2352 464.908C25.2352 464.863 25.2592 464.84 25.3072 464.84L25.4392 464.84C25.5379 464.84 25.6112 464.818 25.6592 464.772C25.7045 464.724 25.7272 464.651 25.7272 464.552L25.7272 464.316C25.7272 464.119 25.6312 464.02 25.4392 464.02L25.2192 464.02C25.0245 464.02 24.9272 464.119 24.9272 464.316L24.9272 464.536C24.9272 464.582 24.9045 464.604 24.8592 464.604L24.6792 464.604C24.6312 464.604 24.6072 464.582 24.6072 464.536ZM25.9912 463.197L25.6232 463.197C25.4579 463.197 25.3192 463.126 25.2072 462.985L24.5912 462.229C24.4899 462.101 24.3725 462.037 24.2392 462.037L24.1072 462.037C23.9152 462.037 23.8192 462.137 23.8192 462.337L23.8192 462.533C23.8192 462.634 23.8419 462.707 23.8872 462.753C23.9325 462.798 24.0059 462.821 24.1072 462.821L24.2552 462.821C24.3032 462.821 24.3272 462.843 24.3272 462.889L24.3272 463.145C24.3272 463.19 24.3032 463.213 24.2552 463.213L24.0992 463.213C23.9045 463.213 23.7539 463.158 23.6472 463.049C23.5405 462.939 23.4872 462.786 23.4872 462.589L23.4872 462.277C23.4872 462.082 23.5405 461.93 23.6472 461.821C23.7539 461.711 23.9045 461.657 24.0992 461.657L24.2632 461.657C24.4712 461.657 24.6419 461.738 24.7752 461.901L25.4032 462.669C25.4539 462.73 25.5139 462.761 25.5832 462.761L25.7112 462.761L25.7112 461.721C25.7112 461.673 25.7339 461.649 25.7792 461.649L25.9912 461.649C26.0365 461.649 26.0592 461.673 26.0592 461.721L26.0592 463.125C26.0592 463.173 26.0365 463.197 25.9912 463.197ZM25.7192 460.54L25.7192 460.256C25.7192 460.064 25.6205 459.968 25.4232 459.968L24.1232 459.968C23.9259 459.968 23.8272 460.064 23.8272 460.256L23.8272 460.54C23.8272 460.732 23.9259 460.828 24.1232 460.828L25.4232 460.828C25.6205 460.828 25.7192 460.732 25.7192 460.54ZM26.0592 460.2L26.0592 460.6C26.0592 460.797 26.0045 460.95 25.8952 461.06C25.7859 461.169 25.6339 461.224 25.4392 461.224L24.1072 461.224C23.9099 461.224 23.7579 461.169 23.6512 461.06C23.5419 460.95 23.4872 460.797 23.4872 460.6L23.4872 460.2C23.4872 460.005 23.5419 459.853 23.6512 459.744C23.7579 459.634 23.9099 459.58 24.1072 459.58L25.4392 459.58C25.6339 459.58 25.7859 459.634 25.8952 459.744C26.0045 459.853 26.0592 460.005 26.0592 460.2Z" fill="#F8EF00"/>
<g opacity="0.2">
<rect width="3" height="3" fill="#F8EF00"/>
<rect x="4" width="4" height="3" fill="#F8EF00"/>
</g>
<g opacity="0.2">
<rect y="5" width="5" height="3" fill="#F8EF00"/>
<rect x="6" y="5" width="2" height="3" fill="#F8EF00"/>
</g>
<g opacity="0.2">
<rect y="10" width="6" height="3" fill="#F8EF00"/>
<rect x="7" y="10" width="1" height="3" fill="#F8EF00"/>
</g>
<g opacity="0.2">
<rect y="15" width="3" height="3" fill="#F8EF00"/>
<rect x="4" y="15" width="4" height="3" fill="#F8EF00"/>
</g>
<g opacity="0.2">
<rect y="20" width="4" height="3" fill="#F8EF00"/>
<rect x="5" y="20" width="3" height="3" fill="#F8EF00"/>
</g>
<g opacity="0.2">
<rect y="25" width="3" height="3" fill="#F8EF00"/>
<rect x="4" y="25" width="4" height="3" fill="#F8EF00"/>
</g>
<g opacity="0.2">
<rect y="30" width="3" height="3" fill="#F8EF00"/>
<rect x="4" y="30" width="4" height="3" fill="#F8EF00"/>
</g>
<g opacity="0.2">
<rect y="35" width="5" height="3" fill="#F8EF00"/>
<rect x="6" y="35" width="2" height="3" fill="#F8EF00"/>
</g>
<g opacity="0.2">
<rect y="40" width="6" height="3" fill="#F8EF00"/>
<rect x="7" y="40" width="1" height="3" fill="#F8EF00"/>
</g>
<g opacity="0.2">
<rect y="45" width="3" height="3" fill="#F8EF00"/>
<rect x="4" y="45" width="4" height="3" fill="#F8EF00"/>
</g>
<g opacity="0.2">
<rect y="50" width="4" height="3" fill="#F8EF00"/>
<rect x="5" y="50" width="3" height="3" fill="#F8EF00"/>
</g>
<g opacity="0.2">
<rect y="55" width="3" height="3" fill="#F8EF00"/>
<rect x="4" y="55" width="4" height="3" fill="#F8EF00"/>
</g>
<g opacity="0.2">
<rect y="60" width="3" height="3" fill="#F8EF00"/>
<rect x="4" y="60" width="4" height="3" fill="#F8EF00"/>
</g>
<g opacity="0.2">
<rect y="65" width="5" height="3" fill="#F8EF00"/>
<rect x="6" y="65" width="2" height="3" fill="#F8EF00"/>
</g>
<g opacity="0.2">
<rect y="70" width="6" height="3" fill="#F8EF00"/>
<rect x="7" y="70" width="1" height="3" fill="#F8EF00"/>
</g>
<g opacity="0.2">
<rect y="75" width="3" height="3" fill="#F8EF00"/>
<rect x="4" y="75" width="4" height="3" fill="#F8EF00"/>
</g>
<g opacity="0.2">
<rect y="80" width="4" height="3" fill="#F8EF00"/>
<rect x="5" y="80" width="3" height="3" fill="#F8EF00"/>
</g>
<g opacity="0.2">
<rect y="85" width="3" height="3" fill="#F8EF00"/>
<rect x="4" y="85" width="4" height="3" fill="#F8EF00"/>
</g>
<g opacity="0.2">
<rect y="90" width="3" height="3" fill="#F8EF00"/>
<rect x="4" y="90" width="4" height="3" fill="#F8EF00"/>
</g>
<g opacity="0.2">
<rect y="95" width="5" height="3" fill="#F8EF00"/>
<rect x="6" y="95" width="2" height="3" fill="#F8EF00"/>
</g>
<g opacity="0.2">
<rect y="100" width="6" height="3" fill="#F8EF00"/>
<rect x="7" y="100" width="1" height="3" fill="#F8EF00"/>
</g>
<rect y="105" width="3" height="3" fill="#F8EF00"/>
<rect x="4" y="105" width="4" height="3" fill="#F8EF00"/>
<g opacity="0.2">
<rect y="110" width="4" height="3" fill="#F8EF00"/>
<rect x="5" y="110" width="3" height="3" fill="#F8EF00"/>
</g>
<g opacity="0.2">
<rect y="115" width="3" height="3" fill="#F8EF00"/>
<rect x="4" y="115" width="4" height="3" fill="#F8EF00"/>
</g>
<g opacity="0.2">
<rect y="120" width="3" height="3" fill="#F8EF00"/>
<rect x="4" y="120" width="4" height="3" fill="#F8EF00"/>
</g>
<g opacity="0.2">
<rect y="125" width="5" height="3" fill="#F8EF00"/>
<rect x="6" y="125" width="2" height="3" fill="#F8EF00"/>
</g>
<g opacity="0.2">
<rect y="130" width="6" height="3" fill="#F8EF00"/>
<rect x="7" y="130" width="1" height="3" fill="#F8EF00"/>
</g>
<g opacity="0.2">
<rect y="135" width="3" height="3" fill="#F8EF00"/>
<rect x="4" y="135" width="4" height="3" fill="#F8EF00"/>
</g>
<g opacity="0.2">
<rect y="140" width="4" height="3" fill="#F8EF00"/>
<rect x="5" y="140" width="3" height="3" fill="#F8EF00"/>
</g>
<g opacity="0.2">
<rect y="145" width="3" height="3" fill="#F8EF00"/>
<rect x="4" y="145" width="4" height="3" fill="#F8EF00"/>
</g>
<g opacity="0.2">
<rect y="150" width="3" height="3" fill="#F8EF00"/>
<rect x="4" y="150" width="4" height="3" fill="#F8EF00"/>
</g>
<g opacity="0.2">
<rect y="155" width="5" height="3" fill="#F8EF00"/>
<rect x="6" y="155" width="2" height="3" fill="#F8EF00"/>
</g>
<g opacity="0.2">
<rect y="160" width="6" height="3" fill="#F8EF00"/>
<rect x="7" y="160" width="1" height="3" fill="#F8EF00"/>
</g>
<g opacity="0.2">
<rect y="165" width="3" height="3" fill="#F8EF00"/>
<rect x="4" y="165" width="4" height="3" fill="#F8EF00"/>
</g>
<g opacity="0.2">
<rect y="170" width="4" height="3" fill="#F8EF00"/>
<rect x="5" y="170" width="3" height="3" fill="#F8EF00"/>
</g>
<g opacity="0.2">
<rect y="175" width="3" height="3" fill="#F8EF00"/>
<rect x="4" y="175" width="4" height="3" fill="#F8EF00"/>
</g>
<g opacity="0.2">
<rect y="180" width="3" height="3" fill="#F8EF00"/>
<rect x="4" y="180" width="4" height="3" fill="#F8EF00"/>
</g>
<g opacity="0.2">
<rect y="185" width="5" height="3" fill="#F8EF00"/>
<rect x="6" y="185" width="2" height="3" fill="#F8EF00"/>
</g>
<g opacity="0.2">
<rect y="190" width="6" height="3" fill="#F8EF00"/>
<rect x="7" y="190" width="1" height="3" fill="#F8EF00"/>
</g>
<g opacity="0.2">
<rect y="195" width="3" height="3" fill="#F8EF00"/>
<rect x="4" y="195" width="4" height="3" fill="#F8EF00"/>
</g>
<g opacity="0.2">
<rect y="200" width="4" height="3" fill="#F8EF00"/>
<rect x="5" y="200" width="3" height="3" fill="#F8EF00"/>
</g>
<g opacity="0.2">
<rect y="205" width="3" height="3" fill="#F8EF00"/>
<rect x="4" y="205" width="4" height="3" fill="#F8EF00"/>
</g>
<g opacity="0.2">
<rect y="210" width="3" height="3" fill="#F8EF00"/>
<rect x="4" y="210" width="4" height="3" fill="#F8EF00"/>
</g>
<g opacity="0.2">
<rect y="215" width="5" height="3" fill="#F8EF00"/>
<rect x="6" y="215" width="2" height="3" fill="#F8EF00"/>
</g>
<g opacity="0.2">
<rect y="220" width="6" height="3" fill="#F8EF00"/>
<rect x="7" y="220" width="1" height="3" fill="#F8EF00"/>
</g>
<g opacity="0.2">
<rect y="225" width="3" height="3" fill="#F8EF00"/>
<rect x="4" y="225" width="4" height="3" fill="#F8EF00"/>
</g>
<g opacity="0.2">
<rect y="230" width="4" height="3" fill="#F8EF00"/>
<rect x="5" y="230" width="3" height="3" fill="#F8EF00"/>
</g>
<g opacity="0.2">
<rect y="235" width="3" height="3" fill="#F8EF00"/>
<rect x="4" y="235" width="4" height="3" fill="#F8EF00"/>
</g>
<g opacity="0.2">
<rect y="240" width="3" height="3" fill="#F8EF00"/>
<rect x="4" y="240" width="4" height="3" fill="#F8EF00"/>
</g>
<g opacity="0.2">
<rect y="245" width="5" height="3" fill="#F8EF00"/>
<rect x="6" y="245" width="2" height="3" fill="#F8EF00"/>
</g>
<g opacity="0.2">
<rect y="250" width="6" height="3" fill="#F8EF00"/>
<rect x="7" y="250" width="1" height="3" fill="#F8EF00"/>
</g>
<g opacity="0.2">
<rect y="255" width="3" height="3" fill="#F8EF00"/>
<rect x="4" y="255" width="4" height="3" fill="#F8EF00"/>
</g>
<g opacity="0.2">
<rect y="260" width="4" height="3" fill="#F8EF00"/>
<rect x="5" y="260" width="3" height="3" fill="#F8EF00"/>
</g>
<g opacity="0.2">
<rect y="265" width="3" height="3" fill="#F8EF00"/>
<rect x="4" y="265" width="4" height="3" fill="#F8EF00"/>
</g>
<g opacity="0.2">
<rect y="270" width="3" height="3" fill="#F8EF00"/>
<rect x="4" y="270" width="4" height="3" fill="#F8EF00"/>
</g>
<g opacity="0.2">
<rect y="275" width="5" height="3" fill="#F8EF00"/>
<rect x="6" y="275" width="2" height="3" fill="#F8EF00"/>
</g>
<g opacity="0.2">
<rect y="280" width="6" height="3" fill="#F8EF00"/>
<rect x="7" y="280" width="1" height="3" fill="#F8EF00"/>
</g>
<g opacity="0.2">
<rect y="285" width="3" height="3" fill="#F8EF00"/>
<rect x="4" y="285" width="4" height="3" fill="#F8EF00"/>
</g>
<g opacity="0.2">
<rect y="290" width="4" height="3" fill="#F8EF00"/>
<rect x="5" y="290" width="3" height="3" fill="#F8EF00"/>
</g>
<g opacity="0.2">
<rect y="295" width="3" height="3" fill="#F8EF00"/>
<rect x="4" y="295" width="4" height="3" fill="#F8EF00"/>
</g>
<g opacity="0.2">
<rect y="300" width="3" height="3" fill="#F8EF00"/>
<rect x="4" y="300" width="4" height="3" fill="#F8EF00"/>
</g>
<g opacity="0.2">
<rect y="305" width="5" height="3" fill="#F8EF00"/>
<rect x="6" y="305" width="2" height="3" fill="#F8EF00"/>
</g>
<g opacity="0.2">
<rect y="310" width="6" height="3" fill="#F8EF00"/>
<rect x="7" y="310" width="1" height="3" fill="#F8EF00"/>
</g>
<g opacity="0.2">
<rect y="315" width="3" height="3" fill="#F8EF00"/>
<rect x="4" y="315" width="4" height="3" fill="#F8EF00"/>
</g>
<g opacity="0.2">
<rect y="320" width="4" height="3" fill="#F8EF00"/>
<rect x="5" y="320" width="3" height="3" fill="#F8EF00"/>
</g>
<g opacity="0.2">
<rect y="325" width="3" height="3" fill="#F8EF00"/>
<rect x="4" y="325" width="4" height="3" fill="#F8EF00"/>
</g>
<g opacity="0.2">
<rect y="330" width="3" height="3" fill="#F8EF00"/>
<rect x="4" y="330" width="4" height="3" fill="#F8EF00"/>
</g>
<g opacity="0.2">
<rect y="335" width="5" height="3" fill="#F8EF00"/>
<rect x="6" y="335" width="2" height="3" fill="#F8EF00"/>
</g>
<g opacity="0.2">
<rect y="340" width="6" height="3" fill="#F8EF00"/>
<rect x="7" y="340" width="1" height="3" fill="#F8EF00"/>
</g>
<g opacity="0.2">
<rect y="345" width="3" height="3" fill="#F8EF00"/>
<rect x="4" y="345" width="4" height="3" fill="#F8EF00"/>
</g>
<g opacity="0.2">
<rect y="350" width="4" height="3" fill="#F8EF00"/>
<rect x="5" y="350" width="3" height="3" fill="#F8EF00"/>
</g>
<g opacity="0.2">
<rect y="355" width="3" height="3" fill="#F8EF00"/>
<rect x="4" y="355" width="4" height="3" fill="#F8EF00"/>
</g>
<g opacity="0.2">
<rect y="360" width="3" height="3" fill="#F8EF00"/>
<rect x="4" y="360" width="4" height="3" fill="#F8EF00"/>
</g>
<g opacity="0.2">
<rect y="365" width="5" height="3" fill="#F8EF00"/>
<rect x="6" y="365" width="2" height="3" fill="#F8EF00"/>
</g>
<g opacity="0.2">
<rect y="370" width="6" height="3" fill="#F8EF00"/>
<rect x="7" y="370" width="1" height="3" fill="#F8EF00"/>
</g>
<g opacity="0.2">
<rect y="375" width="3" height="3" fill="#F8EF00"/>
<rect x="4" y="375" width="4" height="3" fill="#F8EF00"/>
</g>
<g opacity="0.2">
<rect y="380" width="4" height="3" fill="#F8EF00"/>
<rect x="5" y="380" width="3" height="3" fill="#F8EF00"/>
</g>
<g opacity="0.2">
<rect y="385" width="3" height="3" fill="#F8EF00"/>
<rect x="4" y="385" width="4" height="3" fill="#F8EF00"/>
</g>
<g opacity="0.2">
<rect y="390" width="3" height="3" fill="#F8EF00"/>
<rect x="4" y="390" width="4" height="3" fill="#F8EF00"/>
</g>
<g opacity="0.2">
<rect y="395" width="5" height="3" fill="#F8EF00"/>
<rect x="6" y="395" width="2" height="3" fill="#F8EF00"/>
</g>
<g opacity="0.2">
<rect y="400" width="6" height="3" fill="#F8EF00"/>
<rect x="7" y="400" width="1" height="3" fill="#F8EF00"/>
</g>
<g opacity="0.2">
<rect y="405" width="3" height="3" fill="#F8EF00"/>
<rect x="4" y="405" width="4" height="3" fill="#F8EF00"/>
</g>
<g opacity="0.2">
<rect y="410" width="4" height="3" fill="#F8EF00"/>
<rect x="5" y="410" width="3" height="3" fill="#F8EF00"/>
</g>
<g opacity="0.2">
<rect y="415" width="3" height="3" fill="#F8EF00"/>
<rect x="4" y="415" width="4" height="3" fill="#F8EF00"/>
</g>
<g opacity="0.2">
<rect y="420" width="3" height="3" fill="#F8EF00"/>
<rect x="4" y="420" width="4" height="3" fill="#F8EF00"/>
</g>
<g opacity="0.2">
<rect y="425" width="5" height="3" fill="#F8EF00"/>
<rect x="6" y="425" width="2" height="3" fill="#F8EF00"/>
</g>
<g opacity="0.2">
<rect y="430" width="6" height="3" fill="#F8EF00"/>
<rect x="7" y="430" width="1" height="3" fill="#F8EF00"/>
</g>
<g opacity="0.2">
<rect y="435" width="3" height="3" fill="#F8EF00"/>
<rect x="4" y="435" width="4" height="3" fill="#F8EF00"/>
</g>
<g opacity="0.2">
<rect y="440" width="4" height="3" fill="#F8EF00"/>
<rect x="5" y="440" width="3" height="3" fill="#F8EF00"/>
</g>
<g opacity="0.2">
<rect y="445" width="3" height="3" fill="#F8EF00"/>
<rect x="4" y="445" width="4" height="3" fill="#F8EF00"/>
</g>
<g opacity="0.2">
<rect y="450" width="3" height="3" fill="#F8EF00"/>
<rect x="4" y="450" width="4" height="3" fill="#F8EF00"/>
</g>
<g opacity="0.2">
<rect y="455" width="5" height="3" fill="#F8EF00"/>
<rect x="6" y="455" width="2" height="3" fill="#F8EF00"/>
</g>
<g opacity="0.2">
<rect y="460" width="6" height="3" fill="#F8EF00"/>
<rect x="7" y="460" width="1" height="3" fill="#F8EF00"/>
</g>
<g opacity="0.2">
<rect y="465" width="3" height="3" fill="#F8EF00"/>
<rect x="4" y="465" width="4" height="3" fill="#F8EF00"/>
</g>
<g opacity="0.2">
<rect y="470" width="4" height="3" fill="#F8EF00"/>
<rect x="5" y="470" width="3" height="3" fill="#F8EF00"/>
</g>
<g opacity="0.2">
<rect y="475" width="3" height="3" fill="#F8EF00"/>
<rect x="4" y="475" width="4" height="3" fill="#F8EF00"/>
</g>
<g opacity="0.2">
<rect y="480" width="3" height="3" fill="#F8EF00"/>
<rect x="4" y="480" width="4" height="3" fill="#F8EF00"/>
</g>
<g opacity="0.2">
<rect y="485" width="5" height="3" fill="#F8EF00"/>
<rect x="6" y="485" width="2" height="3" fill="#F8EF00"/>
</g>
<g opacity="0.2">
<rect y="490" width="6" height="3" fill="#F8EF00"/>
<rect x="7" y="490" width="1" height="3" fill="#F8EF00"/>
</g>
<g opacity="0.2">
<rect y="495" width="3" height="3" fill="#F8EF00"/>
<rect x="4" y="495" width="4" height="3" fill="#F8EF00"/>
</g>
<g opacity="0.2">
<rect y="500" width="4" height="3" fill="#F8EF00"/>
<rect x="5" y="500" width="3" height="3" fill="#F8EF00"/>
</g>
<g opacity="0.2">
<rect y="505" width="3" height="3" fill="#F8EF00"/>
<rect x="4" y="505" width="4" height="3" fill="#F8EF00"/>
</g>
<g opacity="0.2">
<rect y="510" width="3" height="3" fill="#F8EF00"/>
<rect x="4" y="510" width="4" height="3" fill="#F8EF00"/>
</g>
<g opacity="0.2">
<rect y="515" width="5" height="3" fill="#F8EF00"/>
<rect x="6" y="515" width="2" height="3" fill="#F8EF00"/>
</g>
<g opacity="0.2">
<rect y="520" width="6" height="3" fill="#F8EF00"/>
<rect x="7" y="520" width="1" height="3" fill="#F8EF00"/>
</g>
<g opacity="0.2">
<rect y="525" width="3" height="3" fill="#F8EF00"/>
<rect x="4" y="525" width="4" height="3" fill="#F8EF00"/>
</g>
<g opacity="0.2">
<rect y="530" width="4" height="3" fill="#F8EF00"/>
<rect x="5" y="530" width="3" height="3" fill="#F8EF00"/>
</g>
<g opacity="0.2">
<rect y="535" width="3" height="3" fill="#F8EF00"/>
<rect x="4" y="535" width="4" height="3" fill="#F8EF00"/>
</g>
<g opacity="0.2">
<rect y="540" width="3" height="3" fill="#F8EF00"/>
<rect x="4" y="540" width="4" height="3" fill="#F8EF00"/>
</g>
<g opacity="0.2">
<rect y="545" width="5" height="3" fill="#F8EF00"/>
<rect x="6" y="545" width="2" height="3" fill="#F8EF00"/>
</g>
<g opacity="0.2">
<rect y="550" width="6" height="3" fill="#F8EF00"/>
<rect x="7" y="550" width="1" height="3" fill="#F8EF00"/>
</g>
<g opacity="0.2">
<rect y="555" width="3" height="3" fill="#F8EF00"/>
<rect x="4" y="555" width="4" height="3" fill="#F8EF00"/>
</g>
<g opacity="0.2">
<rect y="560" width="4" height="3" fill="#F8EF00"/>
<rect x="5" y="560" width="3" height="3" fill="#F8EF00"/>
</g>
<g opacity="0.2">
<rect y="565" width="3" height="3" fill="#F8EF00"/>
<rect x="4" y="565" width="4" height="3" fill="#F8EF00"/>
</g>
<g opacity="0.2">
<rect y="570" width="3" height="3" fill="#F8EF00"/>
<rect x="4" y="570" width="4" height="3" fill="#F8EF00"/>
</g>
<g opacity="0.2">
<rect y="575" width="5" height="3" fill="#F8EF00"/>
<rect x="6" y="575" width="2" height="3" fill="#F8EF00"/>
</g>
<g opacity="0.2">
<rect y="580" width="6" height="3" fill="#F8EF00"/>
<rect x="7" y="580" width="1" height="3" fill="#F8EF00"/>
</g>
<g opacity="0.2">
<rect y="585" width="3" height="3" fill="#F8EF00"/>
<rect x="4" y="585" width="4" height="3" fill="#F8EF00"/>
</g>
<g opacity="0.2">
<rect y="590" width="4" height="3" fill="#F8EF00"/>
<rect x="5" y="590" width="3" height="3" fill="#F8EF00"/>
</g>
<g opacity="0.2">
<rect y="595" width="3" height="3" fill="#F8EF00"/>
<rect x="4" y="595" width="4" height="3" fill="#F8EF00"/>
</g>
<g opacity="0.2">
<rect y="600" width="3" height="3" fill="#F8EF00"/>
<rect x="4" y="600" width="4" height="3" fill="#F8EF00"/>
</g>
<g opacity="0.2">
<rect y="605" width="5" height="3" fill="#F8EF00"/>
<rect x="6" y="605" width="2" height="3" fill="#F8EF00"/>
</g>
<g opacity="0.2">
<rect y="610" width="6" height="3" fill="#F8EF00"/>
<rect x="7" y="610" width="1" height="3" fill="#F8EF00"/>
</g>
<g opacity="0.2">
<rect y="615" width="3" height="3" fill="#F8EF00"/>
<rect x="4" y="615" width="4" height="3" fill="#F8EF00"/>
</g>
<g opacity="0.2">
<rect y="620" width="4" height="3" fill="#F8EF00"/>
<rect x="5" y="620" width="3" height="3" fill="#F8EF00"/>
</g>
<g opacity="0.2">
<rect y="625" width="3" height="3" fill="#F8EF00"/>
<rect x="4" y="625" width="4" height="3" fill="#F8EF00"/>
</g>
<g opacity="0.2">
<rect y="630" width="3" height="3" fill="#F8EF00"/>
<rect x="4" y="630" width="4" height="3" fill="#F8EF00"/>
</g>
<g opacity="0.2">
<rect y="635" width="5" height="3" fill="#F8EF00"/>
<rect x="6" y="635" width="2" height="3" fill="#F8EF00"/>
</g>
<g opacity="0.2">
<rect y="640" width="6" height="3" fill="#F8EF00"/>
<rect x="7" y="640" width="1" height="3" fill="#F8EF00"/>
</g>
<g opacity="0.2">
<rect y="645" width="3" height="3" fill="#F8EF00"/>
<rect x="4" y="645" width="4" height="3" fill="#F8EF00"/>
</g>
<g opacity="0.2">
<rect y="650" width="4" height="3" fill="#F8EF00"/>
<rect x="5" y="650" width="3" height="3" fill="#F8EF00"/>
</g>
<g opacity="0.2">
<rect y="655" width="3" height="3" fill="#F8EF00"/>
<rect x="4" y="655" width="4" height="3" fill="#F8EF00"/>
</g>
<g opacity="0.2">
<rect y="660" width="3" height="3" fill="#F8EF00"/>
<rect x="4" y="660" width="4" height="3" fill="#F8EF00"/>
</g>
<g opacity="0.2">
<rect y="665" width="5" height="3" fill="#F8EF00"/>
<rect x="6" y="665" width="2" height="3" fill="#F8EF00"/>
</g>
<g opacity="0.2">
<rect y="670" width="6" height="3" fill="#F8EF00"/>
<rect x="7" y="670" width="1" height="3" fill="#F8EF00"/>
</g>
<g opacity="0.2">
<rect y="675" width="3" height="3" fill="#F8EF00"/>
<rect x="4" y="675" width="4" height="3" fill="#F8EF00"/>
</g>
<g opacity="0.2">
<rect y="680" width="4" height="3" fill="#F8EF00"/>
<rect x="5" y="680" width="3" height="3" fill="#F8EF00"/>
</g>
<g opacity="0.2">
<rect y="685" width="3" height="3" fill="#F8EF00"/>
<rect x="4" y="685" width="4" height="3" fill="#F8EF00"/>
</g>
<g opacity="0.2">
<rect y="690" width="3" height="3" fill="#F8EF00"/>
<rect x="4" y="690" width="4" height="3" fill="#F8EF00"/>
</g>
<g opacity="0.2">
<rect y="695" width="5" height="3" fill="#F8EF00"/>
<rect x="6" y="695" width="2" height="3" fill="#F8EF00"/>
</g>
<g opacity="0.2">
<rect y="700" width="6" height="3" fill="#F8EF00"/>
<rect x="7" y="700" width="1" height="3" fill="#F8EF00"/>
</g>
<g opacity="0.2">
<rect y="705" width="3" height="3" fill="#F8EF00"/>
<rect x="4" y="705" width="4" height="3" fill="#F8EF00"/>
</g>
<g opacity="0.2">
<rect y="710" width="4" height="3" fill="#F8EF00"/>
<rect x="5" y="710" width="3" height="3" fill="#F8EF00"/>
</g>
<g opacity="0.2">
<rect y="715" width="3" height="3" fill="#F8EF00"/>
<rect x="4" y="715" width="4" height="3" fill="#F8EF00"/>
</g>
<g opacity="0.2">
<rect y="720" width="3" height="3" fill="#F8EF00"/>
<rect x="4" y="720" width="4" height="3" fill="#F8EF00"/>
</g>
<g opacity="0.2">
<rect y="725" width="5" height="3" fill="#F8EF00"/>
<rect x="6" y="725" width="2" height="3" fill="#F8EF00"/>
</g>
<g opacity="0.2">
<rect y="730" width="6" height="3" fill="#F8EF00"/>
<rect x="7" y="730" width="1" height="3" fill="#F8EF00"/>
</g>
<g opacity="0.2">
<rect y="735" width="3" height="3" fill="#F8EF00"/>
<rect x="4" y="735" width="4" height="3" fill="#F8EF00"/>
</g>
<g opacity="0.2">
<rect y="740" width="4" height="3" fill="#F8EF00"/>
<rect x="5" y="740" width="3" height="3" fill="#F8EF00"/>
</g>
<g opacity="0.2">
<rect y="745" width="3" height="3" fill="#F8EF00"/>
<rect x="4" y="745" width="4" height="3" fill="#F8EF00"/>
</g>
<rect width="11.0296" height="9.4852" transform="translate(20.2209 140.923)" fill="#F8EF00"/>
<path d="M24.8677 145.146V144.986C24.8677 144.946 24.8837 144.916 24.9157 144.898L25.3797 144.63C25.4224 144.606 25.4571 144.594 25.4837 144.594H25.6517C25.6891 144.594 25.7077 144.612 25.7077 144.65V147.11C25.7077 147.147 25.6891 147.166 25.6517 147.166H25.4717C25.4344 147.166 25.4157 147.147 25.4157 147.11V144.906L24.9397 145.178C24.8917 145.204 24.8677 145.194 24.8677 145.146Z" fill="white"/>
</svg>
