<svg width="32" height="1014" viewBox="0 0 32 1014" fill="none" xmlns="http://www.w3.org/2000/svg">
<rect width="6" height="7" transform="translate(0.749512 503.281)" fill="#F8EF00"/>
<path d="M2.97751 508.225V507.865C2.97751 507.686 3.05218 507.539 3.20151 507.425L3.97351 506.817C4.10685 506.715 4.17351 506.59 4.17351 506.441V506.297C4.17351 506.07 4.05885 505.957 3.82951 505.957H3.58551C3.36151 505.957 3.24951 506.07 3.24951 506.297V506.461C3.24951 506.501 3.23085 506.521 3.19351 506.521H3.01351C2.97885 506.521 2.96151 506.501 2.96151 506.461V506.293C2.96151 506.109 3.01351 505.966 3.11751 505.865C3.22151 505.761 3.36551 505.709 3.54951 505.709H3.86951C4.05351 505.709 4.19751 505.761 4.30151 505.865C4.40551 505.966 4.45751 506.109 4.45751 506.293V506.457C4.45751 506.665 4.37485 506.834 4.20951 506.965L3.42551 507.585C3.33751 507.654 3.29351 507.738 3.29351 507.837V508.021H4.40951C4.44685 508.021 4.46551 508.039 4.46551 508.077V508.225C4.46551 508.262 4.44685 508.281 4.40951 508.281H3.03351C2.99618 508.281 2.97751 508.262 2.97751 508.225Z" fill="white"/>
<g opacity="0.2">
<rect x="9.74951" y="132.781" width="3" height="3" fill="#F8EF00"/>
<rect x="13.7495" y="132.781" width="4" height="3" fill="#F8EF00"/>
</g>
<g opacity="0.2">
<rect x="9.74951" y="137.781" width="5" height="3" fill="#F8EF00"/>
<rect x="15.7495" y="137.781" width="2" height="3" fill="#F8EF00"/>
</g>
<g opacity="0.2">
<rect x="9.74951" y="142.781" width="6" height="3" fill="#F8EF00"/>
<rect x="16.7495" y="142.781" width="1" height="3" fill="#F8EF00"/>
</g>
<g opacity="0.2">
<rect x="9.74951" y="147.781" width="3" height="3" fill="#F8EF00"/>
<rect x="13.7495" y="147.781" width="4" height="3" fill="#F8EF00"/>
</g>
<g opacity="0.2">
<rect x="9.74951" y="152.781" width="4" height="3" fill="#F8EF00"/>
<rect x="14.7495" y="152.781" width="3" height="3" fill="#F8EF00"/>
</g>
<g opacity="0.2">
<rect x="9.74951" y="157.781" width="3" height="3" fill="#F8EF00"/>
<rect x="13.7495" y="157.781" width="4" height="3" fill="#F8EF00"/>
</g>
<g opacity="0.2">
<rect x="9.74951" y="162.781" width="3" height="3" fill="#F8EF00"/>
<rect x="13.7495" y="162.781" width="4" height="3" fill="#F8EF00"/>
</g>
<g opacity="0.2">
<rect x="9.74951" y="167.781" width="5" height="3" fill="#F8EF00"/>
<rect x="15.7495" y="167.781" width="2" height="3" fill="#F8EF00"/>
</g>
<g opacity="0.2">
<rect x="9.74951" y="172.781" width="6" height="3" fill="#F8EF00"/>
<rect x="16.7495" y="172.781" width="1" height="3" fill="#F8EF00"/>
</g>
<g opacity="0.2">
<rect x="9.74951" y="177.781" width="3" height="3" fill="#F8EF00"/>
<rect x="13.7495" y="177.781" width="4" height="3" fill="#F8EF00"/>
</g>
<g opacity="0.2">
<rect x="9.74951" y="182.781" width="4" height="3" fill="#F8EF00"/>
<rect x="14.7495" y="182.781" width="3" height="3" fill="#F8EF00"/>
</g>
<g opacity="0.2">
<rect x="9.74951" y="187.781" width="3" height="3" fill="#F8EF00"/>
<rect x="13.7495" y="187.781" width="4" height="3" fill="#F8EF00"/>
</g>
<g opacity="0.2">
<rect x="9.74951" y="192.781" width="3" height="3" fill="#F8EF00"/>
<rect x="13.7495" y="192.781" width="4" height="3" fill="#F8EF00"/>
</g>
<g opacity="0.2">
<rect x="9.74951" y="197.781" width="5" height="3" fill="#F8EF00"/>
<rect x="15.7495" y="197.781" width="2" height="3" fill="#F8EF00"/>
</g>
<g opacity="0.2">
<rect x="9.74951" y="202.781" width="6" height="3" fill="#F8EF00"/>
<rect x="16.7495" y="202.781" width="1" height="3" fill="#F8EF00"/>
</g>
<g opacity="0.2">
<rect x="9.74951" y="207.781" width="3" height="3" fill="#F8EF00"/>
<rect x="13.7495" y="207.781" width="4" height="3" fill="#F8EF00"/>
</g>
<g opacity="0.2">
<rect x="9.74951" y="212.781" width="4" height="3" fill="#F8EF00"/>
<rect x="14.7495" y="212.781" width="3" height="3" fill="#F8EF00"/>
</g>
<g opacity="0.2">
<rect x="9.74951" y="217.781" width="3" height="3" fill="#F8EF00"/>
<rect x="13.7495" y="217.781" width="4" height="3" fill="#F8EF00"/>
</g>
<g opacity="0.2">
<rect x="9.74951" y="222.781" width="3" height="3" fill="#F8EF00"/>
<rect x="13.7495" y="222.781" width="4" height="3" fill="#F8EF00"/>
</g>
<g opacity="0.2">
<rect x="9.74951" y="227.781" width="5" height="3" fill="#F8EF00"/>
<rect x="15.7495" y="227.781" width="2" height="3" fill="#F8EF00"/>
</g>
<g opacity="0.2">
<rect x="9.74951" y="232.781" width="6" height="3" fill="#F8EF00"/>
<rect x="16.7495" y="232.781" width="1" height="3" fill="#F8EF00"/>
</g>
<rect x="9.74951" y="237.781" width="3" height="3" fill="#F8EF00"/>
<rect x="13.7495" y="237.781" width="4" height="3" fill="#F8EF00"/>
<g opacity="0.2">
<rect x="9.74951" y="242.781" width="4" height="3" fill="#F8EF00"/>
<rect x="14.7495" y="242.781" width="3" height="3" fill="#F8EF00"/>
</g>
<g opacity="0.2">
<rect x="9.74951" y="247.781" width="3" height="3" fill="#F8EF00"/>
<rect x="13.7495" y="247.781" width="4" height="3" fill="#F8EF00"/>
</g>
<g opacity="0.2">
<rect x="9.74951" y="252.781" width="3" height="3" fill="#F8EF00"/>
<rect x="13.7495" y="252.781" width="4" height="3" fill="#F8EF00"/>
</g>
<g opacity="0.2">
<rect x="9.74951" y="257.781" width="5" height="3" fill="#F8EF00"/>
<rect x="15.7495" y="257.781" width="2" height="3" fill="#F8EF00"/>
</g>
<g opacity="0.2">
<rect x="9.74951" y="262.781" width="6" height="3" fill="#F8EF00"/>
<rect x="16.7495" y="262.781" width="1" height="3" fill="#F8EF00"/>
</g>
<g opacity="0.2">
<rect x="9.74951" y="267.781" width="3" height="3" fill="#F8EF00"/>
<rect x="13.7495" y="267.781" width="4" height="3" fill="#F8EF00"/>
</g>
<g opacity="0.2">
<rect x="9.74951" y="272.781" width="4" height="3" fill="#F8EF00"/>
<rect x="14.7495" y="272.781" width="3" height="3" fill="#F8EF00"/>
</g>
<g opacity="0.2">
<rect x="9.74951" y="277.781" width="3" height="3" fill="#F8EF00"/>
<rect x="13.7495" y="277.781" width="4" height="3" fill="#F8EF00"/>
</g>
<g opacity="0.2">
<rect x="9.74951" y="282.781" width="3" height="3" fill="#F8EF00"/>
<rect x="13.7495" y="282.781" width="4" height="3" fill="#F8EF00"/>
</g>
<g opacity="0.2">
<rect x="9.74951" y="287.781" width="5" height="3" fill="#F8EF00"/>
<rect x="15.7495" y="287.781" width="2" height="3" fill="#F8EF00"/>
</g>
<g opacity="0.2">
<rect x="9.74951" y="292.781" width="6" height="3" fill="#F8EF00"/>
<rect x="16.7495" y="292.781" width="1" height="3" fill="#F8EF00"/>
</g>
<g opacity="0.2">
<rect x="9.74951" y="297.781" width="3" height="3" fill="#F8EF00"/>
<rect x="13.7495" y="297.781" width="4" height="3" fill="#F8EF00"/>
</g>
<g opacity="0.2">
<rect x="9.74951" y="302.781" width="4" height="3" fill="#F8EF00"/>
<rect x="14.7495" y="302.781" width="3" height="3" fill="#F8EF00"/>
</g>
<g opacity="0.2">
<rect x="9.74951" y="307.781" width="3" height="3" fill="#F8EF00"/>
<rect x="13.7495" y="307.781" width="4" height="3" fill="#F8EF00"/>
</g>
<g opacity="0.2">
<rect x="9.74951" y="312.781" width="3" height="3" fill="#F8EF00"/>
<rect x="13.7495" y="312.781" width="4" height="3" fill="#F8EF00"/>
</g>
<g opacity="0.2">
<rect x="9.74951" y="317.781" width="5" height="3" fill="#F8EF00"/>
<rect x="15.7495" y="317.781" width="2" height="3" fill="#F8EF00"/>
</g>
<g opacity="0.2">
<rect x="9.74951" y="322.781" width="6" height="3" fill="#F8EF00"/>
<rect x="16.7495" y="322.781" width="1" height="3" fill="#F8EF00"/>
</g>
<g opacity="0.2">
<rect x="9.74951" y="327.781" width="3" height="3" fill="#F8EF00"/>
<rect x="13.7495" y="327.781" width="4" height="3" fill="#F8EF00"/>
</g>
<g opacity="0.2">
<rect x="9.74951" y="332.781" width="4" height="3" fill="#F8EF00"/>
<rect x="14.7495" y="332.781" width="3" height="3" fill="#F8EF00"/>
</g>
<g opacity="0.2">
<rect x="9.74951" y="337.781" width="3" height="3" fill="#F8EF00"/>
<rect x="13.7495" y="337.781" width="4" height="3" fill="#F8EF00"/>
</g>
<g opacity="0.2">
<rect x="9.74951" y="342.781" width="3" height="3" fill="#F8EF00"/>
<rect x="13.7495" y="342.781" width="4" height="3" fill="#F8EF00"/>
</g>
<g opacity="0.2">
<rect x="9.74951" y="347.781" width="5" height="3" fill="#F8EF00"/>
<rect x="15.7495" y="347.781" width="2" height="3" fill="#F8EF00"/>
</g>
<g opacity="0.2">
<rect x="9.74951" y="352.781" width="6" height="3" fill="#F8EF00"/>
<rect x="16.7495" y="352.781" width="1" height="3" fill="#F8EF00"/>
</g>
<g opacity="0.2">
<rect x="9.74951" y="357.781" width="3" height="3" fill="#F8EF00"/>
<rect x="13.7495" y="357.781" width="4" height="3" fill="#F8EF00"/>
</g>
<g opacity="0.2">
<rect x="9.74951" y="362.781" width="4" height="3" fill="#F8EF00"/>
<rect x="14.7495" y="362.781" width="3" height="3" fill="#F8EF00"/>
</g>
<g opacity="0.2">
<rect x="9.74951" y="367.781" width="3" height="3" fill="#F8EF00"/>
<rect x="13.7495" y="367.781" width="4" height="3" fill="#F8EF00"/>
</g>
<g opacity="0.2">
<rect x="9.74951" y="372.781" width="3" height="3" fill="#F8EF00"/>
<rect x="13.7495" y="372.781" width="4" height="3" fill="#F8EF00"/>
</g>
<g opacity="0.2">
<rect x="9.74951" y="377.781" width="5" height="3" fill="#F8EF00"/>
<rect x="15.7495" y="377.781" width="2" height="3" fill="#F8EF00"/>
</g>
<g opacity="0.2">
<rect x="9.74951" y="382.781" width="6" height="3" fill="#F8EF00"/>
<rect x="16.7495" y="382.781" width="1" height="3" fill="#F8EF00"/>
</g>
<g opacity="0.2">
<rect x="9.74951" y="387.781" width="3" height="3" fill="#F8EF00"/>
<rect x="13.7495" y="387.781" width="4" height="3" fill="#F8EF00"/>
</g>
<g opacity="0.2">
<rect x="9.74951" y="392.781" width="4" height="3" fill="#F8EF00"/>
<rect x="14.7495" y="392.781" width="3" height="3" fill="#F8EF00"/>
</g>
<g opacity="0.2">
<rect x="9.74951" y="397.781" width="3" height="3" fill="#F8EF00"/>
<rect x="13.7495" y="397.781" width="4" height="3" fill="#F8EF00"/>
</g>
<g opacity="0.2">
<rect x="9.74951" y="402.781" width="3" height="3" fill="#F8EF00"/>
<rect x="13.7495" y="402.781" width="4" height="3" fill="#F8EF00"/>
</g>
<g opacity="0.2">
<rect x="9.74951" y="407.781" width="5" height="3" fill="#F8EF00"/>
<rect x="15.7495" y="407.781" width="2" height="3" fill="#F8EF00"/>
</g>
<g opacity="0.2">
<rect x="9.74951" y="412.781" width="6" height="3" fill="#F8EF00"/>
<rect x="16.7495" y="412.781" width="1" height="3" fill="#F8EF00"/>
</g>
<g opacity="0.2">
<rect x="9.74951" y="417.781" width="3" height="3" fill="#F8EF00"/>
<rect x="13.7495" y="417.781" width="4" height="3" fill="#F8EF00"/>
</g>
<g opacity="0.2">
<rect x="9.74951" y="422.781" width="4" height="3" fill="#F8EF00"/>
<rect x="14.7495" y="422.781" width="3" height="3" fill="#F8EF00"/>
</g>
<g opacity="0.2">
<rect x="9.74951" y="427.781" width="3" height="3" fill="#F8EF00"/>
<rect x="13.7495" y="427.781" width="4" height="3" fill="#F8EF00"/>
</g>
<g opacity="0.2">
<rect x="9.74951" y="432.781" width="3" height="3" fill="#F8EF00"/>
<rect x="13.7495" y="432.781" width="4" height="3" fill="#F8EF00"/>
</g>
<g opacity="0.2">
<rect x="9.74951" y="437.781" width="5" height="3" fill="#F8EF00"/>
<rect x="15.7495" y="437.781" width="2" height="3" fill="#F8EF00"/>
</g>
<g opacity="0.2">
<rect x="9.74951" y="442.781" width="6" height="3" fill="#F8EF00"/>
<rect x="16.7495" y="442.781" width="1" height="3" fill="#F8EF00"/>
</g>
<g opacity="0.2">
<rect x="9.74951" y="447.781" width="3" height="3" fill="#F8EF00"/>
<rect x="13.7495" y="447.781" width="4" height="3" fill="#F8EF00"/>
</g>
<g opacity="0.2">
<rect x="9.74951" y="452.781" width="4" height="3" fill="#F8EF00"/>
<rect x="14.7495" y="452.781" width="3" height="3" fill="#F8EF00"/>
</g>
<g opacity="0.2">
<rect x="9.74951" y="457.781" width="3" height="3" fill="#F8EF00"/>
<rect x="13.7495" y="457.781" width="4" height="3" fill="#F8EF00"/>
</g>
<g opacity="0.2">
<rect x="9.74951" y="462.781" width="3" height="3" fill="#F8EF00"/>
<rect x="13.7495" y="462.781" width="4" height="3" fill="#F8EF00"/>
</g>
<g opacity="0.2">
<rect x="9.74951" y="467.781" width="5" height="3" fill="#F8EF00"/>
<rect x="15.7495" y="467.781" width="2" height="3" fill="#F8EF00"/>
</g>
<g opacity="0.2">
<rect x="9.74951" y="472.781" width="6" height="3" fill="#F8EF00"/>
<rect x="16.7495" y="472.781" width="1" height="3" fill="#F8EF00"/>
</g>
<g opacity="0.2">
<rect x="9.74951" y="477.781" width="3" height="3" fill="#F8EF00"/>
<rect x="13.7495" y="477.781" width="4" height="3" fill="#F8EF00"/>
</g>
<g opacity="0.2">
<rect x="9.74951" y="482.781" width="4" height="3" fill="#F8EF00"/>
<rect x="14.7495" y="482.781" width="3" height="3" fill="#F8EF00"/>
</g>
<g opacity="0.2">
<rect x="9.74951" y="487.781" width="3" height="3" fill="#F8EF00"/>
<rect x="13.7495" y="487.781" width="4" height="3" fill="#F8EF00"/>
</g>
<g opacity="0.2">
<rect x="9.74951" y="492.781" width="3" height="3" fill="#F8EF00"/>
<rect x="13.7495" y="492.781" width="4" height="3" fill="#F8EF00"/>
</g>
<g opacity="0.2">
<rect x="9.74951" y="497.781" width="5" height="3" fill="#F8EF00"/>
<rect x="15.7495" y="497.781" width="2" height="3" fill="#F8EF00"/>
</g>
<g opacity="0.2">
<rect x="9.74951" y="502.781" width="6" height="3" fill="#F8EF00"/>
<rect x="16.7495" y="502.781" width="1" height="3" fill="#F8EF00"/>
</g>
<rect x="9.74951" y="507.781" width="3" height="3" fill="#F8EF00"/>
<rect x="13.7495" y="507.781" width="4" height="3" fill="#F8EF00"/>
<g opacity="0.2">
<rect x="9.74951" y="512.781" width="4" height="3" fill="#F8EF00"/>
<rect x="14.7495" y="512.781" width="3" height="3" fill="#F8EF00"/>
</g>
<g opacity="0.2">
<rect x="9.74951" y="517.781" width="3" height="3" fill="#F8EF00"/>
<rect x="13.7495" y="517.781" width="4" height="3" fill="#F8EF00"/>
</g>
<g opacity="0.2">
<rect x="9.74951" y="522.781" width="3" height="3" fill="#F8EF00"/>
<rect x="13.7495" y="522.781" width="4" height="3" fill="#F8EF00"/>
</g>
<g opacity="0.2">
<rect x="9.74951" y="527.781" width="5" height="3" fill="#F8EF00"/>
<rect x="15.7495" y="527.781" width="2" height="3" fill="#F8EF00"/>
</g>
<g opacity="0.2">
<rect x="9.74951" y="532.781" width="6" height="3" fill="#F8EF00"/>
<rect x="16.7495" y="532.781" width="1" height="3" fill="#F8EF00"/>
</g>
<g opacity="0.2">
<rect x="9.74951" y="537.781" width="3" height="3" fill="#F8EF00"/>
<rect x="13.7495" y="537.781" width="4" height="3" fill="#F8EF00"/>
</g>
<g opacity="0.2">
<rect x="9.74951" y="542.781" width="4" height="3" fill="#F8EF00"/>
<rect x="14.7495" y="542.781" width="3" height="3" fill="#F8EF00"/>
</g>
<g opacity="0.2">
<rect x="9.74951" y="547.781" width="3" height="3" fill="#F8EF00"/>
<rect x="13.7495" y="547.781" width="4" height="3" fill="#F8EF00"/>
</g>
<g opacity="0.2">
<rect x="9.74951" y="552.781" width="3" height="3" fill="#F8EF00"/>
<rect x="13.7495" y="552.781" width="4" height="3" fill="#F8EF00"/>
</g>
<g opacity="0.2">
<rect x="9.74951" y="557.781" width="5" height="3" fill="#F8EF00"/>
<rect x="15.7495" y="557.781" width="2" height="3" fill="#F8EF00"/>
</g>
<g opacity="0.2">
<rect x="9.74951" y="562.781" width="6" height="3" fill="#F8EF00"/>
<rect x="16.7495" y="562.781" width="1" height="3" fill="#F8EF00"/>
</g>
<g opacity="0.2">
<rect x="9.74951" y="567.781" width="3" height="3" fill="#F8EF00"/>
<rect x="13.7495" y="567.781" width="4" height="3" fill="#F8EF00"/>
</g>
<g opacity="0.2">
<rect x="9.74951" y="572.781" width="4" height="3" fill="#F8EF00"/>
<rect x="14.7495" y="572.781" width="3" height="3" fill="#F8EF00"/>
</g>
<g opacity="0.2">
<rect x="9.74951" y="577.781" width="3" height="3" fill="#F8EF00"/>
<rect x="13.7495" y="577.781" width="4" height="3" fill="#F8EF00"/>
</g>
<g opacity="0.2">
<rect x="9.74951" y="582.781" width="3" height="3" fill="#F8EF00"/>
<rect x="13.7495" y="582.781" width="4" height="3" fill="#F8EF00"/>
</g>
<g opacity="0.2">
<rect x="9.74951" y="587.781" width="5" height="3" fill="#F8EF00"/>
<rect x="15.7495" y="587.781" width="2" height="3" fill="#F8EF00"/>
</g>
<g opacity="0.2">
<rect x="9.74951" y="592.781" width="6" height="3" fill="#F8EF00"/>
<rect x="16.7495" y="592.781" width="1" height="3" fill="#F8EF00"/>
</g>
<g opacity="0.2">
<rect x="9.74951" y="597.781" width="3" height="3" fill="#F8EF00"/>
<rect x="13.7495" y="597.781" width="4" height="3" fill="#F8EF00"/>
</g>
<g opacity="0.2">
<rect x="9.74951" y="602.781" width="4" height="3" fill="#F8EF00"/>
<rect x="14.7495" y="602.781" width="3" height="3" fill="#F8EF00"/>
</g>
<g opacity="0.2">
<rect x="9.74951" y="607.781" width="3" height="3" fill="#F8EF00"/>
<rect x="13.7495" y="607.781" width="4" height="3" fill="#F8EF00"/>
</g>
<g opacity="0.2">
<rect x="9.74951" y="612.781" width="3" height="3" fill="#F8EF00"/>
<rect x="13.7495" y="612.781" width="4" height="3" fill="#F8EF00"/>
</g>
<g opacity="0.2">
<rect x="9.74951" y="617.781" width="5" height="3" fill="#F8EF00"/>
<rect x="15.7495" y="617.781" width="2" height="3" fill="#F8EF00"/>
</g>
<g opacity="0.2">
<rect x="9.74951" y="622.781" width="6" height="3" fill="#F8EF00"/>
<rect x="16.7495" y="622.781" width="1" height="3" fill="#F8EF00"/>
</g>
<g opacity="0.2">
<rect x="9.74951" y="627.781" width="3" height="3" fill="#F8EF00"/>
<rect x="13.7495" y="627.781" width="4" height="3" fill="#F8EF00"/>
</g>
<g opacity="0.2">
<rect x="9.74951" y="632.781" width="4" height="3" fill="#F8EF00"/>
<rect x="14.7495" y="632.781" width="3" height="3" fill="#F8EF00"/>
</g>
<rect x="9.74951" y="637.781" width="3" height="3" fill="#F8EF00"/>
<rect x="13.7495" y="637.781" width="4" height="3" fill="#F8EF00"/>
<g opacity="0.2">
<rect x="9.74951" y="642.781" width="3" height="3" fill="#F8EF00"/>
<rect x="13.7495" y="642.781" width="4" height="3" fill="#F8EF00"/>
</g>
<g opacity="0.2">
<rect x="9.74951" y="647.781" width="5" height="3" fill="#F8EF00"/>
<rect x="15.7495" y="647.781" width="2" height="3" fill="#F8EF00"/>
</g>
<g opacity="0.2">
<rect x="9.74951" y="652.781" width="6" height="3" fill="#F8EF00"/>
<rect x="16.7495" y="652.781" width="1" height="3" fill="#F8EF00"/>
</g>
<g opacity="0.2">
<rect x="9.74951" y="657.781" width="3" height="3" fill="#F8EF00"/>
<rect x="13.7495" y="657.781" width="4" height="3" fill="#F8EF00"/>
</g>
<g opacity="0.2">
<rect x="9.74951" y="662.781" width="4" height="3" fill="#F8EF00"/>
<rect x="14.7495" y="662.781" width="3" height="3" fill="#F8EF00"/>
</g>
<g opacity="0.2">
<rect x="9.74951" y="667.781" width="3" height="3" fill="#F8EF00"/>
<rect x="13.7495" y="667.781" width="4" height="3" fill="#F8EF00"/>
</g>
<g opacity="0.2">
<rect x="9.74951" y="672.781" width="3" height="3" fill="#F8EF00"/>
<rect x="13.7495" y="672.781" width="4" height="3" fill="#F8EF00"/>
</g>
<g opacity="0.2">
<rect x="9.74951" y="677.781" width="5" height="3" fill="#F8EF00"/>
<rect x="15.7495" y="677.781" width="2" height="3" fill="#F8EF00"/>
</g>
<g opacity="0.2">
<rect x="9.74951" y="682.781" width="6" height="3" fill="#F8EF00"/>
<rect x="16.7495" y="682.781" width="1" height="3" fill="#F8EF00"/>
</g>
<g opacity="0.2">
<rect x="9.74951" y="687.781" width="3" height="3" fill="#F8EF00"/>
<rect x="13.7495" y="687.781" width="4" height="3" fill="#F8EF00"/>
</g>
<g opacity="0.2">
<rect x="9.74951" y="692.781" width="4" height="3" fill="#F8EF00"/>
<rect x="14.7495" y="692.781" width="3" height="3" fill="#F8EF00"/>
</g>
<g opacity="0.2">
<rect x="9.74951" y="697.781" width="3" height="3" fill="#F8EF00"/>
<rect x="13.7495" y="697.781" width="4" height="3" fill="#F8EF00"/>
</g>
<g opacity="0.2">
<rect x="9.74951" y="702.781" width="3" height="3" fill="#F8EF00"/>
<rect x="13.7495" y="702.781" width="4" height="3" fill="#F8EF00"/>
</g>
<g opacity="0.2">
<rect x="9.74951" y="707.781" width="5" height="3" fill="#F8EF00"/>
<rect x="15.7495" y="707.781" width="2" height="3" fill="#F8EF00"/>
</g>
<g opacity="0.2">
<rect x="9.74951" y="712.781" width="6" height="3" fill="#F8EF00"/>
<rect x="16.7495" y="712.781" width="1" height="3" fill="#F8EF00"/>
</g>
<g opacity="0.2">
<rect x="9.74951" y="717.781" width="3" height="3" fill="#F8EF00"/>
<rect x="13.7495" y="717.781" width="4" height="3" fill="#F8EF00"/>
</g>
<g opacity="0.2">
<rect x="9.74951" y="722.781" width="4" height="3" fill="#F8EF00"/>
<rect x="14.7495" y="722.781" width="3" height="3" fill="#F8EF00"/>
</g>
<g opacity="0.2">
<rect x="9.74951" y="727.781" width="3" height="3" fill="#F8EF00"/>
<rect x="13.7495" y="727.781" width="4" height="3" fill="#F8EF00"/>
</g>
<g opacity="0.2">
<rect x="9.74951" y="732.781" width="3" height="3" fill="#F8EF00"/>
<rect x="13.7495" y="732.781" width="4" height="3" fill="#F8EF00"/>
</g>
<g opacity="0.2">
<rect x="9.74951" y="737.781" width="5" height="3" fill="#F8EF00"/>
<rect x="15.7495" y="737.781" width="2" height="3" fill="#F8EF00"/>
</g>
<g opacity="0.2">
<rect x="9.74951" y="742.781" width="6" height="3" fill="#F8EF00"/>
<rect x="16.7495" y="742.781" width="1" height="3" fill="#F8EF00"/>
</g>
<g opacity="0.2">
<rect x="9.74951" y="747.781" width="3" height="3" fill="#F8EF00"/>
<rect x="13.7495" y="747.781" width="4" height="3" fill="#F8EF00"/>
</g>
<g opacity="0.2">
<rect x="9.74951" y="752.781" width="4" height="3" fill="#F8EF00"/>
<rect x="14.7495" y="752.781" width="3" height="3" fill="#F8EF00"/>
</g>
<g opacity="0.2">
<rect x="9.74951" y="757.781" width="3" height="3" fill="#F8EF00"/>
<rect x="13.7495" y="757.781" width="4" height="3" fill="#F8EF00"/>
</g>
<g opacity="0.2">
<rect x="9.74951" y="762.781" width="3" height="3" fill="#F8EF00"/>
<rect x="13.7495" y="762.781" width="4" height="3" fill="#F8EF00"/>
</g>
<g opacity="0.2">
<rect x="9.74951" y="767.781" width="5" height="3" fill="#F8EF00"/>
<rect x="15.7495" y="767.781" width="2" height="3" fill="#F8EF00"/>
</g>
<g opacity="0.2">
<rect x="9.74951" y="772.781" width="6" height="3" fill="#F8EF00"/>
<rect x="16.7495" y="772.781" width="1" height="3" fill="#F8EF00"/>
</g>
<g opacity="0.2">
<rect x="9.74951" y="777.781" width="3" height="3" fill="#F8EF00"/>
<rect x="13.7495" y="777.781" width="4" height="3" fill="#F8EF00"/>
</g>
<g opacity="0.2">
<rect x="9.74951" y="782.781" width="4" height="3" fill="#F8EF00"/>
<rect x="14.7495" y="782.781" width="3" height="3" fill="#F8EF00"/>
</g>
<g opacity="0.2">
<rect x="9.74951" y="787.781" width="3" height="3" fill="#F8EF00"/>
<rect x="13.7495" y="787.781" width="4" height="3" fill="#F8EF00"/>
</g>
<g opacity="0.2">
<rect x="9.74951" y="792.781" width="3" height="3" fill="#F8EF00"/>
<rect x="13.7495" y="792.781" width="4" height="3" fill="#F8EF00"/>
</g>
<g opacity="0.2">
<rect x="9.74951" y="797.781" width="5" height="3" fill="#F8EF00"/>
<rect x="15.7495" y="797.781" width="2" height="3" fill="#F8EF00"/>
</g>
<g opacity="0.2">
<rect x="9.74951" y="802.781" width="6" height="3" fill="#F8EF00"/>
<rect x="16.7495" y="802.781" width="1" height="3" fill="#F8EF00"/>
</g>
<g opacity="0.2">
<rect x="9.74951" y="807.781" width="3" height="3" fill="#F8EF00"/>
<rect x="13.7495" y="807.781" width="4" height="3" fill="#F8EF00"/>
</g>
<g opacity="0.2">
<rect x="9.74951" y="812.781" width="4" height="3" fill="#F8EF00"/>
<rect x="14.7495" y="812.781" width="3" height="3" fill="#F8EF00"/>
</g>
<g opacity="0.2">
<rect x="9.74951" y="817.781" width="3" height="3" fill="#F8EF00"/>
<rect x="13.7495" y="817.781" width="4" height="3" fill="#F8EF00"/>
</g>
<g opacity="0.2">
<rect x="9.74951" y="822.781" width="3" height="3" fill="#F8EF00"/>
<rect x="13.7495" y="822.781" width="4" height="3" fill="#F8EF00"/>
</g>
<g opacity="0.2">
<rect x="9.74951" y="827.781" width="5" height="3" fill="#F8EF00"/>
<rect x="15.7495" y="827.781" width="2" height="3" fill="#F8EF00"/>
</g>
<g opacity="0.2">
<rect x="9.74951" y="832.781" width="6" height="3" fill="#F8EF00"/>
<rect x="16.7495" y="832.781" width="1" height="3" fill="#F8EF00"/>
</g>
<g opacity="0.2">
<rect x="9.74951" y="837.781" width="3" height="3" fill="#F8EF00"/>
<rect x="13.7495" y="837.781" width="4" height="3" fill="#F8EF00"/>
</g>
<g opacity="0.2">
<rect x="9.74951" y="842.781" width="4" height="3" fill="#F8EF00"/>
<rect x="14.7495" y="842.781" width="3" height="3" fill="#F8EF00"/>
</g>
<g opacity="0.2">
<rect x="9.74951" y="847.781" width="3" height="3" fill="#F8EF00"/>
<rect x="13.7495" y="847.781" width="4" height="3" fill="#F8EF00"/>
</g>
<g opacity="0.2">
<rect x="9.74951" y="852.781" width="3" height="3" fill="#F8EF00"/>
<rect x="13.7495" y="852.781" width="4" height="3" fill="#F8EF00"/>
</g>
<g opacity="0.2">
<rect x="9.74951" y="857.781" width="5" height="3" fill="#F8EF00"/>
<rect x="15.7495" y="857.781" width="2" height="3" fill="#F8EF00"/>
</g>
<g opacity="0.2">
<rect x="9.74951" y="862.781" width="6" height="3" fill="#F8EF00"/>
<rect x="16.7495" y="862.781" width="1" height="3" fill="#F8EF00"/>
</g>
<g opacity="0.2">
<rect x="9.74951" y="867.781" width="3" height="3" fill="#F8EF00"/>
<rect x="13.7495" y="867.781" width="4" height="3" fill="#F8EF00"/>
</g>
<g opacity="0.2">
<rect x="9.74951" y="872.781" width="4" height="3" fill="#F8EF00"/>
<rect x="14.7495" y="872.781" width="3" height="3" fill="#F8EF00"/>
</g>
<g opacity="0.2">
<rect x="9.74951" y="877.781" width="3" height="3" fill="#F8EF00"/>
<rect x="13.7495" y="877.781" width="4" height="3" fill="#F8EF00"/>
</g>
</svg>
